<svg width="86" height="10" viewBox="0 0 86 10" fill="none" xmlns="http://www.w3.org/2000/svg">
<path d="M39.2238 8.91809C38.5703 8.53442 38.0307 7.97397 37.6632 7.29718C37.292 6.59107 37.0977 5.80054 37.0977 4.9973C37.0977 4.19406 37.292 3.40353 37.6632 2.69742C38.0304 2.02041 38.57 1.45989 39.2238 1.07652C39.9014 0.678557 40.6698 0.474616 41.4495 0.485787C42.0849 0.479711 42.7143 0.612282 43.2964 0.874804C43.8284 1.11201 44.299 1.47474 44.6703 1.93379C45.0371 2.39112 45.2932 2.93189 45.4174 3.51147H43.7748C43.5896 3.08045 43.2862 2.7148 42.9019 2.45969C42.4733 2.20116 41.9861 2.06387 41.4896 2.06165C40.993 2.05944 40.5047 2.19239 40.0739 2.44708C39.6601 2.70189 39.3206 3.06711 39.0911 3.50427C38.8539 3.96678 38.7299 4.48213 38.7299 5.00541C38.7299 5.52869 38.8539 6.04403 39.0911 6.50654C39.321 6.94446 39.6625 7.30919 40.0788 7.56124C40.4951 7.8133 40.9703 7.94308 41.453 7.93654C41.9632 7.95444 42.4673 7.81661 42.9019 7.54032C43.2863 7.28448 43.5897 6.91825 43.7748 6.48673H45.4174C45.2931 7.0703 45.0359 7.61495 44.6671 8.07563C44.2982 8.53631 43.8284 8.89979 43.2964 9.13601C42.7135 9.39482 42.0841 9.5237 41.4495 9.51422C40.6695 9.52296 39.9012 9.3172 39.2238 8.91809Z" fill="#6D4AFF"/>
<path d="M50.4594 3.5942C50.9215 3.84427 51.3035 4.22711 51.5591 4.69642C51.832 5.20642 51.9693 5.78176 51.9572 6.36415V9.36642H50.5606L50.4611 8.46592C50.2792 8.79189 50.0125 9.05888 49.6913 9.23675C49.346 9.42149 48.9612 9.51377 48.5723 9.5051C48.0751 9.51021 47.5863 9.37306 47.1601 9.10888C46.7296 8.83959 46.3794 8.45327 46.1476 7.99225C45.8921 7.4855 45.7637 6.92083 45.774 6.34974C45.7669 5.78759 45.9068 5.23386 46.179 4.74684C46.4427 4.27268 46.8273 3.88213 47.291 3.61761C47.7758 3.34361 48.3216 3.20515 48.8743 3.21599C49.4249 3.20434 49.9696 3.33432 50.4594 3.5942ZM49.9479 7.63385C50.2505 7.33489 50.4018 6.90745 50.4018 6.35154C50.4211 5.89193 50.2644 5.44293 49.9654 5.10164C49.8272 4.94545 49.6581 4.82168 49.4696 4.73872C49.2811 4.65576 49.0775 4.61554 48.8726 4.62077C48.666 4.6161 48.4608 4.65707 48.2708 4.74094C48.0808 4.82481 47.9104 4.94964 47.7711 5.10704C47.4876 5.45719 47.3323 5.89892 47.3323 6.35514C47.3323 6.81136 47.4876 7.2531 47.7711 7.60324C47.9114 7.7591 48.0825 7.88217 48.2728 7.96418C48.4631 8.04619 48.6682 8.08524 48.8743 8.0787C49.0729 8.0816 49.2701 8.04376 49.4544 7.9674C49.6387 7.89103 49.8064 7.77766 49.9479 7.63385Z" fill="#6D4AFF"/>
<path d="M54.5555 9.36659H52.9844V0.61731H54.5555V9.36659Z" fill="#6D4AFF"/>
<path d="M61.281 6.90281H56.8663C56.9362 7.26739 57.1254 7.59612 57.4022 7.83393C57.6785 8.05591 58.021 8.1718 58.371 8.16171C58.6515 8.17263 58.9311 8.12231 59.1915 8.01403C59.3982 7.91642 59.5686 7.75206 59.6768 7.54577H61.1327C60.9811 8.14526 60.6174 8.66444 60.1132 9.00098C59.6061 9.33934 59.0133 9.51541 58.4094 9.50706C57.8558 9.51902 57.309 9.37985 56.8244 9.10364C56.3715 8.84223 56.0003 8.453 55.7543 7.98161C55.4976 7.48289 55.3673 6.92531 55.3755 6.36071C55.366 5.7953 55.4983 5.23697 55.7595 4.73981C56.0084 4.27058 56.3789 3.88208 56.8296 3.61778C57.2998 3.34526 57.8318 3.20664 58.371 3.21616C58.8995 3.20871 59.42 3.35072 59.8758 3.62679C60.3187 3.8969 60.6811 4.28757 60.9232 4.75602C61.1792 5.24851 61.3096 5.80011 61.302 6.35891C61.3049 6.54047 61.2979 6.72206 61.281 6.90281ZM57.39 4.88929C57.1215 5.11556 56.933 5.4271 56.854 5.77538H59.8217C59.7755 5.43169 59.6038 5.11921 59.3416 4.9019C59.0673 4.6692 58.7208 4.54642 58.3658 4.5561C58.0127 4.54586 57.6674 4.66377 57.39 4.88929Z" fill="#6D4AFF"/>
<path d="M61.8772 5.94098C61.8627 5.57732 61.9195 5.21438 62.0443 4.87395C62.1691 4.53351 62.3593 4.2226 62.6034 3.95988C63.0887 3.464 63.7573 3.21606 64.6092 3.21606C65.4611 3.21606 66.1285 3.4682 66.6115 3.97249C66.8547 4.23565 67.0439 4.54676 67.1678 4.88718C67.2917 5.22759 67.3477 5.59031 67.3324 5.95359V9.3755H65.7613V6.06885C65.7855 5.69583 65.6871 5.32528 65.482 5.01707C65.37 4.89735 65.2358 4.80213 65.0873 4.7371C64.9388 4.67206 64.7792 4.63855 64.6179 4.63855C64.4566 4.63855 64.297 4.67206 64.1485 4.7371C64.0001 4.80213 63.8658 4.89735 63.7538 5.01707C63.542 5.32462 63.4385 5.69766 63.4605 6.07426V9.3719H61.8894L61.8772 5.94098Z" fill="#6D4AFF"/>
<path d="M72.4653 0.61731H74.0364V9.36659H72.6067L72.4968 8.43907C72.3245 8.76964 72.0632 9.04172 71.7444 9.22251C71.3865 9.4172 70.9862 9.51393 70.5818 9.50347C70.1249 9.50515 69.6759 9.38079 69.2812 9.14326C68.8578 8.88719 68.5134 8.51251 68.288 8.06266C68.0234 7.5365 67.8924 6.94968 67.9074 6.35711C67.8924 5.76626 68.0234 5.18119 68.288 4.65696C68.5144 4.20786 68.8586 3.83343 69.2812 3.57636C69.6762 3.33964 70.125 3.21534 70.5818 3.21616C70.9734 3.20724 71.3613 3.29557 71.713 3.4737C72.0286 3.63158 72.2907 3.88387 72.4653 4.19771V0.61731ZM72.0307 7.62862C72.1825 7.45682 72.2993 7.2552 72.374 7.03581C72.4487 6.81642 72.4797 6.58376 72.4653 6.35171C72.4653 5.8042 72.3187 5.38397 72.0254 5.091C71.8845 4.94712 71.7173 4.83344 71.5335 4.75651C71.3498 4.67958 71.1531 4.64092 70.9548 4.64276C70.7565 4.6446 70.5606 4.68691 70.3782 4.76724C70.1958 4.84757 70.0307 4.96434 69.8922 5.11081C69.7436 5.27937 69.6287 5.47655 69.5541 5.69104C69.4795 5.90553 69.4467 6.13311 69.4576 6.36071C69.4349 6.82375 69.5912 7.27715 69.8922 7.62142C70.0326 7.77436 70.2026 7.8951 70.3912 7.97578C70.5797 8.05646 70.7827 8.09527 70.9868 8.08968C71.1821 8.091 71.3757 8.05074 71.5553 7.97141C71.7349 7.89208 71.8967 7.77538 72.0307 7.62862Z" fill="#6D4AFF"/>
<path d="M79.4767 3.5942C79.9388 3.84427 80.3208 4.22711 80.5764 4.69642C80.8493 5.20642 80.9866 5.78176 80.9745 6.36415V9.36642H79.5779L79.4784 8.46592C79.2954 8.7916 79.0283 9.05845 78.7068 9.23675C78.3616 9.42164 77.9768 9.51392 77.5879 9.50509C77.0912 9.51045 76.6029 9.37327 76.1774 9.10887C75.746 8.84021 75.395 8.45378 75.1632 7.99225C74.9082 7.48531 74.7798 6.92077 74.7896 6.34974C74.7824 5.78759 74.9224 5.23386 75.1946 4.74684C75.4585 4.27398 75.8424 3.88422 76.3048 3.61941C76.7905 3.34417 77.3376 3.20507 77.8916 3.21599C78.4422 3.20434 78.987 3.33432 79.4767 3.5942ZM78.9669 7.63385C79.2695 7.33489 79.4208 6.90745 79.4208 6.35154C79.4399 5.8923 79.2839 5.44361 78.9861 5.10164C78.8444 4.94882 78.6741 4.82721 78.4855 4.74412C78.297 4.66103 78.094 4.6182 77.889 4.6182C77.684 4.6182 77.4811 4.66103 77.2925 4.74412C77.1039 4.82721 76.9336 4.94882 76.7919 5.10164C76.5087 5.45193 76.3536 5.89361 76.3536 6.34974C76.3536 6.80586 76.5087 7.24754 76.7919 7.59783C76.9314 7.75421 77.1017 7.87802 77.2913 7.96095C77.481 8.04389 77.6857 8.08403 77.8916 8.0787C78.0905 8.08204 78.2881 8.04441 78.4727 7.96803C78.6574 7.89165 78.8254 7.77804 78.9669 7.63385Z" fill="#6D4AFF"/>
<path d="M81.76 5.81319C81.7326 5.12606 81.9619 4.45429 82.4007 3.93655C82.8266 3.45628 83.4335 3.21615 84.2214 3.21615C84.4852 3.21428 84.7483 3.24451 85.0052 3.3062V4.76861C84.8813 4.76861 84.7399 4.756 84.5827 4.756C84.1521 4.756 83.8374 4.85866 83.6383 5.06398C83.5308 5.19177 83.4489 5.34042 83.3977 5.50122C83.3464 5.66203 83.3268 5.83176 83.3398 6.0005V9.37378H81.7687L81.76 5.81319Z" fill="#6D4AFF"/>
<path d="M4.89773 0.595581H0.980469V9.35026H2.53236V7.17825C2.53236 6.96617 2.61402 6.76278 2.75937 6.61281C2.90473 6.46285 3.10187 6.3786 3.30743 6.3786H4.89773C5.6385 6.3786 6.34892 6.07501 6.87272 5.5346C7.39652 4.9942 7.69079 4.26125 7.69079 3.497C7.69332 3.11692 7.62295 2.74007 7.48372 2.38817C7.34449 2.03627 7.13915 1.71626 6.87954 1.44658C6.61993 1.17689 6.31117 0.962861 5.97104 0.81681C5.63092 0.670758 5.26614 0.595572 4.89773 0.595581ZM6.11969 3.47719C6.11831 3.83894 5.97781 4.18533 5.72905 4.44028C5.4803 4.69524 5.14363 4.8379 4.79299 4.83695H2.52363V2.10122H4.79299C4.96699 2.10122 5.13928 2.13658 5.30003 2.20527C5.46078 2.27397 5.60684 2.37466 5.72988 2.50159C5.85291 2.62853 5.95051 2.77922 6.01709 2.94507C6.08368 3.11092 6.11795 3.28867 6.11795 3.46818L6.11969 3.47719Z" fill="#1B1340"/>
<path d="M7.93359 9.35034V5.878C7.93359 4.46062 8.7366 3.33139 10.3409 3.33139C10.5989 3.32754 10.8564 3.35719 11.1072 3.41963V4.84963C10.9239 4.83703 10.7581 4.83703 10.6935 4.83703C9.84335 4.83703 9.47152 5.23685 9.47152 6.0527V9.35034H7.93359Z" fill="#1B1340"/>
<path d="M11.5703 6.40393C11.5703 4.66056 12.8464 3.33142 14.6217 3.33142C16.3971 3.33142 17.6714 4.65696 17.6714 6.40393C17.6714 8.15091 16.3953 9.48905 14.6217 9.48905C12.8481 9.48905 11.5703 8.14731 11.5703 6.40393ZM16.1527 6.40393C16.1527 5.41338 15.5085 4.71099 14.6217 4.71099C13.7349 4.71099 13.089 5.41338 13.089 6.40393C13.089 7.39449 13.7332 8.09688 14.6217 8.09688C15.5103 8.09688 16.1527 7.40709 16.1527 6.40393Z" fill="#1B1340"/>
<path d="M22.1426 4.72344H20.4789V6.91706C20.4789 7.68249 20.746 8.03369 21.5106 8.03369C21.5839 8.03369 21.7672 8.03369 21.9977 8.02108V9.3124C21.7055 9.40066 21.4031 9.44732 21.0987 9.45108C19.8104 9.45108 18.934 8.64783 18.934 7.13138V4.72344H17.9023V3.46274H18.159C18.3645 3.46274 18.5617 3.37849 18.707 3.22853C18.8524 3.07856 18.934 2.87517 18.934 2.66309V1.46362H20.4789V3.45733H22.1426V4.72344Z" fill="#1B1340"/>
<path d="M22.6055 6.40393C22.6055 4.66056 23.8815 3.33142 25.6551 3.33142C27.4287 3.33142 28.7066 4.65696 28.7066 6.40393C28.7066 8.15091 27.4305 9.48905 25.6551 9.48905C23.8798 9.48905 22.6055 8.14731 22.6055 6.40393ZM27.1878 6.40393C27.1878 5.41338 26.5437 4.71099 25.6551 4.71099C24.7666 4.71099 24.1242 5.41338 24.1242 6.40393C24.1242 7.39449 24.7683 8.09688 25.6551 8.09688C26.5419 8.09688 27.1878 7.40709 27.1878 6.40393Z" fill="#1B1340"/>
<path d="M29.5078 9.35038V6.00231C29.5078 4.44804 30.4679 3.33142 32.1822 3.33142C33.8964 3.33142 34.8443 4.44804 34.8443 6.00231V9.35038H33.3133V6.12838C33.3133 5.2621 32.9363 4.7236 32.1822 4.7236C31.428 4.7236 31.0527 5.2639 31.0527 6.12838V9.35038H29.5078Z" fill="#1B1340"/>
</svg>
