<svg width="63" height="10" viewBox="0 0 63 10" fill="none" xmlns="http://www.w3.org/2000/svg">
<path d="M41.7281 1.29884C42.3784 1.66412 42.9181 2.20282 43.2888 2.85677C43.6563 3.52675 43.8492 4.28094 43.8492 5.04783C43.8492 5.81472 43.6563 6.5689 43.2888 7.23889C42.9199 7.89705 42.3801 8.43966 41.7281 8.80749C41.031 9.19576 40.246 9.39197 39.451 9.3766H36.6484V0.727953H39.451C40.2461 0.713127 41.0312 0.90995 41.7281 1.29884ZM39.5456 7.83467C40.0208 7.84356 40.4891 7.71949 40.8994 7.47606C41.3097 7.23263 41.6461 6.87923 41.8718 6.45459C42.0972 6.02134 42.2151 5.53874 42.2151 5.04872C42.2151 4.5587 42.0972 4.0761 41.8718 3.64285C41.6505 3.22851 41.3231 2.88257 40.9241 2.64157C40.5068 2.39223 40.0298 2.26483 39.5456 2.27343H38.2477V7.82223L39.5456 7.83467Z" fill="#6D4AFF"/>
<path d="M44.5491 5.85875C44.5216 5.18021 44.7517 4.51685 45.1919 4.00559C45.624 3.53134 46.233 3.29421 47.0189 3.29421C47.2836 3.29237 47.5475 3.32222 47.8054 3.38313V4.82724C47.681 4.82724 47.5391 4.81479 47.3815 4.81479C46.9482 4.81479 46.6318 4.91616 46.4321 5.11891C46.3241 5.2451 46.242 5.39189 46.1906 5.55068C46.1392 5.70947 46.1194 5.87708 46.1326 6.04371V9.37476H44.5561L44.5491 5.85875Z" fill="#6D4AFF"/>
<path d="M48.4467 2.17894C48.3524 2.09154 48.2775 1.98487 48.2268 1.86593C48.176 1.74699 48.1507 1.61849 48.1524 1.4889C48.151 1.35831 48.1765 1.22885 48.2272 1.10881C48.2778 0.988772 48.3526 0.880782 48.4467 0.791744C48.5382 0.697845 48.6474 0.623625 48.7678 0.573514C48.8882 0.523403 49.0173 0.498427 49.1474 0.500077C49.2761 0.498913 49.4037 0.524146 49.5226 0.574264C49.6415 0.624381 49.7492 0.698353 49.8393 0.791744C49.9334 0.880782 50.0081 0.988772 50.0588 1.10881C50.1095 1.22885 50.1349 1.35831 50.1335 1.4889C50.1353 1.61849 50.1099 1.74699 50.0592 1.86593C50.0085 1.98487 49.9335 2.09154 49.8393 2.17894C49.7484 2.27072 49.6404 2.34316 49.5216 2.39203C49.4028 2.44089 49.2755 2.46518 49.1474 2.4635C49.0178 2.46558 48.8892 2.44149 48.7689 2.39264C48.6486 2.34379 48.5391 2.27115 48.4467 2.17894ZM49.9374 9.36747H48.3609V3.41319H49.9374V9.36747Z" fill="#6D4AFF"/>
<path d="M52.4716 9.36755L50.2383 3.41327H51.8971L52.92 6.45443C53.0777 6.98797 53.1705 7.30632 53.195 7.41658H53.2195C53.2949 7.13025 53.3947 6.80835 53.5068 6.45443L54.5298 3.41327H56.2008L53.9675 9.36755H52.4716Z" fill="#6D4AFF"/>
<path d="M61.9883 6.93486H57.5602C57.6298 7.29549 57.8205 7.62044 58.0997 7.85432C58.3773 8.07392 58.7217 8.18838 59.0736 8.178C59.355 8.18841 59.6355 8.13873 59.8968 8.03217C60.1019 7.93142 60.27 7.76696 60.3768 7.56266H61.8359C61.6838 8.15464 61.3188 8.66732 60.8129 8.99965C60.3041 9.33377 59.7093 9.50764 59.1033 9.4994C58.5479 9.51121 57.9992 9.37378 57.5129 9.10102C57.0585 8.84288 56.686 8.45853 56.4391 7.99304C56.1816 7.50056 56.0508 6.94997 56.059 6.39243C56.0501 5.83394 56.1834 5.28259 56.4461 4.79181C56.6944 4.32796 57.0658 3.9441 57.5181 3.68383C57.9922 3.41652 58.5279 3.28209 59.0701 3.29435C59.6004 3.28717 60.1225 3.42739 60.58 3.69984C61.0248 3.96613 61.3885 4.35203 61.6309 4.81493C61.8884 5.30113 62.0198 5.84581 62.0128 6.39776C62.0146 6.57712 62.0064 6.75644 61.9883 6.93486ZM58.0839 4.94654C57.8151 5.17025 57.6267 5.47786 57.5479 5.82154H60.5257C60.48 5.48236 60.3083 5.17376 60.0457 4.95899C59.7701 4.72977 59.4227 4.6086 59.0666 4.61752C58.7111 4.60672 58.3633 4.72319 58.0839 4.94654Z" fill="#6D4AFF"/>
<path d="M3.93063 0.706238H0V9.35133H1.55544V7.20651C1.55544 7.10266 1.57561 6.99983 1.61481 6.90391C1.654 6.808 1.71144 6.72087 1.78385 6.64752C1.85625 6.57417 1.94219 6.51604 2.03675 6.47647C2.13131 6.43689 2.23263 6.41664 2.33491 6.41687H3.93063C4.67393 6.41687 5.38678 6.11707 5.91237 5.58343C6.43795 5.04979 6.73323 4.32602 6.73323 3.57133C6.73577 3.19601 6.66515 2.82388 6.52545 2.47639C6.38574 2.12889 6.17971 1.81289 5.91921 1.54658C5.65871 1.28027 5.3489 1.06892 5.00761 0.924697C4.66632 0.780474 4.3003 0.706229 3.93063 0.706238ZM5.15677 3.55177C5.15538 3.90899 5.0144 4.25105 4.76479 4.50281C4.51519 4.75457 4.17737 4.89545 3.82554 4.89451H1.55719V2.19303H3.82554C4.00004 2.19303 4.17284 2.22796 4.33404 2.29581C4.49524 2.36367 4.64169 2.46313 4.765 2.5885C4.88832 2.71387 4.98608 2.86269 5.0527 3.02645C5.11932 3.19021 5.1535 3.3657 5.15326 3.54288L5.15677 3.55177Z" fill="#1B1340"/>
<path d="M6.98047 9.35179V5.92292C6.98047 4.52327 7.78621 3.40818 9.39595 3.40818C9.65428 3.40428 9.91206 3.43356 10.1632 3.49532V4.90742C9.988 4.89497 9.82335 4.89497 9.74978 4.89497C8.89499 4.89497 8.52365 5.28979 8.52365 6.09543V9.35179H6.98047Z" fill="#1B1340"/>
<path d="M10.6328 6.44207C10.6328 4.72052 11.9132 3.40802 13.6946 3.40802C15.476 3.40802 16.7477 4.71697 16.7477 6.44207C16.7477 8.16718 15.4673 9.48857 13.6876 9.48857C11.908 9.48857 10.6328 8.16362 10.6328 6.44207ZM15.2308 6.44207C15.2308 5.46392 14.5845 4.77032 13.6946 4.77032C12.8048 4.77032 12.1567 5.46392 12.1567 6.44207C12.1567 7.42022 12.8031 8.11382 13.6946 8.11382C14.5862 8.11382 15.2238 7.43267 15.2238 6.44207H15.2308Z" fill="#1B1340"/>
<path d="M21.2352 4.78261H19.5659V6.94877C19.5659 7.70462 19.8356 8.05142 20.6028 8.05142C20.6764 8.05142 20.8586 8.05142 21.0915 8.03897V9.31412C20.7978 9.40142 20.4937 9.4475 20.1877 9.45107C18.895 9.45107 18.0174 8.65787 18.0174 7.16041V4.78261H16.9805V3.53769H17.2397C17.446 3.53769 17.6438 3.4545 17.7896 3.30641C17.9355 3.15832 18.0174 2.95748 18.0174 2.74805V1.5636H19.5659V3.53235H21.2369L21.2352 4.78261Z" fill="#1B1340"/>
<path d="M21.6992 6.44207C21.6992 4.72052 22.9797 3.40802 24.7593 3.40802C26.5389 3.40802 27.8211 4.71697 27.8211 6.44207C27.8211 8.16718 26.5407 9.48857 24.7593 9.48857C22.9779 9.48857 21.6992 8.16362 21.6992 6.44207ZM26.2972 6.44207C26.2972 5.46392 25.6491 4.77032 24.7593 4.77032C23.8695 4.77032 23.2231 5.46392 23.2231 6.44207C23.2231 7.42022 23.8695 8.11382 24.7593 8.11382C25.6491 8.11382 26.2972 7.43267 26.2972 6.44207Z" fill="#1B1340"/>
<path d="M28.625 9.35162V6.04547C28.625 4.51066 29.5884 3.40802 31.3085 3.40802C33.0285 3.40802 33.9797 4.51066 33.9797 6.04547V9.35162H32.4435V6.16996C32.4435 5.31453 32.0652 4.78277 31.3085 4.78277C30.5518 4.78277 30.1752 5.3163 30.1752 6.16996V9.35162H28.625Z" fill="#1B1340"/>
</svg>
