<svg width="24" height="24" viewBox="0 0 24 24" fill="none" xmlns="http://www.w3.org/2000/svg">
<path d="M11.5 3C6.81332 3 3 6.81332 3 11.5C3 16.1867 6.81332 20 11.5 20C16.1867 20 20 16.1867 20 11.5C20 6.81332 16.1867 3 11.5 3ZM11.5 4.30769C15.4799 4.30769 18.6923 7.52005 18.6923 11.5C18.6923 15.1175 16.0345 18.0921 12.5625 18.6055V13.579H14.593L14.9123 11.5179H12.5625V10.389C12.5625 9.53243 12.8413 8.77224 13.6429 8.77224H14.9301V6.9716C14.7039 6.94153 14.226 6.87455 13.3211 6.87455C11.4328 6.87455 10.3251 7.87232 10.3251 10.1438V11.5153H8.38401V13.579H10.3277V18.5876C6.90972 18.0282 4.30769 15.0792 4.30769 11.5C4.30769 7.52005 7.52005 4.30769 11.5 4.30769Z" fill="#6D4AFF"/>
</svg>
