<svg width="56" height="56" viewBox="0 0 56 56" fill="none" xmlns="http://www.w3.org/2000/svg">
<rect width="56" height="56" rx="28" fill="#E2DBFF"/>
<path d="M28 31V33M22 37H34C34.5304 37 35.0391 36.7893 35.4142 36.4142C35.7893 36.0391 36 35.5304 36 35V29C36 28.4696 35.7893 27.9609 35.4142 27.5858C35.0391 27.2107 34.5304 27 34 27H22C21.4696 27 20.9609 27.2107 20.5858 27.5858C20.2107 27.9609 20 28.4696 20 29V35C20 35.5304 20.2107 36.0391 20.5858 36.4142C20.9609 36.7893 21.4696 37 22 37ZM32 27V23C32 21.9391 31.5786 20.9217 30.8284 20.1716C30.0783 19.4214 29.0609 19 28 19C26.9391 19 25.9217 19.4214 25.1716 20.1716C24.4214 20.9217 24 21.9391 24 23V27H32Z" stroke="#372580" stroke-width="2" stroke-linecap="round" stroke-linejoin="round"/>
</svg>
