<svg width="56" height="56" viewBox="0 0 56 56" fill="none" xmlns="http://www.w3.org/2000/svg">
<rect width="56" height="56" rx="28" fill="#E2DBFF"/>
<path d="M29.875 34.825C29.2569 34.9419 28.6291 35.0005 28 35C23.522 35 19.732 32.057 18.457 28C18.8003 26.9081 19.329 25.8835 20.02 24.971M25.878 25.879C26.4407 25.3163 27.2038 25.0002 27.9995 25.0002C28.7952 25.0002 29.5584 25.3163 30.121 25.879C30.6837 26.4417 30.9998 27.2048 30.9998 28.0005C30.9998 28.7962 30.6837 29.5593 30.121 30.122M25.878 25.879L30.121 30.122M25.878 25.879L30.12 30.12M30.121 30.122L33.412 33.412M25.88 25.88L22.59 22.59M22.59 22.59L19 19M22.59 22.59C24.2024 21.5496 26.0811 20.9974 28 21C32.478 21 36.268 23.943 37.543 28C36.8391 30.2305 35.3774 32.1446 33.411 33.411M22.59 22.59L33.411 33.411M33.411 33.411L37 37" stroke="#372580" stroke-width="2" stroke-linecap="round" stroke-linejoin="round"/>
</svg>
