<svg width="24" height="24" viewBox="0 0 24 24" fill="none" xmlns="http://www.w3.org/2000/svg">
<path d="M7.9345 3C5.21695 3 3 5.21695 3 7.9345V15.0706C3 17.7831 5.21695 20 7.9345 20H15.0706C17.7831 20 20 17.7831 20 15.0655V7.9345C20 5.21695 17.7831 3 15.0655 3H7.9345ZM7.9345 4.30769H15.0655C17.0781 4.30769 18.6923 5.92188 18.6923 7.9345V15.0655C18.6923 17.0781 17.0781 18.6923 15.0706 18.6923H7.9345C5.92188 18.6923 4.30769 17.0781 4.30769 15.0706V7.9345C4.30769 5.92188 5.92188 4.30769 7.9345 4.30769ZM16.7308 5.61538C16.3681 5.61538 16.0769 5.90655 16.0769 6.26923C16.0769 6.63191 16.3681 6.92308 16.7308 6.92308C17.0934 6.92308 17.3846 6.63191 17.3846 6.26923C17.3846 5.90655 17.0934 5.61538 16.7308 5.61538ZM11.5 6.92308C8.98167 6.92308 6.92308 8.98167 6.92308 11.5C6.92308 14.0183 8.98167 16.0769 11.5 16.0769C14.0183 16.0769 16.0769 14.0183 16.0769 11.5C16.0769 8.98167 14.0183 6.92308 11.5 6.92308ZM11.5 8.23077C13.3134 8.23077 14.7692 9.6866 14.7692 11.5C14.7692 13.3134 13.3134 14.7692 11.5 14.7692C9.6866 14.7692 8.23077 13.3134 8.23077 11.5C8.23077 9.6866 9.6866 8.23077 11.5 8.23077Z" fill="#6D4AFF"/>
</svg>
