<svg width="184" height="41" viewBox="0 0 184 41" fill="none" xmlns="http://www.w3.org/2000/svg">
<path d="M0 0H60.72V40.4827H0V0Z" fill="white"/>
<path d="M1.16696 1.10938H59.5504V39.3147H1.16696V1.10938Z" fill="#034EA2"/>
<path d="M32.3615 7.125H30.8195L30.346 5.68018L29.8746 7.125H28.3326L29.5843 8.00604L29.1149 9.43469L30.346 8.55163L31.5792 9.43469L31.1098 8.00604L32.3615 7.125Z" fill="#FFF100"/>
<path d="M25.9845 8.80619H24.4406L23.9691 7.35938L23.4977 8.80619H21.9558L23.2054 9.68721L22.7381 11.1158L23.9691 10.2328L25.2002 11.1158L24.7329 9.68721L25.9845 8.80619Z" fill="#FFF100"/>
<path d="M18.074 15.7047L19.3051 14.8217L20.5382 15.7047L20.0689 14.2761L21.3205 13.3951H19.7786L19.3051 11.9482L18.8337 13.3951H17.2917L18.5434 14.2761L18.074 15.7047Z" fill="#FFF100"/>
<path d="M18.0657 19.6451L17.5943 18.1982L17.1228 19.6471L15.5809 19.6451L16.8305 20.5262L16.3632 21.9548L17.5943 21.0718L18.8253 21.9548L18.358 20.5262L19.6076 19.6451H18.0657Z" fill="#FFF100"/>
<path d="M18.5434 26.7967L18.074 28.2233L19.3051 27.3382L20.5382 28.2233L20.0689 26.7967L21.3205 25.9136H19.7786L19.3051 24.4668L18.8337 25.9156L17.2917 25.9136L18.5434 26.7967Z" fill="#FFF100"/>
<path d="M23.2151 31.3835L22.7478 32.8101L23.9789 31.929L25.2099 32.8101L24.7426 31.3835L25.9922 30.5004H24.4503L23.9789 29.0557L23.5074 30.5025L21.9655 30.5004L23.2151 31.3835Z" fill="#FFF100"/>
<path d="M29.5842 33.0467L29.1169 34.4733L30.3479 33.5902L31.579 34.4733L31.1096 33.0467L32.3613 32.1636H30.8194L30.3479 30.7168L29.8765 32.1656L28.3346 32.1636L29.5842 33.0467Z" fill="#FFF100"/>
<path d="M35.9513 31.3835L35.484 32.8101L36.7151 31.929L37.9462 32.8101L37.4768 31.3835L38.7285 30.5004H37.1865L36.7151 29.0557L36.2416 30.5025L34.7017 30.5004L35.9513 31.3835Z" fill="#FFF100"/>
<path d="M40.6272 26.7967L40.1578 28.2233L41.3889 27.3382L42.622 28.2233L42.1526 26.7967L43.4022 25.9136H41.8624L41.3889 24.4668L40.9174 25.9156L39.3755 25.9136L40.6272 26.7967Z" fill="#FFF100"/>
<path d="M41.0669 19.627L42.3186 20.5101L41.8512 21.9368L43.0803 21.0537L44.3134 21.9368L43.844 20.5101L45.0957 19.627H43.5537L43.0803 18.1802L42.6088 19.6291L41.0669 19.627Z" fill="#FFF100"/>
<path d="M43.4022 13.3769H41.8624L41.3889 11.9321L40.9174 13.379L39.3755 13.3769L40.6272 14.258L40.1578 15.6846L41.3889 14.8035L42.622 15.6846L42.1526 14.258L43.4022 13.3769Z" fill="#FFF100"/>
<path d="M35.4995 11.1157L36.7327 10.2327L37.9637 11.1157L37.4964 9.68913L38.7481 8.8061H37.2041L36.7327 7.36133L36.2612 8.80812L34.7173 8.8061L35.9689 9.68913L35.4995 11.1157Z" fill="#FFF100"/>
<path d="M81.0986 9.24414V3.85693H83.3449V3.20117H77.9404V3.85693H80.1819V9.24414H81.0986ZM85.0321 9.24414V6.04419C85.1537 5.82837 85.3233 5.65405 85.5409 5.52124C85.7585 5.38843 86.0113 5.32202 86.2993 5.32202C86.6544 5.32202 86.916 5.3995 87.084 5.55444C87.252 5.70939 87.3376 5.94873 87.3408 6.27246V9.24414H88.2288V6.27661C88.2192 5.20581 87.6656 4.67041 86.568 4.67041C85.9377 4.67041 85.4257 4.87931 85.0321 5.29712V2.86914H84.1442V9.24414H85.0321ZM89.988 3.99805C90.1608 3.99805 90.292 3.95654 90.3816 3.87354C90.4712 3.79053 90.516 3.68677 90.516 3.56226C90.516 3.43774 90.4712 3.3326 90.3816 3.24683C90.292 3.16105 90.1608 3.11816 89.988 3.11816C89.8152 3.11816 89.6848 3.16105 89.5968 3.24683C89.5088 3.3326 89.4648 3.43774 89.4648 3.56226C89.4648 3.68677 89.5088 3.79053 89.5968 3.87354C89.6848 3.95654 89.8152 3.99805 89.988 3.99805ZM90.4248 9.24414V4.75342H89.5368V9.24414H90.4248ZM93.6575 9.32715C94.2495 9.32715 94.731 9.2061 95.1022 8.96399C95.4734 8.72188 95.659 8.40023 95.659 7.99902C95.659 7.7583 95.5926 7.55424 95.4598 7.38684C95.327 7.21944 95.123 7.07625 94.8478 6.95728C94.5727 6.8383 94.2135 6.73592 93.7703 6.65015C93.3271 6.56437 93.0207 6.47445 92.8511 6.38037C92.6815 6.2863 92.5968 6.14657 92.5968 5.96118C92.5968 5.76473 92.6879 5.60563 92.8703 5.48389C93.0527 5.36214 93.3055 5.30127 93.6287 5.30127C93.9423 5.30127 94.2023 5.37736 94.4087 5.52954C94.6151 5.68172 94.7183 5.86296 94.7183 6.07324H95.611C95.611 5.66374 95.4278 5.32756 95.0614 5.0647C94.6951 4.80184 94.2175 4.67041 93.6287 4.67041C93.0687 4.67041 92.6088 4.79769 92.2488 5.05225C91.8888 5.3068 91.7088 5.61808 91.7088 5.98608C91.7088 6.20744 91.772 6.39836 91.8984 6.55884C92.0248 6.71932 92.22 6.85767 92.484 6.97388C92.7479 7.09009 93.1047 7.1897 93.5543 7.27271C94.0039 7.35571 94.3191 7.45463 94.4999 7.56946C94.6807 7.68429 94.771 7.84546 94.771 8.05298C94.771 8.24943 94.6695 8.40645 94.4663 8.52405C94.2631 8.64164 93.9935 8.70044 93.6575 8.70044C93.2927 8.70044 92.9991 8.62504 92.7767 8.47424C92.5544 8.32345 92.4352 8.11938 92.4192 7.86206H91.5312C91.5312 8.12769 91.6216 8.37463 91.8024 8.60291C91.9832 8.83118 92.2336 9.00895 92.5536 9.13623C92.8735 9.26351 93.2415 9.32715 93.6575 9.32715ZM99.9406 10.9707V8.80835C100.302 9.15422 100.798 9.32715 101.429 9.32715C102.046 9.32715 102.536 9.11825 102.897 8.70044C103.259 8.28263 103.44 7.73202 103.44 7.04858V6.97803C103.44 6.25309 103.258 5.68726 102.895 5.28052C102.532 4.87378 102.038 4.67041 101.414 4.67041C100.771 4.67041 100.269 4.8641 99.907 5.25146L99.8638 4.75342H99.0526V10.9707H99.9406ZM101.16 8.70044C100.613 8.70044 100.206 8.49569 99.9406 8.08618V5.94043C100.209 5.52816 100.613 5.32202 101.15 5.32202C101.585 5.32202 101.928 5.46867 102.177 5.76196C102.427 6.05526 102.552 6.45508 102.552 6.96143C102.552 7.53695 102.426 7.97066 102.175 8.26257C101.924 8.55448 101.585 8.70044 101.16 8.70044ZM105.357 9.24414V6.05664C105.565 5.62777 105.96 5.41333 106.543 5.41333C106.7 5.41333 106.845 5.42301 106.98 5.44238V4.72852C106.89 4.68978 106.759 4.67041 106.586 4.67041C106.052 4.67041 105.639 4.87101 105.348 5.27222L105.333 4.75342H104.469V9.24414H105.357ZM109.732 9.32715C110.199 9.32715 110.613 9.23031 110.973 9.03662C111.333 8.84294 111.61 8.57247 111.803 8.22522C111.997 7.87797 112.094 7.48576 112.094 7.04858V6.99463C112.094 6.29183 111.875 5.72876 111.439 5.30542C111.002 4.88208 110.43 4.67041 109.723 4.67041C109.265 4.67041 108.858 4.76587 108.501 4.95679C108.144 5.14771 107.866 5.41886 107.666 5.77026C107.466 6.12166 107.366 6.51733 107.366 6.95728V7.01123C107.366 7.7085 107.584 8.2688 108.021 8.69214C108.458 9.11548 109.028 9.32715 109.732 9.32715ZM109.732 8.70044C109.284 8.70044 108.927 8.54964 108.66 8.24805C108.392 7.94645 108.259 7.54663 108.259 7.04858C108.259 6.4869 108.393 6.05526 108.662 5.75366C108.931 5.45207 109.284 5.30127 109.723 5.30127C110.171 5.30127 110.53 5.45414 110.8 5.75989C111.071 6.06563 111.206 6.46476 111.206 6.95728C111.206 7.50789 111.073 7.93608 110.807 8.24182C110.542 8.54757 110.183 8.70044 109.732 8.70044ZM113.565 3.99805C113.738 3.99805 113.869 3.95654 113.959 3.87354C114.048 3.79053 114.093 3.68677 114.093 3.56226C114.093 3.43774 114.048 3.3326 113.959 3.24683C113.869 3.16105 113.738 3.11816 113.565 3.11816C113.395 3.11816 113.267 3.16174 113.179 3.2489C113.091 3.33606 113.047 3.44051 113.047 3.56226C113.047 3.68677 113.09 3.79053 113.176 3.87354C113.263 3.95654 113.392 3.99805 113.565 3.99805ZM112.667 11.0579C113.573 11.0579 114.026 10.6262 114.026 9.76294V4.75342H113.138V9.77954C113.138 10.0092 113.086 10.1704 112.982 10.2631C112.878 10.3558 112.727 10.4021 112.528 10.4021C112.362 10.4021 112.227 10.391 112.125 10.3689V10.9832C112.291 11.033 112.472 11.0579 112.667 11.0579ZM117.513 9.32715C118.383 9.32715 119.036 9.038 119.471 8.45972L118.929 8.09448C118.766 8.2771 118.575 8.42375 118.358 8.53442C118.14 8.6451 117.875 8.70044 117.561 8.70044C117.119 8.70044 116.755 8.56417 116.469 8.29163C116.183 8.01908 116.033 7.66146 116.02 7.21875H119.538V6.89917C119.538 6.18254 119.351 5.63192 118.977 5.24731C118.602 4.86271 118.078 4.67041 117.403 4.67041C116.99 4.67041 116.607 4.76933 116.253 4.96716C115.899 5.165 115.624 5.43892 115.427 5.78894C115.231 6.13896 115.132 6.5367 115.132 6.98218V7.12329C115.132 7.79289 115.353 8.3276 115.795 8.72742C116.236 9.12724 116.809 9.32715 117.513 9.32715ZM118.65 6.58789H116.049C116.107 6.18115 116.257 5.86503 116.5 5.63953C116.743 5.41402 117.044 5.30127 117.403 5.30127C117.774 5.30127 118.068 5.40849 118.286 5.62292C118.503 5.83736 118.625 6.13965 118.65 6.52979V6.58789ZM122.55 9.32715C122.902 9.32715 123.236 9.25798 123.551 9.11963C123.866 8.98128 124.118 8.7959 124.307 8.56348C124.496 8.33105 124.598 8.08618 124.614 7.82886H123.774C123.749 8.07788 123.618 8.2854 123.381 8.45142C123.144 8.61743 122.867 8.70044 122.55 8.70044C122.093 8.70044 121.741 8.56071 121.494 8.28125C121.248 8.00179 121.125 7.60335 121.125 7.08594V6.94067C121.125 6.40942 121.249 6.00338 121.497 5.72253C121.745 5.44169 122.094 5.30127 122.546 5.30127C122.882 5.30127 123.164 5.39465 123.393 5.58142C123.622 5.76819 123.749 6.00684 123.774 6.29736H124.614C124.589 5.81592 124.383 5.4244 123.998 5.1228C123.612 4.82121 123.128 4.67041 122.546 4.67041C122.072 4.67041 121.662 4.76449 121.314 4.95264C120.967 5.14079 120.701 5.40503 120.515 5.74536C120.33 6.08569 120.237 6.47445 120.237 6.91162V7.04028C120.237 7.74862 120.446 8.30684 120.863 8.71497C121.281 9.12309 121.843 9.32715 122.55 9.32715ZM127.031 9.32715C127.252 9.32715 127.479 9.29948 127.713 9.24414V8.62158C127.533 8.65479 127.393 8.67139 127.29 8.67139C127.082 8.67139 126.935 8.62642 126.849 8.5365C126.762 8.44657 126.719 8.31169 126.719 8.13184V5.34692H127.689V4.75342H126.719V3.66602H125.831V4.75342H124.886V5.34692H125.831V8.13184C125.831 8.51367 125.932 8.80835 126.134 9.01587C126.335 9.22339 126.634 9.32715 127.031 9.32715ZM131.49 3.99805C131.663 3.99805 131.794 3.95654 131.884 3.87354C131.973 3.79053 132.018 3.68677 132.018 3.56226C132.018 3.43774 131.973 3.3326 131.884 3.24683C131.794 3.16105 131.663 3.11816 131.49 3.11816C131.317 3.11816 131.187 3.16105 131.099 3.24683C131.011 3.3326 130.967 3.43774 130.967 3.56226C130.967 3.68677 131.011 3.79053 131.099 3.87354C131.187 3.95654 131.317 3.99805 131.49 3.99805ZM131.927 9.24414V4.75342H131.039V9.24414H131.927ZM135.16 9.32715C135.752 9.32715 136.233 9.2061 136.604 8.96399C136.976 8.72188 137.161 8.40023 137.161 7.99902C137.161 7.7583 137.095 7.55424 136.962 7.38684C136.829 7.21944 136.625 7.07625 136.35 6.95728C136.075 6.8383 135.716 6.73592 135.273 6.65015C134.829 6.56437 134.523 6.47445 134.353 6.38037C134.184 6.2863 134.099 6.14657 134.099 5.96118C134.099 5.76473 134.19 5.60563 134.373 5.48389C134.555 5.36214 134.808 5.30127 135.131 5.30127C135.445 5.30127 135.705 5.37736 135.911 5.52954C136.117 5.68172 136.22 5.86296 136.22 6.07324H137.113C137.113 5.66374 136.93 5.32756 136.564 5.0647C136.197 4.80184 135.72 4.67041 135.131 4.67041C134.571 4.67041 134.111 4.79769 133.751 5.05225C133.391 5.3068 133.211 5.61808 133.211 5.98608C133.211 6.20744 133.274 6.39836 133.401 6.55884C133.527 6.71932 133.722 6.85767 133.986 6.97388C134.25 7.09009 134.607 7.1897 135.057 7.27271C135.506 7.35571 135.821 7.45463 136.002 7.56946C136.183 7.68429 136.273 7.84546 136.273 8.05298C136.273 8.24943 136.172 8.40645 135.969 8.52405C135.765 8.64164 135.496 8.70044 135.16 8.70044C134.795 8.70044 134.501 8.62504 134.279 8.47424C134.057 8.32345 133.937 8.11938 133.921 7.86206H133.033C133.033 8.12769 133.124 8.37463 133.305 8.60291C133.485 8.83118 133.736 9.00895 134.056 9.13623C134.376 9.26351 134.744 9.32715 135.16 9.32715ZM142.465 9.32715C143.057 9.32715 143.539 9.2061 143.91 8.96399C144.281 8.72188 144.467 8.40023 144.467 7.99902C144.467 7.7583 144.4 7.55424 144.268 7.38684C144.135 7.21944 143.931 7.07625 143.656 6.95728C143.38 6.8383 143.021 6.73592 142.578 6.65015C142.135 6.56437 141.828 6.47445 141.659 6.38037C141.489 6.2863 141.404 6.14657 141.404 5.96118C141.404 5.76473 141.496 5.60563 141.678 5.48389C141.86 5.36214 142.113 5.30127 142.436 5.30127C142.75 5.30127 143.01 5.37736 143.216 5.52954C143.423 5.68172 143.526 5.86296 143.526 6.07324H144.419C144.419 5.66374 144.236 5.32756 143.869 5.0647C143.503 4.80184 143.025 4.67041 142.436 4.67041C141.876 4.67041 141.416 4.79769 141.056 5.05225C140.696 5.3068 140.516 5.61808 140.516 5.98608C140.516 6.20744 140.58 6.39836 140.706 6.55884C140.832 6.71932 141.028 6.85767 141.292 6.97388C141.556 7.09009 141.912 7.1897 142.362 7.27271C142.812 7.35571 143.127 7.45463 143.308 7.56946C143.488 7.68429 143.579 7.84546 143.579 8.05298C143.579 8.24943 143.477 8.40645 143.274 8.52405C143.071 8.64164 142.801 8.70044 142.465 8.70044C142.1 8.70044 141.807 8.62504 141.584 8.47424C141.362 8.32345 141.243 8.11938 141.227 7.86206H140.339C140.339 8.12769 140.429 8.37463 140.61 8.60291C140.791 8.83118 141.041 9.00895 141.361 9.13623C141.681 9.26351 142.049 9.32715 142.465 9.32715ZM147.21 9.32715C147.879 9.32715 148.386 9.15145 148.731 8.80005L148.751 9.24414H149.595V4.75342H148.707V8.01978C148.483 8.45695 148.032 8.67554 147.354 8.67554C146.714 8.67554 146.394 8.33521 146.394 7.65454V4.75342H145.506V7.67529C145.509 8.22038 145.656 8.63196 145.945 8.91003C146.235 9.18811 146.656 9.32715 147.21 9.32715ZM151.734 10.9707V8.80835C152.095 9.15422 152.591 9.32715 153.222 9.32715C153.839 9.32715 154.329 9.11825 154.69 8.70044C155.052 8.28263 155.233 7.73202 155.233 7.04858V6.97803C155.233 6.25309 155.051 5.68726 154.688 5.28052C154.325 4.87378 153.831 4.67041 153.207 4.67041C152.564 4.67041 152.062 4.8641 151.7 5.25146L151.657 4.75342H150.846V10.9707H151.734ZM152.953 8.70044C152.406 8.70044 151.999 8.49569 151.734 8.08618V5.94043C152.003 5.52816 152.406 5.32202 152.943 5.32202C153.378 5.32202 153.721 5.46867 153.97 5.76196C154.22 6.05526 154.345 6.45508 154.345 6.96143C154.345 7.53695 154.219 7.97066 153.968 8.26257C153.717 8.55448 153.378 8.70044 152.953 8.70044ZM157.15 10.9707V8.80835C157.512 9.15422 158.008 9.32715 158.638 9.32715C159.256 9.32715 159.745 9.11825 160.107 8.70044C160.469 8.28263 160.649 7.73202 160.649 7.04858V6.97803C160.649 6.25309 160.468 5.68726 160.105 5.28052C159.741 4.87378 159.248 4.67041 158.624 4.67041C157.981 4.67041 157.478 4.8641 157.117 5.25146L157.074 4.75342H156.262V10.9707H157.15ZM158.37 8.70044C157.822 8.70044 157.416 8.49569 157.15 8.08618V5.94043C157.419 5.52816 157.822 5.32202 158.36 5.32202C158.795 5.32202 159.137 5.46867 159.387 5.76196C159.637 6.05526 159.761 6.45508 159.761 6.96143C159.761 7.53695 159.636 7.97066 159.385 8.26257C159.133 8.55448 158.795 8.70044 158.37 8.70044ZM163.81 9.32715C164.277 9.32715 164.691 9.23031 165.051 9.03662C165.411 8.84294 165.688 8.57247 165.881 8.22522C166.075 7.87797 166.172 7.48576 166.172 7.04858V6.99463C166.172 6.29183 165.953 5.72876 165.516 5.30542C165.08 4.88208 164.508 4.67041 163.801 4.67041C163.343 4.67041 162.936 4.76587 162.579 4.95679C162.222 5.14771 161.944 5.41886 161.744 5.77026C161.544 6.12166 161.444 6.51733 161.444 6.95728V7.01123C161.444 7.7085 161.662 8.2688 162.099 8.69214C162.536 9.11548 163.106 9.32715 163.81 9.32715ZM163.81 8.70044C163.362 8.70044 163.005 8.54964 162.737 8.24805C162.47 7.94645 162.337 7.54663 162.337 7.04858C162.337 6.4869 162.471 6.05526 162.74 5.75366C163.009 5.45207 163.362 5.30127 163.801 5.30127C164.249 5.30127 164.608 5.45414 164.878 5.75989C165.148 6.06563 165.284 6.46476 165.284 6.95728C165.284 7.50789 165.151 7.93608 164.885 8.24182C164.62 8.54757 164.261 8.70044 163.81 8.70044ZM168.075 9.24414V6.05664C168.283 5.62777 168.678 5.41333 169.26 5.41333C169.417 5.41333 169.563 5.42301 169.697 5.44238V4.72852C169.608 4.68978 169.476 4.67041 169.304 4.67041C168.769 4.67041 168.356 4.87101 168.065 5.27222L168.051 4.75342H167.187V9.24414H168.075ZM172.172 9.32715C172.392 9.32715 172.62 9.29948 172.853 9.24414V8.62158C172.674 8.65479 172.533 8.67139 172.431 8.67139C172.223 8.67139 172.076 8.62642 171.989 8.5365C171.903 8.44657 171.86 8.31169 171.86 8.13184V5.34692H172.829V4.75342H171.86V3.66602H170.972V4.75342H170.026V5.34692H170.972V8.13184C170.972 8.51367 171.072 8.80835 171.274 9.01587C171.476 9.22339 171.775 9.32715 172.172 9.32715ZM175.923 9.32715C176.793 9.32715 177.446 9.038 177.881 8.45972L177.339 8.09448C177.175 8.2771 176.985 8.42375 176.767 8.53442C176.55 8.6451 176.284 8.70044 175.971 8.70044C175.529 8.70044 175.165 8.56417 174.879 8.29163C174.592 8.01908 174.443 7.66146 174.43 7.21875H177.948V6.89917C177.948 6.18254 177.761 5.63192 177.387 5.24731C177.012 4.86271 176.487 4.67041 175.812 4.67041C175.399 4.67041 175.016 4.76933 174.663 4.96716C174.309 5.165 174.034 5.43892 173.837 5.78894C173.64 6.13896 173.542 6.5367 173.542 6.98218V7.12329C173.542 7.79289 173.763 8.3276 174.204 8.72742C174.646 9.12724 175.219 9.32715 175.923 9.32715ZM177.06 6.58789H174.459C174.516 6.18115 174.667 5.86503 174.91 5.63953C175.153 5.41402 175.454 5.30127 175.812 5.30127C176.183 5.30127 176.478 5.40849 176.695 5.62292C176.913 5.83736 177.035 6.13965 177.06 6.52979V6.58789ZM180.701 9.32715C181.334 9.32715 181.829 9.139 182.184 8.7627L182.227 9.24414H183.043V2.86914H182.155V5.20996C181.8 4.85026 181.318 4.67041 180.711 4.67041C180.099 4.67041 179.605 4.88 179.227 5.29919C178.85 5.71838 178.661 6.27246 178.661 6.96143V7.01953C178.661 7.70573 178.851 8.26188 179.23 8.68799C179.609 9.1141 180.099 9.32715 180.701 9.32715ZM180.922 8.67554C180.493 8.67554 180.157 8.53166 179.914 8.2439C179.671 7.95614 179.549 7.5577 179.549 7.04858C179.549 6.4786 179.671 6.04834 179.914 5.75781C180.157 5.46729 180.496 5.32202 180.931 5.32202C181.482 5.32202 181.89 5.53369 182.155 5.95703V8.01978C181.896 8.45695 181.485 8.67554 180.922 8.67554ZM80.7578 18.8271C81.3722 18.8271 81.8618 18.6189 82.2266 18.2025C82.5913 17.7861 82.7737 17.2348 82.7737 16.5486V16.4822C82.7737 15.7655 82.5937 15.2011 82.2338 14.7888C81.8738 14.3765 81.3786 14.1704 80.7482 14.1704C80.1179 14.1704 79.6235 14.3627 79.2651 14.7473V12.3691H78.3771V18.7441H79.1931L79.2363 18.2253C79.5947 18.6265 80.1019 18.8271 80.7578 18.8271ZM80.537 18.1755C79.9611 18.1755 79.5371 17.9403 79.2651 17.47V15.5276C79.5211 15.0572 79.9419 14.822 80.5274 14.822C80.9658 14.822 81.3018 14.9645 81.5354 15.2495C81.769 15.5345 81.8858 15.9385 81.8858 16.4614C81.8858 17.0342 81.7674 17.4631 81.5306 17.748C81.2938 18.033 80.9626 18.1755 80.537 18.1755ZM84.0242 20.5579C84.7281 20.5579 85.2417 20.1843 85.5649 19.4373L87.6528 14.2534H86.7024L85.4929 17.6194L84.197 14.2534H83.2274L85.0801 18.6943L84.8833 19.1509C84.7745 19.4303 84.6361 19.6226 84.4682 19.7278C84.3002 19.8329 84.0658 19.8855 83.765 19.8855L83.525 19.8689V20.4915L83.8562 20.5454L84.0242 20.5579ZM92.1984 18.8271C92.4192 18.8271 92.6463 18.7995 92.8799 18.7441V18.1216C92.7007 18.1548 92.56 18.1714 92.4576 18.1714C92.2496 18.1714 92.1024 18.1264 92.016 18.0365C91.9296 17.9466 91.8864 17.8117 91.8864 17.6318V14.8469H92.8559V14.2534H91.8864V13.166H90.9984V14.2534H90.0529V14.8469H90.9984V17.6318C90.9984 18.0137 91.0992 18.3083 91.3008 18.5159C91.5024 18.7234 91.8016 18.8271 92.1984 18.8271ZM94.6823 18.7441V15.5442C94.8039 15.3284 94.9735 15.1541 95.1911 15.0212C95.4087 14.8884 95.6615 14.822 95.9495 14.822C96.3047 14.822 96.5663 14.8995 96.7342 15.0544C96.9022 15.2094 96.9878 15.4487 96.991 15.7725V18.7441H97.879V15.7766C97.8694 14.7058 97.3158 14.1704 96.2183 14.1704C95.5879 14.1704 95.0759 14.3793 94.6823 14.7971V12.3691H93.7944V18.7441H94.6823ZM101.265 18.8271C102.136 18.8271 102.788 18.538 103.224 17.9597L102.681 17.5945C102.518 17.7771 102.328 17.9237 102.11 18.0344C101.892 18.1451 101.627 18.2004 101.313 18.2004C100.872 18.2004 100.508 18.0642 100.221 17.7916C99.935 17.5191 99.7854 17.1615 99.7726 16.7188H103.291V16.3992C103.291 15.6825 103.104 15.1319 102.729 14.7473C102.355 14.3627 101.83 14.1704 101.155 14.1704C100.742 14.1704 100.359 14.2693 100.005 14.4672C99.6518 14.665 99.3766 14.9389 99.1798 15.2889C98.983 15.639 98.8846 16.0367 98.8846 16.4822V16.6233C98.8846 17.2929 99.1054 17.8276 99.547 18.2274C99.9886 18.6272 100.561 18.8271 101.265 18.8271ZM102.403 16.0879H99.8014C99.859 15.6812 100.009 15.365 100.253 15.1395C100.496 14.914 100.797 14.8013 101.155 14.8013C101.526 14.8013 101.82 14.9085 102.038 15.1229C102.256 15.3374 102.377 15.6396 102.403 16.0298V16.0879ZM111.134 18.7441V18.0925H107.616V15.9509H110.644V15.2993H107.616V13.3569H111.086V12.7012H106.694V18.7441H111.134ZM113.647 18.8271C114.315 18.8271 114.823 18.6514 115.168 18.3L115.187 18.7441H116.032V14.2534H115.144V17.5198C114.92 17.957 114.469 18.1755 113.791 18.1755C113.151 18.1755 112.831 17.8352 112.831 17.1545V14.2534H111.943V17.1753C111.946 17.7204 112.092 18.132 112.382 18.41C112.671 18.6881 113.093 18.8271 113.647 18.8271ZM118.17 18.7441V15.5566C118.378 15.1278 118.774 14.9133 119.356 14.9133C119.513 14.9133 119.658 14.923 119.793 14.9424V14.2285C119.703 14.1898 119.572 14.1704 119.399 14.1704C118.865 14.1704 118.452 14.371 118.161 14.7722L118.146 14.2534H117.283V18.7441H118.17ZM122.546 18.8271C123.013 18.8271 123.426 18.7303 123.786 18.5366C124.146 18.3429 124.423 18.0725 124.617 17.7252C124.81 17.378 124.907 16.9858 124.907 16.5486V16.4946C124.907 15.7918 124.689 15.2288 124.252 14.8054C123.815 14.3821 123.243 14.1704 122.536 14.1704C122.078 14.1704 121.671 14.2659 121.314 14.4568C120.958 14.6477 120.679 14.9189 120.479 15.2703C120.279 15.6217 120.179 16.0173 120.179 16.4573V16.5112C120.179 17.2085 120.398 17.7688 120.834 18.1921C121.271 18.6155 121.842 18.8271 122.546 18.8271ZM122.546 18.2004C122.098 18.2004 121.74 18.0496 121.473 17.748C121.206 17.4465 121.072 17.0466 121.072 16.5486C121.072 15.9869 121.206 15.5553 121.475 15.2537C121.744 14.9521 122.098 14.8013 122.536 14.8013C122.984 14.8013 123.343 14.9541 123.614 15.2599C123.884 15.5656 124.019 15.9648 124.019 16.4573C124.019 17.0079 123.886 17.4361 123.621 17.7418C123.355 18.0476 122.997 18.2004 122.546 18.2004ZM126.81 20.4707V18.3083C127.172 18.6542 127.668 18.8271 128.298 18.8271C128.916 18.8271 129.405 18.6182 129.767 18.2004C130.129 17.7826 130.309 17.232 130.309 16.5486V16.478C130.309 15.7531 130.128 15.1873 129.765 14.7805C129.401 14.3738 128.908 14.1704 128.284 14.1704C127.641 14.1704 127.138 14.3641 126.777 14.7515L126.733 14.2534H125.922V20.4707H126.81ZM128.029 18.2004C127.482 18.2004 127.076 17.9957 126.81 17.5862V15.4404C127.079 15.0282 127.482 14.822 128.02 14.822C128.455 14.822 128.797 14.9687 129.047 15.262C129.297 15.5553 129.421 15.9551 129.421 16.4614C129.421 17.0369 129.296 17.4707 129.045 17.7626C128.793 18.0545 128.455 18.2004 128.029 18.2004ZM133.494 18.8271C134.364 18.8271 135.017 18.538 135.452 17.9597L134.91 17.5945C134.747 17.7771 134.556 17.9237 134.339 18.0344C134.121 18.1451 133.856 18.2004 133.542 18.2004C133.1 18.2004 132.736 18.0642 132.45 17.7916C132.164 17.5191 132.014 17.1615 132.001 16.7188H135.52V16.3992C135.52 15.6825 135.332 15.1319 134.958 14.7473C134.584 14.3627 134.059 14.1704 133.384 14.1704C132.971 14.1704 132.588 14.2693 132.234 14.4672C131.881 14.665 131.605 14.9389 131.409 15.2889C131.212 15.639 131.113 16.0367 131.113 16.4822V16.6233C131.113 17.2929 131.334 17.8276 131.776 18.2274C132.217 18.6272 132.79 18.8271 133.494 18.8271ZM134.632 16.0879H132.03C132.088 15.6812 132.238 15.365 132.481 15.1395C132.724 14.914 133.025 14.8013 133.384 14.8013C133.755 14.8013 134.049 14.9085 134.267 15.1229C134.484 15.3374 134.606 15.6396 134.632 16.0298V16.0879ZM138.052 18.8271C138.624 18.8271 139.117 18.6418 139.53 18.271C139.562 18.4979 139.603 18.6556 139.655 18.7441H140.586V18.6777C140.464 18.4342 140.403 18.1064 140.403 17.6941V15.6272C140.391 15.1734 140.215 14.8172 139.875 14.5585C139.536 14.2998 139.067 14.1704 138.469 14.1704C138.092 14.1704 137.745 14.2313 137.43 14.353C137.115 14.4748 136.865 14.6401 136.681 14.849C136.497 15.0579 136.405 15.2744 136.405 15.4985H137.298C137.298 15.3021 137.405 15.1347 137.62 14.9963C137.834 14.858 138.1 14.7888 138.416 14.7888C138.778 14.7888 139.051 14.8684 139.237 15.0275C139.423 15.1866 139.515 15.4003 139.515 15.6687V16.0215H138.651C137.906 16.0215 137.328 16.1508 136.916 16.4095C136.505 16.6683 136.3 17.0314 136.3 17.499C136.3 17.8836 136.464 18.2011 136.792 18.4515C137.12 18.7019 137.54 18.8271 138.052 18.8271ZM138.181 18.1589C137.89 18.1589 137.652 18.0911 137.466 17.9556C137.28 17.82 137.188 17.6318 137.188 17.3911C137.188 16.8405 137.732 16.5652 138.819 16.5652H139.515V17.4866C139.403 17.6858 139.223 17.8477 138.973 17.9722C138.723 18.0967 138.459 18.1589 138.181 18.1589ZM142.585 18.7441V15.5442C142.707 15.3284 142.876 15.1541 143.094 15.0212C143.311 14.8884 143.564 14.822 143.852 14.822C144.207 14.822 144.469 14.8995 144.637 15.0544C144.805 15.2094 144.89 15.4487 144.894 15.7725V18.7441H145.782V15.7766C145.772 14.7058 145.218 14.1704 144.121 14.1704C143.481 14.1704 142.963 14.3862 142.566 14.8179L142.537 14.2534H141.697V18.7441H142.585ZM151.878 18.8271L152.122 18.8188C152.826 18.7746 153.384 18.5712 153.795 18.2087C154.206 17.8463 154.413 17.38 154.417 16.8101V12.7012H153.49V16.7976C153.49 17.2348 153.352 17.5737 153.075 17.8145C152.798 18.0552 152.399 18.1755 151.878 18.1755C151.362 18.1755 150.966 18.0545 150.687 17.8124C150.409 17.5703 150.27 17.2306 150.27 16.7935V12.7012H149.358V16.8184C149.364 17.4437 149.594 17.9348 150.049 18.2917C150.503 18.6487 151.113 18.8271 151.878 18.8271ZM156.521 18.7441V15.5442C156.643 15.3284 156.813 15.1541 157.03 15.0212C157.248 14.8884 157.501 14.822 157.789 14.822C158.144 14.822 158.405 14.8995 158.573 15.0544C158.741 15.2094 158.827 15.4487 158.83 15.7725V18.7441H159.718V15.7766C159.708 14.7058 159.155 14.1704 158.057 14.1704C157.417 14.1704 156.899 14.3862 156.502 14.8179L156.473 14.2534H155.633V18.7441H156.521ZM161.487 13.498C161.66 13.498 161.791 13.4565 161.88 13.3735C161.97 13.2905 162.015 13.1868 162.015 13.0623C162.015 12.9377 161.97 12.8326 161.88 12.7468C161.791 12.6611 161.66 12.6182 161.487 12.6182C161.314 12.6182 161.184 12.6611 161.096 12.7468C161.008 12.8326 160.964 12.9377 160.964 13.0623C160.964 13.1868 161.008 13.2905 161.096 13.3735C161.184 13.4565 161.314 13.498 161.487 13.498ZM161.924 18.7441V14.2534H161.036V18.7441H161.924ZM165.377 18.8271C165.844 18.8271 166.258 18.7303 166.618 18.5366C166.978 18.3429 167.255 18.0725 167.448 17.7252C167.642 17.378 167.739 16.9858 167.739 16.5486V16.4946C167.739 15.7918 167.52 15.2288 167.083 14.8054C166.647 14.3821 166.075 14.1704 165.368 14.1704C164.91 14.1704 164.503 14.2659 164.146 14.4568C163.789 14.6477 163.511 14.9189 163.311 15.2703C163.111 15.6217 163.011 16.0173 163.011 16.4573V16.5112C163.011 17.2085 163.229 17.7688 163.666 18.1921C164.103 18.6155 164.673 18.8271 165.377 18.8271ZM165.377 18.2004C164.929 18.2004 164.572 18.0496 164.304 17.748C164.037 17.4465 163.904 17.0466 163.904 16.5486C163.904 15.9869 164.038 15.5553 164.307 15.2537C164.576 14.9521 164.929 14.8013 165.368 14.8013C165.816 14.8013 166.175 14.9541 166.445 15.2599C166.715 15.5656 166.851 15.9648 166.851 16.4573C166.851 17.0079 166.718 17.4361 166.452 17.7418C166.187 18.0476 165.828 18.2004 165.377 18.2004ZM169.642 18.7441V15.5442C169.763 15.3284 169.933 15.1541 170.151 15.0212C170.368 14.8884 170.621 14.822 170.909 14.822C171.264 14.822 171.526 14.8995 171.694 15.0544C171.862 15.2094 171.947 15.4487 171.951 15.7725V18.7441H172.839V15.7766C172.829 14.7058 172.275 14.1704 171.178 14.1704C170.538 14.1704 170.019 14.3862 169.623 14.8179L169.594 14.2534H168.754V18.7441H169.642ZM174.022 14.3572L174.123 12.8298V12.3691H173.407L173.403 14.3572H174.022ZM176.722 18.8271C177.314 18.8271 177.795 18.7061 178.166 18.464C178.538 18.2219 178.723 17.9002 178.723 17.499C178.723 17.2583 178.657 17.0542 178.524 16.8868C178.391 16.7194 178.187 16.5763 177.912 16.4573C177.637 16.3383 177.278 16.2359 176.835 16.1501C176.391 16.0644 176.085 15.9744 175.915 15.8804C175.746 15.7863 175.661 15.6466 175.661 15.4612C175.661 15.2647 175.752 15.1056 175.935 14.9839C176.117 14.8621 176.37 14.8013 176.693 14.8013C177.007 14.8013 177.266 14.8774 177.473 15.0295C177.679 15.1817 177.782 15.363 177.782 15.5732H178.675C178.675 15.1637 178.492 14.8276 178.126 14.5647C177.759 14.3018 177.282 14.1704 176.693 14.1704C176.133 14.1704 175.673 14.2977 175.313 14.5522C174.953 14.8068 174.773 15.1181 174.773 15.4861C174.773 15.7074 174.836 15.8984 174.963 16.0588C175.089 16.2193 175.284 16.3577 175.548 16.4739C175.812 16.5901 176.169 16.6897 176.619 16.7727C177.068 16.8557 177.383 16.9546 177.564 17.0695C177.745 17.1843 177.835 17.3455 177.835 17.553C177.835 17.7494 177.734 17.9065 177.53 18.024C177.327 18.1416 177.058 18.2004 176.722 18.2004C176.357 18.2004 176.063 18.125 175.841 17.9742C175.619 17.8234 175.499 17.6194 175.483 17.3621H174.595C174.595 17.6277 174.686 17.8746 174.867 18.1029C175.047 18.3312 175.298 18.509 175.618 18.6362C175.938 18.7635 176.306 18.8271 176.722 18.8271ZM79.4379 28.2441V25.4509H82.9609V28.2441H83.8873V22.2012H82.9609V24.7993H79.4379V22.2012H78.5163V28.2441H79.4379ZM87.4176 28.3271C87.8848 28.3271 88.2984 28.2303 88.6583 28.0366C89.0183 27.8429 89.2951 27.5725 89.4887 27.2252C89.6823 26.878 89.7791 26.4858 89.7791 26.0486V25.9946C89.7791 25.2918 89.5607 24.7288 89.1239 24.3054C88.6871 23.8821 88.1152 23.6704 87.408 23.6704C86.9504 23.6704 86.5433 23.7659 86.1865 23.9568C85.8297 24.1477 85.5513 24.4189 85.3513 24.7703C85.1513 25.1217 85.0513 25.5173 85.0513 25.9573V26.0112C85.0513 26.7085 85.2697 27.2688 85.7065 27.6921C86.1433 28.1155 86.7136 28.3271 87.4176 28.3271ZM87.4176 27.7004C86.9696 27.7004 86.612 27.5496 86.3449 27.248C86.0777 26.9465 85.9441 26.5466 85.9441 26.0486C85.9441 25.4869 86.0785 25.0553 86.3473 24.7537C86.616 24.4521 86.9696 24.3013 87.408 24.3013C87.856 24.3013 88.2152 24.4541 88.4856 24.7599C88.7559 25.0656 88.8911 25.4648 88.8911 25.9573C88.8911 26.5079 88.7583 26.9361 88.4928 27.2418C88.2272 27.5476 87.8688 27.7004 87.4176 27.7004ZM91.6823 28.2441V25.0566C91.8903 24.6278 92.2855 24.4133 92.8678 24.4133C93.0246 24.4133 93.1702 24.423 93.3046 24.4424V23.7285C93.215 23.6898 93.0838 23.6704 92.911 23.6704C92.3767 23.6704 91.9639 23.871 91.6727 24.2722L91.6583 23.7534H90.7943V28.2441H91.6823ZM94.5503 22.998C94.723 22.998 94.8542 22.9565 94.9438 22.8735C95.0334 22.7905 95.0782 22.6868 95.0782 22.5623C95.0782 22.4377 95.0334 22.3326 94.9438 22.2468C94.8542 22.1611 94.723 22.1182 94.5503 22.1182C94.3775 22.1182 94.2471 22.1611 94.1591 22.2468C94.0711 22.3326 94.0271 22.4377 94.0271 22.5623C94.0271 22.6868 94.0711 22.7905 94.1591 22.8735C94.2471 22.9565 94.3775 22.998 94.5503 22.998ZM94.987 28.2441V23.7534H94.0991V28.2441H94.987ZM100.183 28.2441V27.6174H97.1446L100.039 24.2971V23.7534H96.1031V24.3884H98.9253L96.0599 27.6797V28.2441H100.183ZM103.137 28.3271C103.604 28.3271 104.018 28.2303 104.378 28.0366C104.738 27.8429 105.015 27.5725 105.208 27.2252C105.402 26.878 105.499 26.4858 105.499 26.0486V25.9946C105.499 25.2918 105.28 24.7288 104.844 24.3054C104.407 23.8821 103.835 23.6704 103.128 23.6704C102.67 23.6704 102.263 23.7659 101.906 23.9568C101.549 24.1477 101.271 24.4189 101.071 24.7703C100.871 25.1217 100.771 25.5173 100.771 25.9573V26.0112C100.771 26.7085 100.989 27.2688 101.426 27.6921C101.863 28.1155 102.433 28.3271 103.137 28.3271ZM103.137 27.7004C102.689 27.7004 102.332 27.5496 102.064 27.248C101.797 26.9465 101.664 26.5466 101.664 26.0486C101.664 25.4869 101.798 25.0553 102.067 24.7537C102.336 24.4521 102.689 24.3013 103.128 24.3013C103.576 24.3013 103.935 24.4541 104.205 24.7599C104.476 25.0656 104.611 25.4648 104.611 25.9573C104.611 26.5079 104.478 26.9361 104.212 27.2418C103.947 27.5476 103.588 27.7004 103.137 27.7004ZM107.402 28.2441V25.0442C107.524 24.8284 107.693 24.6541 107.911 24.5212C108.128 24.3884 108.381 24.322 108.669 24.322C109.024 24.322 109.286 24.3995 109.454 24.5544C109.622 24.7094 109.707 24.9487 109.711 25.2725V28.2441H110.599V25.2766C110.589 24.2058 110.035 23.6704 108.938 23.6704C108.298 23.6704 107.78 23.8862 107.383 24.3179L107.354 23.7534H106.514V28.2441H107.402ZM118.662 28.2441V27.6174H115.154L117.026 25.8618C117.902 25.04 118.341 24.3317 118.341 23.7368C118.341 23.2471 118.152 22.8549 117.774 22.5602C117.397 22.2655 116.883 22.1182 116.234 22.1182C115.539 22.1182 114.985 22.2897 114.571 22.6328C114.156 22.9759 113.949 23.4255 113.949 23.9817H114.837C114.837 23.5943 114.959 23.292 115.204 23.0748C115.449 22.8576 115.792 22.749 116.234 22.749C116.602 22.749 116.896 22.85 117.117 23.052C117.338 23.254 117.448 23.5127 117.448 23.8281C117.448 24.0633 117.38 24.2909 117.244 24.5109C117.108 24.7308 116.861 25.0165 116.502 25.3679L114.083 27.6921V28.2441H118.662ZM121.689 28.3271C122.444 28.3271 122.999 28.1086 123.354 27.6714C123.709 27.2342 123.887 26.566 123.887 25.6667V24.6707C123.877 23.8018 123.695 23.1592 123.34 22.7428C122.985 22.3264 122.431 22.1182 121.679 22.1182C120.921 22.1182 120.364 22.334 120.009 22.7656C119.654 23.1973 119.476 23.8572 119.476 24.7454V25.7705C119.489 26.62 119.674 27.2584 120.033 27.6859C120.391 28.1134 120.943 28.3271 121.689 28.3271ZM121.689 27.7004C121.244 27.7004 120.912 27.5448 120.693 27.2335C120.474 26.9222 120.364 26.4401 120.364 25.7871V24.5586C120.37 23.9443 120.478 23.4892 120.686 23.1931C120.894 22.8971 121.225 22.749 121.679 22.749C122.137 22.749 122.471 22.8977 122.682 23.1952C122.893 23.4926 122.999 23.9665 122.999 24.6167V25.8743C122.989 26.5051 122.878 26.9672 122.665 27.2605C122.453 27.5538 122.127 27.7004 121.689 27.7004ZM129.505 28.2441V27.6174H125.997L127.869 25.8618C128.745 25.04 129.184 24.3317 129.184 23.7368C129.184 23.2471 128.995 22.8549 128.617 22.5602C128.24 22.2655 127.726 22.1182 127.077 22.1182C126.382 22.1182 125.828 22.2897 125.413 22.6328C124.999 22.9759 124.792 23.4255 124.792 23.9817H125.68C125.68 23.5943 125.802 23.292 126.047 23.0748C126.292 22.8576 126.635 22.749 127.077 22.749C127.445 22.749 127.739 22.85 127.96 23.052C128.181 23.254 128.291 23.5127 128.291 23.8281C128.291 24.0633 128.223 24.2909 128.087 24.5109C127.951 24.7308 127.704 25.0165 127.345 25.3679L124.926 27.6921V28.2441H129.505ZM132.532 28.3271C133.287 28.3271 133.842 28.1086 134.197 27.6714C134.552 27.2342 134.73 26.566 134.73 25.6667V24.6707C134.72 23.8018 134.538 23.1592 134.183 22.7428C133.828 22.3264 133.274 22.1182 132.522 22.1182C131.764 22.1182 131.207 22.334 130.852 22.7656C130.496 23.1973 130.319 23.8572 130.319 24.7454V25.7705C130.332 26.62 130.517 27.2584 130.876 27.6859C131.234 28.1134 131.786 28.3271 132.532 28.3271ZM132.532 27.7004C132.087 27.7004 131.755 27.5448 131.536 27.2335C131.316 26.9222 131.207 26.4401 131.207 25.7871V24.5586C131.213 23.9443 131.32 23.4892 131.528 23.1931C131.736 22.8971 132.068 22.749 132.522 22.749C132.98 22.749 133.314 22.8977 133.525 23.1952C133.736 23.4926 133.842 23.9665 133.842 24.6167V25.8743C133.832 26.5051 133.721 26.9672 133.508 27.2605C133.296 27.5538 132.97 27.7004 132.532 27.7004ZM139.083 29.9707V27.8083C139.445 28.1542 139.941 28.3271 140.571 28.3271C141.189 28.3271 141.679 28.1182 142.04 27.7004C142.402 27.2826 142.582 26.732 142.582 26.0486V25.978C142.582 25.2531 142.401 24.6873 142.038 24.2805C141.675 23.8738 141.181 23.6704 140.557 23.6704C139.914 23.6704 139.411 23.8641 139.05 24.2515L139.007 23.7534H138.196V29.9707H139.083ZM140.303 27.7004C139.755 27.7004 139.349 27.4957 139.083 27.0862V24.9404C139.352 24.5282 139.755 24.322 140.293 24.322C140.728 24.322 141.071 24.4687 141.32 24.762C141.57 25.0553 141.695 25.4551 141.695 25.9614C141.695 26.5369 141.569 26.9707 141.318 27.2626C141.067 27.5545 140.728 27.7004 140.303 27.7004ZM144.5 28.2441V25.0566C144.708 24.6278 145.103 24.4133 145.686 24.4133C145.842 24.4133 145.988 24.423 146.122 24.4424V23.7285C146.033 23.6898 145.902 23.6704 145.729 23.6704C145.194 23.6704 144.782 23.871 144.491 24.2722L144.476 23.7534H143.612V28.2441H144.5ZM148.875 28.3271C149.342 28.3271 149.756 28.2303 150.116 28.0366C150.476 27.8429 150.753 27.5725 150.946 27.2252C151.14 26.878 151.237 26.4858 151.237 26.0486V25.9946C151.237 25.2918 151.018 24.7288 150.582 24.3054C150.145 23.8821 149.573 23.6704 148.866 23.6704C148.408 23.6704 148.001 23.7659 147.644 23.9568C147.287 24.1477 147.009 24.4189 146.809 24.7703C146.609 25.1217 146.509 25.5173 146.509 25.9573V26.0112C146.509 26.7085 146.727 27.2688 147.164 27.6921C147.601 28.1155 148.171 28.3271 148.875 28.3271ZM148.875 27.7004C148.427 27.7004 148.07 27.5496 147.802 27.248C147.535 26.9465 147.402 26.5466 147.402 26.0486C147.402 25.4869 147.536 25.0553 147.805 24.7537C148.074 24.4521 148.427 24.3013 148.866 24.3013C149.314 24.3013 149.673 24.4541 149.943 24.7599C150.214 25.0656 150.349 25.4648 150.349 25.9573C150.349 26.5079 150.216 26.9361 149.95 27.2418C149.685 27.5476 149.326 27.7004 148.875 27.7004ZM154.225 30.0122C154.897 30.0122 155.432 29.8448 155.83 29.51C156.229 29.1752 156.428 28.7173 156.428 28.1362V23.7534H155.617L155.573 24.2515C155.218 23.8641 154.724 23.6704 154.09 23.6704C153.473 23.6704 152.977 23.8772 152.602 24.2909C152.228 24.7045 152.041 25.2614 152.041 25.9614C152.041 26.6919 152.229 27.2688 152.605 27.6921C152.981 28.1155 153.473 28.3271 154.081 28.3271C154.695 28.3271 155.18 28.1501 155.535 27.7959V28.1819C155.535 28.5637 155.414 28.8598 155.173 29.0701C154.931 29.2804 154.594 29.3855 154.162 29.3855C153.612 29.3855 153.146 29.1821 152.765 28.7754L152.305 29.2361C152.494 29.4768 152.767 29.6663 153.125 29.8047C153.484 29.943 153.85 30.0122 154.225 30.0122ZM154.301 27.6755C153.869 27.6755 153.533 27.531 153.293 27.2418C153.053 26.9527 152.933 26.5549 152.933 26.0486C152.933 25.4786 153.055 25.0483 153.298 24.7578C153.541 24.4673 153.879 24.322 154.311 24.322C154.855 24.322 155.263 24.5365 155.535 24.9653V27.0156C155.273 27.4556 154.861 27.6755 154.301 27.6755ZM158.557 28.2441V25.0566C158.764 24.6278 159.16 24.4133 159.742 24.4133C159.899 24.4133 160.044 24.423 160.179 24.4424V23.7285C160.089 23.6898 159.958 23.6704 159.785 23.6704C159.251 23.6704 158.838 23.871 158.547 24.2722L158.533 23.7534H157.669V28.2441H158.557ZM162.308 28.3271C162.88 28.3271 163.373 28.1418 163.786 27.771C163.818 27.9979 163.86 28.1556 163.911 28.2441H164.842V28.1777C164.72 27.9342 164.66 27.6064 164.66 27.1941V25.1272C164.647 24.6734 164.471 24.3172 164.132 24.0585C163.792 23.7998 163.324 23.6704 162.725 23.6704C162.348 23.6704 162.001 23.7313 161.686 23.853C161.371 23.9748 161.121 24.1401 160.937 24.349C160.753 24.5579 160.661 24.7744 160.661 24.9985H161.554C161.554 24.8021 161.661 24.6347 161.876 24.4963C162.09 24.358 162.356 24.2888 162.672 24.2888C163.034 24.2888 163.308 24.3684 163.493 24.5275C163.679 24.6866 163.772 24.9003 163.772 25.1687V25.5215H162.908C162.162 25.5215 161.584 25.6508 161.172 25.9095C160.761 26.1683 160.556 26.5314 160.556 26.999C160.556 27.3836 160.72 27.7011 161.048 27.9515C161.376 28.2019 161.796 28.3271 162.308 28.3271ZM162.437 27.6589C162.146 27.6589 161.908 27.5911 161.722 27.4556C161.536 27.32 161.444 27.1318 161.444 26.8911C161.444 26.3405 161.988 26.0652 163.076 26.0652H163.772V26.9866C163.66 27.1858 163.479 27.3477 163.229 27.4722C162.98 27.5967 162.716 27.6589 162.437 27.6589ZM166.836 28.2441V24.9653C167.051 24.5365 167.449 24.322 168.031 24.322C168.771 24.322 169.14 24.6485 169.14 25.3015V28.2441H170.033V25.2642C170.068 24.9764 170.195 24.7474 170.412 24.5773C170.63 24.4071 170.903 24.322 171.233 24.322C171.633 24.322 171.918 24.4016 172.087 24.5607C172.257 24.7198 172.342 24.9598 172.342 25.2808V28.2441H173.23V25.2351C173.21 24.192 172.631 23.6704 171.492 23.6704C171.114 23.6704 170.787 23.7368 170.511 23.8696C170.234 24.0024 170.009 24.1768 169.836 24.3926C169.574 23.9111 169.079 23.6704 168.353 23.6704C167.707 23.6704 167.193 23.8641 166.812 24.2515L166.788 23.7534H165.948V28.2441H166.836ZM80.6954 39.6948L80.8778 39.2258C80.5034 38.9602 80.1803 38.5922 79.9083 38.1218C79.4571 37.336 79.2315 36.4091 79.2315 35.3411L79.2363 34.9883C79.2651 34.1997 79.4291 33.4872 79.7283 32.8508C80.0275 32.2144 80.4106 31.7413 80.8778 31.4314L80.6954 30.925C80.2827 31.1187 79.8843 31.4508 79.5003 31.9211C79.1163 32.3915 78.8275 32.9145 78.6339 33.49C78.4403 34.0655 78.3435 34.6659 78.3435 35.2913C78.3435 36.6 78.7211 37.7248 79.4763 38.6655C79.8635 39.147 80.2699 39.4901 80.6954 39.6948ZM84.4658 37.8271C85.0289 37.8271 85.5225 37.7545 85.9465 37.6093C86.3705 37.464 86.7008 37.2447 86.9376 36.9514V34.7351H84.4034V35.3826H86.0209V36.7397C85.8513 36.8975 85.6369 37.0095 85.3777 37.0759C85.1185 37.1423 84.8161 37.1755 84.4706 37.1755C83.8594 37.1755 83.3746 36.9756 83.0162 36.5758C82.6578 36.176 82.4786 35.6371 82.4786 34.9592V34.4653C82.4818 33.7542 82.6426 33.2112 82.961 32.8363C83.2794 32.4614 83.7474 32.2739 84.365 32.2739C85.2929 32.2739 85.8433 32.6737 86.0161 33.4734H86.9376C86.8384 32.8813 86.5664 32.424 86.1217 32.1017C85.6769 31.7793 85.0897 31.6182 84.3602 31.6182C83.4706 31.6182 82.7802 31.8686 82.2891 32.3694C81.7979 32.8702 81.5523 33.5758 81.5523 34.4861V35.0132C81.5587 35.5749 81.6827 36.0688 81.9243 36.4949C82.1659 36.921 82.5074 37.2496 82.949 37.4806C83.3906 37.7116 83.8962 37.8271 84.4658 37.8271ZM89.124 37.7441V34.5566C89.332 34.1278 89.7272 33.9133 90.3096 33.9133C90.4664 33.9133 90.612 33.923 90.7463 33.9424V33.2285C90.6567 33.1898 90.5256 33.1704 90.3528 33.1704C89.8184 33.1704 89.4056 33.371 89.1144 33.7722L89.1 33.2534H88.2361V37.7441H89.124ZM92.8751 37.8271C93.4479 37.8271 93.9407 37.6418 94.3535 37.271C94.3855 37.4979 94.4271 37.6556 94.4783 37.7441H95.4094V37.6777C95.2878 37.4342 95.227 37.1064 95.227 36.6941V34.6272C95.2142 34.1734 95.0382 33.8172 94.6991 33.5585C94.3599 33.2998 93.8911 33.1704 93.2927 33.1704C92.9151 33.1704 92.5688 33.2313 92.2536 33.353C91.9384 33.4748 91.6888 33.6401 91.5048 33.849C91.3208 34.0579 91.2288 34.2744 91.2288 34.4985H92.1216C92.1216 34.3021 92.2288 34.1347 92.4432 33.9963C92.6575 33.858 92.9231 33.7888 93.2399 33.7888C93.6015 33.7888 93.8751 33.8684 94.0607 34.0275C94.2463 34.1866 94.3391 34.4003 94.3391 34.6687V35.0215H93.4751C92.7295 35.0215 92.1512 35.1508 91.74 35.4095C91.3288 35.6683 91.1232 36.0314 91.1232 36.499C91.1232 36.8836 91.2872 37.2011 91.6152 37.4515C91.9432 37.7019 92.3632 37.8271 92.8751 37.8271ZM93.0047 37.1589C92.7135 37.1589 92.4752 37.0911 92.2896 36.9556C92.104 36.82 92.0112 36.6318 92.0112 36.3911C92.0112 35.8405 92.5552 35.5652 93.6431 35.5652H94.3391V36.4866C94.2271 36.6858 94.0463 36.8477 93.7967 36.9722C93.5471 37.0967 93.2831 37.1589 93.0047 37.1589ZM97.4086 37.7441V34.5442C97.5302 34.3284 97.6998 34.1541 97.9174 34.0212C98.135 33.8884 98.3878 33.822 98.6758 33.822C99.0309 33.822 99.2925 33.8995 99.4605 34.0544C99.6285 34.2094 99.7141 34.4487 99.7173 34.7725V37.7441H100.605V34.7766C100.596 33.7058 100.042 33.1704 98.9445 33.1704C98.3046 33.1704 97.7862 33.3862 97.3894 33.8179L97.3606 33.2534H96.5207V37.7441H97.4086ZM103.363 37.8271C103.584 37.8271 103.811 37.7995 104.044 37.7441V37.1216C103.865 37.1548 103.724 37.1714 103.622 37.1714C103.414 37.1714 103.267 37.1264 103.18 37.0365C103.094 36.9466 103.051 36.8117 103.051 36.6318V33.8469H104.02V33.2534H103.051V32.166H102.163V33.2534H101.217V33.8469H102.163V36.6318C102.163 37.0137 102.264 37.3083 102.465 37.5159C102.667 37.7234 102.966 37.8271 103.363 37.8271ZM108.36 37.7441V33.0874L111.878 37.7441H112.804V31.7012H111.887V36.3787L108.36 31.7012H107.433V37.7441H108.36ZM116.334 37.8271C116.802 37.8271 117.215 37.7303 117.575 37.5366C117.935 37.3429 118.212 37.0725 118.406 36.7252C118.599 36.378 118.696 35.9858 118.696 35.5486V35.4946C118.696 34.7918 118.478 34.2288 118.041 33.8054C117.604 33.3821 117.032 33.1704 116.325 33.1704C115.867 33.1704 115.46 33.2659 115.103 33.4568C114.747 33.6477 114.468 33.9189 114.268 34.2703C114.068 34.6217 113.968 35.0173 113.968 35.4573V35.5112C113.968 36.2085 114.187 36.7688 114.623 37.1921C115.06 37.6155 115.631 37.8271 116.334 37.8271ZM116.334 37.2004C115.887 37.2004 115.529 37.0496 115.262 36.748C114.995 36.4465 114.861 36.0466 114.861 35.5486C114.861 34.9869 114.995 34.5553 115.264 34.2537C115.533 33.9521 115.887 33.8013 116.325 33.8013C116.773 33.8013 117.132 33.9541 117.402 34.2599C117.673 34.5656 117.808 34.9648 117.808 35.4573C117.808 36.0079 117.675 36.4361 117.41 36.7418C117.144 37.0476 116.786 37.2004 116.334 37.2004ZM124.134 37.8271C124.8 37.8271 125.337 37.6722 125.745 37.3623C126.153 37.0524 126.357 36.636 126.357 36.113C126.357 35.7838 126.25 35.4891 126.037 35.229C125.825 34.9689 125.536 34.7711 125.171 34.6355C125.485 34.5027 125.733 34.3187 125.917 34.0835C126.101 33.8483 126.193 33.5799 126.193 33.2783C126.193 32.7692 126.004 32.3652 125.625 32.0664C125.245 31.7676 124.749 31.6182 124.134 31.6182C123.517 31.6182 123.019 31.7676 122.642 32.0664C122.264 32.3652 122.075 32.7692 122.075 33.2783C122.075 33.5771 122.165 33.8442 122.344 34.0793C122.523 34.3145 122.768 34.4985 123.078 34.6313C122.714 34.7669 122.428 34.9661 122.222 35.229C122.015 35.4919 121.912 35.7865 121.912 36.113C121.912 36.6332 122.114 37.049 122.519 37.3602C122.924 37.6715 123.462 37.8271 124.134 37.8271ZM124.134 34.3201C123.779 34.3201 123.495 34.2253 123.282 34.0358C123.07 33.8462 122.963 33.5979 122.963 33.2908C122.963 32.9698 123.071 32.7159 123.287 32.5292C123.503 32.3424 123.786 32.249 124.134 32.249C124.473 32.249 124.753 32.3459 124.974 32.5396C125.195 32.7332 125.305 32.9836 125.305 33.2908C125.305 33.5979 125.199 33.8462 124.986 34.0358C124.773 34.2253 124.489 34.3201 124.134 34.3201ZM124.134 37.2004C123.715 37.2004 123.388 37.1022 123.153 36.9058C122.918 36.7093 122.8 36.4395 122.8 36.0964C122.8 35.7533 122.921 35.4766 123.162 35.2664C123.404 35.0561 123.725 34.9509 124.125 34.9509C124.525 34.9509 124.849 35.0575 125.097 35.2705C125.345 35.4836 125.469 35.7589 125.469 36.0964C125.469 36.4368 125.35 36.7059 125.113 36.9037C124.877 37.1015 124.55 37.2004 124.134 37.2004ZM131.125 37.7441V36.3413H132.095V35.7146H131.125V31.7012H130.18L127.05 35.8889V36.3413H130.233V37.7441H131.125ZM130.233 35.7146H128.058L130.127 32.9172L130.233 32.7512V35.7146ZM134.977 37.8271C135.643 37.8271 136.18 37.6722 136.587 37.3623C136.995 37.0524 137.199 36.636 137.199 36.113C137.199 35.7838 137.093 35.4891 136.88 35.229C136.667 34.9689 136.379 34.7711 136.014 34.6355C136.328 34.5027 136.576 34.3187 136.76 34.0835C136.944 33.8483 137.036 33.5799 137.036 33.2783C137.036 32.7692 136.847 32.3652 136.467 32.0664C136.088 31.7676 135.592 31.6182 134.977 31.6182C134.36 31.6182 133.862 31.7676 133.484 32.0664C133.107 32.3652 132.918 32.7692 132.918 33.2783C132.918 33.5771 133.008 33.8442 133.187 34.0793C133.366 34.3145 133.611 34.4985 133.921 34.6313C133.556 34.7669 133.271 34.9661 133.064 35.229C132.858 35.4919 132.755 35.7865 132.755 36.113C132.755 36.6332 132.957 37.049 133.362 37.3602C133.767 37.6715 134.305 37.8271 134.977 37.8271ZM134.977 34.3201C134.622 34.3201 134.338 34.2253 134.125 34.0358C133.912 33.8462 133.806 33.5979 133.806 33.2908C133.806 32.9698 133.914 32.7159 134.13 32.5292C134.346 32.3424 134.628 32.249 134.977 32.249C135.316 32.249 135.596 32.3459 135.817 32.5396C136.038 32.7332 136.148 32.9836 136.148 33.2908C136.148 33.5979 136.042 33.8462 135.829 34.0358C135.616 34.2253 135.332 34.3201 134.977 34.3201ZM134.977 37.2004C134.558 37.2004 134.231 37.1022 133.996 36.9058C133.76 36.7093 133.643 36.4395 133.643 36.0964C133.643 35.7533 133.764 35.4766 134.005 35.2664C134.247 35.0561 134.568 34.9509 134.968 34.9509C135.368 34.9509 135.692 35.0575 135.94 35.2705C136.188 35.4836 136.312 35.7589 136.312 36.0964C136.312 36.4368 136.193 36.7059 135.956 36.9037C135.72 37.1015 135.393 37.2004 134.977 37.2004ZM140.557 37.8271C141.255 37.8271 141.798 37.648 142.187 37.2897C142.575 36.9314 142.77 36.4409 142.77 35.8184C142.77 35.1986 142.582 34.7067 142.208 34.3429C141.834 33.979 141.328 33.7971 140.691 33.7971C140.256 33.7971 139.867 33.8843 139.525 34.0586L139.736 32.4109H142.563V31.7012H138.983L138.627 34.7144L139.338 34.8721L139.573 34.7061C139.794 34.5594 140.098 34.4861 140.485 34.4861C140.907 34.4861 141.246 34.6085 141.5 34.8534C141.755 35.0983 141.882 35.4227 141.882 35.8267C141.882 36.2555 141.764 36.5917 141.529 36.8352C141.294 37.0787 140.97 37.2004 140.557 37.2004C140.179 37.2004 139.875 37.1126 139.645 36.9369C139.415 36.7612 139.272 36.5004 139.218 36.1545H138.378C138.432 36.6775 138.655 37.087 139.045 37.3831C139.435 37.6791 139.939 37.8271 140.557 37.8271ZM145.978 37.8271C146.676 37.8271 147.219 37.648 147.608 37.2897C147.997 36.9314 148.191 36.4409 148.191 35.8184C148.191 35.1986 148.004 34.7067 147.63 34.3429C147.255 33.979 146.75 33.7971 146.113 33.7971C145.678 33.7971 145.289 33.8843 144.946 34.0586L145.158 32.4109H147.985V31.7012H144.404L144.049 34.7144L144.759 34.8721L144.994 34.7061C145.215 34.5594 145.519 34.4861 145.906 34.4861C146.329 34.4861 146.667 34.6085 146.922 34.8534C147.176 35.0983 147.303 35.4227 147.303 35.8267C147.303 36.2555 147.186 36.5917 146.95 36.8352C146.715 37.0787 146.391 37.2004 145.978 37.2004C145.601 37.2004 145.297 37.1126 145.066 36.9369C144.836 36.7612 144.694 36.5004 144.639 36.1545H143.799C143.854 36.6775 144.076 37.087 144.466 37.3831C144.857 37.6791 145.361 37.8271 145.978 37.8271ZM152.811 37.7441V36.3413H153.781V35.7146H152.811V31.7012H151.865L148.736 35.8889V36.3413H151.918V37.7441H152.811ZM151.918 35.7146H149.744L151.813 32.9172L151.918 32.7512V35.7146ZM154.273 39.6948C154.695 39.4928 155.099 39.1525 155.485 38.6738C155.87 38.1951 156.157 37.6729 156.344 37.1071C156.531 36.5412 156.625 35.9498 156.625 35.3328C156.625 34.6825 156.529 34.0724 156.339 33.5024C156.149 32.9325 155.862 32.4109 155.48 31.9377C155.097 31.4646 154.695 31.127 154.273 30.925L154.085 31.394C154.399 31.6154 154.681 31.9239 154.933 32.3196C155.184 32.7153 155.38 33.1628 155.521 33.6622C155.661 34.1617 155.732 34.7019 155.732 35.283V35.4158C155.725 36.2542 155.573 37.0171 155.273 37.7047C154.974 38.3923 154.578 38.8993 154.085 39.2258L154.273 39.6948Z" fill="#6B7280"/>
</svg>
