<svg width="1664" height="175" fill="none" xmlns="http://www.w3.org/2000/svg"><g clip-path="url(#a)" fill="#1B1340"><path d="M141.941 172.268v-68.341c0-27.882 16.337-50.087 49.014-50.087a62.902 62.902 0 0 1 15.578 1.725V83.68c-3.712-.246-6.923-.246-8.412-.246-17.31 0-24.753 7.893-24.753 23.931v64.903h-31.427ZM215.942 114.305c0-34.296 25.991-60.448 62.134-60.448s62.125 26.135 62.125 60.448-25.99 60.676-62.129 60.676c-36.139 0-62.13-26.398-62.13-60.676Zm93.322 0c0-19.493-13.121-33.308-31.188-33.308s-31.193 13.803-31.193 33.308c0 19.738 13.121 33.308 31.193 33.308 18.072 0 31.184-13.587 31.184-33.308h.004ZM431.291 81.226H397.38v43.177c0 15.049 5.444 21.959 21.041 21.959 1.484 0 5.193 0 9.901-.246v25.415c-6.435 1.725-12.117 2.713-18.318 2.713-26.238 0-44.063-15.792-44.063-45.644V81.226h-21.04V56.307h5.245a15.834 15.834 0 0 0 11.175-4.617 15.7 15.7 0 0 0 4.62-11.144v-23.47h31.439v39.231h33.911v24.919ZM440.694 114.305c0-34.296 25.991-60.448 62.134-60.448 36.144 0 62.13 26.135 62.13 60.448s-25.991 60.693-62.13 60.693c-36.138 0-62.134-26.415-62.134-60.693Zm93.318 0c0-19.493-13.121-33.308-31.188-33.308s-31.192 13.802-31.192 33.308c0 19.738 13.121 33.308 31.192 33.308 18.072 0 31.188-13.588 31.188-33.308ZM581.294 172.268v-65.874c0-30.595 19.556-52.554 54.458-52.554 34.654 0 54.21 21.96 54.21 52.554v65.874h-31.188v-63.407c0-17.02-7.677-27.631-23.022-27.631-15.346 0-23.023 10.61-23.023 27.631v63.407h-31.435ZM0 127.405v44.859h31.59v-42.918c0-4.176 1.665-8.18 4.627-11.133a15.82 15.82 0 0 1 11.169-4.611h32.391a57.087 57.087 0 0 0 40.285-16.642 56.711 56.711 0 0 0 16.687-40.157A56.708 56.708 0 0 0 120.06 16.64 57.082 57.082 0 0 0 79.769 0H0v56.074h31.59V29.637h46.05a27.01 27.01 0 0 1 19.063 7.87 26.83 26.83 0 0 1 7.901 18.998 26.833 26.833 0 0 1-7.898 19.005 27.01 27.01 0 0 1-19.067 7.872H44.163a44.266 44.266 0 0 0-16.904 3.345 44.15 44.15 0 0 0-14.331 9.543 43.987 43.987 0 0 0-9.572 14.285A43.871 43.871 0 0 0 0 127.405ZM792.033 173.284V56.59h69.502v14.758h-53.371v36.725h50.968v14.758h-50.968v50.453h-16.131ZM937.474 162.987C929.58 170.996 919.741 175 907.957 175c-11.783 0-21.679-4.004-29.688-12.013-7.894-8.122-11.841-18.076-11.841-29.86 0-11.783 3.947-21.679 11.841-29.688 8.009-8.123 17.905-12.184 29.688-12.184 11.784 0 21.623 4.061 29.517 12.184 8.009 8.009 12.013 17.905 12.013 29.688 0 11.784-4.004 21.738-12.013 29.86Zm-48.05-49.594c-4.805 5.148-7.208 11.726-7.208 19.734 0 8.009 2.403 14.587 7.208 19.735 4.919 5.149 11.097 7.723 18.533 7.723 7.437 0 13.558-2.574 18.363-7.723 4.919-5.148 7.379-11.726 7.379-19.735 0-8.008-2.46-14.586-7.379-19.734-4.805-5.149-10.926-7.723-18.363-7.723-7.436 0-13.614 2.574-18.533 7.723ZM964.922 122.488c0-9.725 2.746-17.333 8.237-22.824 5.492-5.606 12.699-8.409 21.623-8.409 2.86 0 5.778.4 8.748 1.201v14.415c-1.03-.114-3.08-.171-6.174-.171-5.377 0-9.496 1.487-12.356 4.462-2.86 2.974-4.29 8.008-4.29 15.101v47.021h-15.788v-50.796ZM1060.34 173.284V56.59h36.38c13.16 0 22.88 2.86 29.17 8.58 6.41 5.72 9.61 13.558 9.61 23.51 0 6.522-1.94 11.956-5.83 16.304-3.78 4.347-8.24 6.978-13.39 7.894v.343c7.21.915 13.16 3.661 17.85 8.237 4.81 4.576 7.21 10.64 7.21 18.191 0 10.411-3.49 18.648-10.47 24.711-6.98 5.949-17.1 8.924-30.37 8.924h-40.16Zm16.13-14.758h22.82c17.05 0 25.57-6.293 25.57-18.877 0-6.407-2.4-11.155-7.2-14.244-4.69-3.089-12.07-4.633-22.14-4.633h-19.05v37.754Zm0-52.513h19.05c8.24 0 14.19-1.373 17.85-4.118 3.77-2.746 5.66-7.15 5.66-13.214 0-11.555-7.84-17.333-23.51-17.333h-19.05v34.665ZM1216.18 165.39c-6.18 6.407-14.48 9.61-24.89 9.61s-18.7-3.203-24.88-9.61-9.27-14.701-9.27-24.883V92.971h15.79v46.334c0 6.636 1.55 11.784 4.64 15.445 3.08 3.661 7.66 5.492 13.72 5.492 6.07 0 10.64-1.831 13.73-5.492s4.64-8.809 4.64-15.445V92.971h15.78v47.536c0 10.182-3.08 18.476-9.26 24.883ZM1273.94 175c-8.93 0-16.31-2.403-22.14-7.208-5.72-4.805-8.81-11.269-9.27-19.391h15.79c.46 4.004 2.12 7.207 4.98 9.61 2.97 2.402 6.52 3.604 10.64 3.604 4.23 0 7.49-.916 9.78-2.746 2.29-1.831 3.43-4.062 3.43-6.693 0-3.089-1.49-5.549-4.46-7.379-2.98-1.945-6.58-3.489-10.81-4.634-4.12-1.144-8.3-2.516-12.53-4.118-4.12-1.602-7.67-4.176-10.64-7.723-2.97-3.546-4.46-8.065-4.46-13.557 0-6.292 2.46-11.783 7.38-16.474 4.92-4.69 11.72-7.036 20.42-7.036 8.24 0 14.99 2.23 20.25 6.693 5.26 4.462 8.29 10.697 9.09 18.705h-15.78c-1.26-8.008-5.78-12.013-13.56-12.013-3.43 0-6.29.916-8.58 2.746-2.29 1.831-3.43 4.29-3.43 7.379 0 3.089 1.48 5.549 4.46 7.38 2.97 1.83 6.52 3.317 10.64 4.461 4.23 1.144 8.41 2.517 12.53 4.119 4.23 1.487 7.83 4.061 10.81 7.722 2.97 3.547 4.46 8.123 4.46 13.729 0 6.636-2.75 12.127-8.24 16.474-5.49 4.233-12.41 6.35-20.76 6.35ZM1318.2 173.284V92.971h15.79v80.313h-15.79Zm.51-98.675c-1.94-1.945-2.91-4.347-2.91-7.208 0-2.86.97-5.262 2.91-7.207 2.06-2.06 4.52-3.09 7.38-3.09 2.86 0 5.27 1.03 7.21 3.09 2.06 1.945 3.09 4.347 3.09 7.207 0 2.86-1.03 5.263-3.09 7.208-1.94 1.945-4.35 2.917-7.21 2.917-2.86 0-5.32-.972-7.38-2.917ZM1354.73 125.748c0-10.182 3.14-18.476 9.44-24.883 6.29-6.407 14.76-9.61 25.39-9.61 10.64 0 19.11 3.203 25.4 9.61 6.3 6.407 9.44 14.701 9.44 24.883v47.536h-15.79V126.95c0-6.75-1.6-11.956-4.8-15.617-3.21-3.775-7.95-5.663-14.25-5.663-6.29 0-11.04 1.888-14.24 5.663-3.2 3.661-4.8 8.867-4.8 15.617v46.334h-15.79v-47.536ZM1480.41 175c-11.79 0-21.51-3.89-29.17-11.669-7.56-7.78-11.33-17.848-11.33-30.204 0-12.355 3.77-22.423 11.33-30.203 7.55-7.78 17.27-11.669 29.17-11.669 10.64 0 19.68 4.061 27.11 12.184 7.55 8.009 11.33 17.905 11.33 29.688 0 2.517-.12 4.577-.34 6.178h-62.3c1.15 6.522 3.89 11.727 8.24 15.617 4.46 3.775 9.78 5.663 15.96 5.663 9.95 0 16.7-3.776 20.25-11.326h16.13c-2.4 7.779-6.92 14.014-13.56 18.705-6.52 4.691-14.13 7.036-22.82 7.036Zm-24.03-48.737h46.17c-.58-5.606-2.92-10.411-7.04-14.415-4.12-4.119-9.15-6.178-15.1-6.178-6.18 0-11.44 1.888-15.79 5.663-4.23 3.661-6.98 8.638-8.24 14.93ZM1562.19 175c-8.93 0-16.31-2.403-22.14-7.208-5.72-4.805-8.81-11.269-9.27-19.391h15.79c.46 4.004 2.12 7.207 4.98 9.61 2.97 2.402 6.52 3.604 10.64 3.604 4.23 0 7.49-.916 9.78-2.746 2.29-1.831 3.43-4.062 3.43-6.693 0-3.089-1.49-5.549-4.46-7.379-2.98-1.945-6.58-3.489-10.81-4.634-4.12-1.144-8.3-2.516-12.53-4.118-4.12-1.602-7.67-4.176-10.64-7.723-2.98-3.546-4.46-8.065-4.46-13.557 0-6.292 2.46-11.783 7.38-16.474 4.92-4.69 11.72-7.036 20.42-7.036 8.24 0 14.98 2.23 20.25 6.693 5.26 4.462 8.29 10.697 9.09 18.705h-15.79c-1.25-8.008-5.77-12.013-13.55-12.013-3.43 0-6.29.916-8.58 2.746-2.29 1.831-3.43 4.29-3.43 7.379 0 3.089 1.48 5.549 4.46 7.38 2.97 1.83 6.52 3.317 10.64 4.461 4.23 1.144 8.41 2.517 12.52 4.119 4.24 1.487 7.84 4.061 10.82 7.722 2.97 3.547 4.46 8.123 4.46 13.729 0 6.636-2.75 12.127-8.24 16.474-5.49 4.233-12.41 6.35-20.76 6.35ZM1634.25 175c-8.93 0-16.31-2.403-22.14-7.208-5.72-4.805-8.81-11.269-9.27-19.391h15.79c.46 4.004 2.12 7.207 4.98 9.61 2.97 2.402 6.52 3.604 10.64 3.604 4.23 0 7.49-.916 9.78-2.746 2.29-1.831 3.43-4.062 3.43-6.693 0-3.089-1.49-5.549-4.46-7.379-2.97-1.945-6.58-3.489-10.81-4.634-4.12-1.144-8.3-2.516-12.53-4.118-4.12-1.602-7.66-4.176-10.64-7.723-2.97-3.546-4.46-8.065-4.46-13.557 0-6.292 2.46-11.783 7.38-16.474 4.92-4.69 11.73-7.036 20.42-7.036 8.24 0 14.99 2.23 20.25 6.693 5.26 4.462 8.29 10.697 9.1 18.705h-15.79c-1.26-8.008-5.78-12.013-13.56-12.013-3.43 0-6.29.916-8.58 2.746-2.29 1.831-3.43 4.29-3.43 7.379 0 3.089 1.48 5.549 4.46 7.38 2.97 1.83 6.52 3.317 10.64 4.461 4.23 1.144 8.41 2.517 12.53 4.119 4.23 1.487 7.83 4.061 10.81 7.722 2.97 3.547 4.46 8.123 4.46 13.729 0 6.636-2.75 12.127-8.24 16.474-5.49 4.233-12.41 6.35-20.76 6.35Z"/></g><defs><clipPath id="a"><path fill="#fff" d="M0 0h1663.18v175H0z"/></clipPath></defs></svg>
