<svg width="58" height="10" viewBox="0 0 58 10" fill="none" xmlns="http://www.w3.org/2000/svg">
<path d="M36.3242 9.35864V0.478882H38.5123L40.5633 5.80344C40.7454 6.24907 40.9024 6.70561 41.0336 7.17069H41.0544C41.1863 6.70589 41.3433 6.2494 41.5246 5.80344L43.5756 0.478882H45.7637V9.35864H44.1778V3.40894C44.176 3.213 44.1847 3.01711 44.2038 2.8222H44.1778C44.1293 3.03211 44.0631 3.23704 43.9799 3.43453L41.7068 9.25445H40.3967L38.1167 3.43453C38.0346 3.23524 37.9645 3.03073 37.9067 2.8222H37.8824C37.9 3.01722 37.9081 3.21306 37.9067 3.40894V9.35864H36.3242Z" fill="#6D4AFF"/>
<path d="M51.1856 3.50033C51.6449 3.75412 52.0246 4.14267 52.2788 4.61898C52.5512 5.13623 52.6888 5.72017 52.6779 6.31157V9.35861H51.2897L51.1908 8.44468C51.0098 8.77601 50.744 9.04709 50.4239 9.22701C50.0807 9.41488 49.6982 9.50855 49.3116 9.49936C48.8179 9.5046 48.3326 9.36539 47.9096 9.09723C47.4816 8.82353 47.1329 8.4316 46.9014 7.96396C46.6486 7.44929 46.5216 6.87634 46.5318 6.29695C46.525 5.72669 46.6634 5.16492 46.9327 4.67016C47.1959 4.18925 47.5787 3.79303 48.0397 3.52409C48.5171 3.24466 49.0553 3.10103 49.6014 3.10734C50.1523 3.09727 50.6969 3.23236 51.1856 3.50033ZM50.6772 7.60021C50.9791 7.29679 51.1283 6.86907 51.1283 6.29878C51.1473 5.83269 50.9922 5.37731 50.6963 5.03024C50.5554 4.87515 50.3861 4.75172 50.1987 4.66739C50.0112 4.58307 49.8095 4.53959 49.6057 4.53959C49.4019 4.53959 49.2002 4.58307 49.0128 4.66739C48.8254 4.75172 48.6561 4.87515 48.5152 5.03024C48.2337 5.38576 48.0795 5.83402 48.0795 6.29695C48.0795 6.75988 48.2337 7.20814 48.5152 7.56366C48.654 7.72209 48.8234 7.84755 49.0118 7.9317C49.2003 8.01585 49.4037 8.05675 49.6083 8.05169C49.806 8.05518 50.0024 8.01705 50.186 7.93952C50.3695 7.86199 50.5365 7.74663 50.6772 7.60021Z" fill="#6D4AFF"/>
<path d="M53.5338 1.97045C53.4404 1.88062 53.3662 1.77098 53.3159 1.64874C53.2657 1.5265 53.2406 1.39443 53.2423 1.26124C53.2409 1.12702 53.2661 0.99397 53.3163 0.870594C53.3665 0.747219 53.4406 0.63623 53.5338 0.544718C53.7182 0.351393 53.9677 0.242859 54.2279 0.242859C54.488 0.242859 54.7376 0.351393 54.922 0.544718C55.0146 0.636598 55.0882 0.747699 55.1381 0.871018C55.188 0.994338 55.2131 1.1272 55.2118 1.26124C55.2134 1.39425 55.1884 1.52612 55.1385 1.64831C55.0885 1.77049 55.0148 1.88024 54.922 1.97045C54.7355 2.15945 54.4867 2.26501 54.2279 2.26501C53.9691 2.26501 53.7203 2.15945 53.5338 1.97045ZM55.0105 9.35867H53.4488V3.23899H55.0105V9.35867Z" fill="#6D4AFF"/>
<path d="M57.7102 9.35864H56.1484V0.478882H57.7102V9.35864Z" fill="#6D4AFF"/>
<path d="M3.90942 0.456848H0.015625V9.34208H1.55822V7.13768C1.55822 6.92244 1.63939 6.71601 1.78387 6.56382C1.92836 6.41162 2.12432 6.32611 2.32865 6.32611H3.90942C4.64575 6.32611 5.35192 6.01799 5.87258 5.46952C6.39324 4.92106 6.68575 4.17718 6.68575 3.40153C6.68826 3.01578 6.61831 2.63332 6.47991 2.27617C6.34152 1.91902 6.13741 1.59424 5.87936 1.32053C5.6213 1.04683 5.31439 0.829606 4.9763 0.681376C4.63821 0.533146 4.27563 0.456839 3.90942 0.456848ZM5.12406 3.38143C5.12269 3.74857 4.98303 4.10013 4.73576 4.35889C4.4885 4.61764 4.15384 4.76243 3.80531 4.76146H1.54954V1.98494H3.80531C3.97826 1.98494 4.14952 2.02082 4.30931 2.09055C4.4691 2.16027 4.61429 2.26246 4.73658 2.39128C4.85888 2.52011 4.95589 2.67305 5.02208 2.84137C5.08826 3.00969 5.12233 3.1901 5.12233 3.37229L5.12406 3.38143Z" fill="#1B1340"/>
<path d="M6.92969 9.34221V5.81809C6.92969 4.37956 7.72788 3.23349 9.32253 3.23349C9.57901 3.22959 9.83494 3.25968 10.0843 3.32306V4.77438C9.90209 4.76158 9.73725 4.76158 9.67304 4.76158C8.828 4.76158 8.4584 5.16737 8.4584 5.99539V9.34221H6.92969Z" fill="#1B1340"/>
<path d="M10.543 6.35186C10.543 4.58248 11.8114 3.23352 13.5761 3.23352C15.3408 3.23352 16.6075 4.57883 16.6075 6.35186C16.6075 8.12489 15.339 9.48299 13.5761 9.48299C11.8131 9.48299 10.543 8.12123 10.543 6.35186ZM15.0979 6.35186C15.0979 5.34653 14.4576 4.63367 13.5761 4.63367C12.6946 4.63367 12.0526 5.34653 12.0526 6.35186C12.0526 7.35718 12.6929 8.07005 13.5761 8.07005C14.4593 8.07005 15.0979 7.36998 15.0979 6.35186Z" fill="#1B1340"/>
<path d="M21.0508 4.64638H19.3971V6.87272C19.3971 7.64956 19.6626 8.00599 20.4226 8.00599C20.4955 8.00599 20.6777 8.00599 20.9067 7.9932V9.30377C20.6163 9.39335 20.3157 9.44071 20.0131 9.44452C18.7325 9.44452 17.8614 8.62929 17.8614 7.09023V4.64638H16.8359V3.36688H17.091C17.2953 3.36688 17.4913 3.28137 17.6358 3.12918C17.7803 2.97698 17.8614 2.77055 17.8614 2.55531V1.33795H19.3971V3.36139H21.0508V4.64638Z" fill="#1B1340"/>
<path d="M21.5117 6.35186C21.5117 4.58248 22.7801 3.23352 24.5431 3.23352C26.3061 3.23352 27.5762 4.57883 27.5762 6.35186C27.5762 8.12489 26.3078 9.48299 24.5431 9.48299C22.7784 9.48299 21.5117 8.12123 21.5117 6.35186ZM26.0666 6.35186C26.0666 5.34653 25.4263 4.63367 24.5431 4.63367C23.6599 4.63367 23.0213 5.34653 23.0213 6.35186C23.0213 7.35718 23.6616 8.07005 24.5431 8.07005C25.4246 8.07005 26.0666 7.36998 26.0666 6.35186Z" fill="#1B1340"/>
<path d="M28.3711 9.34225V5.94425C28.3711 4.3668 29.3254 3.23352 31.0294 3.23352C32.7334 3.23352 33.6756 4.3668 33.6756 5.94425V9.34225H32.1538V6.0722C32.1538 5.19299 31.779 4.64646 31.0294 4.64646C30.2798 4.64646 29.9067 5.19482 29.9067 6.0722V9.34225H28.3711Z" fill="#1B1340"/>
</svg>
