<svg width="98" height="26" viewBox="0 0 98 26" fill="none" xmlns="http://www.w3.org/2000/svg">
<path d="M0.0280772 18.454V24.8631H4.47087V18.7314C4.47087 18.1348 4.70491 17.5627 5.1215 17.1408C5.53809 16.719 6.10311 16.482 6.69227 16.482H11.2476C13.3727 16.4814 15.4106 15.6262 16.9131 14.1044C18.4156 12.5827 19.2597 10.519 19.2599 8.36718C19.2599 6.21503 18.4157 4.15102 16.9129 2.62911C15.4101 1.1072 13.3718 0.252036 11.2464 0.251709L0.0280772 0.251709V8.26303H4.47087V4.486H10.947C11.9525 4.486 12.9169 4.89039 13.6281 5.61024C14.3392 6.33009 14.7389 7.30647 14.7392 8.32466C14.7392 9.34306 14.3397 10.3197 13.6285 11.0399C12.9173 11.76 11.9528 12.1645 10.947 12.1645H6.23886C5.42308 12.1641 4.61523 12.3265 3.86148 12.6425C3.10773 12.9584 2.42288 13.4217 1.84607 14.0058C1.26925 14.59 0.811799 15.2835 0.499855 16.0467C0.187912 16.81 0.0275973 17.628 0.0280772 18.454Z" fill="#6351E1"/>
<path d="M6.69104 16.4819C4.92396 16.4821 3.22931 17.193 1.97979 18.4582C0.730278 19.7234 0.0282376 21.4394 0.0280762 23.2287L0.0280762 24.863H4.47087V18.7313C4.47087 18.1349 4.70474 17.563 5.12107 17.1412C5.5374 16.7194 6.1021 16.4823 6.69104 16.4819Z" fill="url(#paint0_linear_15574_4526)"/>
<path d="M19.9487 24.8637V15.0998C19.9487 11.1163 22.2462 7.94382 26.8418 7.94382C27.5794 7.93294 28.3154 8.01575 29.0327 8.19032V12.2071C28.5105 12.1719 28.059 12.1719 27.849 12.1719C25.4146 12.1719 24.3678 13.2997 24.3678 15.5909V24.8637H19.9487Z" fill="#6351E1"/>
<path d="M30.3572 16.5825C30.3572 11.6826 34.0124 7.94629 39.0955 7.94629C44.1785 7.94629 47.8331 11.6802 47.8331 16.5825C47.8331 21.4848 44.1779 25.2514 39.0955 25.2514C34.013 25.2514 30.3572 21.4799 30.3572 16.5825ZM43.4823 16.5825C43.4823 13.7976 41.637 11.8238 39.0961 11.8238C36.5552 11.8238 34.7093 13.7958 34.7093 16.5825C34.7093 19.4025 36.5546 21.3412 39.0961 21.3412C41.6376 21.3412 43.4823 19.4 43.4823 16.5825Z" fill="#6351E1"/>
<path d="M61.9661 16.5825C61.9661 11.6826 65.6213 7.94629 70.7043 7.94629C75.7874 7.94629 79.442 11.6802 79.442 16.5825C79.442 21.4848 75.7868 25.2538 70.7043 25.2538C65.6219 25.2538 61.9661 21.4799 61.9661 16.5825ZM75.0905 16.5825C75.0905 13.7976 73.2452 11.8238 70.7043 11.8238C68.1634 11.8238 66.3175 13.7958 66.3175 16.5825C66.3175 19.4025 68.1628 21.3412 70.7043 21.3412C73.2459 21.3412 75.0905 19.4 75.0905 16.5825Z" fill="#6351E1"/>
<path d="M81.7395 24.8638V15.4523C81.7395 11.0812 84.4898 7.94385 89.3982 7.94385C94.2719 7.94385 97.0221 11.0812 97.0221 15.4523V24.8638H92.6359V15.8048C92.6359 13.3731 91.5563 11.8571 89.3982 11.8571C87.2401 11.8571 86.1604 13.3731 86.1604 15.8048V24.8638H81.7395Z" fill="#6351E1"/>
<path d="M60.6449 11.8564H55.8747V18.0251C55.8747 20.1752 56.6403 21.1624 58.8337 21.1624C59.0424 21.1624 59.564 21.1624 60.2261 21.1273V24.7583C59.3212 25.0048 58.5221 25.1459 57.6499 25.1459C53.96 25.1484 51.455 22.8898 51.455 18.6247V11.8564H48.4941V8.29625H49.2324C49.5244 8.29641 49.8136 8.23827 50.0834 8.12514C50.3532 8.01202 50.5983 7.84614 50.8048 7.637C51.0112 7.42785 51.1749 7.17954 51.2865 6.90627C51.398 6.63301 51.4553 6.34015 51.455 6.04445V2.69141H55.8759V8.29625H60.6449V11.8564Z" fill="#6351E1"/>
<defs>
<linearGradient id="paint0_linear_15574_4526" x1="3.35956" y1="23.6508" x2="3.35956" y2="14.2332" gradientUnits="userSpaceOnUse">
<stop stop-color="#6D4BFD"/>
<stop offset="1" stop-color="#1C0554"/>
</linearGradient>
</defs>
</svg>
