<svg width="416" height="250" viewBox="0 0 416 250" fill="none" xmlns="http://www.w3.org/2000/svg">
<mask id="mask0_4522_173095" style="mask-type:alpha" maskUnits="userSpaceOnUse" x="0" y="0" width="416" height="250">
<rect width="416" height="250" rx="12" fill="#6D4AFF"/>
</mask>
<g mask="url(#mask0_4522_173095)">
<rect x="416" y="253" width="416" height="253" rx="12" transform="rotate(-180 416 253)" fill="url(#paint0_linear_4522_173095)"/>
<g filter="url(#filter0_dd_4522_173095)">
<mask id="mask1_4522_173095" style="mask-type:alpha" maskUnits="userSpaceOnUse" x="36" y="-91" width="344" height="271">
<rect x="36" y="-91" width="344" height="271" rx="12" fill="#383645"/>
</mask>
<g mask="url(#mask1_4522_173095)">
<rect x="36" y="-107" width="344" height="287" rx="12" fill="#383645"/>
<circle cx="379.5" cy="25.5" r="4.5" fill="#4A4658"/>
<circle cx="334.5" cy="10.5" r="4.5" fill="#4A4658"/>
<circle cx="349.5" cy="10.5" r="4.5" fill="#4A4658"/>
<circle cx="364.5" cy="10.5" r="4.5" fill="#4A4658"/>
<circle cx="319.5" cy="10.5" r="4.5" fill="#4A4658"/>
<circle cx="304.5" cy="10.5" r="4.5" fill="#4A4658"/>
<circle cx="289.5" cy="10.5" r="4.5" fill="#4A4658"/>
<circle cx="289.5" cy="25.5" r="4.5" fill="#4A4658"/>
<circle cx="259.5" cy="25.5" r="4.5" fill="#4A4658"/>
<circle cx="259.5" cy="40.5" r="4.5" fill="#4A4658"/>
<circle cx="244.5" cy="25.5" r="4.5" fill="#4A4658"/>
<circle cx="244.5" cy="40.5" r="4.5" fill="#4A4658"/>
<circle cx="349.5" cy="40.5" r="4.5" fill="#4A4658"/>
<circle cx="379.5" cy="10.5" r="4.5" fill="#4A4658"/>
<circle cx="334.5" cy="55.5" r="4.5" fill="#4A4658"/>
<circle cx="274.5" cy="55.5" r="4.5" fill="#4A4658"/>
<circle cx="244.5" cy="55.5" r="4.5" fill="#4A4658"/>
<circle cx="214.5" cy="55.5" r="4.5" fill="#4A4658"/>
<circle cx="214.5" cy="40.5" r="4.5" fill="#4A4658"/>
<circle cx="184.5" cy="55.5" r="4.5" fill="#4A4658"/>
<circle cx="184.5" cy="40.5" r="4.5" fill="#4A4658"/>
<circle cx="184.5" cy="10.5" r="4.5" fill="#4A4658"/>
<circle cx="184.5" cy="25.5" r="4.5" fill="#4A4658"/>
<circle cx="319.5" cy="55.5" r="4.5" fill="#4A4658"/>
<circle cx="259.5" cy="55.5" r="4.5" fill="#4A4658"/>
<circle cx="229.5" cy="55.5" r="4.5" fill="#4A4658"/>
<circle cx="229.5" cy="40.5" r="4.5" fill="#4A4658"/>
<circle cx="199.5" cy="55.5" r="4.5" fill="#4A4658"/>
<circle cx="199.5" cy="40.5" r="4.5" fill="#4A4658"/>
<circle cx="199.5" cy="10.5" r="4.5" fill="#4A4658"/>
<circle cx="169.5" cy="55.5" r="4.5" fill="#4A4658"/>
<circle cx="169.5" cy="40.5" r="4.5" fill="#4A4658"/>
<circle cx="169.5" cy="10.5" r="4.5" fill="#4A4658"/>
<circle cx="154.5" cy="10.5" r="4.5" fill="#4A4658"/>
<circle cx="169.5" cy="25.5" r="4.5" fill="#4A4658"/>
<circle cx="334.5" cy="85.5" r="4.5" fill="#4A4658"/>
<circle cx="379.5" cy="85.5" r="4.5" fill="#4A4658"/>
<circle cx="274.5" cy="85.5" r="4.5" fill="#4A4658"/>
<circle cx="244.5" cy="85.5" r="4.5" fill="#4A4658"/>
<circle cx="214.5" cy="85.5" r="4.5" fill="#4A4658"/>
<circle cx="319.5" cy="85.5" r="4.5" fill="#4A4658"/>
<circle cx="184.5" cy="85.5" r="4.5" fill="#4A4658"/>
<circle cx="364.5" cy="85.5" r="4.5" fill="#4A4658"/>
<circle cx="259.5" cy="85.5" r="4.5" fill="#4A4658"/>
<circle cx="229.5" cy="85.5" r="4.5" fill="#4A4658"/>
<circle cx="199.5" cy="85.5" r="4.5" fill="#4A4658"/>
<circle cx="304.5" cy="85.5" r="4.5" fill="#4A4658"/>
<circle cx="169.5" cy="85.5" r="4.5" fill="#4A4658"/>
<circle cx="334.5" cy="115.5" r="4.5" fill="#4A4658"/>
<circle cx="154.5" cy="85.5" r="4.5" fill="#4A4658"/>
<circle cx="349.5" cy="85.5" r="4.5" fill="#4A4658"/>
<circle cx="289.5" cy="85.5" r="4.5" fill="#4A4658"/>
<circle cx="379.5" cy="115.5" r="4.5" fill="#4A4658"/>
<circle cx="319.5" cy="115.5" r="4.5" fill="#4A4658"/>
<circle cx="274.5" cy="115.5" r="4.5" fill="#4A4658"/>
<circle cx="244.5" cy="115.5" r="4.5" fill="#4A4658"/>
<circle cx="214.5" cy="115.5" r="4.5" fill="#4A4658"/>
<circle cx="184.5" cy="115.5" r="4.5" fill="#4A4658"/>
<circle cx="364.5" cy="115.5" r="4.5" fill="#4A4658"/>
<circle cx="259.5" cy="115.5" r="4.5" fill="#4A4658"/>
<circle cx="304.5" cy="115.5" r="4.5" fill="#4A4658"/>
<circle cx="229.5" cy="115.5" r="4.5" fill="#4A4658"/>
<circle cx="334.5" cy="145.5" r="4.5" fill="#4A4658"/>
<circle cx="199.5" cy="115.5" r="4.5" fill="#4A4658"/>
<circle cx="169.5" cy="115.5" r="4.5" fill="#4A4658"/>
<circle cx="154.5" cy="115.5" r="4.5" fill="#4A4658"/>
<circle cx="139.5" cy="115.5" r="4.5" fill="#4A4658"/>
<circle cx="319.5" cy="145.5" r="4.5" fill="#4A4658"/>
<circle cx="349.5" cy="115.5" r="4.5" fill="#4A4658"/>
<circle cx="289.5" cy="115.5" r="4.5" fill="#4A4658"/>
<circle cx="379.5" cy="145.5" r="4.5" fill="#4A4658"/>
<circle cx="274.5" cy="145.5" r="4.5" fill="#4A4658"/>
<circle cx="244.5" cy="145.5" r="4.5" fill="#4A4658"/>
<circle cx="214.5" cy="145.5" r="4.5" fill="#4A4658"/>
<circle cx="184.5" cy="145.5" r="4.5" fill="#4A4658"/>
<circle cx="304.5" cy="145.5" r="4.5" fill="#4A4658"/>
<circle cx="364.5" cy="145.5" r="4.5" fill="#4A4658"/>
<circle cx="334.5" cy="70.5" r="4.5" fill="#4A4658"/>
<circle cx="259.5" cy="145.5" r="4.5" fill="#4A4658"/>
<circle cx="229.5" cy="145.5" r="4.5" fill="#4A4658"/>
<circle cx="199.5" cy="145.5" r="4.5" fill="#4A4658"/>
<circle cx="169.5" cy="145.5" r="4.5" fill="#4A4658"/>
<circle cx="319.5" cy="70.5" r="4.5" fill="#4A4658"/>
<circle cx="154.5" cy="145.5" r="4.5" fill="#4A4658"/>
<circle cx="139.5" cy="145.5" r="4.5" fill="#4A4658"/>
<circle cx="124.5" cy="145.5" r="4.5" fill="#4A4658"/>
<circle cx="349.5" cy="145.5" r="4.5" fill="#4A4658"/>
<circle cx="304.5" cy="70.5" r="4.5" fill="#4A4658"/>
<circle cx="334.5" cy="100.5" r="4.5" fill="#4A4658"/>
<circle cx="289.5" cy="145.5" r="4.5" fill="#4A4658"/>
<circle cx="379.5" cy="70.5" r="4.5" fill="#4A4658"/>
<circle cx="274.5" cy="70.5" r="4.5" fill="#4A4658"/>
<circle cx="244.5" cy="70.5" r="4.5" fill="#4A4658"/>
<circle cx="319.5" cy="100.5" r="4.5" fill="#4A4658"/>
<circle cx="214.5" cy="70.5" r="4.5" fill="#4A4658"/>
<circle cx="184.5" cy="70.5" r="4.5" fill="#4A4658"/>
<circle cx="364.5" cy="70.5" r="4.5" fill="#4A4658"/>
<circle cx="259.5" cy="70.5" r="4.5" fill="#4A4658"/>
<circle cx="229.5" cy="70.5" r="4.5" fill="#4A4658"/>
<circle cx="199.5" cy="70.5" r="4.5" fill="#4A4658"/>
<circle cx="304.5" cy="100.5" r="4.5" fill="#4A4658"/>
<circle cx="169.5" cy="70.5" r="4.5" fill="#4A4658"/>
<circle cx="334.5" cy="130.5" r="4.5" fill="#4A4658"/>
<circle cx="349.5" cy="70.5" r="4.5" fill="#4A4658"/>
<circle cx="379.5" cy="100.5" r="4.5" fill="#4A4658"/>
<circle cx="274.5" cy="100.5" r="4.5" fill="#4A4658"/>
<circle cx="244.5" cy="100.5" r="4.5" fill="#4A4658"/>
<circle cx="319.5" cy="130.5" r="4.5" fill="#4A4658"/>
<circle cx="214.5" cy="100.5" r="4.5" fill="#4A4658"/>
<circle cx="184.5" cy="100.5" r="4.5" fill="#4A4658"/>
<circle cx="364.5" cy="100.5" r="4.5" fill="#4A4658"/>
<circle cx="259.5" cy="100.5" r="4.5" fill="#4A4658"/>
<circle cx="229.5" cy="100.5" r="4.5" fill="#4A4658"/>
<circle cx="199.5" cy="100.5" r="4.5" fill="#4A4658"/>
<circle cx="169.5" cy="100.5" r="4.5" fill="#4A4658"/>
<circle cx="304.5" cy="130.5" r="4.5" fill="#4A4658"/>
<circle cx="154.5" cy="100.5" r="4.5" fill="#4A4658"/>
<circle cx="334.5" cy="160.5" r="4.5" fill="#4A4658"/>
<circle cx="139.5" cy="100.5" r="4.5" fill="#4A4658"/>
<circle cx="349.5" cy="100.5" r="4.5" fill="#4A4658"/>
<circle cx="289.5" cy="100.5" r="4.5" fill="#4A4658"/>
<circle cx="379.5" cy="130.5" r="4.5" fill="#4A4658"/>
<circle cx="319.5" cy="160.5" r="4.5" fill="#4A4658"/>
<circle cx="274.5" cy="130.5" r="4.5" fill="#4A4658"/>
<circle cx="244.5" cy="130.5" r="4.5" fill="#4A4658"/>
<circle cx="214.5" cy="130.5" r="4.5" fill="#4A4658"/>
<circle cx="184.5" cy="130.5" r="4.5" fill="#4A4658"/>
<circle cx="364.5" cy="130.5" r="4.5" fill="#4A4658"/>
<circle cx="259.5" cy="130.5" r="4.5" fill="#4A4658"/>
<circle cx="304.5" cy="160.5" r="4.5" fill="#4A4658"/>
<circle cx="229.5" cy="130.5" r="4.5" fill="#4A4658"/>
<circle cx="199.5" cy="130.5" r="4.5" fill="#4A4658"/>
<circle cx="169.5" cy="130.5" r="4.5" fill="#4A4658"/>
<circle cx="154.5" cy="130.5" r="4.5" fill="#4A4658"/>
<circle cx="139.5" cy="130.5" r="4.5" fill="#4A4658"/>
<circle cx="124.5" cy="130.5" r="4.5" fill="#4A4658"/>
<circle cx="349.5" cy="130.5" r="4.5" fill="#4A4658"/>
<circle cx="289.5" cy="130.5" r="4.5" fill="#4A4658"/>
<circle cx="379.5" cy="160.5" r="4.5" fill="#4A4658"/>
<circle cx="274.5" cy="160.5" r="4.5" fill="#4A4658"/>
<circle cx="244.5" cy="160.5" r="4.5" fill="#4A4658"/>
<circle cx="214.5" cy="160.5" r="4.5" fill="#4A4658"/>
<circle cx="184.5" cy="160.5" r="4.5" fill="#4A4658"/>
<circle cx="364.5" cy="160.5" r="4.5" fill="#4A4658"/>
<circle cx="259.5" cy="160.5" r="4.5" fill="#4A4658"/>
<circle cx="229.5" cy="160.5" r="4.5" fill="#4A4658"/>
<circle cx="199.5" cy="160.5" r="4.5" fill="#4A4658"/>
<circle cx="169.5" cy="160.5" r="4.5" fill="#4A4658"/>
<circle cx="154.5" cy="160.5" r="4.5" fill="#4A4658"/>
<circle cx="139.5" cy="160.5" r="4.5" fill="#4A4658"/>
<circle cx="349.5" cy="160.5" r="4.5" fill="#4A4658"/>
<circle cx="289.5" cy="160.5" r="4.5" fill="#4A4658"/>
<g clip-path="url(#clip0_4522_173095)">
<mask id="mask2_4522_173095" style="mask-type:alpha" maskUnits="userSpaceOnUse" x="180" y="-51" width="56" height="55">
<circle cx="208" cy="-23.5" r="27.5" fill="#C4C4C4"/>
</mask>
<g mask="url(#mask2_4522_173095)">
<path d="M249.25 -51.0088H166.75V3.98262H249.25V-51.0088Z" fill="#FFDA44"/>
<path d="M249.25 -14.3218H166.75V4.00869H249.25V-14.3218Z" fill="#D80027"/>
<circle cx="208" cy="-23.5" r="27.5" fill="black" fill-opacity="0.7"/>
</g>
<path fill-rule="evenodd" clip-rule="evenodd" d="M213.5 3.44989C226.052 0.901875 235.5 -10.1958 235.5 -23.5C235.5 -38.6878 223.188 -51 208 -51C192.812 -51 180.5 -38.6878 180.5 -23.5C180.5 -10.1958 189.948 0.901875 202.5 3.44989L208 12.25L213.5 3.44989ZM232.75 -23.5C232.75 -9.83095 221.669 1.25 208 1.25C194.331 1.25 183.25 -9.83095 183.25 -23.5C183.25 -37.169 194.331 -48.25 208 -48.25C221.669 -48.25 232.75 -37.169 232.75 -23.5Z" fill="#8A6EFF"/>
</g>
<rect x="170" y="12.25" width="76" height="40" rx="20" fill="#8A6EFF" fill-opacity="0.8"/>
<path d="M191.454 38.5322C194.126 38.5322 195.878 37.1377 195.878 34.8965V34.8882C195.878 33.1616 194.89 32.1572 192.392 31.6011L191.063 31.3022C189.437 30.9453 188.781 30.2979 188.781 29.3433V29.335C188.781 28.0815 189.935 27.376 191.429 27.3677C192.989 27.3594 193.985 28.1396 194.151 29.1938L194.168 29.3018H195.662L195.654 29.1855C195.529 27.4009 193.861 25.9897 191.47 25.9897C188.997 25.9897 187.262 27.3926 187.253 29.3765V29.3848C187.253 31.1196 188.291 32.2236 190.69 32.7549L192.018 33.0454C193.662 33.4106 194.351 34.0913 194.351 35.0874V35.0957C194.351 36.3159 193.164 37.1543 191.537 37.1543C189.81 37.1543 188.565 36.3989 188.457 35.2036L188.449 35.1123H186.955L186.963 35.2036C187.137 37.1543 188.831 38.5322 191.454 38.5322ZM197.776 41.2383H199.22V36.8389H199.353C199.842 37.7935 200.913 38.4077 202.142 38.4077C204.416 38.4077 205.894 36.5898 205.894 33.7842V33.7676C205.894 30.9785 204.408 29.144 202.142 29.144C200.897 29.144 199.901 29.7334 199.353 30.7295H199.22V29.3018H197.776V41.2383ZM201.81 37.1294C200.183 37.1294 199.187 35.8511 199.187 33.7842V33.7676C199.187 31.7007 200.183 30.4224 201.81 30.4224C203.445 30.4224 204.416 31.6841 204.416 33.7676V33.7842C204.416 35.8677 203.445 37.1294 201.81 37.1294ZM210.199 38.4077C211.402 38.4077 212.34 37.8848 212.905 36.9302H213.037V38.25H214.482V32.124C214.482 30.2646 213.262 29.144 211.078 29.144C209.169 29.144 207.808 30.0903 207.576 31.4932L207.567 31.543H209.012L209.02 31.5181C209.252 30.8208 209.958 30.4224 211.029 30.4224C212.365 30.4224 213.037 31.02 213.037 32.124V32.9375L210.472 33.0952C208.389 33.2197 207.21 34.1411 207.21 35.7349V35.7515C207.21 37.3784 208.497 38.4077 210.199 38.4077ZM208.688 35.7183V35.7017C208.688 34.8135 209.285 34.332 210.647 34.249L213.037 34.0996V34.9131C213.037 36.1914 211.967 37.1543 210.497 37.1543C209.46 37.1543 208.688 36.623 208.688 35.7183ZM217.475 27.5752C218.023 27.5752 218.471 27.127 218.471 26.5791C218.471 26.0312 218.023 25.583 217.475 25.583C216.927 25.583 216.479 26.0312 216.479 26.5791C216.479 27.127 216.927 27.5752 217.475 27.5752ZM216.745 38.25H218.189V29.3018H216.745V38.25ZM220.502 38.25H221.946V32.9541C221.946 31.3853 222.851 30.4224 224.278 30.4224C225.706 30.4224 226.37 31.1943 226.37 32.8047V38.25H227.815V32.4561C227.815 30.3311 226.694 29.144 224.685 29.144C223.365 29.144 222.527 29.7002 222.079 30.6465H221.946V29.3018H220.502V38.25Z" fill="white"/>
<g filter="url(#filter1_dd_4522_173095)">
<path d="M37.6279 174.125H380.001V194.887C380.001 200.565 375.398 205.167 369.72 205.167H47.9082C42.2305 205.167 37.6279 200.565 37.6279 194.887V174.125Z" fill="#292733"/>
<path d="M65.2249 137.362C65.9894 136.713 67.754 135.712 71.3354 135.712C74.481 135.712 76.1417 137.814 77.4908 139.521C78.4136 140.689 79.1906 141.672 80.1973 141.672C81.9394 141.672 84.4834 140.493 85.8442 139.791C85.9283 139.746 86.0125 139.728 86.0947 139.728C86.4312 139.728 86.7171 140.054 86.6087 140.419C86.3508 141.279 85.7452 142.694 84.3489 144.874C83.6834 145.914 82.7955 146.81 81.7245 147.433C80.5506 148.117 79.4291 148.352 78.3505 148.352C77.1188 148.352 75.9406 148.046 74.7973 147.748C73.7197 147.468 72.6731 147.195 71.6419 147.195C69.2045 147.195 66.896 148.814 65.6586 149.861V157.134C65.6586 157.377 65.4829 157.598 65.2399 157.622C65.223 157.624 65.2062 157.624 65.1913 157.624C64.9333 157.624 64.724 157.416 64.724 157.16L64.7202 138.454C64.7202 138.035 64.9015 137.634 65.2249 137.362Z" fill="white"/>
<path d="M56.2712 171.443C57.7767 171.443 58.8947 170.604 59.1301 169.309V169.3H58.2376L58.2278 169.309C58.0072 170.123 57.2569 170.629 56.2712 170.629C54.908 170.629 54.0547 169.515 54.0547 167.745V167.735C54.0547 165.965 54.908 164.847 56.2663 164.847C57.2422 164.847 57.9973 165.421 58.2327 166.328L58.2376 166.338H59.1252L59.1301 166.328C58.9193 164.97 57.7571 164.033 56.2663 164.033C54.344 164.033 53.1475 165.455 53.1475 167.735V167.745C53.1475 170.021 54.3489 171.443 56.2712 171.443ZM62.7395 171.369C64.2449 171.369 65.1766 170.329 65.1766 168.638V168.628C65.1766 166.931 64.2449 165.896 62.7395 165.896C61.234 165.896 60.3023 166.931 60.3023 168.628V168.638C60.3023 170.329 61.234 171.369 62.7395 171.369ZM62.7395 170.614C61.7391 170.614 61.1752 169.883 61.1752 168.638V168.628C61.1752 167.377 61.7391 166.652 62.7395 166.652C63.7398 166.652 64.3038 167.377 64.3038 168.628V168.638C64.3038 169.883 63.7398 170.614 62.7395 170.614ZM68.3348 171.369C69.1096 171.369 69.6441 171.05 69.904 170.486H69.9825V171.276H70.8358V165.99H69.9825V169.118C69.9825 170.045 69.4872 170.614 68.5555 170.614C67.712 170.614 67.3688 170.158 67.3688 169.206V165.99H66.5155V169.412C66.5155 170.663 67.1334 171.369 68.3348 171.369ZM72.4934 171.276H73.3466V168.147C73.3466 167.22 73.8812 166.652 74.7246 166.652C75.5681 166.652 75.9604 167.108 75.9604 168.059V171.276H76.8136V167.853C76.8136 166.598 76.1516 165.896 74.9649 165.896C74.1852 165.896 73.6899 166.225 73.4251 166.784H73.3466V165.99H72.4934V171.276ZM80.3004 171.315C80.4671 171.315 80.6289 171.295 80.7956 171.266V170.54C80.6387 170.555 80.5554 170.56 80.4033 170.56C79.8541 170.56 79.6383 170.31 79.6383 169.687V166.696H80.7956V165.99H79.6383V164.621H78.7557V165.99H77.922V166.696H78.7557V169.903C78.7557 170.913 79.2117 171.315 80.3004 171.315ZM82.1345 171.276H82.9878V168C82.9878 167.225 83.5664 166.71 84.3805 166.71C84.5668 166.71 84.7286 166.73 84.9052 166.76V165.931C84.8218 165.916 84.6404 165.896 84.4785 165.896C83.7626 165.896 83.2673 166.22 83.0662 166.774H82.9878V165.99H82.1345V171.276ZM86.4745 164.97C86.7982 164.97 87.063 164.705 87.063 164.381C87.063 164.058 86.7982 163.793 86.4745 163.793C86.1509 163.793 85.8861 164.058 85.8861 164.381C85.8861 164.705 86.1509 164.97 86.4745 164.97ZM86.043 171.276H86.8963V165.99H86.043V171.276ZM90.7263 171.369C91.9718 171.369 92.727 170.663 92.9084 169.947L92.9183 169.908H92.065L92.0454 169.952C91.9032 170.271 91.4618 170.609 90.7459 170.609C89.8044 170.609 89.2012 169.971 89.1767 168.878H92.982V168.544C92.982 166.965 92.1091 165.896 90.6723 165.896C89.2355 165.896 88.3038 167.014 88.3038 168.647V168.652C88.3038 170.31 89.2159 171.369 90.7263 171.369ZM90.6674 166.657C91.4471 166.657 92.0258 167.152 92.114 168.196H89.1914C89.2846 167.191 89.8828 166.657 90.6674 166.657ZM96.1843 171.369C97.3858 171.369 98.3028 170.717 98.3028 169.775V169.766C98.3028 169.01 97.8222 168.579 96.8267 168.339L96.0127 168.142C95.3899 167.99 95.1251 167.765 95.1251 167.407V167.397C95.1251 166.931 95.5861 166.607 96.2138 166.607C96.8512 166.607 97.2632 166.897 97.3759 167.314H98.2145C98.0968 166.451 97.3269 165.896 96.2187 165.896C95.0957 165.896 94.2522 166.558 94.2522 167.436V167.441C94.2522 168.201 94.6985 168.633 95.6891 168.868L96.508 169.064C97.1602 169.221 97.4299 169.471 97.4299 169.829V169.839C97.4299 170.32 96.9248 170.658 96.2138 170.658C95.537 170.658 95.1153 170.369 94.9731 169.927H94.1002C94.1983 170.8 95.0074 171.369 96.1843 171.369Z" fill="white"/>
<path d="M145.07 135.769C144.962 135.7 144.824 135.693 144.708 135.751L137.816 139.097L130.922 135.751C130.915 135.747 130.905 135.745 130.896 135.741C130.881 135.736 130.866 135.73 130.849 135.726C130.834 135.723 130.82 135.721 130.805 135.719C130.788 135.717 130.773 135.715 130.758 135.715C130.743 135.715 130.728 135.717 130.713 135.719C130.698 135.721 130.683 135.723 130.666 135.726C130.651 135.73 130.637 135.736 130.622 135.741C130.614 135.745 130.605 135.747 130.595 135.751L123.541 139.177C123.412 139.239 123.33 139.37 123.33 139.512V157.25C123.33 157.379 123.395 157.499 123.506 157.568C123.565 157.605 123.635 157.624 123.704 157.624C123.76 157.624 123.816 157.611 123.866 157.586L130.758 154.24L137.65 157.586C137.663 157.592 137.678 157.596 137.691 157.601C137.7 157.605 137.709 157.609 137.719 157.611C137.751 157.618 137.78 157.624 137.812 157.624C137.844 157.624 137.876 157.618 137.906 157.611C137.915 157.609 137.924 157.603 137.934 157.601C137.947 157.596 137.962 157.594 137.975 157.586L145.031 154.162C145.16 154.1 145.242 153.969 145.242 153.825V136.087C145.244 135.958 145.178 135.838 145.07 135.769ZM124.077 139.747L130.386 136.684V153.592L124.077 156.655V139.747ZM131.133 136.683L137.442 139.745V156.653L131.133 153.59V136.683ZM144.497 153.592L138.188 156.655V139.747L144.497 136.684V153.592Z" fill="#A7A4B5"/>
<path d="M124.9 171.276H125.724V165.872H125.778L128.014 171.276H128.759L130.995 165.872H131.049V171.276H131.873V164.2H130.848L128.426 170.104H128.347L125.925 164.2H124.9V171.276ZM135.085 171.369C135.796 171.369 136.35 171.06 136.684 170.496H136.762V171.276H137.616V167.657C137.616 166.558 136.895 165.896 135.605 165.896C134.477 165.896 133.673 166.455 133.536 167.284L133.531 167.314H134.384L134.389 167.299C134.526 166.887 134.943 166.652 135.576 166.652C136.365 166.652 136.762 167.005 136.762 167.657V168.137L135.247 168.231C134.016 168.304 133.32 168.849 133.32 169.79V169.8C133.32 170.761 134.08 171.369 135.085 171.369ZM134.193 169.78V169.77C134.193 169.246 134.546 168.961 135.35 168.912L136.762 168.824V169.305C136.762 170.06 136.13 170.629 135.262 170.629C134.649 170.629 134.193 170.315 134.193 169.78ZM139.239 173.041H140.092V170.442H140.171C140.46 171.006 141.093 171.369 141.818 171.369C143.162 171.369 144.035 170.295 144.035 168.638V168.628C144.035 166.98 143.157 165.896 141.818 165.896C141.083 165.896 140.494 166.245 140.171 166.833H140.092V165.99H139.239V173.041ZM141.622 170.614C140.661 170.614 140.073 169.859 140.073 168.638V168.628C140.073 167.407 140.661 166.652 141.622 166.652C142.588 166.652 143.162 167.397 143.162 168.628V168.638C143.162 169.868 142.588 170.614 141.622 170.614Z" fill="#A7A4B5"/>
<path d="M277.852 146.298H288.338C288.542 146.298 288.708 146.464 288.708 146.668C288.708 146.871 288.542 147.038 288.338 147.038H277.852C277.649 147.038 277.482 146.871 277.482 146.668C277.482 146.464 277.649 146.298 277.852 146.298Z" fill="#A7A4B5"/>
<path d="M277.852 143.803H285.492C285.696 143.803 285.862 143.637 285.862 143.433C285.862 143.23 285.696 143.063 285.492 143.063H277.852C277.649 143.063 277.482 143.23 277.482 143.433C277.482 143.637 277.649 143.803 277.852 143.803Z" fill="#A7A4B5"/>
<path d="M277.852 149.532H283.379C283.585 149.532 283.751 149.699 283.751 149.902C283.751 150.106 283.585 150.272 283.381 150.272H277.852C277.649 150.272 277.482 150.106 277.482 149.902C277.482 149.699 277.649 149.532 277.852 149.532Z" fill="#A7A4B5"/>
<path fill-rule="evenodd" clip-rule="evenodd" d="M272.307 146.668C272.307 140.626 277.221 135.712 283.263 135.712C289.304 135.712 294.218 140.626 294.218 146.668C294.218 152.709 289.304 157.624 283.263 157.624C277.221 157.624 272.307 152.709 272.307 146.668ZM273.047 146.668C273.047 152.302 277.63 156.884 283.263 156.884C288.897 156.884 293.478 152.3 293.478 146.668C293.478 141.035 288.895 136.452 283.263 136.452C277.63 136.452 273.047 141.034 273.047 146.668Z" fill="#A7A4B5"/>
<path d="M266.116 171.276H266.999V168.75H268.784C270.112 168.75 271.054 167.814 271.054 166.47V166.46C271.054 165.117 270.112 164.2 268.784 164.2H266.116V171.276ZM268.558 164.984C269.568 164.984 270.152 165.538 270.152 166.47V166.48C270.152 167.412 269.568 167.966 268.558 167.966H266.999V164.984H268.558ZM272.457 171.276H273.31V168C273.31 167.225 273.889 166.71 274.703 166.71C274.889 166.71 275.051 166.73 275.227 166.76V165.931C275.144 165.916 274.962 165.896 274.801 165.896C274.085 165.896 273.589 166.22 273.388 166.774H273.31V165.99H272.457V171.276ZM278.371 171.369C279.876 171.369 280.808 170.329 280.808 168.638V168.628C280.808 166.931 279.876 165.896 278.371 165.896C276.865 165.896 275.934 166.931 275.934 168.628V168.638C275.934 170.329 276.865 171.369 278.371 171.369ZM278.371 170.614C277.37 170.614 276.806 169.883 276.806 168.638V168.628C276.806 167.377 277.37 166.652 278.371 166.652C279.371 166.652 279.935 167.377 279.935 168.628V168.638C279.935 169.883 279.371 170.614 278.371 170.614ZM282.549 171.276H283.402V166.696H284.604V165.99H283.402V165.426C283.402 164.847 283.647 164.548 284.255 164.548C284.407 164.548 284.55 164.553 284.653 164.572V163.891C284.476 163.856 284.29 163.842 284.084 163.842C283.079 163.842 282.549 164.347 282.549 165.401V165.99H281.671V166.696H282.549V171.276ZM286.35 164.97C286.673 164.97 286.938 164.705 286.938 164.381C286.938 164.058 286.673 163.793 286.35 163.793C286.026 163.793 285.761 164.058 285.761 164.381C285.761 164.705 286.026 164.97 286.35 164.97ZM285.918 171.276H286.771V165.99H285.918V171.276ZM288.493 171.276H289.346V163.891H288.493V171.276ZM293.205 171.369C294.451 171.369 295.206 170.663 295.388 169.947L295.397 169.908H294.544L294.524 169.952C294.382 170.271 293.941 170.609 293.225 170.609C292.283 170.609 291.68 169.971 291.656 168.878H295.461V168.544C295.461 166.965 294.588 165.896 293.151 165.896C291.715 165.896 290.783 167.014 290.783 168.647V168.652C290.783 170.31 291.695 171.369 293.205 171.369ZM293.146 166.657C293.926 166.657 294.505 167.152 294.593 168.196H291.67C291.764 167.191 292.362 166.657 293.146 166.657ZM298.663 171.369C299.865 171.369 300.782 170.717 300.782 169.775V169.766C300.782 169.01 300.301 168.579 299.306 168.339L298.492 168.142C297.869 167.99 297.604 167.765 297.604 167.407V167.397C297.604 166.931 298.065 166.607 298.693 166.607C299.33 166.607 299.742 166.897 299.855 167.314H300.694C300.576 166.451 299.806 165.896 298.698 165.896C297.575 165.896 296.731 166.558 296.731 167.436V167.441C296.731 168.201 297.178 168.633 298.168 168.868L298.987 169.064C299.639 169.221 299.909 169.471 299.909 169.829V169.839C299.909 170.32 299.404 170.658 298.693 170.658C298.016 170.658 297.594 170.369 297.452 169.927H296.579C296.677 170.8 297.486 171.369 298.663 171.369Z" fill="#A7A4B5"/>
<path d="M346.117 157.624H344.349C343.872 157.624 343.481 157.266 343.437 156.792L343.286 155.092C343.28 155.026 343.235 154.971 343.175 154.956C342.348 154.751 341.56 154.424 340.83 153.984C340.775 153.952 340.705 153.957 340.654 154.001L339.344 155.096C338.979 155.402 338.449 155.377 338.111 155.041L336.861 153.791C336.524 153.454 336.5 152.923 336.806 152.558L337.901 151.248C337.944 151.197 337.95 151.125 337.918 151.07C337.477 150.34 337.15 149.551 336.946 148.725C336.931 148.665 336.876 148.619 336.81 148.614L335.11 148.462C334.635 148.419 334.278 148.027 334.278 147.551V145.783C334.278 145.306 334.635 144.915 335.11 144.871L336.81 144.72C336.876 144.715 336.931 144.669 336.946 144.609C337.15 143.782 337.477 142.994 337.918 142.264C337.95 142.209 337.944 142.139 337.901 142.088L336.806 140.778C336.5 140.413 336.524 139.881 336.861 139.545L338.111 138.295C338.447 137.958 338.977 137.934 339.344 138.24L340.654 139.335C340.705 139.376 340.775 139.384 340.832 139.352C341.562 138.911 342.35 138.584 343.176 138.38C343.237 138.365 343.282 138.31 343.288 138.244L343.439 136.544C343.483 136.069 343.874 135.712 344.351 135.712H346.119C346.595 135.712 346.987 136.069 347.03 136.544L347.181 138.244C347.187 138.31 347.232 138.365 347.293 138.38C348.119 138.584 348.908 138.911 349.638 139.352C349.693 139.384 349.762 139.378 349.814 139.335L351.124 138.24C351.489 137.934 352.018 137.958 352.357 138.295L353.607 139.545C353.943 139.881 353.968 140.411 353.662 140.778L352.567 142.088C352.523 142.139 352.518 142.211 352.55 142.266C352.99 142.996 353.317 143.784 353.522 144.609C353.537 144.671 353.592 144.715 353.658 144.72L355.358 144.871C355.832 144.913 356.19 145.304 356.19 145.783V147.551C356.19 148.027 355.832 148.419 355.358 148.462L353.658 148.614C353.592 148.619 353.537 148.665 353.522 148.725C353.317 149.551 352.99 150.34 352.55 151.07C352.518 151.125 352.523 151.195 352.567 151.246L353.662 152.556C353.968 152.921 353.943 153.452 353.607 153.789L352.357 155.039C352.02 155.375 351.491 155.4 351.124 155.094L349.814 153.999C349.762 153.957 349.693 153.95 349.636 153.982C348.906 154.422 348.117 154.75 347.291 154.954C347.231 154.969 347.185 155.024 347.18 155.09L347.028 156.79C346.985 157.266 346.593 157.624 346.117 157.624ZM340.756 153.207C340.917 153.207 341.078 153.25 341.221 153.335C341.887 153.736 342.605 154.035 343.356 154.22C343.73 154.313 344.005 154.636 344.041 155.024L344.192 156.724C344.199 156.805 344.268 156.867 344.349 156.867H346.117C346.2 156.867 346.266 156.805 346.274 156.724L346.425 155.024C346.459 154.636 346.735 154.313 347.11 154.22C347.862 154.035 348.579 153.736 349.244 153.335C349.575 153.137 349.999 153.169 350.298 153.418L351.608 154.513C351.67 154.566 351.763 154.562 351.822 154.504L353.072 153.254C353.13 153.195 353.134 153.104 353.081 153.042L351.986 151.732C351.737 151.433 351.703 151.009 351.903 150.68C352.304 150.017 352.603 149.298 352.788 148.546C352.881 148.171 353.204 147.897 353.592 147.861L355.292 147.71C355.373 147.702 355.435 147.634 355.435 147.553V145.785C355.435 145.702 355.373 145.635 355.292 145.628L353.592 145.477C353.204 145.443 352.881 145.166 352.788 144.792C352.601 144.039 352.304 143.321 351.903 142.657C351.704 142.326 351.737 141.903 351.986 141.604L353.081 140.294C353.134 140.231 353.13 140.139 353.072 140.08L351.822 138.83C351.763 138.771 351.672 138.768 351.61 138.821L350.3 139.915C350.001 140.165 349.577 140.199 349.248 139.999C348.583 139.598 347.864 139.299 347.113 139.114C346.739 139.021 346.465 138.698 346.429 138.31L346.278 136.61C346.268 136.531 346.2 136.468 346.117 136.468H344.349C344.266 136.468 344.199 136.531 344.192 136.612L344.041 138.312C344.007 138.7 343.732 139.023 343.358 139.116C342.605 139.301 341.889 139.6 341.223 140C340.892 140.199 340.469 140.167 340.17 139.917L338.86 138.822C338.797 138.77 338.704 138.773 338.646 138.832L337.396 140.082C337.337 140.14 337.334 140.231 337.386 140.294L338.481 141.604C338.731 141.903 338.765 142.326 338.565 142.655C338.164 143.321 337.865 144.039 337.68 144.79C337.587 145.165 337.264 145.439 336.876 145.475L335.176 145.626C335.097 145.635 335.034 145.702 335.034 145.785V147.553C335.034 147.636 335.097 147.702 335.178 147.71L336.878 147.861C337.265 147.895 337.589 148.171 337.681 148.546C337.867 149.298 338.166 150.015 338.566 150.68C338.765 151.011 338.733 151.435 338.483 151.734L337.388 153.044C337.335 153.106 337.339 153.199 337.398 153.258L338.648 154.508C338.706 154.566 338.797 154.57 338.86 154.517L340.17 153.422C340.338 153.278 340.546 153.207 340.756 153.207ZM345.234 150.204C344.296 150.204 343.403 149.839 342.732 149.168C341.953 148.389 341.586 147.311 341.726 146.21C341.923 144.641 343.207 143.359 344.774 143.16C345.875 143.02 346.954 143.389 347.734 144.166C348.513 144.945 348.879 146.023 348.74 147.124C348.541 148.693 347.259 149.975 345.689 150.172C345.538 150.194 345.385 150.204 345.234 150.204ZM345.232 143.888C345.113 143.888 344.992 143.896 344.871 143.911C343.64 144.066 342.634 145.072 342.477 146.305C342.367 147.173 342.656 148.022 343.267 148.632C343.88 149.245 344.731 149.534 345.595 149.423C346.826 149.268 347.834 148.262 347.989 147.029C348.098 146.161 347.809 145.312 347.198 144.699C346.673 144.176 345.969 143.888 345.232 143.888Z" fill="#A7A4B5"/>
<path d="M328.651 171.443C330.23 171.443 331.265 170.619 331.265 169.295V169.29C331.265 168.27 330.681 167.677 329.205 167.348L328.421 167.171C327.459 166.961 327.072 166.578 327.072 166.014V166.009C327.072 165.269 327.754 164.852 328.636 164.847C329.558 164.842 330.147 165.303 330.245 165.926L330.255 165.99H331.137L331.132 165.921C331.059 164.867 330.073 164.033 328.661 164.033C327.2 164.033 326.175 164.862 326.17 166.034V166.039C326.17 167.064 326.783 167.716 328.2 168.03L328.985 168.201C329.955 168.417 330.362 168.819 330.362 169.408V169.412C330.362 170.133 329.661 170.629 328.7 170.629C327.68 170.629 326.945 170.182 326.881 169.476L326.876 169.422H325.993L325.998 169.476C326.101 170.629 327.101 171.443 328.651 171.443ZM334.85 171.369C336.095 171.369 336.85 170.663 337.032 169.947L337.042 169.908H336.188L336.169 169.952C336.026 170.271 335.585 170.609 334.869 170.609C333.928 170.609 333.325 169.971 333.3 168.878H337.105V168.544C337.105 166.965 336.232 165.896 334.796 165.896C333.359 165.896 332.427 167.014 332.427 168.647V168.652C332.427 170.31 333.339 171.369 334.85 171.369ZM334.791 166.657C335.57 166.657 336.149 167.152 336.237 168.196H333.315C333.408 167.191 334.006 166.657 334.791 166.657ZM340.371 171.315C340.538 171.315 340.7 171.295 340.867 171.266V170.54C340.71 170.555 340.626 170.56 340.474 170.56C339.925 170.56 339.709 170.31 339.709 169.687V166.696H340.867V165.99H339.709V164.621H338.827V165.99H337.993V166.696H338.827V169.903C338.827 170.913 339.283 171.315 340.371 171.315ZM344.084 171.315C344.25 171.315 344.412 171.295 344.579 171.266V170.54C344.422 170.555 344.339 170.56 344.187 170.56C343.637 170.56 343.422 170.31 343.422 169.687V166.696H344.579V165.99H343.422V164.621H342.539V165.99H341.705V166.696H342.539V169.903C342.539 170.913 342.995 171.315 344.084 171.315ZM346.369 164.97C346.693 164.97 346.957 164.705 346.957 164.381C346.957 164.058 346.693 163.793 346.369 163.793C346.045 163.793 345.781 164.058 345.781 164.381C345.781 164.705 346.045 164.97 346.369 164.97ZM345.937 171.276H346.791V165.99H345.937V171.276ZM348.463 171.276H349.316V168.147C349.316 167.22 349.851 166.652 350.694 166.652C351.538 166.652 351.93 167.108 351.93 168.059V171.276H352.783V167.853C352.783 166.598 352.121 165.896 350.935 165.896C350.155 165.896 349.66 166.225 349.395 166.784H349.316V165.99H348.463V171.276ZM356.569 173.139C358.011 173.139 358.923 172.384 358.923 171.202V165.99H358.07V166.862H358.011C357.687 166.264 357.109 165.896 356.363 165.896C354.98 165.896 354.127 166.97 354.127 168.451V168.461C354.127 169.942 354.975 171.001 356.344 171.001C357.069 171.001 357.668 170.673 358.001 170.089H358.08V171.158C358.08 171.938 357.516 172.384 356.569 172.384C355.809 172.384 355.338 172.1 355.245 171.698L355.24 171.693H354.358L354.348 171.698C354.48 172.566 355.294 173.139 356.569 173.139ZM356.53 170.246C355.549 170.246 355 169.511 355 168.461V168.451C355 167.402 355.549 166.652 356.53 166.652C357.506 166.652 358.099 167.402 358.099 168.451V168.461C358.099 169.511 357.511 170.246 356.53 170.246ZM362.39 171.369C363.592 171.369 364.509 170.717 364.509 169.775V169.766C364.509 169.01 364.028 168.579 363.033 168.339L362.219 168.142C361.596 167.99 361.331 167.765 361.331 167.407V167.397C361.331 166.931 361.792 166.607 362.42 166.607C363.057 166.607 363.469 166.897 363.582 167.314H364.42C364.303 166.451 363.533 165.896 362.424 165.896C361.302 165.896 360.458 166.558 360.458 167.436V167.441C360.458 168.201 360.904 168.633 361.895 168.868L362.714 169.064C363.366 169.221 363.636 169.471 363.636 169.829V169.839C363.636 170.32 363.131 170.658 362.42 170.658C361.743 170.658 361.321 170.369 361.179 169.927H360.306C360.404 170.8 361.213 171.369 362.39 171.369Z" fill="#A7A4B5"/>
<path d="M215.542 138.252C215.542 137.928 215.478 137.606 215.355 137.306C215.231 137.006 215.05 136.734 214.822 136.504C214.594 136.275 214.323 136.093 214.025 135.968C213.727 135.844 213.407 135.78 213.085 135.78C212.433 135.78 211.808 136.041 211.347 136.504C210.886 136.968 210.627 137.597 210.627 138.252V138.33L199.94 141.762C199.57 141.225 199.005 140.856 198.366 140.735C197.727 140.615 197.067 140.753 196.529 141.119C196.265 141.297 196.039 141.525 195.862 141.79C195.686 142.056 195.564 142.354 195.502 142.667C195.44 142.98 195.441 143.302 195.503 143.616C195.565 143.929 195.688 144.226 195.864 144.492C195.87 144.5 195.876 144.509 195.882 144.518C196.113 144.855 196.425 145.129 196.788 145.315C197.151 145.501 197.555 145.593 197.963 145.583C198.217 145.581 198.469 145.538 198.709 145.453L205.733 154.288C205.48 154.882 205.473 155.553 205.712 156.153C205.951 156.753 206.417 157.232 207.007 157.487L207.028 157.496C207.625 157.75 208.297 157.758 208.899 157.517C209.501 157.276 209.985 156.806 210.244 156.209C210.447 155.73 210.492 155.198 210.373 154.692C210.253 154.186 209.975 153.731 209.579 153.396L213.31 140.684C213.916 140.631 214.48 140.352 214.891 139.902C215.301 139.451 215.529 138.861 215.528 138.25L215.542 138.252ZM207.951 152.754C207.572 152.76 207.2 152.852 206.863 153.024L200.003 144.373C200.193 144.064 200.311 143.717 200.349 143.356L211.27 139.883C211.387 140.008 211.513 140.124 211.647 140.229L207.96 152.749H207.948L207.951 152.754Z" fill="#A7A4B5"/>
<path d="M173.963 171.51C174.439 171.51 174.87 171.432 175.257 171.275L175.885 172.143H176.876L175.954 170.878C176.758 170.245 177.209 169.176 177.209 167.808V167.798C177.209 165.533 175.973 164.101 173.963 164.101C171.962 164.101 170.717 165.528 170.717 167.798V167.808C170.717 170.069 171.933 171.51 173.963 171.51ZM173.963 170.696C172.492 170.696 171.619 169.559 171.619 167.808V167.798C171.619 166.033 172.521 164.915 173.963 164.915C175.41 164.915 176.307 166.033 176.307 167.798V167.808C176.307 168.843 175.993 169.667 175.439 170.167L174.821 169.318H173.83L174.743 170.574C174.507 170.652 174.242 170.696 173.963 170.696ZM180.465 171.437C181.24 171.437 181.775 171.118 182.035 170.554H182.113V171.344H182.966V166.057H182.113V169.186C182.113 170.113 181.618 170.682 180.686 170.682C179.843 170.682 179.499 170.226 179.499 169.274V166.057H178.646V169.48C178.646 170.731 179.264 171.437 180.465 171.437ZM185.075 165.037C185.399 165.037 185.664 164.773 185.664 164.449C185.664 164.125 185.399 163.861 185.075 163.861C184.752 163.861 184.487 164.125 184.487 164.449C184.487 164.773 184.752 165.037 185.075 165.037ZM184.644 171.344H185.497V166.057H184.644V171.344ZM189.332 171.437C190.602 171.437 191.313 170.755 191.529 169.799L191.539 169.745L190.695 169.75L190.685 169.779C190.489 170.368 190.038 170.682 189.327 170.682C188.385 170.682 187.777 169.902 187.777 168.686V168.676C187.777 167.484 188.376 166.719 189.327 166.719C190.087 166.719 190.558 167.141 190.69 167.661L190.695 167.676H191.543L191.539 167.646C191.382 166.705 190.612 165.964 189.327 165.964C187.846 165.964 186.904 167.033 186.904 168.676V168.686C186.904 170.363 187.851 171.437 189.332 171.437ZM192.902 171.344H193.755V169.338L194.25 168.858L196.232 171.344H197.306L194.849 168.279L197.153 166.057H196.119L193.834 168.367H193.755V163.959H192.902V171.344ZM204.215 171.51C205.721 171.51 206.839 170.672 207.074 169.377V169.368H206.182L206.172 169.377C205.951 170.191 205.201 170.696 204.215 170.696C202.852 170.696 201.999 169.583 201.999 167.813V167.803C201.999 166.033 202.852 164.915 204.21 164.915C205.186 164.915 205.941 165.489 206.177 166.396L206.182 166.406H207.069L207.074 166.396C206.863 165.037 205.701 164.101 204.21 164.101C202.288 164.101 201.092 165.523 201.092 167.803V167.813C201.092 170.088 202.293 171.51 204.215 171.51ZM210.683 171.437C212.189 171.437 213.121 170.397 213.121 168.706V168.696C213.121 166.999 212.189 165.964 210.683 165.964C209.178 165.964 208.246 166.999 208.246 168.696V168.706C208.246 170.397 209.178 171.437 210.683 171.437ZM210.683 170.682C209.683 170.682 209.119 169.951 209.119 168.706V168.696C209.119 167.445 209.683 166.719 210.683 166.719C211.684 166.719 212.248 167.445 212.248 168.696V168.706C212.248 169.951 211.684 170.682 210.683 170.682ZM214.509 171.344H215.362V168.215C215.362 167.288 215.896 166.719 216.74 166.719C217.583 166.719 217.976 167.176 217.976 168.127V171.344H218.829V167.921C218.829 166.666 218.167 165.964 216.98 165.964C216.2 165.964 215.705 166.293 215.44 166.852H215.362V166.057H214.509V171.344ZM220.437 171.344H221.291V168.215C221.291 167.288 221.825 166.719 222.669 166.719C223.512 166.719 223.904 167.176 223.904 168.127V171.344H224.758V167.921C224.758 166.666 224.096 165.964 222.909 165.964C222.129 165.964 221.634 166.293 221.369 166.852H221.291V166.057H220.437V171.344ZM228.524 171.437C229.769 171.437 230.525 170.731 230.706 170.015L230.716 169.976H229.863L229.843 170.02C229.701 170.338 229.259 170.677 228.544 170.677C227.602 170.677 226.999 170.039 226.974 168.946H230.78V168.612C230.78 167.033 229.907 165.964 228.47 165.964C227.033 165.964 226.101 167.082 226.101 168.715V168.72C226.101 170.378 227.014 171.437 228.524 171.437ZM228.465 166.724C229.245 166.724 229.823 167.22 229.912 168.264H226.989C227.082 167.259 227.68 166.724 228.465 166.724ZM234.33 171.437C235.6 171.437 236.311 170.755 236.527 169.799L236.537 169.745L235.693 169.75L235.684 169.779C235.487 170.368 235.036 170.682 234.325 170.682C233.384 170.682 232.776 169.902 232.776 168.686V168.676C232.776 167.484 233.374 166.719 234.325 166.719C235.085 166.719 235.556 167.141 235.688 167.661L235.693 167.676H236.542L236.537 167.646C236.38 166.705 235.61 165.964 234.325 165.964C232.844 165.964 231.903 167.033 231.903 168.676V168.686C231.903 170.363 232.849 171.437 234.33 171.437ZM239.827 171.383C239.994 171.383 240.156 171.363 240.323 171.334V170.608C240.166 170.623 240.082 170.628 239.93 170.628C239.381 170.628 239.165 170.378 239.165 169.755V166.764H240.323V166.057H239.165V164.689H238.283V166.057H237.449V166.764H238.283V169.971C238.283 170.981 238.739 171.383 239.827 171.383Z" fill="#A7A4B5"/>
<rect x="37.5088" y="128.475" width="342.373" height="45.6497" fill="#292733"/>
<path d="M92.0721 148.353L91.6618 148.23C91.4189 149.04 90.8344 150.418 89.4515 152.577L89.4514 152.577C88.8185 153.567 87.9783 154.411 86.9725 154.996L86.9722 154.997C85.8699 155.639 84.8241 155.858 83.8139 155.858C82.6459 155.858 81.5202 155.567 80.3685 155.268L80.34 155.26C79.2829 154.985 78.1915 154.701 77.1053 154.701C74.5033 154.701 72.0918 156.413 70.8452 157.468L70.6936 157.597V157.795V165.068C70.6936 165.087 70.6862 165.106 70.6756 165.119C70.6708 165.125 70.6667 165.127 70.6647 165.129C70.6637 165.129 70.6631 165.129 70.6624 165.129L70.6546 165.13C70.6299 165.13 70.6157 165.11 70.6157 165.094V165.094L70.6119 146.388C70.6119 146.388 70.6119 146.388 70.6119 146.388C70.612 146.092 70.7396 145.813 70.9643 145.624L70.9643 145.624L70.9655 145.623C71.6404 145.05 73.3017 144.074 76.7987 144.074C79.7147 144.074 81.2578 145.999 82.618 147.721L82.634 147.741C83.0831 148.309 83.5268 148.871 83.9894 149.287C84.4616 149.712 85.0062 150.035 85.6607 150.035C86.611 150.035 87.7414 149.717 88.7771 149.33C89.8228 148.94 90.8156 148.461 91.5041 148.105L91.5041 148.105L91.5079 148.103C91.5192 148.097 91.5281 148.094 91.535 148.093C91.542 148.091 91.5494 148.09 91.5581 148.09C91.5872 148.09 91.6215 148.105 91.6452 148.135C91.6648 148.16 91.6737 148.19 91.6615 148.231L92.0721 148.353ZM92.0721 148.353C92.1805 147.988 91.8945 147.662 91.5581 147.662C91.4758 147.662 91.3917 147.68 91.3076 147.725L70.6883 145.296C70.3649 145.569 70.1836 145.969 70.1836 146.388L70.1873 165.094C70.1873 165.35 70.3967 165.558 70.6546 165.558C70.6696 165.558 70.6864 165.558 70.7032 165.556C70.9462 165.532 71.1219 165.311 71.1219 165.068V157.795C72.3594 156.748 74.6678 155.129 77.1053 155.129C78.1365 155.129 79.1831 155.402 80.2606 155.682L80.2606 155.682C81.404 155.98 82.5822 156.286 83.8139 156.286C84.8925 156.286 86.014 156.051 87.1879 155.367C88.2589 154.744 89.1468 153.848 89.8122 152.808C91.2085 150.628 91.8142 149.213 92.0721 148.353Z" stroke="#A7A4B5" stroke-width="0.856688"/>
<path d="M146.003 143.703C145.894 143.634 145.756 143.627 145.64 143.685L138.749 147.031L131.855 143.685C131.847 143.681 131.838 143.679 131.829 143.675C131.814 143.67 131.799 143.664 131.782 143.661C131.767 143.657 131.752 143.655 131.737 143.653C131.72 143.651 131.705 143.649 131.691 143.649C131.676 143.649 131.661 143.651 131.646 143.653C131.631 143.655 131.616 143.657 131.599 143.661C131.584 143.664 131.569 143.67 131.554 143.675C131.547 143.679 131.537 143.681 131.528 143.685L124.474 147.111C124.345 147.173 124.263 147.304 124.263 147.446V165.184C124.263 165.313 124.328 165.433 124.438 165.502C124.498 165.539 124.567 165.558 124.636 165.558C124.692 165.558 124.748 165.545 124.799 165.521L131.691 162.174L138.582 165.521C138.595 165.526 138.61 165.53 138.623 165.535C138.633 165.539 138.642 165.543 138.651 165.545C138.683 165.552 138.713 165.558 138.745 165.558C138.777 165.558 138.808 165.552 138.838 165.545C138.848 165.543 138.857 165.537 138.866 165.535C138.879 165.53 138.894 165.528 138.907 165.521L145.963 162.096C146.092 162.034 146.175 161.903 146.175 161.76V144.021C146.176 143.892 146.111 143.773 146.003 143.703ZM125.01 147.681L131.319 144.618V161.526L125.01 164.589V147.681ZM132.066 144.617L138.375 147.679V164.587L132.066 161.524V144.617ZM145.429 161.526L139.12 164.589V147.681L145.429 144.618V161.526Z" fill="#A7A4B5"/>
<path d="M271.323 154.232H281.809C282.012 154.232 282.179 154.398 282.179 154.602C282.179 154.805 282.012 154.972 281.809 154.972H271.323C271.119 154.972 270.953 154.805 270.953 154.602C270.953 154.398 271.119 154.232 271.323 154.232Z" fill="#A7A4B5"/>
<path d="M271.323 151.738H278.963C279.166 151.738 279.333 151.571 279.333 151.368C279.333 151.164 279.166 150.997 278.963 150.997H271.323C271.119 150.997 270.953 151.164 270.953 151.368C270.953 151.571 271.119 151.738 271.323 151.738Z" fill="#A7A4B5"/>
<path d="M271.323 157.466H276.85C277.055 157.466 277.222 157.633 277.222 157.836C277.222 158.04 277.055 158.206 276.852 158.206H271.323C271.119 158.206 270.953 158.04 270.953 157.836C270.953 157.633 271.119 157.466 271.323 157.466Z" fill="#A7A4B5"/>
<path fill-rule="evenodd" clip-rule="evenodd" d="M265.777 154.602C265.777 148.561 270.692 143.646 276.733 143.646C282.775 143.646 287.689 148.561 287.689 154.602C287.689 160.643 282.775 165.558 276.733 165.558C270.692 165.558 265.777 160.643 265.777 154.602ZM266.517 154.602C266.517 160.236 271.101 164.818 276.733 164.818C282.368 164.818 286.949 160.234 286.949 154.602C286.949 148.969 282.366 144.386 276.733 144.386C271.101 144.386 266.517 148.968 266.517 154.602Z" fill="#A7A4B5"/>
<path d="M337.873 165.558H336.105C335.629 165.558 335.237 165.2 335.194 164.726L335.042 163.026C335.037 162.96 334.991 162.905 334.931 162.89C334.105 162.686 333.316 162.358 332.586 161.918C332.531 161.886 332.461 161.891 332.41 161.935L331.1 163.03C330.735 163.336 330.206 163.311 329.867 162.975L328.617 161.725C328.281 161.388 328.256 160.857 328.562 160.492L329.657 159.182C329.701 159.131 329.706 159.059 329.674 159.004C329.234 158.274 328.906 157.486 328.702 156.659C328.687 156.599 328.632 156.553 328.566 156.548L326.866 156.396C326.392 156.353 326.034 155.961 326.034 155.485V153.717C326.034 153.24 326.392 152.849 326.866 152.806L328.566 152.654C328.632 152.649 328.687 152.603 328.702 152.543C328.906 151.716 329.234 150.928 329.674 150.198C329.706 150.143 329.701 150.073 329.657 150.022L328.562 148.712C328.256 148.347 328.281 147.815 328.617 147.479L329.867 146.229C330.204 145.892 330.733 145.868 331.1 146.174L332.41 147.269C332.461 147.311 332.531 147.318 332.588 147.286C333.318 146.845 334.106 146.518 334.933 146.314C334.993 146.299 335.039 146.244 335.044 146.178L335.196 144.478C335.239 144.003 335.631 143.646 336.107 143.646H337.875C338.352 143.646 338.743 144.003 338.786 144.478L338.938 146.178C338.943 146.244 338.989 146.299 339.049 146.314C339.876 146.518 340.664 146.845 341.394 147.286C341.449 147.318 341.519 147.312 341.57 147.269L342.88 146.174C343.245 145.868 343.775 145.892 344.113 146.229L345.363 147.479C345.7 147.815 345.724 148.345 345.418 148.712L344.323 150.022C344.28 150.073 344.274 150.145 344.306 150.2C344.747 150.93 345.074 151.718 345.278 152.543C345.293 152.605 345.348 152.649 345.414 152.654L347.114 152.806C347.589 152.847 347.946 153.239 347.946 153.717V155.485C347.946 155.961 347.589 156.353 347.114 156.396L345.414 156.548C345.348 156.553 345.293 156.599 345.278 156.659C345.074 157.486 344.747 158.274 344.306 159.004C344.274 159.059 344.28 159.129 344.323 159.18L345.418 160.49C345.724 160.855 345.7 161.387 345.363 161.723L344.113 162.973C343.777 163.31 343.247 163.334 342.88 163.028L341.57 161.933C341.519 161.891 341.449 161.884 341.392 161.916C340.662 162.357 339.874 162.684 339.047 162.888C338.987 162.903 338.942 162.958 338.936 163.024L338.785 164.724C338.741 165.2 338.35 165.558 337.873 165.558ZM332.512 161.141C332.673 161.141 332.834 161.184 332.978 161.269C333.643 161.67 334.362 161.969 335.112 162.154C335.487 162.247 335.761 162.57 335.797 162.958L335.948 164.658C335.956 164.739 336.024 164.801 336.105 164.801H337.873C337.956 164.801 338.023 164.739 338.03 164.658L338.181 162.958C338.215 162.57 338.491 162.247 338.866 162.154C339.618 161.969 340.335 161.67 341.001 161.269C341.332 161.071 341.755 161.103 342.054 161.352L343.364 162.447C343.427 162.5 343.519 162.496 343.578 162.438L344.828 161.188C344.887 161.129 344.89 161.039 344.837 160.976L343.743 159.666C343.493 159.367 343.459 158.943 343.659 158.614C344.06 157.951 344.359 157.232 344.544 156.48C344.637 156.105 344.96 155.831 345.348 155.795L347.048 155.644C347.129 155.636 347.192 155.568 347.192 155.487V153.719C347.192 153.636 347.129 153.569 347.048 153.562L345.348 153.411C344.96 153.377 344.637 153.101 344.544 152.726C344.357 151.974 344.06 151.255 343.659 150.591C343.461 150.26 343.493 149.837 343.743 149.538L344.837 148.228C344.89 148.165 344.887 148.073 344.828 148.014L343.578 146.764C343.519 146.705 343.429 146.702 343.366 146.755L342.056 147.849C341.757 148.099 341.334 148.133 341.005 147.933C340.339 147.532 339.62 147.233 338.87 147.048C338.495 146.955 338.221 146.632 338.185 146.244L338.034 144.544C338.024 144.465 337.956 144.402 337.873 144.402H336.105C336.022 144.402 335.956 144.465 335.948 144.546L335.797 146.246C335.763 146.634 335.489 146.957 335.114 147.05C334.362 147.235 333.645 147.534 332.979 147.935C332.649 148.133 332.225 148.101 331.926 147.851L330.616 146.757C330.553 146.704 330.461 146.707 330.402 146.766L329.152 148.016C329.094 148.075 329.09 148.165 329.143 148.228L330.238 149.538C330.487 149.837 330.521 150.26 330.321 150.589C329.92 151.255 329.621 151.974 329.436 152.724C329.343 153.099 329.02 153.373 328.632 153.409L326.932 153.56C326.853 153.569 326.791 153.636 326.791 153.719V155.487C326.791 155.57 326.853 155.636 326.934 155.644L328.634 155.795C329.022 155.829 329.345 156.105 329.438 156.48C329.623 157.232 329.922 157.949 330.323 158.614C330.521 158.945 330.489 159.369 330.24 159.668L329.145 160.978C329.092 161.04 329.096 161.133 329.154 161.192L330.404 162.442C330.463 162.5 330.553 162.504 330.616 162.451L331.926 161.356C332.095 161.213 332.303 161.141 332.512 161.141ZM336.99 158.138C336.052 158.138 335.16 157.773 334.488 157.102C333.709 156.323 333.343 155.245 333.482 154.144C333.679 152.575 334.963 151.293 336.531 151.094C337.631 150.954 338.711 151.323 339.49 152.1C340.269 152.879 340.636 153.957 340.496 155.058C340.297 156.627 339.015 157.909 337.446 158.106C337.295 158.128 337.141 158.138 336.99 158.138ZM336.988 151.822C336.869 151.822 336.748 151.83 336.627 151.845C335.396 152 334.39 153.006 334.233 154.239C334.123 155.107 334.413 155.956 335.024 156.567C335.636 157.179 336.487 157.469 337.351 157.357C338.582 157.202 339.59 156.196 339.745 154.963C339.855 154.095 339.566 153.246 338.955 152.633C338.429 152.11 337.726 151.822 336.988 151.822Z" fill="#A7A4B5"/>
<ellipse cx="205.499" cy="144.862" rx="35.0191" ry="33.7221" fill="#8A6EFF"/>
<circle cx="205.498" cy="146.159" r="33.7221" fill="#292733"/>
<path d="M194.868 130.638L217.356 133.899C218.083 134.004 218.771 134.294 219.356 134.743C219.94 135.191 220.402 135.783 220.698 136.463C220.994 137.142 221.113 137.887 221.045 138.626C220.977 139.365 220.724 140.074 220.31 140.687L207.384 159.818C206.948 160.464 206.349 160.979 205.649 161.31C204.949 161.642 204.174 161.777 203.405 161.702C202.635 161.628 201.9 161.345 201.275 160.885C200.65 160.425 200.159 159.804 199.852 159.086L190.29 136.695C189.985 135.982 189.874 135.2 189.968 134.429C190.062 133.658 190.357 132.927 190.824 132.31C191.29 131.693 191.911 131.213 192.621 130.919C193.332 130.625 194.108 130.528 194.868 130.638Z" fill="url(#paint1_linear_4522_173095)"/>
<path d="M217.357 133.898L194.868 130.638C194.108 130.528 193.332 130.625 192.621 130.919C191.911 131.213 191.29 131.693 190.824 132.31C190.357 132.927 190.062 133.658 189.968 134.429C189.874 135.2 189.985 135.982 190.29 136.695L190.315 136.754L209.768 139.573C210.233 139.641 210.674 139.827 211.049 140.115C211.423 140.403 211.719 140.783 211.909 141.218C212.098 141.654 212.175 142.131 212.131 142.604C212.088 143.078 211.926 143.533 211.66 143.926L202.651 157.261C200.993 159.712 199.292 157.771 199.292 157.771L199.853 159.085C200.04 159.522 200.296 159.925 200.611 160.279L200.673 160.346C200.704 160.378 200.735 160.412 200.766 160.446C200.836 160.514 200.907 160.581 200.98 160.648L201.065 160.718C201.128 160.771 201.191 160.821 201.258 160.869C201.28 160.887 201.302 160.904 201.326 160.921C201.412 160.983 201.501 161.041 201.591 161.095L201.656 161.132C201.742 161.182 201.831 161.23 201.92 161.273L201.942 161.286C202.873 161.742 203.935 161.845 204.934 161.575C205.933 161.304 206.803 160.68 207.385 159.815L220.311 140.685C220.725 140.072 220.978 139.363 221.045 138.624C221.113 137.885 220.993 137.141 220.698 136.462C220.402 135.783 219.94 135.191 219.356 134.743C218.771 134.294 218.083 134.004 217.357 133.898Z" fill="url(#paint2_linear_4522_173095)"/>
<path d="M167.244 180.91H170.693C173.681 180.91 175.437 179.05 175.437 175.887V175.873C175.437 172.718 173.674 170.858 170.693 170.858H167.244V180.91ZM168.498 179.782V171.986H170.609C172.838 171.986 174.155 173.435 174.155 175.887V175.901C174.155 178.347 172.852 179.782 170.609 179.782H168.498ZM178.189 171.951C178.648 171.951 179.025 171.575 179.025 171.115C179.025 170.656 178.648 170.28 178.189 170.28C177.729 170.28 177.353 170.656 177.353 171.115C177.353 171.575 177.729 171.951 178.189 171.951ZM177.576 180.91H178.788V173.4H177.576V180.91ZM183.741 181.043C185.448 181.043 186.75 180.116 186.75 178.778V178.765C186.75 177.692 186.068 177.079 184.654 176.737L183.497 176.459C182.612 176.243 182.236 175.922 182.236 175.414V175.4C182.236 174.738 182.891 174.278 183.783 174.278C184.688 174.278 185.274 174.689 185.434 175.281H186.625C186.458 174.055 185.364 173.268 183.79 173.268C182.194 173.268 180.996 174.209 180.996 175.456V175.462C180.996 176.542 181.63 177.155 183.037 177.49L184.201 177.768C185.127 177.991 185.51 178.347 185.51 178.855V178.869C185.51 179.552 184.793 180.032 183.783 180.032C182.821 180.032 182.222 179.621 182.02 178.994H180.78C180.92 180.234 182.069 181.043 183.741 181.043ZM191.794 181.043C193.599 181.043 194.609 180.074 194.915 178.716L194.929 178.639L193.731 178.646L193.717 178.688C193.438 179.524 192.797 179.97 191.787 179.97C190.45 179.97 189.586 178.862 189.586 177.134V177.12C189.586 175.428 190.436 174.341 191.787 174.341C192.867 174.341 193.536 174.94 193.724 175.678L193.731 175.699H194.936L194.929 175.658C194.706 174.32 193.612 173.268 191.787 173.268C189.683 173.268 188.346 174.787 188.346 177.12V177.134C188.346 179.517 189.69 181.043 191.794 181.043ZM199.882 181.043C202.021 181.043 203.345 179.566 203.345 177.162V177.148C203.345 174.738 202.021 173.268 199.882 173.268C197.744 173.268 196.42 174.738 196.42 177.148V177.162C196.42 179.566 197.744 181.043 199.882 181.043ZM199.882 179.97C198.461 179.97 197.66 178.932 197.66 177.162V177.148C197.66 175.372 198.461 174.341 199.882 174.341C201.304 174.341 202.105 175.372 202.105 177.148V177.162C202.105 178.932 201.304 179.97 199.882 179.97ZM205.316 180.91H206.529V176.466C206.529 175.149 207.288 174.341 208.486 174.341C209.684 174.341 210.242 174.989 210.242 176.34V180.91H211.454V176.048C211.454 174.264 210.513 173.268 208.827 173.268C207.72 173.268 207.016 173.735 206.64 174.529H206.529V173.4H205.316V180.91ZM213.739 180.91H214.951V176.466C214.951 175.149 215.71 174.341 216.909 174.341C218.107 174.341 218.664 174.989 218.664 176.34V180.91H219.876V176.048C219.876 174.264 218.936 173.268 217.25 173.268C216.142 173.268 215.439 173.735 215.063 174.529H214.951V173.4H213.739V180.91ZM225.227 181.043C226.996 181.043 228.069 180.039 228.327 179.022L228.341 178.967H227.128L227.101 179.029C226.899 179.482 226.272 179.963 225.254 179.963C223.917 179.963 223.06 179.057 223.025 177.504H228.431V177.03C228.431 174.787 227.191 173.268 225.15 173.268C223.109 173.268 221.785 174.856 221.785 177.176V177.183C221.785 179.538 223.081 181.043 225.227 181.043ZM225.143 174.348C226.251 174.348 227.073 175.051 227.198 176.535H223.046C223.179 175.107 224.028 174.348 225.143 174.348ZM233.475 181.043C235.279 181.043 236.289 180.074 236.596 178.716L236.61 178.639L235.412 178.646L235.398 178.688C235.119 179.524 234.478 179.97 233.468 179.97C232.131 179.97 231.267 178.862 231.267 177.134V177.12C231.267 175.428 232.117 174.341 233.468 174.341C234.548 174.341 235.217 174.94 235.405 175.678L235.412 175.699H236.617L236.61 175.658C236.387 174.32 235.293 173.268 233.468 173.268C231.364 173.268 230.027 174.787 230.027 177.12V177.134C230.027 179.517 231.371 181.043 233.475 181.043ZM241.284 180.966C241.521 180.966 241.751 180.938 241.988 180.896V179.865C241.765 179.886 241.647 179.893 241.431 179.893C240.651 179.893 240.344 179.538 240.344 178.653V174.404H241.988V173.4H240.344V171.457H239.09V173.4H237.906V174.404H239.09V178.96C239.09 180.395 239.738 180.966 241.284 180.966Z" fill="#8A6EFF"/>
</g>
</g>
</g>
</g>
<defs>
<filter id="filter0_dd_4522_173095" x="-124" y="-251" width="864.001" height="816.167" filterUnits="userSpaceOnUse" color-interpolation-filters="sRGB">
<feFlood flood-opacity="0" result="BackgroundImageFix"/>
<feColorMatrix in="SourceAlpha" type="matrix" values="0 0 0 0 0 0 0 0 0 0 0 0 0 0 0 0 0 0 127 0" result="hardAlpha"/>
<feMorphology radius="10" operator="dilate" in="SourceAlpha" result="effect1_dropShadow_4522_173095"/>
<feOffset dx="100" dy="100"/>
<feGaussianBlur stdDeviation="125"/>
<feColorMatrix type="matrix" values="0 0 0 0 0.321569 0 0 0 0 0.219608 0 0 0 0 0.74902 0 0 0 0.25 0"/>
<feBlend mode="multiply" in2="BackgroundImageFix" result="effect1_dropShadow_4522_173095"/>
<feColorMatrix in="SourceAlpha" type="matrix" values="0 0 0 0 0 0 0 0 0 0 0 0 0 0 0 0 0 0 127 0" result="hardAlpha"/>
<feOffset dx="15" dy="15"/>
<feGaussianBlur stdDeviation="30"/>
<feComposite in2="hardAlpha" operator="out"/>
<feColorMatrix type="matrix" values="0 0 0 0 0.321569 0 0 0 0 0.219608 0 0 0 0 0.74902 0 0 0 0.25 0"/>
<feBlend mode="multiply" in2="effect1_dropShadow_4522_173095" result="effect2_dropShadow_4522_173095"/>
<feBlend mode="normal" in="SourceGraphic" in2="effect2_dropShadow_4522_173095" result="shape"/>
</filter>
<filter id="filter1_dd_4522_173095" x="-99.5613" y="-25.9304" width="787.97" height="539.505" filterUnits="userSpaceOnUse" color-interpolation-filters="sRGB">
<feFlood flood-opacity="0" result="BackgroundImageFix"/>
<feColorMatrix in="SourceAlpha" type="matrix" values="0 0 0 0 0 0 0 0 0 0 0 0 0 0 0 0 0 0 127 0" result="hardAlpha"/>
<feMorphology radius="8.56688" operator="dilate" in="SourceAlpha" result="effect1_dropShadow_4522_173095"/>
<feOffset dx="85.6688" dy="85.6688"/>
<feGaussianBlur stdDeviation="107.086"/>
<feColorMatrix type="matrix" values="0 0 0 0 0.321569 0 0 0 0 0.219608 0 0 0 0 0.74902 0 0 0 0.25 0"/>
<feBlend mode="multiply" in2="BackgroundImageFix" result="effect1_dropShadow_4522_173095"/>
<feColorMatrix in="SourceAlpha" type="matrix" values="0 0 0 0 0 0 0 0 0 0 0 0 0 0 0 0 0 0 127 0" result="hardAlpha"/>
<feOffset dx="12.8503" dy="12.8503"/>
<feGaussianBlur stdDeviation="25.7006"/>
<feComposite in2="hardAlpha" operator="out"/>
<feColorMatrix type="matrix" values="0 0 0 0 0.321569 0 0 0 0 0.219608 0 0 0 0 0.74902 0 0 0 0.25 0"/>
<feBlend mode="multiply" in2="effect1_dropShadow_4522_173095" result="effect2_dropShadow_4522_173095"/>
<feBlend mode="normal" in="SourceGraphic" in2="effect2_dropShadow_4522_173095" result="shape"/>
</filter>
<linearGradient id="paint0_linear_4522_173095" x1="624" y1="253.222" x2="829.971" y2="467.469" gradientUnits="userSpaceOnUse">
<stop stop-color="#6D4AFF"/>
<stop offset="1" stop-color="#31D1D0"/>
</linearGradient>
<linearGradient id="paint1_linear_4522_173095" x1="200.575" y1="140.875" x2="195.527" y2="164.775" gradientUnits="userSpaceOnUse">
<stop offset="0.10797" stop-color="#6F4CFF"/>
<stop offset="0.823617" stop-color="#3BE0A4"/>
</linearGradient>
<linearGradient id="paint2_linear_4522_173095" x1="229.271" y1="154.171" x2="198.569" y2="111.739" gradientUnits="userSpaceOnUse">
<stop offset="0.0935126" stop-color="#A9FFDF"/>
<stop offset="0.395876" stop-color="#C4B7FF"/>
<stop offset="0.951481" stop-color="#6D4AFF"/>
</linearGradient>
<clipPath id="clip0_4522_173095">
<rect width="55" height="63.25" fill="white" transform="translate(180.5 -51)"/>
</clipPath>
</defs>
</svg>
