<svg width="161" height="34" viewBox="0 0 161 34" fill="none" xmlns="http://www.w3.org/2000/svg">
<g clip-path="url(#clip0_6069_288720)">
<path fill-rule="evenodd" clip-rule="evenodd" d="M16.5093 29.007C17.7604 31.2738 20.9732 31.3966 22.3936 29.2318L35.6381 9.0469C37.0427 6.90636 35.6989 4.03648 33.1554 3.74481L7.12295 0.759484C4.34751 0.441204 2.37137 3.39077 3.72132 5.83672L16.5093 29.007Z" fill="url(#paint0_linear_6069_288720)"/>
<path fill-rule="evenodd" clip-rule="evenodd" d="M16.5093 29.007C17.7604 31.2738 20.9732 31.3966 22.3936 29.2318L35.6381 9.0469C37.0427 6.90636 35.6989 4.03648 33.1554 3.74481L7.12295 0.759484C4.34751 0.441204 2.37137 3.39077 3.72132 5.83672L16.5093 29.007Z" fill="url(#paint1_linear_6069_288720)"/>
<path d="M18.4306 25.1259L17.2551 26.8929C16.7789 27.6088 15.7132 27.5647 15.2977 26.8119L16.5093 29.0072C16.7253 29.3986 16.9998 29.7261 17.3135 29.989L17.3136 29.9888C18.8166 31.2479 21.2185 31.0227 22.3936 29.2317L35.6382 9.04686C37.0427 6.90628 35.6989 4.03645 33.1554 3.74481L7.12296 0.759415C4.34751 0.441187 2.37137 3.39076 3.72132 5.8367L3.82408 6.02286L25.9821 8.58679C27.3945 8.75022 28.1396 10.3445 27.359 11.5329L18.4306 25.1259Z" fill="url(#paint2_linear_6069_288720)"/>
<path d="M139.64 6.97192H132.004V23.5153H135.029V19.3973C135.029 18.9966 135.188 18.6122 135.472 18.3288C135.755 18.0455 136.139 17.8863 136.54 17.8863H139.64C141.084 17.8863 142.469 17.3126 143.49 16.2914C144.512 15.2702 145.085 13.8852 145.085 12.441C145.088 11.7239 144.95 11.0133 144.678 10.3499C144.405 9.68647 144.005 9.08338 143.499 8.57522C142.993 8.06705 142.392 7.66382 141.729 7.38869C141.067 7.11355 140.357 6.97192 139.64 6.97192V6.97192ZM142.022 12.4002C142.022 12.7392 141.956 13.0749 141.826 13.3882C141.696 13.7014 141.506 13.9859 141.266 14.2255C141.026 14.4651 140.741 14.655 140.428 14.7845C140.114 14.9139 139.778 14.9803 139.439 14.9798H135.015V9.82388H139.439C139.779 9.82387 140.116 9.89104 140.43 10.0215C140.744 10.152 141.029 10.3433 141.268 10.5843C141.508 10.8252 141.698 11.1112 141.827 11.4258C141.955 11.7403 142.021 12.0773 142.019 12.4172L142.022 12.4002Z" fill="#6D4AFF"/>
<path d="M121.377 23.4539L115.282 6.92419H118.726L122.735 18.754C122.891 19.1772 123.005 19.615 123.075 20.0609H123.109C123.159 19.6111 123.273 19.1709 123.449 18.754L127.472 6.92419H130.936L124.811 23.4539H121.377Z" fill="#6D4AFF"/>
<path d="M146.214 23.4539V6.92413H148.865L156.672 17.1782C156.952 17.5315 157.196 17.9124 157.4 18.3149H157.447C157.395 17.8163 157.37 17.3153 157.373 16.8141V6.92413H160.5V23.4539H157.849L150.022 13.1998C149.746 12.844 149.503 12.4635 149.297 12.0631H149.27C149.312 12.5622 149.329 13.0631 149.321 13.5639V23.4539H146.214Z" fill="#6D4AFF"/>
<path d="M55.0271 6.8764H47.3906V23.4198H50.416V19.3018C50.416 18.901 50.5752 18.5167 50.8585 18.2333C51.1419 17.9499 51.5262 17.7907 51.9269 17.7907H55.0271C56.4712 17.7907 57.8562 17.217 58.8773 16.1959C59.8984 15.1747 60.4721 13.7897 60.4721 12.3455C60.4752 11.6284 60.3367 10.9178 60.0645 10.2544C59.7922 9.59095 59.3917 8.98786 58.8857 8.4797C58.3798 7.97153 57.7785 7.5683 57.1163 7.29317C56.4542 7.01803 55.7442 6.8764 55.0271 6.8764V6.8764ZM57.4093 12.3046C57.4093 12.6437 57.3425 12.9794 57.2126 13.2926C57.0828 13.6058 56.8925 13.8904 56.6526 14.13C56.4127 14.3696 56.1279 14.5595 55.8145 14.6889C55.5012 14.8184 55.1654 14.8848 54.8264 14.8843H50.4024V9.72836H54.8264C55.1663 9.72835 55.5028 9.79552 55.8167 9.92602C56.1305 10.0565 56.4155 10.2477 56.6552 10.4887C56.8949 10.7297 57.0846 11.0157 57.2135 11.3303C57.3423 11.6448 57.4077 11.9817 57.4059 12.3217L57.4093 12.3046Z" fill="#1B1340"/>
<path d="M60.9485 23.4266V16.8617C60.9485 14.1833 62.5139 12.0528 65.6414 12.0528C66.1442 12.0445 66.6461 12.0994 67.1353 12.2162V14.9184C66.778 14.8946 66.4547 14.8946 66.3288 14.8946C64.6715 14.8946 63.9466 15.6535 63.9466 17.1918V23.4266H60.9485Z" fill="#1B1340"/>
<path d="M68.0337 17.8557C68.0337 14.5647 70.5213 12.0531 73.9823 12.0531C77.4432 12.0531 79.9274 14.5647 79.9274 17.8557C79.9274 21.1467 77.4398 23.6855 73.9823 23.6855C70.5247 23.6855 68.0337 21.1501 68.0337 17.8557ZM76.9668 17.8557C76.9668 15.9839 75.711 14.6566 73.9823 14.6566C72.2535 14.6566 70.9944 15.9839 70.9944 17.8557C70.9944 19.7275 72.2501 21.0548 73.9823 21.0548C75.7144 21.0548 76.9668 19.7513 76.9668 17.8557V17.8557Z" fill="#1B1340"/>
<path d="M88.6462 14.6801H85.4031V18.8287C85.4031 20.2751 85.9237 20.9353 87.4143 20.9353C87.5572 20.9353 87.9145 20.9353 88.3637 20.9115V23.355C87.7937 23.5191 87.2043 23.6061 86.6112 23.6137C84.0997 23.6137 82.3913 22.0992 82.3913 19.2303V14.6801H80.3801V12.2978H80.8804C81.2811 12.2978 81.6654 12.1386 81.9488 11.8552C82.2322 11.5718 82.3913 11.1875 82.3913 10.7867V8.52014H85.4031V12.2876H88.6462V14.6801Z" fill="#1B1340"/>
<path d="M89.5479 17.8557C89.5479 14.5647 92.0355 12.0531 95.493 12.0531C98.9506 12.0531 101.442 14.5647 101.442 17.8557C101.442 21.1467 98.954 23.6855 95.493 23.6855C92.0321 23.6855 89.5479 21.1501 89.5479 17.8557ZM98.4809 17.8557C98.4809 15.9839 97.2252 14.6566 95.493 14.6566C93.7609 14.6566 92.5085 15.9839 92.5085 17.8557C92.5085 19.7275 93.7643 21.0548 95.493 21.0548C97.2218 21.0548 98.4809 19.7513 98.4809 17.8557Z" fill="#1B1340"/>
<path d="M103.004 23.4267V17.0864C103.004 14.1459 104.875 12.0393 108.217 12.0393C111.559 12.0393 113.407 14.1596 113.407 17.0864V23.4131H110.422V17.3348C110.422 15.7012 109.687 14.6803 108.217 14.6803C106.747 14.6803 106.015 15.7012 106.015 17.3348V23.4267H103.004Z" fill="#1B1340"/>
</g>
<defs>
<linearGradient id="paint0_linear_6069_288720" x1="21.3735" y1="-17.4757" x2="22.4937" y2="20.6087" gradientUnits="userSpaceOnUse">
<stop offset="0.988738" stop-color="#6D4AFF"/>
</linearGradient>
<linearGradient id="paint1_linear_6069_288720" x1="21.5924" y1="-12.2034" x2="12.2835" y2="27.8741" gradientUnits="userSpaceOnUse">
<stop offset="0.47989" stop-color="#24ECC6" stop-opacity="0"/>
<stop offset="0.994421" stop-color="#24ECC6"/>
</linearGradient>
<linearGradient id="paint2_linear_6069_288720" x1="24.6711" y1="32.2654" x2="4.0317" y2="-3.02805" gradientUnits="userSpaceOnUse">
<stop offset="0.0660125" stop-color="#ABFFEF"/>
<stop offset="0.44988" stop-color="#CAC9FF"/>
<stop offset="1" stop-color="#6D4AFF"/>
</linearGradient>
<clipPath id="clip0_6069_288720">
<rect width="160" height="34" fill="white" transform="translate(0.5)"/>
</clipPath>
</defs>
</svg>
