<svg xmlns="http://www.w3.org/2000/svg" xmlns:xlink="http://www.w3.org/1999/xlink" width="1919.02" height="740" viewBox="0 0 1919.02 740">
<style>
    .shadow-badge {
        filter: drop-shadow(0px 20.4058px 68.1871px rgba(74, 45, 197, 0.11)) drop-shadow(0px 7.86002px 21.7188px rgba(74, 45, 197, 0.0668148)) drop-shadow(0px 1.6627px 5.55598px rgba(74, 45, 197, 0.0431852));
    }
</style>
  <defs>
    <linearGradient id="a" x1="305.81" y1="339.59" x2="226.49" y2="678.23" gradientTransform="matrix(1, 0, 0, -1, 0, 742)" gradientUnits="userSpaceOnUse">
      <stop offset="0" stop-color="#e2dbff"/>
      <stop offset="1" stop-color="#6d4aff"/>
    </linearGradient>
    <linearGradient id="b" x1="634.79" y1="47.09" x2="364.09" y2="625.36" gradientTransform="matrix(1, 0, 0, -1, 0, 742)" gradientUnits="userSpaceOnUse">
      <stop offset="0.27" stop-color="#e2dbff"/>
      <stop offset="1" stop-color="#6d4aff"/>
    </linearGradient>
  </defs>
  <rect width="1919.02" height="740" fill="none"/>
  <path d="M73.26,224a130,130,0,0,1,130-130h292a130,130,0,0,1,130,130V516a130,130,0,0,1-130,130h-292a130,130,0,0,1-130-130Z" fill="#fff" class="shadow-badge"/>
  <path d="M175.26,243a8,8,0,0,1,13.11-6.15L326.26,351.4a36,36,0,0,0,46,0L510.14,236.89A8,8,0,0,1,523.26,243V478a36,36,0,0,1-36,36h-276a36,36,0,0,1-36-36Z" fill="#6d4aff"/>
  <path d="M396.24,331.48l0,0-69.45,61.34a32,32,0,0,1-41.64.62L175.26,302.05V243a8,8,0,0,1,13.11-6.15L326.26,351.4a36,36,0,0,0,46,0Z" fill-rule="evenodd" fill="url(#a)"/>
  <path d="M449.26,287.46V514h38a36,36,0,0,0,36-36V243a8,8,0,0,0-13.12-6.15Z" fill-rule="evenodd" fill="url(#b)"/>
  <path d="M1480.93,458.25V285.59h44.82l42,103.53a239.68,239.68,0,0,1,9.63,26.59h.43a248,248,0,0,1,9.63-26.59l42-103.53h44.82V458.25h-32.49V342.56a103.52,103.52,0,0,1,.54-11.41h-.54a70.22,70.22,0,0,1-4,11.91l-46.56,113.17h-26.83l-46.7-113.17a100.67,100.67,0,0,1-4.3-11.91h-.5c.36,3.8.52,7.6.5,11.41V458.25Z" fill="#6d4aff"/>
  <path d="M1785.38,344.34a54.91,54.91,0,0,1,22.39,21.75A65.26,65.26,0,0,1,1816,399v59.25h-28.43l-2-17.77a39.69,39.69,0,0,1-15.71,15.21A47,47,0,0,1,1747,461a54.69,54.69,0,0,1-28.72-7.82,56.07,56.07,0,0,1-20.65-22,67.77,67.77,0,0,1-7.57-32.41,62.07,62.07,0,0,1,8.21-31.63A59.36,59.36,0,0,1,1721,344.8a64.43,64.43,0,0,1,32-8.1A67.68,67.68,0,0,1,1785.38,344.34ZM1775,424.06c6.18-5.9,9.24-14.22,9.24-25.31a34.68,34.68,0,0,0-8.85-24.66,30.92,30.92,0,0,0-44.68,0,38.46,38.46,0,0,0,0,49.26,29.53,29.53,0,0,0,22.4,9.49,30.4,30.4,0,0,0,21.89-8.78Z" fill="#6d4aff"/>
  <path d="M1833.47,314.59a18.34,18.34,0,0,1-6-13.79,18.72,18.72,0,0,1,6-13.93,20.15,20.15,0,0,1,28.43,0,18.84,18.84,0,0,1,5.94,13.93,18.4,18.4,0,0,1-5.94,13.79,20.5,20.5,0,0,1-28.43,0Zm30.25,143.66h-32v-119h32Z" fill="#6d4aff"/>
  <path d="M1919,458.25h-32V285.59h32Z" fill="#6d4aff"/>
  <path d="M817,285.16H737.26V457.93h31.59V415.07a15.77,15.77,0,0,1,15.78-15.78H817a57.07,57.07,0,0,0,0-114.13ZM841.89,342a26.94,26.94,0,0,1-27,26.83H768.67v-54h46.21a27,27,0,0,1,27,27Z" fill="#1b1340"/>
  <path d="M878.85,457.93V389.41c0-28,16.35-50.26,49-50.26a62.59,62.59,0,0,1,15.6,1.74v28.22c-3.73-.25-7.11-.25-8.43-.25-17.3,0-24.87,7.89-24.87,24v65.08Z" fill="#1b1340"/>
  <path d="M952.85,399.79c0-34.41,26-60.64,62.13-60.64s62.09,26.16,62.09,60.64-26,60.88-62.09,60.88S952.85,434.19,952.85,399.79Zm93.3,0c0-19.55-13.12-33.41-31.17-33.41s-31.21,13.86-31.21,33.41S996.89,433.2,1015,433.2,1046.15,419.58,1046.15,399.79Z" fill="#1b1340"/>
  <path d="M1168.13,366.62h-33.87v43.29c0,15.11,5.44,22,21,22,1.5,0,5.23,0,9.92-.25v25.48a67.57,67.57,0,0,1-18.3,2.74c-26.23,0-44.08-15.85-44.08-45.78V366.62h-21V341.74H1087A15.77,15.77,0,0,0,1102.8,326V302.29h31.46v39.35h33.87Z" fill="#1b1340"/>
  <path d="M1177.55,399.79c0-34.41,26-60.64,62.09-60.64s62.13,26.16,62.13,60.64-26,60.88-62.13,60.88S1177.55,434.19,1177.55,399.79Zm93.29,0c0-19.55-13.11-33.41-31.2-33.41s-31.17,13.86-31.17,33.41,13.11,33.41,31.17,33.41S1270.84,419.58,1270.84,399.79Z" fill="#1b1340"/>
  <path d="M1318.08,457.93V391.86c0-30.67,19.55-52.71,54.45-52.71s54.2,22,54.2,52.71v66.07h-31.17V394.35c0-17.1-7.68-27.73-23-27.73s-23,10.67-23,27.73v63.58Z" fill="#1b1340"/>
</svg>
