<svg xmlns="http://www.w3.org/2000/svg" fill="none" viewBox="0 0 187 19" width="187" height="19"><path fill="#000461" d="M7.39.26H0v18h3.38v-6.62h4c3.28 0 6.03-2.01 6.03-5.7 0-3.7-2.75-5.68-6.02-5.68zM3.38 8.44V3.46h3.5c1.85 0 3.1.87 3.1 2.48 0 1.6-1.25 2.5-3.12 2.5H3.38zm14.94 9.82v-6.94c0-1.72.79-2.56 2.64-2.56.15 0 .5 0 .9.03V5.78a6.69 6.69 0 0 0-1.67-.19c-3.48 0-5.22 2.38-5.22 5.36v7.3h3.35zm11.19.29a6.39 6.39 0 0 0 6.63-6.5c0-3.66-2.77-6.46-6.63-6.46-3.85 0-6.62 2.8-6.62 6.47s2.77 6.49 6.62 6.49zm0-2.93c-1.92 0-3.32-1.45-3.32-3.56 0-2.09 1.4-3.56 3.32-3.56 1.93 0 3.33 1.47 3.33 3.56 0 2.1-1.4 3.56-3.33 3.56zm16.37-9.76h-3.62v-4.2h-3.35v4.2h-2.24v2.66h2.24v5.07c0 3.2 1.9 4.88 4.7 4.88.66 0 1.27-.1 1.95-.29v-2.72c-.5.03-.9.03-1.05.03-1.67 0-2.25-.74-2.25-2.35V8.52h3.62V5.86zm7.66 12.69a6.39 6.39 0 0 0 6.62-6.5c0-3.66-2.77-6.46-6.62-6.46s-6.62 2.8-6.62 6.47 2.77 6.49 6.62 6.49zm0-2.93c-1.93 0-3.33-1.45-3.33-3.56 0-2.09 1.4-3.56 3.33-3.56 1.93 0 3.32 1.47 3.32 3.56 0 2.1-1.4 3.56-3.32 3.56zm11.75 2.64v-6.78c0-1.82.81-2.96 2.45-2.96 1.64 0 2.45 1.14 2.45 2.96v6.78h3.33V11.2c0-3.27-2.09-5.62-5.78-5.62-3.72 0-5.8 2.35-5.8 5.62v7.05h3.35z"/><path fill="#6D4AFF" d="M90.57 18.55c4.38 0 7.58-2.53 8.42-6.23h-3.48a5.12 5.12 0 0 1-4.94 2.98c-3.27 0-5.78-2.55-5.78-6.04 0-3.45 2.51-6.04 5.78-6.04a5.12 5.12 0 0 1 4.94 2.98h3.48C98.15 2.5 94.95 0 90.57 0a9.02 9.02 0 0 0-9.23 9.26c0 5.3 3.96 9.3 9.23 9.3zM106.9 5.6a6.35 6.35 0 0 0-6.57 6.46c0 3.9 2.69 6.5 5.94 6.5 1.79 0 3.22-.8 4-2.15l.22 1.85h2.95V12.1c0-4.02-2.8-6.5-6.54-6.5zm0 10.02c-1.88 0-3.27-1.45-3.27-3.56 0-2.11 1.42-3.56 3.27-3.56 1.82 0 3.24 1.4 3.24 3.56 0 2.43-1.63 3.56-3.24 3.56zm12.63 2.64v-18h-3.32v18h3.32zm14.91-6.2c0-3.7-2.61-6.47-6.23-6.47-3.72 0-6.36 2.75-6.36 6.47 0 3.75 2.59 6.5 6.44 6.5 2.5 0 5.02-1.3 5.78-4.05h-3.09c-.5.87-1.31 1.27-2.77 1.27-1.6 0-2.8-.9-3.19-2.59h9.37c.05-.47.05-.66.05-1.13zm-6.23-3.7c1.61 0 2.88 1.06 3.1 2.51h-6.32a3.17 3.17 0 0 1 3.22-2.5zm11.37 9.9v-6.78c0-1.82.82-2.96 2.45-2.96 1.64 0 2.46 1.14 2.46 2.96v6.78h3.32v-7.05c0-3.27-2.08-5.62-5.78-5.62-3.72 0-5.8 2.35-5.8 5.62v7.05h3.35zM159.2 7.15a5 5 0 0 0-3.78-1.56c-3.22 0-5.83 2.56-5.83 6.47a6.3 6.3 0 0 0 6.44 6.5c3.67 0 6.52-2.67 6.52-6.71V.26h-3.35v6.9zm-3.17 8.47c-1.77 0-3.14-1.45-3.14-3.56 0-2.11 1.32-3.56 3.11-3.56 1.59 0 3.25 1.13 3.25 3.56 0 2.16-1.43 3.56-3.22 3.56zM170.9 5.6a6.35 6.35 0 0 0-6.56 6.46c0 3.9 2.69 6.5 5.93 6.5 1.8 0 3.22-.8 4.01-2.15l.21 1.85h2.96V12.1c0-4.02-2.8-6.5-6.54-6.5zm0 10.02c-1.87 0-3.27-1.45-3.27-3.56 0-2.11 1.43-3.56 3.28-3.56 1.82 0 3.24 1.4 3.24 3.56 0 2.43-1.64 3.56-3.25 3.56zm12.14 2.64v-6.94c0-1.71.8-2.56 2.64-2.56.16 0 .5 0 .9.03V5.78a6.7 6.7 0 0 0-1.67-.19c-3.48 0-5.22 2.38-5.22 5.36v7.31h3.35z"/></svg>