<svg xmlns="http://www.w3.org/2000/svg" fill="none" viewBox="0 0 131 19" width="131" height="19"><path fill="#000461" d="M7.4 0H0v18.03h3.38v-6.64H7.4c3.28 0 6.03-2 6.03-5.7S10.68 0 7.4 0zM3.38 8.2v-5H6.9c1.85 0 3.1.87 3.1 2.48C10 7.3 8.74 8.2 6.86 8.2H3.38zm14.97 9.83v-6.95c0-1.72.8-2.57 2.64-2.57.16 0 .5 0 .9.03V5.52a6.7 6.7 0 0 0-1.66-.18c-3.5 0-5.24 2.38-5.24 5.37v7.32h3.36zm11.21.29a6.4 6.4 0 0 0 6.64-6.5c0-3.68-2.78-6.48-6.64-6.48s-6.63 2.8-6.63 6.48a6.4 6.4 0 0 0 6.63 6.5zm0-2.94c-1.93 0-3.33-1.45-3.33-3.56 0-2.1 1.4-3.57 3.33-3.57 1.93 0 3.33 1.48 3.33 3.57 0 2.11-1.4 3.56-3.33 3.56zm16.4-9.78h-3.63V1.4h-3.35v4.2h-2.25v2.67h2.25v5.08c0 3.2 1.9 4.89 4.7 4.89.66 0 1.27-.1 1.96-.3v-2.71c-.5.02-.9.02-1.06.02-1.66 0-2.25-.74-2.25-2.35V8.27h3.63V5.6zm7.67 12.72a6.4 6.4 0 0 0 6.63-6.5c0-3.68-2.77-6.48-6.63-6.48S47 8.14 47 11.82a6.4 6.4 0 0 0 6.63 6.5zm0-2.94c-1.93 0-3.33-1.45-3.33-3.56 0-2.1 1.4-3.57 3.33-3.57 1.93 0 3.33 1.48 3.33 3.57 0 2.11-1.4 3.56-3.33 3.56zm11.77 2.65v-6.8c0-1.82.82-2.96 2.45-2.96 1.64 0 2.46 1.14 2.46 2.96v6.8h3.33v-7.06c0-3.28-2.08-5.63-5.79-5.63-3.72 0-5.81 2.35-5.81 5.63v7.06h3.36z"/><path fill="#6D4AFF" d="M91.18 18.03 97.86 0h-3.78L89.7 12.9a5.81 5.81 0 0 0-.35 1.43h-.05c-.05-.4-.19-.9-.37-1.43L84.54 0H80.8l6.66 18.03h3.73zM107.02 0h-7.4v18.03H103v-6.64h4.02c3.28 0 6.03-2 6.03-5.7S110.3 0 107.02 0zM103 8.2v-5h3.52c1.85 0 3.1.87 3.1 2.48 0 1.62-1.25 2.51-3.13 2.51H103zm15.42 9.83V7.24c0-.71 0-1.16-.05-1.64h.02c.27.5.53.9.8 1.25l8.53 11.18h2.88V0h-3.4v10.78c0 .72.02 1.17.07 1.64h-.05c-.24-.5-.53-.9-.8-1.24L117.93 0h-2.89v18.03h3.39z"/></svg>