<svg width="2178" height="315" viewBox="0 0 2178 315" fill="none" xmlns="http://www.w3.org/2000/svg">
<g clip-path="url(#clip0_8605_191048)">
<path d="M142.393 244.18V175.862C142.393 147.989 158.724 125.791 191.39 125.791C196.633 125.715 201.865 126.294 206.964 127.516V155.621C203.252 155.376 200.042 155.376 198.554 155.376C181.25 155.376 173.809 163.267 173.809 179.298V244.18H142.393Z" fill="#1B1340"/>
<path d="M216.368 186.236C216.368 151.952 242.35 125.809 278.481 125.809C314.612 125.809 340.586 151.935 340.586 186.236C340.586 220.538 314.604 246.892 278.477 246.892C242.35 246.892 216.368 220.503 216.368 186.236ZM309.659 186.236C309.659 166.751 296.543 152.939 278.481 152.939C260.42 152.939 247.299 166.738 247.299 186.236C247.299 205.968 260.416 219.533 278.481 219.533C296.547 219.533 309.655 205.95 309.655 186.236H309.659Z" fill="#1B1340"/>
<path d="M431.645 153.168H397.746V196.331C397.746 211.375 403.188 218.283 418.779 218.283C420.263 218.283 423.971 218.283 428.677 218.037V243.443C422.244 245.168 416.564 246.155 410.365 246.155C384.136 246.155 366.317 230.369 366.317 200.526V153.168H345.284V128.258H350.527C352.602 128.258 354.657 127.85 356.574 127.058C358.491 126.266 360.232 125.106 361.699 123.642C363.165 122.179 364.328 120.442 365.12 118.53C365.913 116.619 366.32 114.571 366.317 112.502V89.041H397.746V128.258H431.645V153.168Z" fill="#1B1340"/>
<path d="M441.045 186.236C441.045 151.952 467.028 125.809 503.159 125.809C539.29 125.809 565.268 151.935 565.268 186.236C565.268 220.538 539.285 246.909 503.159 246.909C467.032 246.909 441.045 220.503 441.045 186.236ZM534.332 186.236C534.332 166.75 521.216 152.939 503.154 152.939C485.093 152.939 471.972 166.738 471.972 186.236C471.972 205.968 485.089 219.533 503.154 219.533C521.22 219.533 534.332 205.95 534.332 186.236Z" fill="#1B1340"/>
<path d="M581.599 244.18V178.328C581.599 147.744 601.148 125.792 636.037 125.792C670.68 125.792 690.23 147.744 690.23 178.328V244.18H659.052V180.795C659.052 163.78 651.378 153.172 636.037 153.172C620.697 153.172 613.023 163.78 613.023 180.795V244.18H581.599Z" fill="#1B1340"/>
<path d="M0.499031 199.332V244.176H32.0791V201.272C32.0791 197.098 33.7427 193.095 36.7039 190.143C39.6651 187.192 43.6814 185.533 47.8691 185.533H80.2495C95.3551 185.529 109.84 179.545 120.52 168.897C131.2 158.25 137.201 143.81 137.202 128.754V128.754C137.202 113.695 131.201 99.2533 120.519 88.6045C109.837 77.9557 95.3486 71.9721 80.2409 71.9698H0.499031V128.025H32.0791V101.597H78.1125C85.26 101.597 92.115 104.427 97.1698 109.464C102.225 114.5 105.066 121.332 105.068 128.456V128.456C105.068 135.582 102.228 142.416 97.1729 147.455C92.1178 152.493 85.2615 155.324 78.1125 155.324H44.6462C38.8476 155.321 33.1052 156.458 27.7475 158.668C22.3897 160.879 17.5216 164.12 13.4216 168.207C9.32151 172.295 6.06985 177.147 3.8525 182.488C1.63516 187.828 0.495619 193.552 0.499031 199.332V199.332Z" fill="#1B1340"/>
<path d="M791.768 245.226V128.571H861.246V143.324H807.893V180.036H858.844V194.79H807.893V245.226H791.768Z" fill="#1B1340"/>
<path d="M937.16 234.933C929.268 242.938 919.433 246.941 907.653 246.941C895.873 246.941 885.98 242.938 877.975 234.933C870.083 226.813 866.138 216.863 866.138 205.083C866.138 193.303 870.083 183.41 877.975 175.404C885.98 167.284 895.873 163.224 907.653 163.224C919.433 163.224 929.268 167.284 937.16 175.404C945.165 183.41 949.168 193.303 949.168 205.083C949.168 216.863 945.165 226.813 937.16 234.933ZM889.125 185.354C884.322 190.501 881.92 197.077 881.92 205.083C881.92 213.088 884.322 219.665 889.125 224.811C894.043 229.958 900.219 232.531 907.653 232.531C915.087 232.531 921.205 229.958 926.009 224.811C930.927 219.665 933.386 213.088 933.386 205.083C933.386 197.077 930.927 190.501 926.009 185.354C921.205 180.208 915.087 177.635 907.653 177.635C900.219 177.635 894.043 180.208 889.125 185.354Z" fill="#1B1340"/>
<path d="M964.598 194.447C964.598 184.725 967.343 177.12 972.833 171.63C978.323 166.026 985.528 163.224 994.448 163.224C997.307 163.224 1000.22 163.625 1003.2 164.425V178.835C1002.17 178.721 1000.11 178.664 997.022 178.664C991.646 178.664 987.529 180.151 984.67 183.124C981.811 186.098 980.381 191.13 980.381 198.221V245.226H964.598V194.447Z" fill="#1B1340"/>
<path d="M1059.98 245.226V128.571H1096.35C1109.5 128.571 1119.23 131.43 1125.52 137.149C1131.92 142.867 1135.12 150.701 1135.12 160.651C1135.12 167.17 1133.18 172.602 1129.29 176.948C1125.52 181.294 1121.06 183.925 1115.91 184.84V185.183C1123.11 186.098 1129.06 188.843 1133.75 193.417C1138.55 197.992 1140.96 204.053 1140.96 211.602C1140.96 222.009 1137.47 230.244 1130.49 236.305C1123.51 242.252 1113.39 245.226 1100.13 245.226H1059.98ZM1076.11 230.472H1098.93C1115.97 230.472 1124.49 224.182 1124.49 211.602C1124.49 205.197 1122.08 200.451 1117.28 197.363C1112.59 194.275 1105.22 192.731 1095.15 192.731H1076.11V230.472ZM1076.11 177.978H1095.15C1103.39 177.978 1109.33 176.605 1112.99 173.86C1116.77 171.116 1118.65 166.713 1118.65 160.651C1118.65 149.1 1110.82 143.324 1095.15 143.324H1076.11V177.978Z" fill="#1B1340"/>
<path d="M1215.77 237.334C1209.59 243.739 1201.3 246.941 1190.89 246.941C1180.49 246.941 1172.2 243.739 1166.02 237.334C1159.84 230.93 1156.76 222.638 1156.76 212.459V164.94H1172.54V211.259C1172.54 217.892 1174.08 223.038 1177.17 226.698C1180.26 230.358 1184.83 232.188 1190.89 232.188C1196.96 232.188 1201.53 230.358 1204.62 226.698C1207.71 223.038 1209.25 217.892 1209.25 211.259V164.94H1225.03V212.459C1225.03 222.638 1221.94 230.93 1215.77 237.334Z" fill="#1B1340"/>
<path d="M1273.51 246.941C1264.59 246.941 1257.21 244.539 1251.38 239.736C1245.66 234.933 1242.57 228.471 1242.12 220.351H1257.9C1258.36 224.354 1260.01 227.556 1262.87 229.958C1265.85 232.359 1269.39 233.56 1273.51 233.56C1277.74 233.56 1281 232.645 1283.29 230.815C1285.58 228.986 1286.72 226.755 1286.72 224.125C1286.72 221.037 1285.23 218.578 1282.26 216.748C1279.29 214.804 1275.68 213.26 1271.45 212.116C1267.33 210.973 1263.16 209.6 1258.93 207.999C1254.81 206.398 1251.27 203.825 1248.29 200.279C1245.32 196.734 1243.83 192.216 1243.83 186.727C1243.83 180.437 1246.29 174.947 1251.21 170.258C1256.13 165.569 1262.93 163.224 1271.62 163.224C1279.86 163.224 1286.6 165.454 1291.87 169.915C1297.13 174.375 1300.16 180.608 1300.96 188.614H1285.17C1283.92 180.608 1279.4 176.605 1271.62 176.605C1268.19 176.605 1265.33 177.52 1263.04 179.35C1260.76 181.18 1259.61 183.639 1259.61 186.727C1259.61 189.815 1261.1 192.274 1264.07 194.104C1267.05 195.933 1270.59 197.42 1274.71 198.564C1278.94 199.707 1283.12 201.08 1287.23 202.681C1291.47 204.168 1295.07 206.741 1298.04 210.401C1301.01 213.946 1302.5 218.521 1302.5 224.125C1302.5 230.758 1299.76 236.248 1294.27 240.594C1288.78 244.825 1281.86 246.941 1273.51 246.941Z" fill="#1B1340"/>
<path d="M1317.76 245.226V164.94H1333.54V245.226H1317.76ZM1318.27 146.584C1316.33 144.64 1315.35 142.238 1315.35 139.379C1315.35 136.52 1316.33 134.118 1318.27 132.174C1320.33 130.115 1322.79 129.086 1325.65 129.086C1328.51 129.086 1330.91 130.115 1332.85 132.174C1334.91 134.118 1335.94 136.52 1335.94 139.379C1335.94 142.238 1334.91 144.64 1332.85 146.584C1330.91 148.528 1328.51 149.5 1325.65 149.5C1322.79 149.5 1320.33 148.528 1318.27 146.584Z" fill="#1B1340"/>
<path d="M1354.27 197.706C1354.27 187.527 1357.42 179.236 1363.71 172.831C1370 166.427 1378.46 163.224 1389.1 163.224C1399.73 163.224 1408.2 166.427 1414.49 172.831C1420.78 179.236 1423.92 187.527 1423.92 197.706V245.226H1408.14V198.907C1408.14 192.159 1406.54 186.956 1403.34 183.296C1400.14 179.522 1395.39 177.635 1389.1 177.635C1382.81 177.635 1378.06 179.522 1374.86 183.296C1371.66 186.956 1370.06 192.159 1370.06 198.907V245.226H1354.27V197.706Z" fill="#1B1340"/>
<path d="M1479.91 246.941C1468.13 246.941 1458.41 243.053 1450.75 235.276C1443.2 227.499 1439.43 217.434 1439.43 205.083C1439.43 192.731 1443.2 182.667 1450.75 174.89C1458.3 167.113 1468.02 163.224 1479.91 163.224C1490.55 163.224 1499.58 167.284 1507.02 175.404C1514.57 183.41 1518.34 193.303 1518.34 205.083C1518.34 207.599 1518.23 209.657 1518 211.259H1455.72C1456.87 217.778 1459.61 222.981 1463.96 226.87C1468.42 230.644 1473.74 232.531 1479.91 232.531C1489.86 232.531 1496.61 228.757 1500.16 221.209H1516.28C1513.88 228.986 1509.36 235.219 1502.73 239.908C1496.21 244.597 1488.6 246.941 1479.91 246.941ZM1455.89 198.221H1502.04C1501.47 192.617 1499.13 187.813 1495.01 183.81C1490.89 179.693 1485.86 177.635 1479.91 177.635C1473.74 177.635 1468.48 179.522 1464.13 183.296C1459.9 186.956 1457.15 191.931 1455.89 198.221Z" fill="#1B1340"/>
<path d="M1561.66 246.941C1552.74 246.941 1545.36 244.539 1539.53 239.736C1533.81 234.933 1530.73 228.471 1530.27 220.351H1546.05C1546.51 224.354 1548.17 227.556 1551.03 229.958C1554 232.359 1557.54 233.56 1561.66 233.56C1565.89 233.56 1569.15 232.645 1571.44 230.815C1573.73 228.986 1574.87 226.755 1574.87 224.125C1574.87 221.037 1573.38 218.578 1570.41 216.748C1567.44 214.804 1563.83 213.26 1559.6 212.116C1555.49 210.973 1551.31 209.6 1547.08 207.999C1542.96 206.398 1539.42 203.825 1536.44 200.279C1533.47 196.734 1531.98 192.216 1531.98 186.727C1531.98 180.437 1534.44 174.947 1539.36 170.258C1544.28 165.569 1551.08 163.224 1559.77 163.224C1568.01 163.224 1574.76 165.454 1580.02 169.915C1585.28 174.375 1588.31 180.608 1589.11 188.614H1573.33C1572.07 180.608 1567.55 176.605 1559.77 176.605C1556.34 176.605 1553.48 177.52 1551.2 179.35C1548.91 181.18 1547.77 183.639 1547.77 186.727C1547.77 189.815 1549.25 192.274 1552.23 194.104C1555.2 195.933 1558.75 197.42 1562.86 198.564C1567.09 199.707 1571.27 201.08 1575.39 202.681C1579.62 204.168 1583.22 206.741 1586.19 210.401C1589.17 213.946 1590.65 218.521 1590.65 224.125C1590.65 230.758 1587.91 236.248 1582.42 240.594C1576.93 244.825 1570.01 246.941 1561.66 246.941Z" fill="#1B1340"/>
<path d="M1633.7 246.941C1624.78 246.941 1617.4 244.539 1611.57 239.736C1605.85 234.933 1602.76 228.471 1602.31 220.351H1618.09C1618.55 224.354 1620.2 227.556 1623.06 229.958C1626.04 232.359 1629.58 233.56 1633.7 233.56C1637.93 233.56 1641.19 232.645 1643.48 230.815C1645.77 228.986 1646.91 226.755 1646.91 224.125C1646.91 221.037 1645.42 218.578 1642.45 216.748C1639.47 214.804 1635.87 213.26 1631.64 212.116C1627.52 210.973 1623.35 209.6 1619.12 207.999C1615 206.398 1611.45 203.825 1608.48 200.279C1605.51 196.734 1604.02 192.216 1604.02 186.727C1604.02 180.437 1606.48 174.947 1611.4 170.258C1616.32 165.569 1623.12 163.224 1631.81 163.224C1640.05 163.224 1646.79 165.454 1652.06 169.915C1657.32 174.375 1660.35 180.608 1661.15 188.614H1645.36C1644.11 180.608 1639.59 176.605 1631.81 176.605C1628.38 176.605 1625.52 177.52 1623.23 179.35C1620.95 181.18 1619.8 183.639 1619.8 186.727C1619.8 189.815 1621.29 192.274 1624.26 194.104C1627.24 195.933 1630.78 197.42 1634.9 198.564C1639.13 199.707 1643.31 201.08 1647.42 202.681C1651.66 204.168 1655.26 206.741 1658.23 210.401C1661.2 213.946 1662.69 218.521 1662.69 224.125C1662.69 230.758 1659.95 236.248 1654.46 240.594C1648.97 244.825 1642.05 246.941 1633.7 246.941Z" fill="#1B1340"/>
</g>
<defs>
<clipPath id="clip0_8605_191048">
<rect width="1662.62" height="174.941" fill="white" transform="translate(0 72)"/>
</clipPath>
</defs>
</svg>
