<svg xmlns="http://www.w3.org/2000/svg" xmlns:xlink="http://www.w3.org/1999/xlink" width="1919.16" height="740" viewBox="0 0 1919.16 740">
<style>
    .shadow-badge {
        filter: drop-shadow(0px 20.4058px 68.1871px rgba(74, 45, 197, 0.11)) drop-shadow(0px 7.86002px 21.7188px rgba(74, 45, 197, 0.0668148)) drop-shadow(0px 1.6627px 5.55598px rgba(74, 45, 197, 0.0431852));
    }
</style>
  <defs>
    <linearGradient id="a" x1="341.68" y1="715.16" x2="353.41" y2="316.39" gradientTransform="matrix(1, 0, 0, -1, 0, 742)" gradientUnits="userSpaceOnUse">
      <stop offset="0.99" stop-color="#6d4aff"/>
      <stop offset="1"/>
    </linearGradient>
    <linearGradient id="b" x1="391.03" y1="655.35" x2="293.56" y2="235.71" gradientTransform="matrix(1, 0, 0, -1, 0, 742)" gradientUnits="userSpaceOnUse">
      <stop offset="0.48" stop-color="#24ecc6" stop-opacity="0"/>
      <stop offset="0.99" stop-color="#24ecc6"/>
    </linearGradient>
    <linearGradient id="c" x1="480.33" y1="241.82" x2="264.23" y2="611.37" gradientTransform="matrix(1, 0, 0, -1, 0, 742)" gradientUnits="userSpaceOnUse">
      <stop offset="0.07" stop-color="#abffef"/>
      <stop offset="0.45" stop-color="#cac9ff"/>
      <stop offset="1" stop-color="#6d4aff"/>
    </linearGradient>
  </defs>
  <rect width="1919.02" height="740" fill="none"/>
  <path d="M71.26,223.11a130,130,0,0,1,130-130h292a130,130,0,0,1,130,130v292a130,130,0,0,1-130,130h-292a130,130,0,0,1-130-130Z" transform="translate(-0.49)" fill="#fff"  class="shadow-badge"/>
  <path d="M314.89,512.83c13.1,23.74,46.75,25,61.62,2.35L515.2,303.84a36,36,0,0,0-26-55.52L216.61,217.06c-29.07-3.33-49.76,27.55-35.62,53.16Z" transform="translate(-0.49)" fill-rule="evenodd" fill="url(#a)"/>
  <path d="M314.89,512.83c13.1,23.74,46.75,25,61.62,2.35L515.2,303.84a36,36,0,0,0-26-55.52L216.61,217.06c-29.07-3.33-49.76,27.55-35.62,53.16Z" transform="translate(-0.49)" fill-rule="evenodd" fill="url(#b)"/>
  <path d="M335,472.19l-12.31,18.5a12,12,0,0,1-20.49-.84l12.68,23a36.08,36.08,0,0,0,8.42,10.28h0a36.05,36.05,0,0,0,53.19-7.93L515.2,303.84a36,36,0,0,0-26-55.52L216.61,217.06c-29.07-3.33-49.76,27.55-35.62,53.16l1.07,1.95,232,26.85a20,20,0,0,1,14.42,30.85Z" transform="translate(-0.49)" fill="url(#c)"/>
  <path d="M1701.22,283.5h-80V456.72h31.67V413.6a15.82,15.82,0,0,1,15.83-15.82h32.46a57.14,57.14,0,0,0,0-114.28Zm24.94,56.84a27,27,0,0,1-27,27h-46.33v-54h46.33a27,27,0,0,1,27,27.15Z" transform="translate(-0.49)" fill="#6d4aff"/>
  <path d="M1510,456.08,1446.16,283h36.06l42,123.86a71.24,71.24,0,0,1,3.56,13.69h.36a49.19,49.19,0,0,1,3.56-13.69L1573.8,283h36.28l-64.14,173.08Z" transform="translate(-0.49)" fill="#6d4aff"/>
  <path d="M1770.05,456.08V283h27.76l81.75,107.37a69.33,69.33,0,0,1,7.62,11.9h.5a147.35,147.35,0,0,1-.78-15.72V283h32.75V456.08h-27.76l-82-107.37a76.65,76.65,0,0,1-7.59-11.9h-.29a152.53,152.53,0,0,1,.54,15.71V456.08Z" transform="translate(-0.49)" fill="#6d4aff"/>
  <path d="M815.22,282.5h-80V455.72h31.67V412.6a15.82,15.82,0,0,1,15.83-15.82h32.46a57.14,57.14,0,0,0,0-114.28Zm24.94,56.84a27,27,0,0,1-27,27H766.79v-54h46.33a27,27,0,0,1,27,27.15Z" transform="translate(-0.49)" fill="#1b1340"/>
  <path d="M877.22,455.79V387.05c0-28,16.39-50.35,49.14-50.35A63,63,0,0,1,942,338.41V366.7c-3.75-.25-7.13-.25-8.45-.25-17.35,0-24.94,7.95-24.94,24.06v65.28Z" transform="translate(-0.49)" fill="#1b1340"/>
  <path d="M951.41,397.46c0-34.46,26.05-60.76,62.29-60.76S1076,363,1076,397.46s-26,61-62.26,61S951.41,432,951.41,397.46Zm93.54,0c0-19.6-13.15-33.5-31.25-33.5s-31.29,13.9-31.29,33.5S995.56,431,1013.7,431,1045,417.31,1045,397.46Z" transform="translate(-0.49)" fill="#1b1340"/>
  <path d="M1167.25,364.21h-34v43.44c0,15.14,5.45,22.05,21.06,22.05,1.5,0,5.24,0,9.94-.24V455a69.51,69.51,0,0,1-18.35,2.71c-26.3,0-44.19-15.86-44.19-45.9V364.21h-21.06V339.26h5.24a15.81,15.81,0,0,0,15.82-15.82V299.71h31.54v39.45h34Z" transform="translate(-0.49)" fill="#1b1340"/>
  <path d="M1176.69,397.46c0-34.46,26-60.76,62.26-60.76s62.28,26.3,62.28,60.76-26,61-62.28,61S1176.69,432,1176.69,397.46Zm93.54,0c0-19.6-13.15-33.5-31.28-33.5s-31.26,13.9-31.26,33.5S1220.84,431,1239,431,1270.23,417.31,1270.23,397.46Z" transform="translate(-0.49)" fill="#1b1340"/>
  <path d="M1317.59,455.79V389.4c0-30.78,19.6-52.84,54.59-52.84s54.35,22.2,54.35,52.84v66.25h-31.25V392c0-17.11-7.7-27.8-23.1-27.8s-23,10.69-23,27.8v63.78Z" transform="translate(-0.49)" fill="#1b1340"/>
</svg>
