<svg width="2191" height="322" viewBox="0 0 2191 322" fill="none" xmlns="http://www.w3.org/2000/svg">
<path fill-rule="evenodd" clip-rule="evenodd" d="M36.7559 15C16.8736 15 0.755859 31.1178 0.755859 51V267C0.755859 286.882 16.8736 303 36.7559 303H220.756V215C220.756 192.909 238.664 175 260.756 175H348.756V51C348.756 31.1178 332.638 15 312.756 15H36.7559Z" fill="url(#paint0_linear_5565_134562)"/>
<path fill-rule="evenodd" clip-rule="evenodd" d="M36.7559 15C16.8736 15 0.755859 31.1178 0.755859 51V267C0.755859 286.882 16.8736 303 36.7559 303H220.756V215C220.756 192.909 238.664 175 260.756 175H348.756V51C348.756 31.1178 332.638 15 312.756 15H36.7559Z" fill="url(#paint1_radial_5565_134562)"/>
<path fill-rule="evenodd" clip-rule="evenodd" d="M36.7559 15H312.756C332.638 15 348.756 31.1178 348.756 51V175H274.756V86C274.756 70.536 262.22 58 246.756 58H0.755859V51C0.755859 31.1178 16.8736 15 36.7559 15Z" fill="url(#paint2_linear_5565_134562)"/>
<path fill-rule="evenodd" clip-rule="evenodd" d="M230.756 188.541C224.532 195.593 220.756 204.854 220.756 215V303H158.756V286.251C158.756 277.693 161.805 269.415 167.355 262.901L230.756 188.5L230.756 188.541Z" fill="#BFD8FF"/>
<path d="M255.756 257.298H268.415C268.939 259.501 270.218 261.45 272.029 262.808C273.84 264.167 276.07 264.848 278.331 264.735C284.051 264.735 287.818 261.577 287.818 256.965C287.818 252.353 283.885 249.777 276.101 249.777H271.06V239.362H275.423C282.943 239.362 286.018 236.592 286.018 232.437C286.018 228.282 282.68 225.429 278.068 225.429C276.001 225.306 273.967 225.996 272.401 227.352C270.836 228.708 269.862 230.623 269.689 232.686H257.556C257.985 225.429 263.706 215 278.068 215C289.605 215 297.555 221.578 297.555 230.802C297.569 233.768 296.636 236.661 294.892 239.06C293.149 241.458 290.685 243.238 287.86 244.14V244.306C291.154 244.906 294.123 246.669 296.226 249.275C298.328 251.881 299.425 255.156 299.314 258.502C299.314 268.502 290.159 275.122 278.289 275.122C265.672 275.164 256.698 267.99 255.756 257.298Z" fill="#6D4AFF"/>
<path d="M321.424 215.941H330.648V274.222H318.765V229.528L307.311 237.299V225.512L321.424 215.941Z" fill="#6D4AFF"/>
<path d="M1245.08 236.781C1231.74 229.192 1220.73 218.108 1213.23 204.723C1205.66 190.757 1201.7 175.122 1201.7 159.236C1201.7 143.35 1205.66 127.715 1213.23 113.75C1220.73 100.36 1231.74 89.2742 1245.08 81.6919C1258.91 73.8212 1274.58 69.7877 1290.49 70.0086C1303.46 69.8884 1316.3 72.5104 1328.18 77.7025C1339.03 82.3939 1348.64 89.5678 1356.21 98.6469C1363.7 107.692 1368.92 118.387 1371.46 129.85H1337.94C1334.16 121.325 1327.97 114.093 1320.13 109.048C1311.38 103.935 1301.44 101.219 1291.31 101.176C1281.18 101.132 1271.22 103.761 1262.43 108.799C1253.98 113.838 1247.05 121.061 1242.37 129.707C1237.53 138.855 1235 149.047 1235 159.396C1235 169.746 1237.53 179.938 1242.37 189.086C1247.06 197.747 1254.03 204.96 1262.53 209.945C1271.02 214.93 1280.72 217.497 1290.57 217.368C1300.98 217.722 1311.26 214.996 1320.13 209.531C1327.97 204.472 1334.16 197.228 1337.94 188.694H1371.46C1368.92 200.236 1363.67 211.007 1356.15 220.119C1348.62 229.23 1339.03 236.419 1328.18 241.091C1316.28 246.209 1303.44 248.758 1290.49 248.571C1274.58 248.744 1258.9 244.674 1245.08 236.781Z" fill="#6D4AFF"/>
<path d="M1474.33 131.487C1483.76 136.432 1491.55 144.004 1496.77 153.286C1502.34 163.373 1505.14 174.752 1504.89 186.27V245.648H1476.39L1474.36 227.838C1470.65 234.285 1465.21 239.566 1458.66 243.083C1451.61 246.737 1443.76 248.562 1435.82 248.391C1425.68 248.492 1415.7 245.779 1407.01 240.554C1398.22 235.229 1391.08 227.588 1386.35 218.47C1381.14 208.448 1378.51 197.28 1378.73 185.985C1378.58 174.867 1381.43 163.915 1386.99 154.283C1392.37 144.905 1400.22 137.181 1409.68 131.95C1419.57 126.53 1430.71 123.792 1441.99 124.006C1453.22 123.776 1464.34 126.347 1474.33 131.487ZM1463.89 211.382C1470.07 205.469 1473.15 197.015 1473.15 186.02C1473.55 176.93 1470.35 168.05 1464.25 161.3C1461.43 158.211 1457.98 155.763 1454.13 154.123C1450.29 152.482 1446.13 151.686 1441.95 151.79C1437.73 151.697 1433.55 152.508 1429.67 154.166C1425.8 155.825 1422.32 158.294 1419.47 161.407C1413.69 168.332 1410.52 177.069 1410.52 186.092C1410.52 195.115 1413.69 203.851 1419.47 210.776C1422.34 213.859 1425.83 216.293 1429.71 217.915C1433.6 219.537 1437.78 220.309 1441.99 220.18C1446.04 220.237 1450.06 219.489 1453.82 217.979C1457.58 216.468 1461.01 214.226 1463.89 211.382Z" fill="#6D4AFF"/>
<path d="M1557.93 245.65H1525.87V72.6094H1557.93V245.65Z" fill="#6D4AFF"/>
<path d="M1695.17 196.923H1605.09C1606.51 204.133 1610.37 210.635 1616.02 215.338C1621.66 219.729 1628.65 222.021 1635.79 221.821C1641.52 222.037 1647.22 221.042 1652.53 218.9C1656.75 216.97 1660.23 213.719 1662.44 209.639H1692.14C1689.05 221.496 1681.63 231.764 1671.34 238.42C1660.99 245.112 1648.9 248.594 1636.58 248.429C1625.28 248.665 1614.12 245.913 1604.23 240.45C1594.99 235.28 1587.42 227.582 1582.4 218.259C1577.16 208.395 1574.5 197.368 1574.67 186.201C1574.48 175.019 1577.18 163.976 1582.5 154.143C1587.58 144.863 1595.14 137.18 1604.34 131.952C1613.93 126.562 1624.79 123.821 1635.79 124.009C1646.58 123.862 1657.19 126.67 1666.5 132.13C1675.53 137.473 1682.93 145.199 1687.87 154.464C1693.09 164.204 1695.75 175.114 1695.6 186.166C1695.66 189.757 1695.51 193.348 1695.17 196.923ZM1615.77 157.1C1610.29 161.575 1606.45 167.737 1604.84 174.625H1665.39C1664.45 167.827 1660.95 161.647 1655.6 157.349C1650 152.747 1642.93 150.319 1635.68 150.51C1628.48 150.308 1621.43 152.64 1615.77 157.1Z" fill="#6D4AFF"/>
<path d="M1707.35 177.901C1707.06 170.708 1708.22 163.53 1710.76 156.797C1713.31 150.064 1717.19 143.915 1722.17 138.719C1732.07 128.911 1745.72 124.008 1763.1 124.008C1780.48 124.008 1794.1 128.995 1803.95 138.968C1808.92 144.173 1812.78 150.326 1815.31 157.059C1817.83 163.791 1818.98 170.965 1818.66 178.15V245.828H1786.61V180.43C1787.1 173.052 1785.09 165.723 1780.91 159.628C1778.62 157.26 1775.88 155.377 1772.85 154.09C1769.82 152.804 1766.57 152.141 1763.28 152.141C1759.98 152.141 1756.73 152.804 1753.7 154.09C1750.67 155.377 1747.93 157.26 1745.64 159.628C1741.32 165.71 1739.21 173.088 1739.66 180.536V245.756H1707.6L1707.35 177.901Z" fill="#6D4AFF"/>
<path d="M1923.39 72.6094H1955.44V245.65H1926.27L1924.03 227.306C1920.51 233.844 1915.18 239.225 1908.68 242.801C1901.37 246.651 1893.21 248.565 1884.95 248.358C1875.63 248.391 1866.47 245.931 1858.42 241.234C1849.78 236.169 1842.75 228.759 1838.15 219.862C1832.75 209.455 1830.08 197.849 1830.38 186.13C1830.08 174.444 1832.75 162.873 1838.15 152.505C1842.77 143.622 1849.79 136.217 1858.42 131.133C1866.48 126.451 1875.63 123.993 1884.95 124.009C1892.94 123.832 1900.86 125.579 1908.03 129.102C1914.47 132.225 1919.82 137.215 1923.39 143.422V72.6094ZM1914.52 211.277C1917.62 207.879 1920 203.892 1921.52 199.553C1923.05 195.214 1923.68 190.612 1923.39 186.023C1923.39 175.194 1920.39 166.883 1914.41 161.089C1911.53 158.243 1908.12 155.995 1904.37 154.473C1900.62 152.952 1896.61 152.187 1892.57 152.224C1888.52 152.26 1884.52 153.097 1880.8 154.686C1877.08 156.274 1873.71 158.584 1870.88 161.481C1867.85 164.814 1865.51 168.714 1863.98 172.956C1862.46 177.199 1861.79 181.699 1862.01 186.201C1861.55 195.359 1864.74 204.326 1870.88 211.135C1873.75 214.16 1877.22 216.548 1881.06 218.143C1884.91 219.739 1889.05 220.506 1893.22 220.396C1897.2 220.422 1901.15 219.626 1904.82 218.057C1908.48 216.488 1911.78 214.18 1914.52 211.277Z" fill="#6D4AFF"/>
<path d="M2066.47 131.487C2075.9 136.432 2083.69 144.004 2088.91 153.286C2094.48 163.373 2097.28 174.752 2097.03 186.27V245.648H2068.54L2066.51 227.838C2062.77 234.279 2057.32 239.557 2050.76 243.083C2043.72 246.74 2035.87 248.565 2027.93 248.391C2017.8 248.497 2007.83 245.783 1999.15 240.554C1990.35 235.241 1983.19 227.598 1978.46 218.47C1973.25 208.444 1970.63 197.279 1970.83 185.985C1970.69 174.867 1973.54 163.915 1979.1 154.283C1984.48 144.931 1992.31 137.222 2001.75 131.985C2011.66 126.542 2022.82 123.791 2034.13 124.006C2045.36 123.776 2056.48 126.347 2066.47 131.487ZM2056.07 211.382C2062.24 205.469 2065.33 197.015 2065.33 186.02C2065.72 176.938 2062.54 168.064 2056.46 161.3C2053.57 158.278 2050.09 155.873 2046.25 154.229C2042.4 152.586 2038.26 151.739 2034.08 151.739C2029.89 151.739 2025.75 152.586 2021.9 154.229C2018.06 155.873 2014.58 158.278 2011.69 161.3C2005.91 168.228 2002.75 176.964 2002.75 185.985C2002.75 195.006 2005.91 203.741 2011.69 210.669C2014.53 213.762 2018.01 216.211 2021.88 217.851C2025.75 219.491 2029.93 220.285 2034.13 220.18C2038.19 220.246 2042.22 219.502 2045.99 217.991C2049.75 216.48 2053.18 214.233 2056.07 211.382Z" fill="#6D4AFF"/>
<path d="M2113.03 175.373C2112.47 161.783 2117.15 148.497 2126.1 138.257C2134.79 128.759 2147.17 124.009 2163.25 124.009C2168.63 123.973 2174 124.57 2179.24 125.79V154.714C2176.72 154.714 2173.83 154.464 2170.62 154.464C2161.84 154.464 2155.41 156.495 2151.35 160.555C2149.16 163.083 2147.49 166.023 2146.44 169.203C2145.4 172.383 2145 175.74 2145.26 179.078V245.793H2113.2L2113.03 175.373Z" fill="#6D4AFF"/>
<path d="M544.687 72.1797H464.756V245.327H496.422V202.37C496.422 198.176 498.088 194.153 501.054 191.187C504.02 188.221 508.043 186.555 512.237 186.555H544.687C559.802 186.555 574.298 180.55 584.986 169.862C595.674 159.174 601.678 144.678 601.678 129.563C601.73 122.046 600.294 114.593 597.453 107.633C594.612 100.673 590.422 94.3442 585.125 89.0104C579.828 83.6767 573.528 79.4437 566.587 76.5551C559.647 73.6665 552.204 72.1795 544.687 72.1797ZM569.621 129.171C569.592 136.326 566.725 143.177 561.65 148.219C556.574 153.262 549.704 156.083 542.549 156.064H496.244V101.958H542.549C546.1 101.958 549.615 102.657 552.895 104.016C556.176 105.374 559.156 107.366 561.666 109.876C564.177 112.387 566.168 115.367 567.527 118.647C568.886 121.927 569.585 125.443 569.585 128.993L569.621 129.171Z" fill="#1B1340"/>
<path d="M606.665 245.329V176.654C606.665 148.621 623.05 126.288 655.785 126.288C661.05 126.212 666.303 126.798 671.422 128.033V156.315C667.682 156.066 664.298 156.066 662.98 156.066C645.633 156.066 638.046 163.974 638.046 180.109V245.329H606.665Z" fill="#1B1340"/>
<path d="M680.826 187.056C680.826 152.576 706.864 126.289 743.09 126.289C779.315 126.289 805.317 152.505 805.317 187.056C805.317 221.608 779.279 248.073 743.09 248.073C706.9 248.073 680.826 221.536 680.826 187.056ZM774.328 187.056C774.328 167.466 761.185 153.574 743.09 153.574C724.995 153.574 711.815 167.466 711.815 187.056C711.815 206.647 724.959 220.539 743.09 220.539C761.22 220.539 774.328 206.897 774.328 187.056Z" fill="#1B1340"/>
<path d="M896.575 153.819H862.629V197.204C862.629 212.343 868.079 219.289 883.68 219.289C885.176 219.289 888.917 219.289 893.618 219.039V244.579C887.657 246.324 881.485 247.247 875.274 247.321C848.987 247.321 831.106 231.435 831.106 201.443V153.819H810.054V128.886H815.29C819.485 128.886 823.507 127.219 826.473 124.253C829.439 121.288 831.106 117.265 831.106 113.07V89.3477H862.629V128.779H896.575V153.819Z" fill="#1B1340"/>
<path d="M906.013 187.056C906.013 152.576 932.051 126.289 968.241 126.289C1004.43 126.289 1030.5 152.505 1030.5 187.056C1030.5 221.608 1004.47 248.073 968.241 248.073C932.016 248.073 906.013 221.536 906.013 187.056ZM999.515 187.056C999.515 167.466 986.372 153.574 968.241 153.574C950.111 153.574 937.002 167.466 937.002 187.056C937.002 206.647 950.146 220.539 968.241 220.539C986.336 220.539 999.515 206.897 999.515 187.056Z" fill="#1B1340"/>
<path d="M1046.85 245.33V179.113C1046.85 148.373 1066.45 126.289 1101.42 126.289C1136.4 126.289 1155.74 148.373 1155.74 179.113V245.33H1124.51V181.607C1124.51 164.473 1116.81 153.823 1101.42 153.823C1086.04 153.823 1078.38 164.509 1078.38 181.607V245.33H1046.85Z" fill="#1B1340"/>
<defs>
<linearGradient id="paint0_linear_5565_134562" x1="174.756" y1="-100.063" x2="198.461" y2="236.668" gradientUnits="userSpaceOnUse">
<stop offset="0.988738" stop-color="#6D4AFF"/>
</linearGradient>
<radialGradient id="paint1_radial_5565_134562" cx="0" cy="0" r="1" gradientUnits="userSpaceOnUse" gradientTransform="translate(237.756 -132) rotate(110.421) scale(497.251 662.619)">
<stop offset="0.556057" stop-color="#54B7FF" stop-opacity="0"/>
<stop offset="0.994421" stop-color="#54B7FF"/>
</radialGradient>
<linearGradient id="paint2_linear_5565_134562" x1="348.756" y1="171.5" x2="131.178" y2="-128.565" gradientUnits="userSpaceOnUse">
<stop stop-color="#C8E8FF"/>
<stop offset="0.307532" stop-color="#BDAEFF"/>
<stop offset="1" stop-color="#6D4AFF"/>
</linearGradient>
</defs>
</svg>
