<svg width="416" height="250" viewBox="0 0 416 250" fill="none" xmlns="http://www.w3.org/2000/svg">
<g clip-path="url(#clip0_5104_172330)">
<mask id="mask0_5104_172330" style="mask-type:alpha" maskUnits="userSpaceOnUse" x="0" y="0" width="416" height="250">
<rect width="416" height="250" rx="12" fill="#6D4AFF"/>
</mask>
<g mask="url(#mask0_5104_172330)">
<rect width="416" height="253" rx="12" fill="url(#paint0_linear_5104_172330)"/>
<path d="M51.6396 -109.541C51.6396 -114.213 55.4267 -118 60.0983 -118H360.381C365.053 -118 368.84 -114.213 368.84 -109.541V282.941C368.84 287.613 365.053 291.4 360.381 291.4H60.0983C55.4267 291.4 51.6396 287.613 51.6396 282.941V-109.541Z" fill="#1C1B24"/>
<rect width="317.2" height="54.1355" transform="translate(51.6396 36.7939)" fill="#1C1B24"/>
<g clip-path="url(#clip1_5104_172330)">
<path d="M92.2414 54.8364H65.1736V72.8788H92.2414V54.8364Z" fill="#F0F0F0"/>
<path d="M92.2414 54.8364H65.1736V60.8505H92.2414V54.8364Z" fill="#338AF3"/>
<path d="M92.2414 66.873H65.1736V72.8872H92.2414V66.873Z" fill="#338AF3"/>
<path d="M80.8642 63.8616L79.9845 64.2761L80.4497 65.1304L79.4939 64.9443L79.3755 65.9171L78.7073 65.2065L78.039 65.9171L77.9206 64.9443L76.9648 65.1304L77.43 64.2761L76.5503 63.8616L77.43 63.4471L76.9648 62.5928L77.9206 62.7789L78.039 61.8062L78.7073 62.5167L79.3755 61.8062L79.4939 62.7789L80.4497 62.5928L79.9845 63.4471L80.8642 63.8616Z" fill="#FFDA44"/>
</g>
<path d="M106.26 68.3613H107.587L108.605 65.4615H112.635L113.653 68.3613H114.98L111.245 58.2295H109.995L106.26 68.3613ZM110.564 59.8655H110.676L112.263 64.3872H108.977L110.564 59.8655ZM116.255 68.3613H117.477V63.6711C117.477 62.5617 118.306 61.8244 119.471 61.8244C119.738 61.8244 119.97 61.8525 120.222 61.8947V60.708C120.103 60.687 119.843 60.6589 119.611 60.6589C118.586 60.6589 117.877 61.1223 117.589 61.9157H117.477V60.7923H116.255V68.3613ZM124.292 71.0294C126.356 71.0294 127.662 69.9482 127.662 68.256V60.7923H126.441V62.0421H126.356C125.893 61.1855 125.064 60.6589 123.997 60.6589C122.017 60.6589 120.795 62.1966 120.795 64.317V64.3311C120.795 66.4515 122.01 67.9681 123.969 67.9681C125.008 67.9681 125.865 67.4977 126.342 66.6622H126.455V68.1928C126.455 69.3092 125.647 69.9482 124.292 69.9482C123.204 69.9482 122.53 69.5409 122.396 68.9652L122.389 68.9581H121.125L121.111 68.9652C121.301 70.2079 122.466 71.0294 124.292 71.0294ZM124.236 66.8868C122.832 66.8868 122.045 65.8336 122.045 64.3311V64.317C122.045 62.8145 122.832 61.7402 124.236 61.7402C125.633 61.7402 126.483 62.8145 126.483 64.317V64.3311C126.483 65.8336 125.64 66.8868 124.236 66.8868ZM132.68 68.4947C134.463 68.4947 135.544 67.4837 135.804 66.4585L135.818 66.4024H134.597L134.569 66.4656C134.365 66.9219 133.733 67.4064 132.708 67.4064C131.36 67.4064 130.496 66.4936 130.461 64.9279H135.91V64.4504C135.91 62.1895 134.66 60.6589 132.603 60.6589C130.545 60.6589 129.211 62.2598 129.211 64.5979V64.6049C129.211 66.9781 130.517 68.4947 132.68 68.4947ZM132.596 61.7472C133.712 61.7472 134.54 62.4564 134.667 63.9519H130.482C130.615 62.5125 131.472 61.7472 132.596 61.7472ZM137.459 68.3613H138.68V63.8817C138.68 62.5547 139.446 61.7402 140.653 61.7402C141.861 61.7402 142.423 62.3932 142.423 63.7553V68.3613H143.644V63.4604C143.644 61.6629 142.696 60.6589 140.997 60.6589C139.881 60.6589 139.172 61.1293 138.793 61.9298H138.68V60.7923H137.459V68.3613ZM148.198 68.4175C148.437 68.4175 148.669 68.3894 148.908 68.3473V67.3081C148.683 67.3292 148.564 67.3362 148.346 67.3362C147.56 67.3362 147.251 66.9781 147.251 66.0864V61.8034H148.908V60.7923H147.251V58.8333H145.987V60.7923H144.793V61.8034H145.987V66.3953C145.987 67.8417 146.64 68.4175 148.198 68.4175ZM151.032 59.3319C151.496 59.3319 151.875 58.9527 151.875 58.4893C151.875 58.0259 151.496 57.6467 151.032 57.6467C150.569 57.6467 150.19 58.0259 150.19 58.4893C150.19 58.9527 150.569 59.3319 151.032 59.3319ZM150.414 68.3613H151.636V60.7923H150.414V68.3613ZM153.592 68.3613H154.814V63.8817C154.814 62.5547 155.579 61.7402 156.787 61.7402C157.995 61.7402 158.556 62.3932 158.556 63.7553V68.3613H159.778V63.4604C159.778 61.6629 158.83 60.6589 157.131 60.6589C156.015 60.6589 155.306 61.1293 154.926 61.9298H154.814V60.7923H153.592V68.3613ZM163.721 68.4947C164.74 68.4947 165.533 68.0524 166.01 67.2449H166.123V68.3613H167.344V63.1796C167.344 61.6068 166.312 60.6589 164.466 60.6589C162.851 60.6589 161.699 61.4593 161.503 62.6459L161.496 62.6881H162.717L162.724 62.667C162.921 62.0772 163.518 61.7402 164.424 61.7402C165.554 61.7402 166.123 62.2457 166.123 63.1796V63.8677L163.953 64.0011C162.191 64.1064 161.194 64.8858 161.194 66.2339V66.2479C161.194 67.6241 162.282 68.4947 163.721 68.4947ZM162.444 66.2198V66.2058C162.444 65.4545 162.949 65.0472 164.101 64.977L166.123 64.8506V65.5387C166.123 66.62 165.217 67.4345 163.974 67.4345C163.097 67.4345 162.444 66.9851 162.444 66.2198Z" fill="white"/>
<circle cx="311.321" cy="63.8617" r="16.9174" fill="#3B3747"/>
<path d="M311.956 56.2485H310.687V63.8613H311.956V56.2485Z" fill="white"/>
<path d="M313.77 59.0018L314.303 57.8472C317.255 59.2424 318.845 62.4983 318.13 65.6845C317.415 68.8706 314.587 71.135 311.321 71.135C308.056 71.135 305.227 68.8706 304.512 65.6845C303.797 62.4983 305.387 59.2424 308.339 57.8472L308.872 59.0018C306.461 60.1469 305.164 62.8103 305.751 65.4147C306.338 68.0192 308.651 69.8693 311.321 69.8693C313.991 69.8693 316.304 68.0192 316.891 65.4147C317.478 62.8103 316.182 60.1469 313.77 59.0018Z" fill="white"/>
<path fill-rule="evenodd" clip-rule="evenodd" d="M347.101 68.6831L351.923 63.8617L347.101 59.0403L346.509 59.6324L350.722 63.8617L346.509 68.091L347.101 68.6831Z" fill="#A7A4B5"/>
<rect width="317.2" height="54.1355" transform="translate(51.6396 90.9297)" fill="#1C1B24"/>
<g clip-path="url(#clip2_5104_172330)">
<path d="M92.2414 108.972H65.1736V127.014H92.2414V108.972Z" fill="#0052B4"/>
<path d="M75.1803 120.213L75.7555 121.423L77.0666 121.127L76.4829 122.328L77.5318 123.165L76.2207 123.462V124.806L75.1803 123.961L74.1314 124.806V123.462L72.8203 123.165L73.8776 122.328L73.294 121.127L74.5966 121.423L75.1803 120.213Z" fill="#F0F0F0"/>
<path d="M85.6353 121.719L85.9144 122.294L86.5403 122.15L86.2612 122.725L86.7603 123.123L86.1343 123.267V123.91L85.6353 123.504L85.1362 123.91V123.267L84.5103 123.123L85.0178 122.725L84.7386 122.15L85.3561 122.294L85.6353 121.719Z" fill="#F0F0F0"/>
<path d="M83.0638 115.586L83.3429 116.17L83.9689 116.018L83.6898 116.601L84.1888 116.999L83.5629 117.134V117.777L83.0638 117.38L82.5647 117.777L82.5732 117.134L81.9473 116.999L82.4463 116.601L82.1672 116.018L82.7931 116.17L83.0638 115.586Z" fill="#F0F0F0"/>
<path d="M85.6353 112.084L85.9144 112.668L86.5403 112.524L86.2612 113.1L86.7603 113.497L86.1343 113.632V114.275L85.6353 113.878L85.1362 114.275V113.632L84.5103 113.497L85.0178 113.1L84.7386 112.524L85.3561 112.668L85.6353 112.084Z" fill="#F0F0F0"/>
<path d="M87.885 114.715L88.1557 115.291L88.7816 115.147L88.5025 115.722L89.0016 116.119L88.3756 116.263L88.3841 116.906L87.885 116.5L87.386 116.906V116.263L86.76 116.119L87.2591 115.722L86.9799 115.147L87.6059 115.291L87.885 114.715Z" fill="#F0F0F0"/>
<path d="M86.278 117.777L86.4894 118.446H87.1999L86.6248 118.86L86.8447 119.528L86.278 119.114L85.7028 119.528L85.9227 118.86L85.356 118.446H86.058L86.278 117.777Z" fill="#F0F0F0"/>
<path d="M78.7075 108.972V110.587L76.3221 111.915H78.7075V115.053H75.5862L78.7075 116.787V117.997H77.2949L73.4123 115.84V117.997H70.4687V115.426L65.8503 117.997H65.1736V116.381L67.5589 115.053H65.1736V111.915H68.2948L65.1736 110.181V108.972H66.5862L70.4687 111.129V108.972H73.4123V111.543L78.0308 108.972H78.7075Z" fill="#F0F0F0"/>
<path d="M72.7864 108.972H71.0947V112.643H65.1736V114.334H71.0947V117.997H72.7864V114.334H78.7075V112.643H72.7864V108.972Z" fill="#D80027"/>
<path d="M73.4124 115.054L78.7075 117.997V117.168L74.9095 115.054H73.4124Z" fill="#0052B4"/>
<path d="M73.4124 115.054L78.7075 117.997V117.168L74.9095 115.054H73.4124Z" fill="#F0F0F0"/>
<path d="M73.4124 115.054L78.7075 117.997V117.168L74.9095 115.054H73.4124Z" fill="#D80027"/>
<path d="M68.9715 115.054L65.1736 117.168V117.997L70.4687 115.054H68.9715Z" fill="#D80027"/>
<path d="M70.4687 111.915L65.1736 108.972V109.809L68.9715 111.915H70.4687Z" fill="#0052B4"/>
<path d="M70.4687 111.915L65.1736 108.972V109.809L68.9715 111.915H70.4687Z" fill="#F0F0F0"/>
<path d="M70.4687 111.915L65.1736 108.972V109.809L68.9715 111.915H70.4687Z" fill="#D80027"/>
<path d="M74.9095 111.915L78.7075 109.809V108.972L73.4124 111.915H74.9095Z" fill="#D80027"/>
</g>
<path d="M106.26 122.497H107.587L108.605 119.597H112.635L113.653 122.497H114.98L111.245 112.365H109.995L106.26 122.497ZM110.564 114.001H110.676L112.263 118.523H108.977L110.564 114.001ZM118.439 122.63C119.548 122.63 120.314 122.174 120.686 121.367H120.798V122.497H122.02V114.928H120.798V119.408C120.798 120.735 120.089 121.549 118.755 121.549C117.547 121.549 117.056 120.896 117.056 119.534V114.928H115.834V119.829C115.834 121.619 116.719 122.63 118.439 122.63ZM126.553 122.63C128.273 122.63 129.586 121.697 129.586 120.349V120.334C129.586 119.253 128.898 118.635 127.473 118.291L126.307 118.01C125.415 117.793 125.036 117.47 125.036 116.957V116.943C125.036 116.276 125.696 115.813 126.595 115.813C127.508 115.813 128.098 116.227 128.259 116.824H129.46C129.291 115.588 128.189 114.795 126.602 114.795C124.994 114.795 123.786 115.743 123.786 116.999V117.006C123.786 118.095 124.425 118.713 125.844 119.05L127.016 119.33C127.95 119.555 128.336 119.913 128.336 120.426V120.44C128.336 121.128 127.613 121.612 126.595 121.612C125.626 121.612 125.022 121.198 124.819 120.566H123.569C123.709 121.816 124.868 122.63 126.553 122.63ZM133.754 122.553C133.993 122.553 134.224 122.525 134.463 122.483V121.444C134.239 121.465 134.119 121.472 133.901 121.472C133.115 121.472 132.806 121.114 132.806 120.222V115.939H134.463V114.928H132.806V112.969H131.542V114.928H130.349V115.939H131.542V120.531C131.542 121.977 132.195 122.553 133.754 122.553ZM135.942 122.497H137.164V117.807C137.164 116.697 137.992 115.96 139.158 115.96C139.425 115.96 139.656 115.988 139.909 116.03V114.844C139.79 114.823 139.53 114.795 139.298 114.795C138.273 114.795 137.564 115.258 137.276 116.051H137.164V114.928H135.942V122.497ZM143.15 122.63C144.168 122.63 144.962 122.188 145.439 121.381H145.551V122.497H146.773V117.315C146.773 115.743 145.741 114.795 143.894 114.795C142.279 114.795 141.128 115.595 140.931 116.782L140.924 116.824H142.146L142.153 116.803C142.35 116.213 142.946 115.876 143.852 115.876C144.983 115.876 145.551 116.381 145.551 117.315V118.003L143.382 118.137C141.619 118.242 140.622 119.021 140.622 120.37V120.384C140.622 121.76 141.711 122.63 143.15 122.63ZM141.872 120.356V120.342C141.872 119.59 142.378 119.183 143.529 119.113L145.551 118.986V119.674C145.551 120.756 144.646 121.57 143.403 121.57C142.525 121.57 141.872 121.121 141.872 120.356ZM148.729 122.497H149.951V111.923H148.729V122.497ZM152.595 113.468C153.059 113.468 153.438 113.088 153.438 112.625C153.438 112.162 153.059 111.782 152.595 111.782C152.132 111.782 151.753 112.162 151.753 112.625C151.753 113.088 152.132 113.468 152.595 113.468ZM151.977 122.497H153.199V114.928H151.977V122.497ZM157.234 122.63C158.252 122.63 159.045 122.188 159.523 121.381H159.635V122.497H160.857V117.315C160.857 115.743 159.825 114.795 157.978 114.795C156.363 114.795 155.212 115.595 155.015 116.782L155.008 116.824H156.23L156.237 116.803C156.433 116.213 157.03 115.876 157.936 115.876C159.066 115.876 159.635 116.381 159.635 117.315V118.003L157.465 118.137C155.703 118.242 154.706 119.021 154.706 120.37V120.384C154.706 121.76 155.794 122.63 157.234 122.63ZM155.956 120.356V120.342C155.956 119.59 156.461 119.183 157.613 119.113L159.635 118.986V119.674C159.635 120.756 158.729 121.57 157.486 121.57C156.609 121.57 155.956 121.121 155.956 120.356Z" fill="white"/>
<circle cx="311.321" cy="117.997" r="16.9174" fill="#6D4AFF"/>
<path d="M311.956 110.385H310.687V117.998H311.956V110.385Z" fill="white"/>
<path d="M313.77 113.138L314.303 111.983C317.255 113.379 318.845 116.635 318.13 119.821C317.415 123.007 314.587 125.271 311.321 125.271C308.056 125.271 305.227 123.007 304.512 119.821C303.797 116.635 305.387 113.379 308.339 111.983L308.872 113.138C306.461 114.283 305.164 116.947 305.751 119.551C306.338 122.155 308.651 124.005 311.321 124.005C313.991 124.005 316.304 122.155 316.891 119.551C317.478 116.947 316.182 114.283 313.77 113.138Z" fill="white"/>
<path fill-rule="evenodd" clip-rule="evenodd" d="M347.101 122.819L351.923 117.998L347.101 113.176L346.509 113.769L350.722 117.998L346.509 122.227L347.101 122.819Z" fill="#A7A4B5"/>
<rect width="317.2" height="54.1355" transform="translate(51.6396 145.065)" fill="#1C1B24"/>
<g clip-path="url(#clip3_5104_172330)">
<path d="M92.2414 163.107H65.1736V181.15H92.2414V163.107Z" fill="#F0F0F0"/>
<path d="M92.2414 163.107H65.1736V169.122H92.2414V163.107Z" fill="#D80027"/>
<path d="M92.2414 175.144H65.1736V181.158H92.2414V175.144Z" fill="#D80027"/>
</g>
<path d="M106.26 176.632H107.587L108.605 173.733H112.635L113.653 176.632H114.98L111.245 166.5H109.995L106.26 176.632ZM110.564 168.136H110.676L112.263 172.658H108.977L110.564 168.136ZM118.439 176.766C119.548 176.766 120.314 176.309 120.686 175.502H120.798V176.632H122.02V169.063H120.798V173.543C120.798 174.87 120.089 175.684 118.755 175.684C117.547 175.684 117.056 175.031 117.056 173.669V169.063H115.834V173.964C115.834 175.755 116.719 176.766 118.439 176.766ZM126.553 176.766C128.273 176.766 129.586 175.832 129.586 174.484V174.47C129.586 173.388 128.898 172.771 127.473 172.427L126.307 172.146C125.415 171.928 125.036 171.605 125.036 171.092V171.078C125.036 170.411 125.696 169.948 126.595 169.948C127.508 169.948 128.098 170.362 128.259 170.959H129.46C129.291 169.723 128.189 168.93 126.602 168.93C124.994 168.93 123.786 169.878 123.786 171.135V171.142C123.786 172.23 124.425 172.848 125.844 173.185L127.016 173.466C127.95 173.69 128.336 174.048 128.336 174.561V174.575C128.336 175.263 127.613 175.748 126.595 175.748C125.626 175.748 125.022 175.333 124.819 174.701H123.569C123.709 175.951 124.868 176.766 126.553 176.766ZM133.754 176.688C133.993 176.688 134.224 176.66 134.463 176.618V175.579C134.239 175.6 134.119 175.607 133.901 175.607C133.115 175.607 132.806 175.249 132.806 174.357V170.074H134.463V169.063H132.806V167.104H131.542V169.063H130.349V170.074H131.542V174.666C131.542 176.113 132.195 176.688 133.754 176.688ZM135.942 176.632H137.164V171.942C137.164 170.833 137.992 170.095 139.158 170.095C139.425 170.095 139.656 170.124 139.909 170.166V168.979C139.79 168.958 139.53 168.93 139.298 168.93C138.273 168.93 137.564 169.393 137.276 170.187H137.164V169.063H135.942V176.632ZM141.718 167.603C142.181 167.603 142.56 167.224 142.56 166.76C142.56 166.297 142.181 165.918 141.718 165.918C141.254 165.918 140.875 166.297 140.875 166.76C140.875 167.224 141.254 167.603 141.718 167.603ZM141.1 176.632H142.322V169.063H141.1V176.632ZM146.356 176.766C147.374 176.766 148.168 176.323 148.645 175.516H148.757V176.632H149.979V171.451C149.979 169.878 148.947 168.93 147.1 168.93C145.485 168.93 144.334 169.73 144.137 170.917L144.13 170.959H145.352L145.359 170.938C145.556 170.348 146.153 170.011 147.058 170.011C148.189 170.011 148.757 170.517 148.757 171.451V172.139L146.588 172.272C144.825 172.377 143.828 173.157 143.828 174.505V174.519C143.828 175.895 144.917 176.766 146.356 176.766ZM145.078 174.491V174.477C145.078 173.725 145.584 173.318 146.735 173.248L148.757 173.122V173.81C148.757 174.891 147.852 175.706 146.609 175.706C145.731 175.706 145.078 175.256 145.078 174.491Z" fill="white"/>
<circle cx="311.321" cy="172.133" r="16.9174" fill="#3B3747"/>
<path d="M311.956 164.52H310.687V172.133H311.956V164.52Z" fill="white"/>
<path d="M313.77 167.273L314.303 166.119C317.255 167.514 318.845 170.77 318.13 173.956C317.415 177.142 314.587 179.406 311.321 179.406C308.056 179.406 305.227 177.142 304.512 173.956C303.797 170.77 305.387 167.514 308.339 166.119L308.872 167.273C306.461 168.418 305.164 171.082 305.751 173.686C306.338 176.291 308.651 178.141 311.321 178.141C313.991 178.141 316.304 176.291 316.891 173.686C317.478 171.082 316.182 168.418 313.77 167.273Z" fill="white"/>
<path fill-rule="evenodd" clip-rule="evenodd" d="M347.101 176.954L351.923 172.133L347.101 167.311L346.509 167.903L350.722 172.133L346.509 176.362L347.101 176.954Z" fill="#A7A4B5"/>
<rect width="317.2" height="54.1355" transform="translate(51.6396 199.201)" fill="#1C1B24"/>
<g clip-path="url(#clip4_5104_172330)">
<path d="M92.2414 217.243H65.1736V235.285H92.2414V217.243Z" fill="#FFDA44"/>
<path d="M74.199 217.243H65.1736V235.285H74.199V217.243Z" fill="black"/>
<path d="M92.2415 217.243H83.2161V235.285H92.2415V217.243Z" fill="#D80027"/>
</g>
<path d="M107.067 230.768H111.02C113.176 230.768 114.454 229.708 114.454 227.931V227.917C114.454 226.583 113.576 225.635 112.193 225.46V225.348C113.169 225.172 113.941 224.217 113.941 223.171V223.157C113.941 221.612 112.804 220.636 110.943 220.636H107.067V230.768ZM110.676 221.753C111.933 221.753 112.663 222.349 112.663 223.375V223.389C112.663 224.456 111.884 225.004 110.353 225.004H108.331V221.753H110.676ZM110.711 226.092C112.326 226.092 113.155 226.689 113.155 227.854V227.868C113.155 229.034 112.354 229.652 110.831 229.652H108.331V226.092H110.711ZM119.106 230.901C120.889 230.901 121.971 229.89 122.23 228.865L122.245 228.809H121.023L120.995 228.872C120.791 229.329 120.159 229.813 119.134 229.813C117.786 229.813 116.922 228.9 116.887 227.335H122.336V226.857C122.336 224.596 121.086 223.066 119.029 223.066C116.971 223.066 115.637 224.667 115.637 227.005V227.012C115.637 229.385 116.943 230.901 119.106 230.901ZM119.022 224.154C120.138 224.154 120.967 224.863 121.093 226.359H116.908C117.042 224.919 117.898 224.154 119.022 224.154ZM123.955 230.768H125.177V220.194H123.955V230.768ZM130.292 233.436C132.357 233.436 133.663 232.355 133.663 230.663V223.199H132.441V224.449H132.357C131.893 223.592 131.065 223.066 129.998 223.066C128.018 223.066 126.796 224.603 126.796 226.724V226.738C126.796 228.858 128.011 230.375 129.97 230.375C131.009 230.375 131.865 229.904 132.343 229.069H132.455V230.6C132.455 231.716 131.648 232.355 130.292 232.355C129.204 232.355 128.53 231.948 128.397 231.372L128.39 231.365H127.126L127.112 231.372C127.301 232.615 128.467 233.436 130.292 233.436ZM130.236 229.294C128.832 229.294 128.046 228.24 128.046 226.738V226.724C128.046 225.221 128.832 224.147 130.236 224.147C131.634 224.147 132.483 225.221 132.483 226.724V226.738C132.483 228.24 131.641 229.294 130.236 229.294ZM136.237 221.739C136.7 221.739 137.079 221.359 137.079 220.896C137.079 220.433 136.7 220.053 136.237 220.053C135.773 220.053 135.394 220.433 135.394 220.896C135.394 221.359 135.773 221.739 136.237 221.739ZM135.619 230.768H136.841V223.199H135.619V230.768ZM141.332 230.901C142.441 230.901 143.206 230.445 143.578 229.638H143.691V230.768H144.912V223.199H143.691V227.679C143.691 229.006 142.982 229.82 141.648 229.82C140.44 229.82 139.948 229.167 139.948 227.805V223.199H138.727V228.1C138.727 229.89 139.611 230.901 141.332 230.901ZM146.848 230.768H148.069V226.078C148.069 225.011 148.821 224.147 149.811 224.147C150.766 224.147 151.383 224.73 151.383 225.628V230.768H152.605V225.902C152.605 224.94 153.3 224.147 154.353 224.147C155.421 224.147 155.933 224.702 155.933 225.818V230.768H157.155V225.537C157.155 223.95 156.291 223.066 154.747 223.066C153.7 223.066 152.837 223.592 152.43 224.393H152.317C151.966 223.606 151.25 223.066 150.225 223.066C149.235 223.066 148.519 223.536 148.182 224.351H148.069V223.199H146.848V230.768Z" fill="white"/>
<circle cx="311.321" cy="226.268" r="16.9174" fill="#3B3747"/>
<path d="M311.956 218.655H310.687V226.268H311.956V218.655Z" fill="white"/>
<path d="M313.77 221.409L314.303 220.254C317.255 221.649 318.845 224.905 318.13 228.091C317.415 231.277 314.587 233.542 311.321 233.542C308.056 233.542 305.227 231.277 304.512 228.091C303.797 224.905 305.387 221.649 308.339 220.254L308.872 221.409C306.461 222.554 305.164 225.217 305.751 227.821C306.338 230.426 308.651 232.276 311.321 232.276C313.991 232.276 316.304 230.426 316.891 227.821C317.478 225.217 316.182 222.554 313.77 221.409Z" fill="white"/>
<path fill-rule="evenodd" clip-rule="evenodd" d="M347.101 231.09L351.923 226.268L347.101 221.447L346.509 222.039L350.722 226.268L346.509 230.498L347.101 231.09Z" fill="#A7A4B5"/>
<g filter="url(#filter0_i_5104_172330)">
<rect width="317.2" height="41.3009" transform="translate(51.6396 -2.96191)" fill="#1C1B24"/>
<path d="M69.7866 22.4272C72.0475 22.4272 73.529 21.2476 73.529 19.3518V19.3448C73.529 17.8844 72.6935 17.0348 70.58 16.5644L69.4566 16.3116C68.0804 16.0097 67.5257 15.462 67.5257 14.6546V14.6475C67.5257 13.5873 68.5017 12.9905 69.7656 12.9835C71.0856 12.9764 71.9281 13.6365 72.0686 14.5282L72.0826 14.6194H73.3465L73.3394 14.5211C73.2341 13.0116 71.8228 11.8179 69.8007 11.8179C67.7083 11.8179 66.2408 13.0045 66.2338 14.6826V14.6897C66.2338 16.1571 67.1115 17.091 69.1407 17.5403L70.2641 17.7861C71.6543 18.095 72.2371 18.6708 72.2371 19.5133V19.5204C72.2371 20.5525 71.233 21.2617 69.8568 21.2617C68.3964 21.2617 67.3432 20.6227 67.2519 19.6116L67.2449 19.5344H65.981L65.9881 19.6116C66.1355 21.2617 67.5679 22.4272 69.7866 22.4272ZM78.2235 22.3219C80.007 22.3219 81.0883 21.3108 81.348 20.2857L81.3621 20.2295H80.1404L80.1123 20.2927C79.9087 20.7491 79.2767 21.2336 78.2516 21.2336C76.9035 21.2336 76.0399 20.3208 76.0048 18.755H81.4534V18.2776C81.4534 16.0167 80.2036 14.486 78.1463 14.486C76.089 14.486 74.755 16.0869 74.755 18.425V18.432C74.755 20.8053 76.061 22.3219 78.2235 22.3219ZM78.1393 15.5744C79.2557 15.5744 80.0842 16.2835 80.2106 17.7791H76.0259C76.1593 16.3397 77.0159 15.5744 78.1393 15.5744ZM86.0988 22.3219C87.9173 22.3219 88.9354 21.3459 89.2443 19.9767L89.2584 19.8995L88.0507 19.9065L88.0366 19.9487C87.7558 20.7912 87.1098 21.2406 86.0917 21.2406C84.7436 21.2406 83.873 20.1242 83.873 18.3829V18.3689C83.873 16.6627 84.7296 15.5673 86.0917 15.5673C87.18 15.5673 87.8541 16.1712 88.0437 16.9154L88.0507 16.9365H89.2654L89.2584 16.8944C89.0337 15.5463 87.9313 14.486 86.0917 14.486C83.9713 14.486 82.6232 16.0167 82.6232 18.3689V18.3829C82.6232 20.7842 83.9783 22.3219 86.0988 22.3219ZM93.2367 22.3219C94.3461 22.3219 95.1114 21.8655 95.4836 21.058H95.5959V22.1885H96.8176V14.6194H95.5959V19.0991C95.5959 20.4261 94.8867 21.2406 93.5527 21.2406C92.345 21.2406 91.8535 20.5876 91.8535 19.2255V14.6194H90.6318V19.5204C90.6318 21.3108 91.5165 22.3219 93.2367 22.3219ZM98.7528 22.1885H99.9745V17.4982C99.9745 16.3888 100.803 15.6516 101.969 15.6516C102.235 15.6516 102.467 15.6797 102.72 15.7218V14.5352C102.6 14.5141 102.341 14.486 102.109 14.486C101.084 14.486 100.375 14.9495 100.087 15.7429H99.9745V14.6194H98.7528V22.1885ZM106.761 22.3219C108.545 22.3219 109.626 21.3108 109.886 20.2857L109.9 20.2295H108.678L108.65 20.2927C108.446 20.7491 107.815 21.2336 106.789 21.2336C105.441 21.2336 104.578 20.3208 104.543 18.755H109.991V18.2776C109.991 16.0167 108.741 14.486 106.684 14.486C104.627 14.486 103.293 16.0869 103.293 18.425V18.432C103.293 20.8053 104.599 22.3219 106.761 22.3219ZM106.677 15.5744C107.794 15.5744 108.622 16.2835 108.748 17.7791H104.564C104.697 16.3397 105.554 15.5744 106.677 15.5744ZM119.472 22.4272C121.627 22.4272 123.228 21.2265 123.565 19.3729V19.3589H122.287L122.273 19.3729C121.957 20.5385 120.883 21.2617 119.472 21.2617C117.52 21.2617 116.298 19.6678 116.298 17.1331V17.1191C116.298 14.5843 117.52 12.9835 119.465 12.9835C120.862 12.9835 121.943 13.805 122.28 15.1039L122.287 15.118H123.558L123.565 15.1039C123.263 13.159 121.599 11.8179 119.465 11.8179C116.712 11.8179 114.999 13.8541 114.999 17.1191V17.1331C114.999 20.391 116.719 22.4272 119.472 22.4272ZM128.295 22.3219C130.45 22.3219 131.784 20.8334 131.784 18.411V18.3969C131.784 15.9675 130.45 14.486 128.295 14.486C126.139 14.486 124.805 15.9675 124.805 18.3969V18.411C124.805 20.8334 126.139 22.3219 128.295 22.3219ZM128.295 21.2406C126.862 21.2406 126.055 20.1944 126.055 18.411V18.3969C126.055 16.6065 126.862 15.5673 128.295 15.5673C129.727 15.5673 130.534 16.6065 130.534 18.3969V18.411C130.534 20.1944 129.727 21.2406 128.295 21.2406ZM133.333 22.1885H134.555V17.4982C134.555 16.3888 135.383 15.6516 136.549 15.6516C136.816 15.6516 137.048 15.6797 137.3 15.7218V14.5352C137.181 14.5141 136.921 14.486 136.689 14.486C135.664 14.486 134.955 14.9495 134.667 15.7429H134.555V14.6194H133.333V22.1885ZM141.342 22.3219C143.125 22.3219 144.207 21.3108 144.466 20.2857L144.48 20.2295H143.259L143.231 20.2927C143.027 20.7491 142.395 21.2336 141.37 21.2336C140.022 21.2336 139.158 20.3208 139.123 18.755H144.572V18.2776C144.572 16.0167 143.322 14.486 141.265 14.486C139.207 14.486 137.873 16.0869 137.873 18.425V18.432C137.873 20.8053 139.179 22.3219 141.342 22.3219ZM141.258 15.5744C142.374 15.5744 143.202 16.2835 143.329 17.7791H139.144C139.278 16.3397 140.134 15.5744 141.258 15.5744Z" fill="white"/>
<rect x="320.626" y="7.18848" width="35.5264" height="20.3008" rx="10.1504" fill="#3B3747"/>
<circle cx="330.776" cy="17.3391" r="8.45868" fill="white"/>
</g>
</g>
<g filter="url(#filter1_dd_5104_172330)">
<g clip-path="url(#clip5_5104_172330)">
<g clip-path="url(#clip6_5104_172330)">
<path d="M36 -129.04C36 -134.121 40.119 -138.24 45.2 -138.24H371.8C376.881 -138.24 381 -134.121 381 -129.04V297.84C381 302.921 376.881 307.04 371.8 307.04H45.2C40.119 307.04 36 302.921 36 297.84V-129.04Z" fill="#1C1B24"/>
<rect width="345" height="58.88" transform="translate(36 30.1201)" fill="#1C1B24"/>
<g clip-path="url(#clip7_5104_172330)">
<path d="M80.16 49.7441H50.72V69.3677H80.16V49.7441Z" fill="#F0F0F0"/>
<path d="M80.16 49.7441H50.72V56.2853H80.16V49.7441Z" fill="#338AF3"/>
<path d="M80.16 62.8354H50.72V69.3766H80.16V62.8354Z" fill="#338AF3"/>
<path d="M67.786 59.5603L66.8292 60.0111L67.3352 60.9403L66.2956 60.7379L66.1668 61.7959L65.44 61.0231L64.7132 61.7959L64.5844 60.7379L63.5448 60.9403L64.0508 60.0111L63.094 59.5603L64.0508 59.1095L63.5448 58.1803L64.5844 58.3827L64.7132 57.3247L65.44 58.0975L66.1668 57.3247L66.2956 58.3827L67.3352 58.1803L66.8292 59.1095L67.786 59.5603Z" fill="#FFDA44"/>
</g>
<path d="M95.4068 65.0605H96.8502L97.9575 61.9066H102.341L103.448 65.0605H104.892L100.829 54.0408H99.4696L95.4068 65.0605ZM100.088 55.8201H100.21L101.936 60.7382H98.3622L100.088 55.8201ZM106.279 65.0605H107.607V59.9592C107.607 58.7526 108.508 57.9508 109.776 57.9508C110.066 57.9508 110.318 57.9813 110.593 58.0271V56.7365C110.463 56.7136 110.181 56.6831 109.929 56.6831C108.814 56.6831 108.043 57.1871 107.729 58.05H107.607V56.8282H106.279V65.0605ZM115.02 67.9625C117.265 67.9625 118.685 66.7864 118.685 64.946V56.8282H117.356V58.1875H117.265C116.761 57.2558 115.86 56.6831 114.699 56.6831C112.545 56.6831 111.216 58.3555 111.216 60.6618V60.6771C111.216 62.9834 112.538 64.6329 114.668 64.6329C115.798 64.6329 116.73 64.1212 117.249 63.2125H117.372V64.8773C117.372 66.0915 116.493 66.7864 115.02 66.7864C113.836 66.7864 113.103 66.3435 112.958 65.7173L112.95 65.7097H111.575L111.56 65.7173C111.766 67.069 113.034 67.9625 115.02 67.9625ZM114.958 63.4568C113.431 63.4568 112.576 62.3113 112.576 60.6771V60.6618C112.576 59.0275 113.431 57.8591 114.958 57.8591C116.478 57.8591 117.402 59.0275 117.402 60.6618V60.6771C117.402 62.3113 116.486 63.4568 114.958 63.4568ZM124.142 65.2056C126.082 65.2056 127.258 64.106 127.541 62.991L127.556 62.9299H126.227L126.197 62.9986C125.975 63.495 125.288 64.022 124.173 64.022C122.707 64.022 121.767 63.0292 121.729 61.3262H127.655V60.8069C127.655 58.3479 126.296 56.6831 124.058 56.6831C121.821 56.6831 120.37 58.4242 120.37 60.9673V60.9749C120.37 63.5561 121.79 65.2056 124.142 65.2056ZM124.051 57.8668C125.265 57.8668 126.166 58.6381 126.304 60.2647H121.752C121.897 58.6992 122.829 57.8668 124.051 57.8668ZM129.34 65.0605H130.669V60.1883C130.669 58.745 131.501 57.8591 132.815 57.8591C134.128 57.8591 134.739 58.5693 134.739 60.0509V65.0605H136.068V59.7301C136.068 57.7751 135.037 56.6831 133.189 56.6831C131.975 56.6831 131.203 57.1947 130.791 58.0653H130.669V56.8282H129.34V65.0605ZM141.021 65.1216C141.281 65.1216 141.533 65.0911 141.793 65.0453V63.915C141.548 63.9379 141.418 63.9456 141.182 63.9456C140.326 63.9456 139.99 63.5561 139.99 62.5862V57.9279H141.793V56.8282H139.99V54.6975H138.616V56.8282H137.317V57.9279H138.616V62.9223C138.616 64.4954 139.326 65.1216 141.021 65.1216ZM144.103 55.2397C144.607 55.2397 145.02 54.8273 145.02 54.3233C145.02 53.8193 144.607 53.4069 144.103 53.4069C143.599 53.4069 143.187 53.8193 143.187 54.3233C143.187 54.8273 143.599 55.2397 144.103 55.2397ZM143.431 65.0605H144.76V56.8282H143.431V65.0605ZM146.888 65.0605H148.217V60.1883C148.217 58.745 149.049 57.8591 150.363 57.8591C151.676 57.8591 152.287 58.5693 152.287 60.0509V65.0605H153.616V59.7301C153.616 57.7751 152.585 56.6831 150.737 56.6831C149.523 56.6831 148.751 57.1947 148.339 58.0653H148.217V56.8282H146.888V65.0605ZM157.905 65.2056C159.012 65.2056 159.875 64.7245 160.394 63.8463H160.516V65.0605H161.845V59.4246C161.845 57.714 160.723 56.6831 158.714 56.6831C156.958 56.6831 155.705 57.5537 155.491 58.8443L155.484 58.8901H156.813L156.82 58.8672C157.034 58.2257 157.683 57.8591 158.668 57.8591C159.898 57.8591 160.516 58.409 160.516 59.4246V60.173L158.157 60.3181C156.24 60.4327 155.155 61.2804 155.155 62.7466V62.7619C155.155 64.2587 156.339 65.2056 157.905 65.2056ZM156.515 62.7313V62.7161C156.515 61.8989 157.065 61.456 158.317 61.3796L160.516 61.2422V61.9906C160.516 63.1666 159.531 64.0525 158.18 64.0525C157.225 64.0525 156.515 63.5637 156.515 62.7313Z" fill="white"/>
<circle cx="318.44" cy="59.5602" r="18.4" fill="#3B3747"/>
<path d="M319.13 51.2803H317.75V59.5603H319.13V51.2803Z" fill="white"/>
<path d="M321.103 54.2749L321.683 53.0191C324.894 54.5366 326.623 58.0778 325.846 61.5432C325.068 65.0086 321.991 67.4714 318.44 67.4714C314.888 67.4714 311.812 65.0086 311.034 61.5432C310.256 58.0778 311.986 54.5366 315.197 53.0191L315.776 54.2749C313.153 55.5203 311.743 58.4171 312.382 61.2498C313.02 64.0825 315.536 66.0947 318.44 66.0947C321.344 66.0947 323.86 64.0825 324.498 61.2498C325.136 58.4171 323.726 55.5203 321.103 54.2749Z" fill="white"/>
<path fill-rule="evenodd" clip-rule="evenodd" d="M357.356 64.8042L362.6 59.5602L357.356 54.3162L356.712 54.9602L361.293 59.5602L356.712 64.1602L357.356 64.8042Z" fill="#A7A4B5"/>
<rect width="345" height="58.88" transform="translate(36 89)" fill="#1C1B24"/>
<g clip-path="url(#clip8_5104_172330)">
<path d="M80.16 108.624H50.72V128.248H80.16V108.624Z" fill="#0052B4"/>
<path d="M61.6037 120.851L62.2293 122.166L63.6553 121.844L63.0205 123.151L64.1613 124.061L62.7353 124.383V125.846L61.6037 124.926L60.4629 125.846V124.383L59.0369 124.061L60.1869 123.151L59.5521 121.844L60.9689 122.166L61.6037 120.851Z" fill="#F0F0F0"/>
<path d="M72.9748 122.488L73.2784 123.114L73.9592 122.957L73.6556 123.583L74.1984 124.015L73.5176 124.172V124.871L72.9748 124.429L72.432 124.871V124.172L71.7512 124.015L72.3032 123.583L71.9996 122.957L72.6712 123.114L72.9748 122.488Z" fill="#F0F0F0"/>
<path d="M70.178 115.818L70.4816 116.453L71.1624 116.288L70.8588 116.922L71.4016 117.355L70.7208 117.502V118.201L70.178 117.769L69.6352 118.201L69.6444 117.502L68.9636 117.355L69.5064 116.922L69.2028 116.288L69.8836 116.453L70.178 115.818Z" fill="#F0F0F0"/>
<path d="M72.9748 112.009L73.2784 112.644L73.9592 112.488L73.6556 113.113L74.1984 113.546L73.5176 113.693V114.392L72.9748 113.96L72.432 114.392V113.693L71.7512 113.546L72.3032 113.113L71.9996 112.488L72.6712 112.644L72.9748 112.009Z" fill="#F0F0F0"/>
<path d="M75.4221 114.871L75.7165 115.496L76.3973 115.34L76.0937 115.965L76.6365 116.398L75.9557 116.554L75.9649 117.253L75.4221 116.812L74.8793 117.253V116.554L74.1985 116.398L74.7413 115.965L74.4377 115.34L75.1185 115.496L75.4221 114.871Z" fill="#F0F0F0"/>
<path d="M73.6742 118.201L73.9042 118.928H74.677L74.0514 119.379L74.2906 120.106L73.6742 119.655L73.0486 120.106L73.2878 119.379L72.6714 118.928H73.435L73.6742 118.201Z" fill="#F0F0F0"/>
<path d="M65.44 108.624V110.381L62.8456 111.826H65.44V115.239H62.0452L65.44 117.125V118.44H63.9036L59.6808 116.094V118.44H56.4792V115.644L51.456 118.44H50.72V116.683L53.3144 115.239H50.72V111.826H54.1148L50.72 109.94V108.624H52.2564L56.4792 110.97V108.624H59.6808V111.421L64.704 108.624H65.44Z" fill="#F0F0F0"/>
<path d="M59 108.624H57.16V112.617H50.72V114.457H57.16V118.44H59V114.457H65.44V112.617H59V108.624Z" fill="#D80027"/>
<path d="M59.6809 115.239L65.4401 118.44V117.539L61.3093 115.239H59.6809Z" fill="#0052B4"/>
<path d="M59.6809 115.239L65.4401 118.44V117.539L61.3093 115.239H59.6809Z" fill="#F0F0F0"/>
<path d="M59.6809 115.239L65.4401 118.44V117.539L61.3093 115.239H59.6809Z" fill="#D80027"/>
<path d="M54.8508 115.239L50.72 117.539V118.44L56.4792 115.239H54.8508Z" fill="#D80027"/>
<path d="M56.4792 111.826L50.72 108.624V109.535L54.8508 111.826H56.4792Z" fill="#0052B4"/>
<path d="M56.4792 111.826L50.72 108.624V109.535L54.8508 111.826H56.4792Z" fill="#F0F0F0"/>
<path d="M56.4792 111.826L50.72 108.624V109.535L54.8508 111.826H56.4792Z" fill="#D80027"/>
<path d="M61.3093 111.826L65.4401 109.535V108.624L59.6809 111.826H61.3093Z" fill="#D80027"/>
</g>
<path d="M95.4068 123.94H96.8502L97.9575 120.786H102.341L103.448 123.94H104.892L100.829 112.921H99.4696L95.4068 123.94ZM100.088 114.7H100.21L101.936 119.618H98.3622L100.088 114.7ZM108.654 124.086C109.86 124.086 110.693 123.589 111.097 122.711H111.219V123.94H112.548V115.708H111.219V120.58C111.219 122.024 110.448 122.909 108.997 122.909C107.684 122.909 107.149 122.199 107.149 120.718V115.708H105.82V121.038C105.82 122.986 106.783 124.086 108.654 124.086ZM117.479 124.086C119.35 124.086 120.778 123.07 120.778 121.604V121.588C120.778 120.412 120.029 119.74 118.479 119.366L117.211 119.061C116.241 118.824 115.829 118.473 115.829 117.915V117.9C115.829 117.174 116.547 116.67 117.524 116.67C118.517 116.67 119.159 117.121 119.334 117.77H120.64C120.457 116.426 119.258 115.563 117.532 115.563C115.783 115.563 114.47 116.594 114.47 117.961V117.969C114.47 119.152 115.165 119.824 116.707 120.191L117.983 120.496C118.998 120.741 119.418 121.13 119.418 121.688V121.703C119.418 122.451 118.632 122.978 117.524 122.978C116.471 122.978 115.814 122.528 115.592 121.84H114.233C114.386 123.2 115.646 124.086 117.479 124.086ZM125.311 124.002C125.57 124.002 125.823 123.971 126.082 123.925V122.795C125.838 122.818 125.708 122.825 125.471 122.825C124.616 122.825 124.28 122.436 124.28 121.466V116.808H126.082V115.708H124.28V113.577H122.905V115.708H121.607V116.808H122.905V121.802C122.905 123.375 123.615 124.002 125.311 124.002ZM127.69 123.94H129.019V118.839C129.019 117.632 129.92 116.831 131.188 116.831C131.478 116.831 131.73 116.861 132.005 116.907V115.616C131.875 115.593 131.593 115.563 131.341 115.563C130.226 115.563 129.455 116.067 129.141 116.93H129.019V115.708H127.69V123.94ZM135.53 124.086C136.638 124.086 137.501 123.604 138.02 122.726H138.142V123.94H139.471V118.305C139.471 116.594 138.348 115.563 136.34 115.563C134.583 115.563 133.331 116.434 133.117 117.724L133.11 117.77H134.438L134.446 117.747C134.66 117.106 135.309 116.739 136.294 116.739C137.524 116.739 138.142 117.289 138.142 118.305V119.053L135.782 119.198C133.866 119.313 132.781 120.16 132.781 121.627V121.642C132.781 123.139 133.965 124.086 135.53 124.086ZM134.141 121.611V121.596C134.141 120.779 134.69 120.336 135.943 120.26L138.142 120.122V120.87C138.142 122.047 137.157 122.932 135.805 122.932C134.851 122.932 134.141 122.444 134.141 121.611ZM141.599 123.94H142.927V112.44H141.599V123.94ZM145.803 114.12C146.307 114.12 146.72 113.707 146.72 113.203C146.72 112.699 146.307 112.287 145.803 112.287C145.299 112.287 144.887 112.699 144.887 113.203C144.887 113.707 145.299 114.12 145.803 114.12ZM145.131 123.94H146.46V115.708H145.131V123.94ZM150.848 124.086C151.956 124.086 152.819 123.604 153.338 122.726H153.46V123.94H154.789V118.305C154.789 116.594 153.666 115.563 151.658 115.563C149.901 115.563 148.649 116.434 148.435 117.724L148.427 117.77H149.756L149.764 117.747C149.978 117.106 150.627 116.739 151.612 116.739C152.841 116.739 153.46 117.289 153.46 118.305V119.053L151.1 119.198C149.183 119.313 148.099 120.16 148.099 121.627V121.642C148.099 123.139 149.283 124.086 150.848 124.086ZM149.458 121.611V121.596C149.458 120.779 150.008 120.336 151.261 120.26L153.46 120.122V120.87C153.46 122.047 152.475 122.932 151.123 122.932C150.169 122.932 149.458 122.444 149.458 121.611Z" fill="white"/>
<circle cx="318.44" cy="118.44" r="18.4" fill="#6D4AFF"/>
<path d="M319.13 110.16H317.75V118.44H319.13V110.16Z" fill="white"/>
<path d="M321.103 113.155L321.683 111.899C324.894 113.416 326.623 116.958 325.846 120.423C325.068 123.888 321.991 126.351 318.44 126.351C314.888 126.351 311.812 123.888 311.034 120.423C310.256 116.958 311.986 113.416 315.197 111.899L315.776 113.155C313.153 114.4 311.743 117.297 312.382 120.13C313.02 122.962 315.536 124.975 318.44 124.975C321.344 124.975 323.86 122.962 324.498 120.13C325.136 117.297 323.726 114.4 321.103 113.155Z" fill="white"/>
<path fill-rule="evenodd" clip-rule="evenodd" d="M357.356 123.685L362.6 118.441L357.356 113.197L356.712 113.841L361.293 118.441L356.712 123.041L357.356 123.685Z" fill="#A7A4B5"/>
<rect width="345" height="58.88" transform="translate(36 147.88)" fill="#1C1B24"/>
<g clip-path="url(#clip9_5104_172330)">
<path d="M80.16 167.504H50.72V187.128H80.16V167.504Z" fill="#F0F0F0"/>
<path d="M80.16 167.504H50.72V174.045H80.16V167.504Z" fill="#D80027"/>
<path d="M80.16 180.596H50.72V187.137H80.16V180.596Z" fill="#D80027"/>
</g>
<path d="M95.4068 182.82H96.8502L97.9575 179.666H102.341L103.448 182.82H104.892L100.829 171.801H99.4696L95.4068 182.82ZM100.088 173.58H100.21L101.936 178.498H98.3622L100.088 173.58ZM108.654 182.965C109.86 182.965 110.693 182.469 111.097 181.591H111.219V182.82H112.548V174.588H111.219V179.46C111.219 180.903 110.448 181.789 108.997 181.789C107.684 181.789 107.149 181.079 107.149 179.598V174.588H105.82V179.918C105.82 181.866 106.783 182.965 108.654 182.965ZM117.479 182.965C119.35 182.965 120.778 181.95 120.778 180.483V180.468C120.778 179.292 120.029 178.62 118.479 178.246L117.211 177.94C116.241 177.704 115.829 177.352 115.829 176.795V176.78C115.829 176.054 116.547 175.55 117.524 175.55C118.517 175.55 119.159 176.001 119.334 176.65H120.64C120.457 175.306 119.258 174.443 117.532 174.443C115.783 174.443 114.47 175.474 114.47 176.841V176.848C114.47 178.032 115.165 178.704 116.707 179.071L117.983 179.376C118.998 179.621 119.418 180.01 119.418 180.567V180.583C119.418 181.331 118.632 181.858 117.524 181.858C116.471 181.858 115.814 181.408 115.592 180.72H114.233C114.386 182.08 115.646 182.965 117.479 182.965ZM125.311 182.881C125.57 182.881 125.823 182.851 126.082 182.805V181.675C125.838 181.698 125.708 181.705 125.471 181.705C124.616 181.705 124.28 181.316 124.28 180.346V175.688H126.082V174.588H124.28V172.457H122.905V174.588H121.607V175.688H122.905V180.682C122.905 182.255 123.615 182.881 125.311 182.881ZM127.69 182.82H129.019V177.719C129.019 176.512 129.92 175.711 131.188 175.711C131.478 175.711 131.73 175.741 132.005 175.787V174.496C131.875 174.473 131.593 174.443 131.341 174.443C130.226 174.443 129.455 174.947 129.141 175.81H129.019V174.588H127.69V182.82ZM133.973 172.999C134.477 172.999 134.889 172.587 134.889 172.083C134.889 171.579 134.477 171.167 133.973 171.167C133.468 171.167 133.056 171.579 133.056 172.083C133.056 172.587 133.468 172.999 133.973 172.999ZM133.3 182.82H134.629V174.588H133.3V182.82ZM139.017 182.965C140.125 182.965 140.988 182.484 141.507 181.606H141.629V182.82H142.958V177.184C142.958 175.474 141.835 174.443 139.827 174.443C138.07 174.443 136.818 175.313 136.604 176.604L136.597 176.65H137.925L137.933 176.627C138.147 175.985 138.796 175.619 139.781 175.619C141.011 175.619 141.629 176.169 141.629 177.184V177.933L139.269 178.078C137.353 178.192 136.268 179.04 136.268 180.506V180.522C136.268 182.018 137.452 182.965 139.017 182.965ZM137.628 180.491V180.476C137.628 179.659 138.177 179.216 139.43 179.139L141.629 179.002V179.75C141.629 180.926 140.644 181.812 139.292 181.812C138.338 181.812 137.628 181.324 137.628 180.491Z" fill="white"/>
<circle cx="318.44" cy="177.32" r="18.4" fill="#3B3747"/>
<path d="M319.13 169.04H317.75V177.32H319.13V169.04Z" fill="white"/>
<path d="M321.103 172.034L321.683 170.778C324.894 172.296 326.623 175.837 325.846 179.302C325.068 182.768 321.991 185.231 318.44 185.231C314.888 185.231 311.812 182.768 311.034 179.302C310.256 175.837 311.986 172.296 315.197 170.778L315.776 172.034C313.153 173.28 311.743 176.176 312.382 179.009C313.02 181.842 315.536 183.854 318.44 183.854C321.344 183.854 323.86 181.842 324.498 179.009C325.136 176.176 323.726 173.28 321.103 172.034Z" fill="white"/>
<path fill-rule="evenodd" clip-rule="evenodd" d="M357.356 182.564L362.6 177.32L357.356 172.076L356.712 172.72L361.293 177.32L356.712 181.92L357.356 182.564Z" fill="#A7A4B5"/>
<rect width="345" height="58.88" transform="translate(36 206.76)" fill="#1C1B24"/>
<g filter="url(#filter2_i_5104_172330)">
<rect width="345" height="45.08" transform="translate(36 -13.1196)" fill="#1C1B24"/>
</g>
</g>
</g>
</g>
</g>
<defs>
<filter id="filter0_i_5104_172330" x="51.6396" y="-2.96191" width="317.2" height="41.3008" filterUnits="userSpaceOnUse" color-interpolation-filters="sRGB">
<feFlood flood-opacity="0" result="BackgroundImageFix"/>
<feBlend mode="normal" in="SourceGraphic" in2="BackgroundImageFix" result="shape"/>
<feColorMatrix in="SourceAlpha" type="matrix" values="0 0 0 0 0 0 0 0 0 0 0 0 0 0 0 0 0 0 127 0" result="hardAlpha"/>
<feOffset dy="-1"/>
<feComposite in2="hardAlpha" operator="arithmetic" k2="-1" k3="1"/>
<feColorMatrix type="matrix" values="0 0 0 0 0.231373 0 0 0 0 0.215686 0 0 0 0 0.278431 0 0 0 1 0"/>
<feBlend mode="normal" in2="shape" result="effect1_innerShadow_5104_172330"/>
</filter>
<filter id="filter1_dd_5104_172330" x="-111.2" y="-116.16" width="823.4" height="660.56" filterUnits="userSpaceOnUse" color-interpolation-filters="sRGB">
<feFlood flood-opacity="0" result="BackgroundImageFix"/>
<feColorMatrix in="SourceAlpha" type="matrix" values="0 0 0 0 0 0 0 0 0 0 0 0 0 0 0 0 0 0 127 0" result="hardAlpha"/>
<feMorphology radius="9.2" operator="dilate" in="SourceAlpha" result="effect1_dropShadow_5104_172330"/>
<feOffset dx="92" dy="92"/>
<feGaussianBlur stdDeviation="115"/>
<feColorMatrix type="matrix" values="0 0 0 0 0.321569 0 0 0 0 0.219608 0 0 0 0 0.74902 0 0 0 0.25 0"/>
<feBlend mode="multiply" in2="BackgroundImageFix" result="effect1_dropShadow_5104_172330"/>
<feColorMatrix in="SourceAlpha" type="matrix" values="0 0 0 0 0 0 0 0 0 0 0 0 0 0 0 0 0 0 127 0" result="hardAlpha"/>
<feOffset dx="13.8" dy="13.8"/>
<feGaussianBlur stdDeviation="27.6"/>
<feComposite in2="hardAlpha" operator="out"/>
<feColorMatrix type="matrix" values="0 0 0 0 0.321569 0 0 0 0 0.219608 0 0 0 0 0.74902 0 0 0 0.25 0"/>
<feBlend mode="multiply" in2="effect1_dropShadow_5104_172330" result="effect2_dropShadow_5104_172330"/>
<feBlend mode="normal" in="SourceGraphic" in2="effect2_dropShadow_5104_172330" result="shape"/>
</filter>
<filter id="filter2_i_5104_172330" x="36" y="-13.1196" width="345" height="45.0801" filterUnits="userSpaceOnUse" color-interpolation-filters="sRGB">
<feFlood flood-opacity="0" result="BackgroundImageFix"/>
<feBlend mode="normal" in="SourceGraphic" in2="BackgroundImageFix" result="shape"/>
<feColorMatrix in="SourceAlpha" type="matrix" values="0 0 0 0 0 0 0 0 0 0 0 0 0 0 0 0 0 0 127 0" result="hardAlpha"/>
<feOffset dy="-1"/>
<feComposite in2="hardAlpha" operator="arithmetic" k2="-1" k3="1"/>
<feColorMatrix type="matrix" values="0 0 0 0 0.231373 0 0 0 0 0.215686 0 0 0 0 0.278431 0 0 0 1 0"/>
<feBlend mode="normal" in2="shape" result="effect1_innerShadow_5104_172330"/>
</filter>
<linearGradient id="paint0_linear_5104_172330" x1="208" y1="0.222107" x2="413.971" y2="214.469" gradientUnits="userSpaceOnUse">
<stop stop-color="#6D4AFF"/>
<stop offset="1" stop-color="#31D1D0"/>
</linearGradient>
<clipPath id="clip0_5104_172330">
<rect width="416" height="250" fill="white"/>
</clipPath>
<clipPath id="clip1_5104_172330">
<rect width="27.0678" height="27.0678" fill="white" transform="translate(65.1736 50.3276)"/>
</clipPath>
<clipPath id="clip2_5104_172330">
<rect width="27.0678" height="27.0678" fill="white" transform="translate(65.1736 104.463)"/>
</clipPath>
<clipPath id="clip3_5104_172330">
<rect width="27.0678" height="27.0678" fill="white" transform="translate(65.1736 158.599)"/>
</clipPath>
<clipPath id="clip4_5104_172330">
<rect width="27.0678" height="27.0678" fill="white" transform="translate(65.1736 212.734)"/>
</clipPath>
<clipPath id="clip5_5104_172330">
<rect x="36" y="31.04" width="345" height="182.16" rx="7.36" fill="white"/>
</clipPath>
<clipPath id="clip6_5104_172330">
<path d="M36 -129.04C36 -134.121 40.119 -138.24 45.2 -138.24H371.8C376.881 -138.24 381 -134.121 381 -129.04V297.84C381 302.921 376.881 307.04 371.8 307.04H45.2C40.119 307.04 36 302.921 36 297.84V-129.04Z" fill="white"/>
</clipPath>
<clipPath id="clip7_5104_172330">
<rect width="29.44" height="29.44" fill="white" transform="translate(50.72 44.8403)"/>
</clipPath>
<clipPath id="clip8_5104_172330">
<rect width="29.44" height="29.44" fill="white" transform="translate(50.72 103.72)"/>
</clipPath>
<clipPath id="clip9_5104_172330">
<rect width="29.44" height="29.44" fill="white" transform="translate(50.72 162.6)"/>
</clipPath>
</defs>
</svg>
