<svg width="416" height="250" viewBox="0 0 416 250" fill="none" xmlns="http://www.w3.org/2000/svg">
<mask id="mask0_4522_173089" style="mask-type:alpha" maskUnits="userSpaceOnUse" x="0" y="0" width="416" height="250">
<rect width="416" height="250" rx="12" fill="#6D4AFF"/>
</mask>
<g mask="url(#mask0_4522_173089)">
<rect width="416" height="253" rx="12" fill="url(#paint0_linear_4522_173089)"/>
<g filter="url(#filter0_dd_4522_173089)">
<g clip-path="url(#clip0_4522_173089)">
<path d="M35.9453 -120.92C35.9453 -126.443 40.4225 -130.92 45.9453 -130.92H371.054C376.577 -130.92 381.054 -126.443 381.054 -120.92V304.5C381.054 310.023 376.577 314.5 371.054 314.5H45.9453C40.4225 314.5 35.9453 310.023 35.9453 304.5V-120.92Z" fill="#1C1B24"/>
<g clip-path="url(#clip1_4522_173089)">
<path d="M72.2968 53.271C84.241 53.271 93.9236 43.5884 93.9236 31.6442C93.9236 19.7 84.241 10.0174 72.2968 10.0174C60.3526 10.0174 50.67 19.7 50.67 31.6442C50.67 43.5884 60.3526 53.271 72.2968 53.271Z" fill="#1C1B24" stroke="white" stroke-width="0.92029"/>
<path d="M90.7025 31.6446C90.7025 41.8098 82.4619 50.0504 72.2967 50.0504C62.1314 50.0504 53.8909 41.8098 53.8909 31.6446C53.8909 21.4793 62.1314 13.2388 72.2967 13.2388C82.4619 13.2388 90.7025 21.4793 90.7025 31.6446Z" fill="#8080FF"/>
<circle cx="131.195" cy="31.6446" r="18.4058" fill="#DB60D6"/>
<circle cx="190.094" cy="31.6446" r="18.4058" fill="#EC3E7C"/>
<circle cx="248.992" cy="31.6446" r="18.4058" fill="#F78400"/>
<circle cx="307.891" cy="31.6446" r="18.4058" fill="#936D58"/>
<rect width="345.109" height="44.1739" transform="translate(35.9453 72.1372)" fill="#292733"/>
<g clip-path="url(#clip2_4522_173089)">
<path d="M52.0755 100.181H53.4353V91.6325H53.5575L59.5389 100.181H60.8758V89.1574H59.516V97.7361H59.3938L53.4124 89.1574H52.0755V100.181ZM65.4028 100.326C66.5105 100.326 67.3737 99.8445 67.8931 98.966H68.0154V100.181H69.3446V94.543C69.3446 92.8318 68.2216 91.8005 66.2125 91.8005C64.4555 91.8005 63.2027 92.6714 62.9888 93.9624L62.9812 94.0083H64.3104L64.318 93.9853C64.5319 93.3436 65.1813 92.977 66.1667 92.977C67.3966 92.977 68.0154 93.527 68.0154 94.543V95.2916L65.6549 95.4368C63.7375 95.5514 62.6527 96.3993 62.6527 97.866V97.8813C62.6527 99.3786 63.8368 100.326 65.4028 100.326ZM64.0125 97.8507V97.8355C64.0125 97.0181 64.5625 96.575 65.8153 96.4986L68.0154 96.3611V97.1097C68.0154 98.2862 67.0299 99.1723 65.6778 99.1723C64.7229 99.1723 64.0125 98.6834 64.0125 97.8507ZM71.3965 100.181H72.7257V95.0777C72.7257 93.9166 73.5431 92.977 74.6202 92.977C75.6591 92.977 76.3314 93.611 76.3314 94.5888V100.181H77.6606V94.8868C77.6606 93.8402 78.4169 92.977 79.5627 92.977C80.7239 92.977 81.2815 93.5805 81.2815 94.7951V100.181H82.6107V94.4895C82.6107 92.7631 81.6711 91.8005 79.9905 91.8005C78.8523 91.8005 77.9127 92.3735 77.4696 93.2443H77.3474C76.9654 92.3888 76.1862 91.8005 75.0709 91.8005C73.9938 91.8005 73.2146 92.3124 72.8479 93.1985H72.7257V91.9457H71.3965V100.181ZM87.9933 100.326C89.9337 100.326 91.1101 99.2258 91.3927 98.1105L91.408 98.0493H90.0788L90.0482 98.1181C89.8267 98.6146 89.1392 99.1417 88.0239 99.1417C86.5572 99.1417 85.6176 98.1487 85.5794 96.4451H91.5073V95.9257C91.5073 93.4659 90.1476 91.8005 87.9093 91.8005C85.671 91.8005 84.2196 93.5423 84.2196 96.0861V96.0937C84.2196 98.6758 85.6405 100.326 87.9933 100.326ZM87.9017 92.9846C89.1163 92.9846 90.0177 93.7562 90.1552 95.3833H85.6023C85.7474 93.8173 86.6794 92.9846 87.9017 92.9846Z" fill="white"/>
</g>
<rect x="35.9453" y="115.391" width="345.109" height="0.92029" fill="#3B3747"/>
<path d="M311.891 100.181H313.266V95.4062H318.148V94.184H313.266V90.3949H318.583V89.1574H311.891V100.181ZM322.025 100.326C323.133 100.326 323.996 99.8445 324.516 98.966H324.638V100.181H325.967V94.543C325.967 92.8318 324.844 91.8005 322.835 91.8005C321.078 91.8005 319.825 92.6714 319.611 93.9624L319.604 94.0083H320.933L320.94 93.9853C321.154 93.3436 321.804 92.977 322.789 92.977C324.019 92.977 324.638 93.527 324.638 94.543V95.2916L322.277 95.4368C320.36 95.5514 319.275 96.3993 319.275 97.866V97.8813C319.275 99.3786 320.459 100.326 322.025 100.326ZM320.635 97.8507V97.8355C320.635 97.0181 321.185 96.575 322.438 96.4986L324.638 96.3611V97.1097C324.638 98.2862 323.652 99.1723 322.3 99.1723C321.345 99.1723 320.635 98.6834 320.635 97.8507ZM330.043 100.181H331.388L334.436 91.9457H333.03L330.777 98.7292H330.654L328.401 91.9457H326.995L330.043 100.181ZM338.894 100.326C341.239 100.326 342.691 98.7063 342.691 96.0708V96.0555C342.691 93.4124 341.239 91.8005 338.894 91.8005C336.549 91.8005 335.097 93.4124 335.097 96.0555V96.0708C335.097 98.7063 336.549 100.326 338.894 100.326ZM338.894 99.1494C337.336 99.1494 336.457 98.0112 336.457 96.0708V96.0555C336.457 94.1076 337.336 92.977 338.894 92.977C340.452 92.977 341.331 94.1076 341.331 96.0555V96.0708C341.331 98.0112 340.452 99.1494 338.894 99.1494ZM344.376 100.181H345.705V95.0777C345.705 93.8707 346.607 93.0686 347.875 93.0686C348.165 93.0686 348.417 93.0992 348.692 93.145V91.854C348.562 91.8311 348.28 91.8005 348.027 91.8005C346.912 91.8005 346.141 92.3047 345.827 93.1679H345.705V91.9457H344.376V100.181ZM350.66 90.3567C351.164 90.3567 351.577 89.9442 351.577 89.4401C351.577 88.9359 351.164 88.5234 350.66 88.5234C350.156 88.5234 349.743 88.9359 349.743 89.4401C349.743 89.9442 350.156 90.3567 350.66 90.3567ZM349.988 100.181H351.317V91.9457H349.988V100.181ZM356.371 100.242C356.631 100.242 356.883 100.211 357.143 100.165V99.0348C356.898 99.0577 356.768 99.0654 356.531 99.0654C355.676 99.0654 355.34 98.6758 355.34 97.7056V93.0457H357.143V91.9457H355.34V89.8144H353.965V91.9457H352.666V93.0457H353.965V98.0417C353.965 99.6154 354.675 100.242 356.371 100.242ZM361.99 100.326C363.931 100.326 365.107 99.2258 365.39 98.1105L365.405 98.0493H364.076L364.045 98.1181C363.824 98.6146 363.136 99.1417 362.021 99.1417C360.554 99.1417 359.615 98.1487 359.576 96.4451H365.504V95.9257C365.504 93.4659 364.145 91.8005 361.906 91.8005C359.668 91.8005 358.217 93.5423 358.217 96.0861V96.0937C358.217 98.6758 359.638 100.326 361.99 100.326ZM361.899 92.9846C363.113 92.9846 364.015 93.7562 364.152 95.3833H359.599C359.745 93.8173 360.676 92.9846 361.899 92.9846Z" fill="white"/>
<g filter="url(#filter1_i_4522_173089)">
<rect width="345.109" height="45.087" transform="translate(35.9453 116.312)" fill="#292733"/>
<path d="M55.6888 144.615C58.1486 144.615 59.7605 143.331 59.7605 141.269V141.261C59.7605 139.672 58.8514 138.748 56.552 138.236L55.3298 137.961C53.8325 137.633 53.229 137.037 53.229 136.158V136.151C53.229 134.997 54.2909 134.348 55.6659 134.34C57.1021 134.332 58.0188 135.051 58.1715 136.021L58.1868 136.12H59.5619L59.5542 136.013C59.4396 134.371 57.9042 133.072 55.7041 133.072C53.4276 133.072 51.8311 134.363 51.8234 136.189V136.196C51.8234 137.793 52.7783 138.809 54.986 139.298L56.2083 139.565C57.7208 139.901 58.3549 140.528 58.3549 141.444V141.452C58.3549 142.575 57.2625 143.347 55.7652 143.347C54.1763 143.347 53.0304 142.651 52.9311 141.551L52.9235 141.467H51.5484L51.5561 141.551C51.7165 143.347 53.2749 144.615 55.6888 144.615ZM64.8681 144.5C66.8084 144.5 67.9848 143.4 68.2675 142.285L68.2827 142.224H66.9535L66.923 142.292C66.7014 142.789 66.0139 143.316 64.8986 143.316C63.4319 143.316 62.4923 142.323 62.4541 140.619H68.3821V140.1C68.3821 137.64 67.0223 135.975 64.784 135.975C62.5458 135.975 61.0943 137.717 61.0943 140.26V140.268C61.0943 142.85 62.5152 144.5 64.8681 144.5ZM64.7764 137.159C65.991 137.159 66.8924 137.93 67.0299 139.558H62.477C62.6222 137.992 63.5541 137.159 64.7764 137.159ZM73.4362 144.5C75.4147 144.5 76.5224 143.438 76.8585 141.949L76.8738 141.865L75.5598 141.872L75.5445 141.918C75.239 142.835 74.5362 143.324 73.4285 143.324C71.9618 143.324 71.0145 142.109 71.0145 140.215V140.199C71.0145 138.343 71.9465 137.151 73.4285 137.151C74.6126 137.151 75.3459 137.808 75.5522 138.618L75.5598 138.641H76.8814L76.8738 138.595C76.6293 137.128 75.43 135.975 73.4285 135.975C71.1215 135.975 69.6548 137.64 69.6548 140.199V140.215C69.6548 142.827 71.1291 144.5 73.4362 144.5ZM81.2021 144.5C82.4091 144.5 83.2418 144.004 83.6467 143.125H83.7689V144.355H85.0981V136.12H83.7689V140.994C83.7689 142.438 82.9973 143.324 81.5459 143.324C80.232 143.324 79.6972 142.613 79.6972 141.131V136.12H78.368V141.452C78.368 143.4 79.3306 144.5 81.2021 144.5ZM87.2035 144.355H88.5327V139.252C88.5327 138.045 89.4341 137.243 90.7022 137.243C90.9925 137.243 91.2446 137.274 91.5196 137.319V136.028C91.3897 136.005 91.1071 135.975 90.855 135.975C89.7397 135.975 88.9681 136.479 88.6549 137.342H88.5327V136.12H87.2035V144.355ZM95.9167 144.5C97.8571 144.5 99.0335 143.4 99.3161 142.285L99.3314 142.224H98.0022L97.9717 142.292C97.7501 142.789 97.0626 143.316 95.9473 143.316C94.4806 143.316 93.541 142.323 93.5028 140.619H99.4307V140.1C99.4307 137.64 98.071 135.975 95.8327 135.975C93.5944 135.975 92.143 137.717 92.143 140.26V140.268C92.143 142.85 93.5639 144.5 95.9167 144.5ZM95.8251 137.159C97.0397 137.159 97.9411 137.93 98.0786 139.558H93.5257C93.6708 137.992 94.6028 137.159 95.8251 137.159ZM109.745 144.615C112.09 144.615 113.832 143.308 114.199 141.292V141.276H112.808L112.793 141.292C112.449 142.56 111.281 143.347 109.745 143.347C107.622 143.347 106.292 141.613 106.292 138.855V138.84C106.292 136.082 107.622 134.34 109.738 134.34C111.258 134.34 112.434 135.234 112.801 136.647L112.808 136.662H114.191L114.199 136.647C113.87 134.531 112.06 133.072 109.738 133.072C106.743 133.072 104.879 135.287 104.879 138.84V138.855C104.879 142.399 106.751 144.615 109.745 144.615ZM119.345 144.5C121.69 144.5 123.141 142.881 123.141 140.245V140.23C123.141 137.587 121.69 135.975 119.345 135.975C116.999 135.975 115.548 137.587 115.548 140.23V140.245C115.548 142.881 116.999 144.5 119.345 144.5ZM119.345 143.324C117.786 143.324 116.908 142.185 116.908 140.245V140.23C116.908 138.282 117.786 137.151 119.345 137.151C120.903 137.151 121.781 138.282 121.781 140.23V140.245C121.781 142.185 120.903 143.324 119.345 143.324ZM124.826 144.355H126.156V139.252C126.156 138.045 127.057 137.243 128.325 137.243C128.615 137.243 128.868 137.274 129.143 137.319V136.028C129.013 136.005 128.73 135.975 128.478 135.975C127.363 135.975 126.591 136.479 126.278 137.342H126.156V136.12H124.826V144.355ZM133.54 144.5C135.48 144.5 136.656 143.4 136.939 142.285L136.954 142.224H135.625L135.595 142.292C135.373 142.789 134.686 143.316 133.57 143.316C132.104 143.316 131.164 142.323 131.126 140.619H137.054V140.1C137.054 137.64 135.694 135.975 133.456 135.975C131.217 135.975 129.766 137.717 129.766 140.26V140.268C129.766 142.85 131.187 144.5 133.54 144.5ZM133.448 137.159C134.663 137.159 135.564 137.93 135.702 139.558H131.149C131.294 137.992 132.226 137.159 133.448 137.159Z" fill="white"/>
<rect x="327.982" y="127.355" width="38.6522" height="22.087" rx="11.0435" fill="#6D4AFF"/>
<circle cx="355.591" cy="138.399" r="9.2029" fill="white"/>
</g>
<rect width="345.109" height="44.1739" transform="translate(35.9453 161.398)" fill="#292733"/>
<g clip-path="url(#clip3_4522_173089)">
<path d="M56.5139 189.702C58.8591 189.702 60.6008 188.395 60.9675 186.379V186.363H59.5771L59.5619 186.379C59.2181 187.647 58.0493 188.434 56.5139 188.434C54.3902 188.434 53.061 186.699 53.061 183.942V183.926C53.061 181.169 54.3902 179.427 56.5062 179.427C58.0264 179.427 59.2028 180.321 59.5695 181.734L59.5771 181.749H60.9598L60.9675 181.734C60.639 179.618 58.8285 178.159 56.5062 178.159C53.5117 178.159 51.6477 180.374 51.6477 183.926V183.942C51.6477 187.486 53.5193 189.702 56.5139 189.702ZM66.1132 189.587C68.4584 189.587 69.9099 187.968 69.9099 185.332V185.317C69.9099 182.674 68.4584 181.062 66.1132 181.062C63.768 181.062 62.3166 182.674 62.3166 185.317V185.332C62.3166 187.968 63.768 189.587 66.1132 189.587ZM66.1132 188.411C64.5548 188.411 63.6763 187.272 63.6763 185.332V185.317C63.6763 183.369 64.5548 182.238 66.1132 182.238C67.6716 182.238 68.5501 183.369 68.5501 185.317V185.332C68.5501 187.272 67.6716 188.411 66.1132 188.411ZM74.3528 189.587C75.5598 189.587 76.3925 189.09 76.7974 188.212H76.9196V189.442H78.2488V181.207H76.9196V186.081C76.9196 187.524 76.148 188.411 74.6966 188.411C73.3827 188.411 72.8479 187.7 72.8479 186.218V181.207H71.5187V186.539C71.5187 188.487 72.4813 189.587 74.3528 189.587ZM80.3542 189.442H81.6834V184.568C81.6834 183.124 82.5161 182.238 83.83 182.238C85.1439 182.238 85.7551 182.949 85.7551 184.431V189.442H87.0843V184.11C87.0843 182.154 86.053 181.062 84.2043 181.062C82.9897 181.062 82.2181 181.574 81.8056 182.444H81.6834V181.207H80.3542V189.442ZM92.0391 189.503C92.2988 189.503 92.5509 189.472 92.8106 189.427V188.296C92.5662 188.319 92.4363 188.327 92.1995 188.327C91.3439 188.327 91.0078 187.937 91.0078 186.967V182.307H92.8106V181.207H91.0078V179.076H89.6327V181.207H88.3341V182.307H89.6327V187.303C89.6327 188.877 90.3432 189.503 92.0391 189.503ZM94.4195 189.442H95.7487V184.339C95.7487 183.132 96.6501 182.33 97.9182 182.33C98.2085 182.33 98.4606 182.36 98.7356 182.406V181.115C98.6057 181.092 98.3231 181.062 98.071 181.062C96.9557 181.062 96.1841 181.566 95.8709 182.429H95.7487V181.207H94.4195V189.442ZM100.78 192.329C102.239 192.329 102.919 191.795 103.599 189.946L106.815 181.207H105.417L103.163 187.983H103.041L100.78 181.207H99.359L102.407 189.45L102.254 189.938C101.956 190.886 101.498 191.229 100.742 191.229C100.558 191.229 100.352 191.222 100.192 191.191V192.284C100.375 192.314 100.604 192.329 100.78 192.329Z" fill="white"/>
</g>
<rect x="35.9453" y="204.652" width="345.109" height="0.92029" fill="#3B3747"/>
<g clip-path="url(#clip4_4522_173089)">
<path d="M293.199 177.804H274.793V190.073H293.199V177.804Z" fill="#6DA544"/>
<path d="M283.996 180.554L288.597 183.942L283.996 187.329L279.395 183.942L283.996 180.554Z" fill="#FFDA44"/>
<path d="M285.935 184.001C285.968 182.931 285.128 182.037 284.058 182.003C282.988 181.97 282.093 182.81 282.06 183.88C282.026 184.95 282.867 185.844 283.937 185.878C285.007 185.911 285.901 185.071 285.935 184.001Z" fill="#F0F0F0"/>
<path d="M283.03 183.821C282.701 183.821 282.373 183.87 282.058 183.965C282.063 184.375 282.198 184.772 282.444 185.101C282.69 185.429 283.033 185.671 283.425 185.792C283.817 185.913 284.237 185.906 284.625 185.773C285.013 185.64 285.348 185.388 285.584 185.052C285.278 184.668 284.889 184.358 284.447 184.145C284.005 183.932 283.521 183.821 283.03 183.821Z" fill="#0052B4"/>
<path d="M285.9 184.31C285.923 184.188 285.935 184.065 285.934 183.942C285.932 183.497 285.778 183.066 285.496 182.722C285.214 182.378 284.823 182.141 284.387 182.052C283.951 181.962 283.498 182.025 283.103 182.23C282.709 182.434 282.396 182.769 282.219 183.177C282.486 183.123 282.757 183.096 283.03 183.096C283.565 183.097 284.094 183.206 284.587 183.414C285.08 183.622 285.526 183.927 285.9 184.31Z" fill="#0052B4"/>
</g>
<path d="M302.724 189.442H307.025C309.37 189.442 310.761 188.288 310.761 186.356V186.34C310.761 184.889 309.806 183.858 308.301 183.667V183.544C309.363 183.354 310.203 182.315 310.203 181.176V181.161C310.203 179.48 308.966 178.419 306.941 178.419H302.724V189.442ZM306.651 179.633C308.018 179.633 308.813 180.283 308.813 181.398V181.413C308.813 182.574 307.965 183.17 306.3 183.17H304.099V179.633H306.651ZM306.689 184.354C308.446 184.354 309.348 185.004 309.348 186.272V186.287C309.348 187.555 308.477 188.227 306.819 188.227H304.099V184.354H306.689ZM312.461 189.442H313.791V184.339C313.791 183.132 314.692 182.33 315.96 182.33C316.25 182.33 316.502 182.36 316.777 182.406V181.115C316.648 181.092 316.365 181.062 316.113 181.062C314.997 181.062 314.226 181.566 313.913 182.429H313.791V181.207H312.461V189.442ZM320.304 189.587C321.411 189.587 322.275 189.106 322.794 188.227H322.916V189.442H324.245V183.804C324.245 182.093 323.123 181.062 321.113 181.062C319.356 181.062 318.104 181.933 317.89 183.224L317.882 183.269H319.211L319.219 183.247C319.433 182.605 320.082 182.238 321.068 182.238C322.297 182.238 322.916 182.788 322.916 183.804V184.553L320.556 184.698C318.638 184.813 317.554 185.661 317.554 187.127V187.143C317.554 188.64 318.738 189.587 320.304 189.587ZM318.913 187.112V187.097C318.913 186.279 319.463 185.836 320.716 185.76L322.916 185.622V186.371C322.916 187.547 321.931 188.434 320.579 188.434C319.624 188.434 318.913 187.945 318.913 187.112ZM326.106 189.442H332.447V188.342H327.695V188.22L332.424 182.192V181.207H326.114V182.307H330.858V182.429L326.106 188.479V189.442ZM335.056 179.618C335.561 179.618 335.973 179.205 335.973 178.701C335.973 178.197 335.561 177.785 335.056 177.785C334.552 177.785 334.14 178.197 334.14 178.701C334.14 179.205 334.552 179.618 335.056 179.618ZM334.384 189.442H335.713V181.207H334.384V189.442ZM337.918 189.442H339.247V177.937H337.918V189.442Z" fill="white"/>
<path fill-rule="evenodd" clip-rule="evenodd" d="M357.403 189.188L362.648 183.942L357.403 178.697L356.758 179.341L361.341 183.942L356.758 188.544L357.403 189.188Z" fill="#6D697D"/>
<rect width="345.109" height="44.1739" transform="translate(35.9453 205.572)" fill="#292733"/>
<g clip-path="url(#clip5_4522_173089)">
<path d="M55.6888 233.875C58.1486 233.875 59.7605 232.592 59.7605 230.53V230.522C59.7605 228.933 58.8514 228.009 56.552 227.497L55.3298 227.222C53.8325 226.893 53.229 226.297 53.229 225.419V225.411C53.229 224.258 54.2909 223.608 55.6659 223.601C57.1021 223.593 58.0188 224.311 58.1715 225.281L58.1868 225.381H59.5619L59.5542 225.274C59.4396 223.631 57.9042 222.333 55.7041 222.333C53.4276 222.333 51.8311 223.624 51.8234 225.449V225.457C51.8234 227.054 52.7783 228.07 54.986 228.559L56.2083 228.826C57.7208 229.162 58.3549 229.789 58.3549 230.705V230.713C58.3549 231.836 57.2625 232.607 55.7652 232.607C54.1763 232.607 53.0304 231.912 52.9311 230.812L52.9235 230.728H51.5484L51.5561 230.812C51.7165 232.607 53.2749 233.875 55.6888 233.875ZM64.8681 233.761C66.8084 233.761 67.9848 232.661 68.2675 231.546L68.2827 231.484H66.9535L66.923 231.553C66.7014 232.05 66.0139 232.577 64.8986 232.577C63.4319 232.577 62.4923 231.584 62.4541 229.88H68.3821V229.361C68.3821 226.901 67.0223 225.236 64.784 225.236C62.5458 225.236 61.0943 226.977 61.0943 229.521V229.529C61.0943 232.111 62.5152 233.761 64.8681 233.761ZM64.7764 226.42C65.991 226.42 66.8924 227.191 67.0299 228.818H62.477C62.6222 227.252 63.5541 226.42 64.7764 226.42ZM70.0673 233.616H71.3965V228.513C71.3965 227.306 72.2979 226.504 73.566 226.504C73.8563 226.504 74.1084 226.534 74.3834 226.58V225.289C74.2535 225.266 73.9709 225.236 73.7188 225.236C72.6035 225.236 71.8319 225.74 71.5187 226.603H71.3965V225.381H70.0673V233.616ZM78.0548 233.616H79.3993L82.4473 225.381H81.0417L78.7882 232.164H78.6659L76.4124 225.381H75.0068L78.0548 233.616ZM86.8826 233.761C88.823 233.761 89.9994 232.661 90.2821 231.546L90.2973 231.484H88.9681L88.9376 231.553C88.716 232.05 88.0285 232.577 86.9132 232.577C85.4465 232.577 84.5069 231.584 84.4687 229.88H90.3966V229.361C90.3966 226.901 89.0369 225.236 86.7986 225.236C84.5604 225.236 83.1089 226.977 83.1089 229.521V229.529C83.1089 232.111 84.5298 233.761 86.8826 233.761ZM86.791 226.42C88.0056 226.42 88.907 227.191 89.0445 228.818H84.4916C84.6367 227.252 85.5687 226.42 86.791 226.42ZM92.0819 233.616H93.4111V228.513C93.4111 227.306 94.3125 226.504 95.5806 226.504C95.8709 226.504 96.123 226.534 96.398 226.58V225.289C96.2681 225.266 95.9855 225.236 95.7334 225.236C94.6181 225.236 93.8465 225.74 93.5333 226.603H93.4111V225.381H92.0819V233.616Z" fill="white"/>
</g>
<rect x="35.9453" y="248.826" width="345.109" height="0.92029" fill="#3B3747"/>
<path d="M248.776 233.616H250.12L253.168 225.381H251.763L249.509 232.164H249.387L247.134 225.381H245.728L248.776 233.616ZM255.251 223.792C255.755 223.792 256.168 223.379 256.168 222.875C256.168 222.371 255.755 221.958 255.251 221.958C254.747 221.958 254.334 222.371 254.334 222.875C254.334 223.379 254.747 223.792 255.251 223.792ZM254.579 233.616H255.908V225.381H254.579V233.616ZM260.297 233.761C261.405 233.761 262.268 233.28 262.788 232.401H262.91V233.616H264.239V227.978C264.239 226.267 263.116 225.236 261.107 225.236C259.35 225.236 258.097 226.106 257.883 227.397L257.876 227.443H259.205L259.213 227.42C259.427 226.779 260.076 226.412 261.061 226.412C262.291 226.412 262.91 226.962 262.91 227.978V228.727L260.55 228.872C258.632 228.986 257.547 229.834 257.547 231.301V231.316C257.547 232.814 258.731 233.761 260.297 233.761ZM258.907 231.286V231.271C258.907 230.453 259.457 230.01 260.71 229.934L262.91 229.796V230.545C262.91 231.721 261.925 232.607 260.572 232.607C259.618 232.607 258.907 232.118 258.907 231.286Z" fill="white"/>
<g clip-path="url(#clip6_4522_173089)">
<path d="M291.199 219.681H272.793V231.95H291.199V219.681Z" fill="#0052B4"/>
<path d="M291.199 227.251H280.064V231.956H279.396H277.861H277.193V227.251H272.793V226.583V225.053V224.386H277.193V219.681H277.861H279.396H280.064V224.386H291.199V225.053V226.583V227.251Z" fill="#F0F0F0"/>
<path d="M291.199 225.053V226.583H279.396V231.956H277.861V226.583H272.793V225.053H277.861V219.681H279.396V225.053H291.199Z" fill="#D80027"/>
</g>
<path d="M300.142 233.616H301.517V222.592H300.142V233.616ZM306.61 233.761C308.481 233.761 309.91 232.745 309.91 231.278V231.263C309.91 230.086 309.161 229.414 307.61 229.04L306.342 228.734C305.372 228.498 304.96 228.146 304.96 227.588V227.573C304.96 226.847 305.678 226.343 306.656 226.343C307.649 226.343 308.29 226.794 308.466 227.443H309.772C309.589 226.099 308.39 225.236 306.663 225.236C304.914 225.236 303.6 226.267 303.6 227.634V227.642C303.6 228.826 304.295 229.498 305.838 229.865L307.114 230.17C308.13 230.415 308.55 230.805 308.55 231.362V231.377C308.55 232.126 307.763 232.653 306.656 232.653C305.601 232.653 304.944 232.202 304.723 231.515H303.363C303.516 232.875 304.776 233.761 306.61 233.761ZM311.671 233.616H313.001V222.111H311.671V233.616ZM317.436 233.761C318.544 233.761 319.407 233.28 319.926 232.401H320.049V233.616H321.378V227.978C321.378 226.267 320.255 225.236 318.246 225.236C316.489 225.236 315.236 226.106 315.022 227.397L315.014 227.443H316.344L316.351 227.42C316.565 226.779 317.214 226.412 318.2 226.412C319.43 226.412 320.049 226.962 320.049 227.978V228.727L317.688 228.872C315.771 228.986 314.686 229.834 314.686 231.301V231.316C314.686 232.814 315.87 233.761 317.436 233.761ZM316.046 231.286V231.271C316.046 230.453 316.596 230.01 317.849 229.934L320.049 229.796V230.545C320.049 231.721 319.063 232.607 317.711 232.607C316.756 232.607 316.046 232.118 316.046 231.286ZM323.43 233.616H324.759V228.742C324.759 227.298 325.592 226.412 326.906 226.412C328.219 226.412 328.831 227.122 328.831 228.604V233.616H330.16V228.284C330.16 226.328 329.129 225.236 327.28 225.236C326.065 225.236 325.294 225.747 324.881 226.618H324.759V225.381H323.43V233.616ZM335.229 233.761C336.375 233.761 337.292 233.218 337.796 232.302H337.918V233.616H339.247V222.111H337.918V226.679H337.796C337.345 225.801 336.36 225.236 335.229 225.236C333.136 225.236 331.776 226.909 331.776 229.491V229.506C331.776 232.073 333.144 233.761 335.229 233.761ZM335.535 232.584C334.03 232.584 333.136 231.423 333.136 229.506V229.491C333.136 227.573 334.03 226.412 335.535 226.412C337.032 226.412 337.949 227.588 337.949 229.491V229.506C337.949 231.408 337.032 232.584 335.535 232.584Z" fill="white"/>
<path fill-rule="evenodd" clip-rule="evenodd" d="M357.403 233.361L362.648 228.116L357.403 222.87L356.758 223.514L361.341 228.116L356.758 232.717L357.403 233.361Z" fill="#6D697D"/>
<rect width="345.109" height="44.1739" transform="translate(35.9453 249.746)" fill="#292733"/>
</g>
</g>
</g>
</g>
<defs>
<filter id="filter0_dd_4522_173089" x="-124.055" y="-290.92" width="865.109" height="965.42" filterUnits="userSpaceOnUse" color-interpolation-filters="sRGB">
<feFlood flood-opacity="0" result="BackgroundImageFix"/>
<feColorMatrix in="SourceAlpha" type="matrix" values="0 0 0 0 0 0 0 0 0 0 0 0 0 0 0 0 0 0 127 0" result="hardAlpha"/>
<feMorphology radius="10" operator="dilate" in="SourceAlpha" result="effect1_dropShadow_4522_173089"/>
<feOffset dx="100" dy="100"/>
<feGaussianBlur stdDeviation="125"/>
<feColorMatrix type="matrix" values="0 0 0 0 0.321569 0 0 0 0 0.219608 0 0 0 0 0.74902 0 0 0 0.25 0"/>
<feBlend mode="multiply" in2="BackgroundImageFix" result="effect1_dropShadow_4522_173089"/>
<feColorMatrix in="SourceAlpha" type="matrix" values="0 0 0 0 0 0 0 0 0 0 0 0 0 0 0 0 0 0 127 0" result="hardAlpha"/>
<feOffset dx="15" dy="15"/>
<feGaussianBlur stdDeviation="30"/>
<feComposite in2="hardAlpha" operator="out"/>
<feColorMatrix type="matrix" values="0 0 0 0 0.321569 0 0 0 0 0.219608 0 0 0 0 0.74902 0 0 0 0.25 0"/>
<feBlend mode="multiply" in2="effect1_dropShadow_4522_173089" result="effect2_dropShadow_4522_173089"/>
<feBlend mode="normal" in="SourceGraphic" in2="effect2_dropShadow_4522_173089" result="shape"/>
</filter>
<filter id="filter1_i_4522_173089" x="35.9453" y="116.312" width="345.109" height="45.0869" filterUnits="userSpaceOnUse" color-interpolation-filters="sRGB">
<feFlood flood-opacity="0" result="BackgroundImageFix"/>
<feBlend mode="normal" in="SourceGraphic" in2="BackgroundImageFix" result="shape"/>
<feColorMatrix in="SourceAlpha" type="matrix" values="0 0 0 0 0 0 0 0 0 0 0 0 0 0 0 0 0 0 127 0" result="hardAlpha"/>
<feOffset dy="-1"/>
<feComposite in2="hardAlpha" operator="arithmetic" k2="-1" k3="1"/>
<feColorMatrix type="matrix" values="0 0 0 0 0.231373 0 0 0 0 0.215686 0 0 0 0 0.278431 0 0 0 1 0"/>
<feBlend mode="normal" in2="shape" result="effect1_innerShadow_4522_173089"/>
</filter>
<linearGradient id="paint0_linear_4522_173089" x1="208" y1="0.222107" x2="413.971" y2="214.469" gradientUnits="userSpaceOnUse">
<stop stop-color="#6D4AFF"/>
<stop offset="1" stop-color="#31D1D0"/>
</linearGradient>
<clipPath id="clip0_4522_173089">
<path d="M35.9453 -120.92C35.9453 -126.443 40.4225 -130.92 45.9453 -130.92H371.054C376.577 -130.92 381.054 -126.443 381.054 -120.92V304.5C381.054 310.023 376.577 314.5 371.054 314.5H45.9453C40.4225 314.5 35.9453 310.023 35.9453 304.5V-120.92Z" fill="white"/>
</clipPath>
<clipPath id="clip1_4522_173089">
<rect width="345.109" height="622.116" fill="white" transform="translate(35.9453 -49.9351)"/>
</clipPath>
<clipPath id="clip2_4522_173089">
<rect width="158.29" height="23" fill="white" transform="translate(50.6699 83.1807)"/>
</clipPath>
<clipPath id="clip3_4522_173089">
<rect width="158.29" height="23" fill="white" transform="translate(50.6699 172.442)"/>
</clipPath>
<clipPath id="clip4_4522_173089">
<rect width="18.4058" height="18.4058" fill="white" transform="translate(274.793 174.739)"/>
</clipPath>
<clipPath id="clip5_4522_173089">
<rect width="158.29" height="23" fill="white" transform="translate(50.6699 216.616)"/>
</clipPath>
<clipPath id="clip6_4522_173089">
<rect width="18.4058" height="18.4058" fill="white" transform="translate(272.793 216.616)"/>
</clipPath>
</defs>
</svg>
