<svg xmlns="http://www.w3.org/2000/svg" fill="none" viewBox="0 0 134 19" width="134" height="19"><path fill="#000461" d="M7.54 1H0v17.71h3.45V12.2h4.09c3.34 0 6.14-1.97 6.14-5.6 0-3.64-2.8-5.59-6.14-5.59zm-4.1 8.05v-4.9h3.59c1.88 0 3.15.85 3.15 2.43 0 1.59-1.27 2.47-3.18 2.47H3.45zm15.25 9.66v-6.83c0-1.69.8-2.52 2.69-2.52.16 0 .51 0 .91.03V6.43a7.06 7.06 0 0 0-1.7-.18c-3.55 0-5.32 2.33-5.32 5.27v7.2h3.42zM30.1 19c3.94 0 6.77-2.78 6.77-6.39s-2.83-6.36-6.76-6.36c-3.93 0-6.76 2.75-6.76 6.36 0 3.61 2.83 6.39 6.76 6.39zm0-2.88c-1.96 0-3.38-1.43-3.38-3.51 0-2.05 1.42-3.5 3.39-3.5 1.96 0 3.39 1.45 3.39 3.5 0 2.08-1.43 3.5-3.4 3.5zM46.8 6.5h-3.69V2.39H39.7V6.5h-2.3v2.62h2.3v4.99c0 3.14 1.93 4.8 4.79 4.8.67 0 1.29-.1 1.99-.28v-2.68c-.51.03-.92.03-1.08.03-1.7 0-2.29-.73-2.29-2.31V9.13h3.7V6.51zM54.62 19c3.93 0 6.75-2.78 6.75-6.39s-2.82-6.36-6.75-6.36S47.86 9 47.86 12.6c0 3.61 2.83 6.39 6.76 6.39zm0-2.88c-1.97 0-3.4-1.43-3.4-3.51 0-2.05 1.43-3.5 3.4-3.5 1.96 0 3.39 1.45 3.39 3.5 0 2.08-1.43 3.5-3.4 3.5zm11.98 2.59v-6.67c0-1.8.84-2.91 2.5-2.91 1.67 0 2.5 1.12 2.5 2.9v6.68H75v-6.93c0-3.22-2.13-5.53-5.9-5.53-3.8 0-5.92 2.3-5.92 5.53v6.93h3.42z"/><path fill="#6D4AFF" d="M88.5 18.7V6.5c0-.4 0-.73-.06-1.2h.05c.14.42.27.8.46 1.25l5.02 11.94h2.9l5.01-11.94c.2-.46.33-.83.44-1.26h.05c-.05.48-.05.8-.05 1.2v12.22h3.52V.48H101l-4.53 10.93c-.4.99-.79 1.95-1.03 2.8h-.06c-.24-.85-.63-1.81-1.03-2.8L89.83.48H85v18.23h3.5zm26.42-12.82c-3.9 0-6.8 2.8-6.8 6.55 0 3.95 2.79 6.57 6.14 6.57 1.85 0 3.33-.8 4.15-2.16l.22 1.87h3.05v-6.26c0-4.06-2.9-6.57-6.77-6.57zm0 10.15c-1.94 0-3.39-1.47-3.39-3.6 0-2.14 1.48-3.61 3.39-3.61 1.88 0 3.35 1.41 3.35 3.6 0 2.46-1.7 3.61-3.35 3.61zm10.79-11.89c1.18 0 2.16-.9 2.16-2.06 0-1.14-.98-2.08-2.16-2.08-1.2 0-2.18.94-2.18 2.08 0 1.15.98 2.06 2.18 2.06zm1.72 14.57V6.15h-3.44V18.7h3.44zm6.57-.01V.49h-3.44v18.23H134z"/></svg>