<svg width="24" height="24" viewBox="0 0 24 24" fill="none" xmlns="http://www.w3.org/2000/svg">
<path d="M13.3998 3C12.717 3 12.0689 3.24497 11.5989 3.7145C11.1339 4.17893 10.8667 4.8577 10.8667 5.61303V6.98079C8.97191 7.09307 7.25519 7.69529 5.92931 8.66497C5.53847 8.41999 5.1031 8.27199 4.66279 8.24137C3.92069 8.19033 3.14396 8.41999 2.61459 9.02732L2.6047 9.04263L2.5948 9.05284C2.10502 9.68568 1.90712 10.538 2.0407 11.3801C2.15449 12.1252 2.57501 12.855 3.27754 13.3654C3.27259 13.4011 3.26764 13.4317 3.26764 13.4623C3.26764 15.3149 4.24226 16.9787 5.73636 18.1423C7.23045 19.3008 9.25886 20 11.5 20C13.7411 20 15.7695 19.3008 17.2636 18.1423C18.7577 16.9787 19.7324 15.3149 19.7324 13.4623C19.7324 13.4317 19.7274 13.4011 19.7274 13.3654C20.425 12.855 20.8455 12.1252 20.9593 11.3852C21.0929 10.538 20.895 9.68568 20.4052 9.05284L20.3904 9.04263L20.3854 9.02732C19.861 8.41999 19.0843 8.19033 18.3471 8.23627C17.9018 8.26689 17.4615 8.41999 17.0756 8.66497C15.7448 7.69529 14.0281 7.09307 12.1333 6.98079V5.61303C12.1333 5.16391 12.2718 4.8628 12.4845 4.65356C12.6973 4.43921 12.999 4.30651 13.3998 4.30651C13.6966 4.30651 14.1369 4.55149 14.8197 4.89343C15.5024 5.23537 16.4275 5.61303 17.6743 5.61303H18.4658C19.1634 5.61303 19.7324 5.02612 19.7324 4.30651C19.7324 3.58691 19.1634 3 18.4658 3C17.7831 3 17.2241 3.5716 17.2043 4.27589C16.4523 4.20444 15.8883 3.97989 15.3738 3.7196C14.7553 3.40829 14.1864 3 13.3998 3ZM11.5 8.23627C13.4839 8.23627 15.255 8.864 16.5018 9.83368C17.7485 10.8034 18.4658 12.0844 18.4658 13.4623C18.4658 14.8454 17.7485 16.1264 16.5018 17.0961C15.255 18.0657 13.4839 18.6935 11.5 18.6935C9.51612 18.6935 7.74498 18.0657 6.49825 17.0961C5.25152 16.1264 4.53416 14.8454 4.53416 13.4623C4.53416 12.0844 5.25152 10.8034 6.49825 9.83368C7.74498 8.864 9.51612 8.23627 11.5 8.23627ZM18.4263 9.54278C18.8418 9.51726 19.2178 9.66527 19.4207 9.88982C19.6483 10.1909 19.7868 10.6962 19.7126 11.1759C19.673 11.4107 19.5938 11.6352 19.4652 11.8394C19.203 11.0228 18.7528 10.2726 18.1542 9.61423C18.2482 9.59382 18.3323 9.54788 18.4263 9.54278ZM4.57374 9.54278C4.66774 9.55299 4.75184 9.59381 4.84089 9.61933C4.24721 10.2726 3.79701 11.0228 3.5348 11.8394C3.40617 11.6352 3.32701 11.4107 3.28743 11.1759C3.21322 10.6911 3.35174 10.1909 3.57932 9.88982C3.78216 9.66527 4.15816 9.51726 4.57374 9.54278ZM8.33371 10.8391C7.63613 10.8391 7.06719 11.426 7.06719 12.1456C7.06719 12.8652 7.63613 13.4521 8.33371 13.4521C9.03128 13.4521 9.60022 12.8652 9.60022 12.1456C9.60022 11.426 9.03128 10.8391 8.33371 10.8391ZM14.6663 10.8391C13.9687 10.8391 13.3998 11.426 13.3998 12.1456C13.3998 12.8652 13.9687 13.4521 14.6663 13.4521C15.3639 13.4521 15.9328 12.8652 15.9328 12.1456C15.9328 11.426 15.3639 10.8391 14.6663 10.8391ZM8.33371 14.7586C8.69486 15.9733 10.0504 17.3717 11.5 17.3717C12.9496 17.3717 14.3051 16.0651 14.6663 14.7586C14.0132 15.5038 12.7319 16.0651 11.5 16.0651C10.2681 16.0651 8.98675 15.4119 8.33371 14.7586Z" fill="#6D4AFF"/>
</svg>
