<svg xmlns="http://www.w3.org/2000/svg" width="301" height="232" fill="none" viewBox="0 0 301 232"><path fill="#A792FF" d="m300.125-55.357-89.002 176.915-12.46-17.088c10.68-7.372 21.953-11.057 33.82-11.057 17.801 0 32.931 6.701 45.392 20.104 13.053 12.732 19.58 29.151 19.58 49.255 0 19.434-6.23 35.852-18.69 49.255-11.867 12.732-26.404 19.098-43.612 19.098-18.987 0-34.71-7.371-47.171-22.114-12.46-14.743-18.69-33.842-18.69-57.297 0-13.402 1.78-26.47 5.34-39.202 4.153-12.733 10.68-28.481 19.58-47.245l57.852-120.624h48.061Zm-168.214 0L42.909 121.558l-12.46-17.088c10.086-7.372 21.36-11.057 33.82-11.057 17.8 0 32.931 6.701 45.391 20.104 12.461 12.732 18.691 29.151 18.691 49.255 0 19.434-5.934 35.852-17.801 49.255-11.867 12.732-26.404 19.098-43.61 19.098-18.988 0-35.008-7.371-48.062-22.114C6.418 194.268.188 175.169.188 151.714c0-13.402 1.78-26.47 5.34-39.202 4.153-12.733 10.977-28.481 20.47-47.245L83.85-55.357h48.061Z" opacity=".2"/></svg>