<svg width="24" height="24" viewBox="0 0 24 24" fill="none" xmlns="http://www.w3.org/2000/svg">
<path d="M22 6.76847C21.2896 7.07742 20.5739 7.30646 19.784 7.38104C20.5739 6.92294 21.2101 6.15057 21.5229 5.30895C20.733 5.76705 19.9431 6.076 19.0737 6.23047C18.2785 5.46342 17.25 5 16.142 5C14.0056 5 12.2614 6.69389 12.2614 8.77131C12.2614 9.07493 12.2614 9.38388 12.341 9.61825C8.25893 9.61825 5.45982 7.30646 3.56194 5C3.16434 5.538 3.0053 6.23047 3.0053 6.92294C3.0053 8.22798 3.72098 9.38388 4.74944 10.0763C4.11328 10.0018 3.48242 9.8473 3.0053 9.61825C3.0053 9.61825 3.0053 9.61825 3.0053 9.69283C3.0053 11.5412 4.35184 13.0753 6.09598 13.3842C5.7779 13.4588 5.45982 13.5387 5.06222 13.5387C4.82896 13.5387 4.5904 13.5387 4.35184 13.4641C4.82896 15.0036 7.03962 16.772 8.77846 16.772C7.43192 17.7681 6.1808 18.6364 3.67857 18.6364C3.36049 18.6364 3.61496 18.6364 3 18.6364C4.73884 19.7124 6.80106 20 8.9375 20C16.142 20 20.0226 14.2312 20.0226 9.2294C20.0226 9.07493 20.0226 8.92578 20.0226 8.77131C20.8125 8.22798 21.4487 7.54084 22 6.76847Z" stroke="#6D4AFF" stroke-linejoin="round"/>
</svg>