<svg xmlns="http://www.w3.org/2000/svg" width="462.78" height="189.58" viewBox="0 0 462.78 189.58"><defs><style>.a{fill:#e2dbff;}.b{fill:none;stroke:#1f2937;}.c{fill:#1f2937;}</style></defs><polygon class="a" points="166.88 187.23 165.91 186.2 165.24 185.58 164.41 185.42 163.67 185.98 163.72 186.9 163.45 187.52 161.84 187.03 159.91 186.14 158.9 185.85 161.07 187.37 162.49 188.08 164.17 188.84 165.35 189.05 166.32 189.45 166.99 189.56 167.5 189.58 168.22 189.18 168.33 188.64 169.07 189.11 170.03 189.05 170.24 188.38 168.6 188.04 166.88 187.23"/><polygon class="a" points="425.28 149.86 425.66 148.99 425.91 148.16 425.91 147.02 425.28 145.88 424.86 145.32 424.21 144.45 424.37 142.95 424.03 143.17 423.67 142.55 423.11 142.86 422.98 141.31 422.48 140.42 422.71 140.08 422.01 139.46 421.3 138.79 420.11 138.05 419.91 137.09 420.2 136.35 420.11 135.12 419.82 134.96 419.77 134.24 419.73 133.01 419.97 132.39 419.46 131.83 419.15 131.22 418.27 131.76 418 130.64 418.12 130.13 418.14 129.32 417.78 128.6 417.8 128 417.51 127.82 417.53 126.95 417.26 126.23 416.75 126.77 416.66 127.17 416.32 127.95 415.92 128.72 416.05 129.19 415.79 129.48 415.45 130.55 415.47 131.38 415.31 131.78 415.38 132.48 414.8 133.59 414.51 134.38 414.13 135.03 413.75 135.79 412.83 136.26 411.73 135.79 411.62 135.34 411.06 134.98 410.7 134.98 409.96 134.13 409.4 133.64 408.53 133.19 407.65 132.41 407.63 132.01 408.19 131.31 408.66 130.6 408.6 130.01 409.02 129.97 409.58 129.41 410.03 128.65 409.54 127.93 409.2 128.2 408.75 128.09 407.97 128.49 407.25 128.04 406.87 128.2 405.86 127.84 405.26 127.24 404.47 126.9 403.78 127.11 404.65 127.58 404.59 128.29 403.51 128.56 402.88 128.4 402.08 128.9 401.43 129.72 401.56 130.06 400.96 130.44 400.19 131.58 400.33 132.36 399.57 132.23 398.78 132.23 398.22 131.38 397.39 130.73 396.77 130.91 396.19 131.11 396.12 131.47 395.58 131.31 395.51 131.72 394.84 131.96 394.46 132.52 393.68 133.21 393.36 134.29 392.85 134 392.36 134.69 392.69 135.36 392.11 135.63 391.8 134.4 390.72 135.61 390.54 136.39 390.38 136.95 389.53 137.69 389.08 138.45 388.3 139.08 386.93 139.5 386.24 139.46 385.9 139.59 385.66 139.91 384.87 140.06 383.82 140.6 383.51 140.42 382.93 140.53 381.89 141.05 381.18 141.65 380.1 142.12 379.41 143.1 379.5 142.03 378.8 143.06 378.78 143.89 378.49 144.6 378.15 144.94 377.86 145.77 378.06 146.19 378.09 146.64 378.44 147.76 378.29 148.5 378.06 147.94 377.55 147.54 377.64 148.86 377.26 148.23 377.28 148.86 377.68 149.97 377.55 151.09 377.93 151.65 377.84 152.08 378.04 153 377.75 153.8 377.68 154.61 377.84 156.06 377.68 156.89 377.19 157.87 377.06 158.39 376.72 158.72 376.07 158.9 375.73 159.73 376.27 160 377.17 160.92 377.97 160.92 378.83 160.99 379.56 160.51 380.33 160.11 380.64 160.18 381.65 159.42 382.5 159.35 383.42 159.19 384.36 159.46 385.17 159.33 386.19 159.28 386.87 158.7 387.38 157.96 388.55 157.63 390.09 156.91 391.21 157 392.76 156.53 394.51 156.02 396.7 155.88 397.6 156.58 398.43 156.62 399.61 157.47 399.25 157.81 399.66 158.34 399.95 159.37 399.59 160.13 400.24 160.72 401.2 159.57 402.17 159.1 403.67 157.87 403.31 158.93 402.55 159.64 401.99 160.47 401 161.25 402.17 160.99 403.22 160 403.02 161.07 402.3 161.77 403.35 161.95 403.64 162.53 403.56 163.27 403.22 164.36 403.53 165.26 404.43 165.68 405.06 165.77 405.59 166 406.38 166.4 407.99 165.35 408.77 165.08 408.17 165.84 408.75 166.09 409.36 166.71 410.41 166.11 411.26 165.55 412.67 164.95 414.02 164.9 414.96 164.39 415.16 163.94 415.83 162.93 416.7 161.86 417.51 161.14 418.5 159.89 419.24 159.19 420.22 158.08 421.43 157.38 422.55 156.08 423.25 155.08 423.56 154.27 424.41 153 424.88 152.35 425.44 151.07 425.28 149.86"/><polygon class="a" points="408.35 169.49 407.59 169.69 406.78 169.2 406.11 169.09 405.68 169.73 405.55 170.94 405.08 171.84 404.97 173.02 405.64 173.07 405.82 173.14 407.3 172.17 407.43 172.55 408.33 171.46 409.04 170.97 410.05 169.33 409.42 169.22 408.35 169.49"/><polygon class="a" points="194.5 118.83 194.03 118.38 192.95 118.33 191.99 117.91 190.35 116.32 188.47 115.13 186.59 115.2 184.15 114.44 182.69 114.89 182.87 114.1 182.27 113.25 180.16 112.4 178.57 111.89 177.63 112.81 177.56 111.4 175.34 111.17 174.96 110.72 175.9 109.56 175.88 108.58 175.21 108.35 174.54 105.85 174.25 105.06 173.82 105.13 173.62 104.55 172.32 103.34 171.4 103 170.98 102.85 169.63 102.47 168.6 102.58 168.47 102.83 166.97 102.56 166.5 102.04 165.85 101.35 165.38 101.33 165.35 100.59 164.61 99.67 163.81 99.13 163.31 98.8 162.67 98.84 162.51 97.7 161.59 96.98 160.6 96.89 160.2 96.22 161.28 95.8 159.78 95.82 158.23 95.91 158.19 96.27 157.47 96.69 156.53 96.54 155.83 95.89 154.49 96.05 153.37 96.02 153.35 95.55 152.56 94.77 151.69 94.75 151.31 93.74 150.84 94.19 150.97 94.86 149.38 95.44 149.38 96.52 149.74 97.01 149.41 98.04 148.87 98.13 148.44 97.01 149.05 96.18 149.11 95.44 148.73 94.79 149.47 94.61 149.54 94.28 149.81 93.81 149.52 93.43 149.07 93.34 148.42 94.03 147.9 94.34 146.87 95.06 145.91 94.95 145.8 95.24 144.99 95.26 144.25 95.93 143.94 97.14 143.92 97.61 143.38 97.77 142.39 98.75 141.74 98.71 141.74 98.71 141.3 98.31 140.91 97.88 140.35 97.63 139.66 97.59 139.73 97.45 139.03 97.36 138.59 97.79 137.8 98.08 137.24 98.44 136.64 98.55 136.3 98.19 136.19 98.31 135.67 98.24 135.72 97.95 135.29 97.43 135.29 97.43 134.75 96.83 134.31 96.25 134.04 95.49 133.72 95.78 133.34 95.69 133.16 95.4 133.34 95.69 133.72 95.78 134.04 95.48 133.86 95.24 133.84 94.86 134.11 94.5 134.06 94.12 134.22 93.52 134.42 93.36 134.44 92.73 134.4 92.35 134.49 91.73 134.69 91.17 135 90.67 134.93 90.16 135.02 89.85 135.16 89.71 134.87 89.31 134.44 89.09 134.11 88.77 133.75 88.5 133.57 88.48 133.01 88.28 132.76 88.39 132.43 88.44 132.13 88.35 131.75 88.26 131.57 88.41 131.17 88.57 130.59 88.62 130.03 88.48 129.83 88.57 129.72 88.44 129.36 88.46 129.07 88.7 128.93 88.66 128.59 88.48 128.46 88.68 128.08 88.44 127.72 88.44 127.72 88.44 128.08 88.44 128.39 87.94 128.62 87.9 128.91 87.52 129.13 86.8 129.07 86.67 129.27 86.15 129.18 85.93 129.47 85.33 129.54 84.92 129.29 84.92 129.31 84.72 129.09 84.72 128.53 85.59 129.09 84.72 129.31 84.72 129.58 84.7 129.85 85.06 130.3 83.94 130.57 83.33 130.37 83.09 130.77 82.22 131.55 81.36 131.69 80.67 131.42 80.38 130.66 80.49 129.58 80.45 128.24 80.78 127.34 81.16 127.07 81.57 126.8 82.78 126.4 83.6 125.53 84.18 124.72 84.43 123.76 84.68 122.79 84.81 121.65 85.21 121.23 84.63 119.97 84.25 119.57 83.53 119.41 82.73 118.74 81.68 118.65 80.56 118.38 79.87 118.27 79.11 118.52 78.41 118.92 76.49 119.32 75.48 120.02 74.23 120.02 74.23 120.02 74.23 120.02 74.23 120.02 74.23 119.88 73.73 119.97 73.04 120.19 72.06 120.62 71.43 121.45 70.74 122.79 70.13 124.16 69.08 125.26 68.74 126.04 68.66 126.83 68.97 127.92 68.79 128.66 69.55 129.51 69.59 130.05 69.33 130.43 69.53 130.72 69.35 130.52 69.06 130.68 68.5 130.57 68.12 131.1 67.89 132.04 67.8 133.1 67.96 134.49 67.78 135.16 68.12 135.61 68.79 135.81 68.86 137.17 68.21 137.6 68.43 138.27 69.62 138.45 70.4 138 71.34 138.09 71.9 138.45 73 138.9 74.23 139.3 74.54 139.39 75.17 139.97 75.35 140.35 75.17 140.8 74.29 140.96 73.73 141.16 72.77 140.89 71.12 141 70.51 140.67 69.5 140.51 68.3 140.53 67.31 140.94 66.31 141.72 65.45 142.55 64.78 144.1 63.87 144.39 63.37 145.13 62.86 145.75 62.77 146.74 61.92 148.08 61.49 149.11 60.42 149.31 58.97 149.34 58.47 149.02 58.38 149.36 57 148.69 56.53 149.41 56.75 149.41 55.83 149.83 55.23 149.61 56.41 150.05 56.97 149.41 57.96 149.49 58 150.48 56.86 151.02 56.3 151.15 55.74 150.95 55.5 150.93 54.71 151.2 55.07 151.44 55.16 151.42 55.52 152.59 54.42 153.15 53.42 152.83 53.35 153.3 52.95 153.21 53.13 153.95 53.13 155.7 52.7 155.45 52.43 153.68 52.7 154.76 52.3 155.45 52.23 155.99 52.16 156.91 51.92 157.45 51.94 158.3 51.72 158.52 51.33 158.28 51.02 158.23 51.51 157.76 51.49 157.63 50.75 157.87 50.01 158.19 49.72 159.06 48.9 160.38 48.49 161.72 48.02 163.14 47.35 163.09 46.9 164.41 46.73 166.23 46.68 163.9 47.82 163.56 48.98 164.39 49.1 165.98 48.09 167.28 47.55 170.01 46.73 171.69 45.81 171.11 45.31 171.33 44.31 169.74 45.87 167.82 46.05 166.59 45.36 166.56 44.33 166.7 42.81 168.06 41.89 167.32 41.2 165.62 41.33 162.91 42.49 160.47 44.33 159.44 44.55 161.19 43.28 163.45 41.42 165.06 40.82 166.34 39.83 167.5 39.72 169.14 39.74 171.38 40.03 173.31 39.81 175.05 38.67 177 38.18 177.94 37.71 178.88 37.19 179.33 35.67 179.09 35.16 178.32 34.98 178.32 33.84 177.81 33.41 176.26 33.05 175.63 32.29 174.56 31.53 175.32 30.7 174.87 29.11 174.29 27.43 174.07 26.27 173.1 26.88 171.45 28.33 169.63 29.05 169.27 28.29 168.44 28.06 168.94 26.43 169.52 25.33 167.79 25.22 167.77 24.73 166.97 23.99 166.29 23.54 165.29 23.88 164.35 23.77 162.87 23.41 161.99 23.7 161.14 25.71 160.92 26.9 158.95 28.26 159.64 29.27 159.75 30.39 159.37 31.28 158.32 32.2 156.64 33.14 154.62 33.77 155 34.48 154.51 36.63 153.26 38.04 152.23 38.47 151.24 37.17 151.22 35.65 151.6 34.3 152.41 33.14 151.33 33.01 149.65 32.92 148.84 32.36 147.77 32 147.39 31.35 146.65 30.86 145.08 30.28 143.49 30.55 143.65 29.54 143.98 28.31 142.64 28.08 143.74 26.56 144.84 25.53 146.94 24.08 148.87 23.05 150.12 22.89 150.77 22.07 151.91 21.53 153.35 21.44 155.07 20.59 155.72 20.05 157.38 19 158.1 18.37 158.81 18.75 160.27 18.55 162.69 17.7 163.2 17.1 163.02 16.45 164.14 15.8 164.53 15.2 163.74 14.61 162.53 14.43 161.3 14.34 160.27 15.66 158.81 16.69 157.2 17.59 156.91 16.76 157.85 15.87 157.36 15.08 155.41 16.02 156.37 14.79 154.89 14.57 156.17 13.99 156.08 12.64 155.65 12.13 154.65 11.95 152.83 12.8 151.6 14.1 152.25 14.57 152.61 15.31 151.2 16.54 150.48 16.49 149.09 17.48 150.03 16.31 148.96 15.91 147.95 16.11 147.41 16.87 146.09 16.85 144.48 17.03 143.33 16.49 142.21 16.58 141.88 15.93 141.41 15.64 140.56 15.75 139.39 15.82 138.41 16.22 138.85 16.74 137.29 17.36 136.97 16.63 135.99 16.85 133.34 16.98 131.91 16.72 133.81 16.14 133.19 15.51 132.2 15.6 131.15 15.37 129.47 14.95 128.62 14.43 127.61 14.37 126.87 14.72 125.55 14.93 126.42 14.01 124.32 14.81 124 13.76 123.53 13.63 122.68 14.19 121.67 14.46 121.63 13.96 119.79 14.28 117.82 14.79 116.66 14.66 115.09 15.02 113.7 15.53 112.87 15.42 112.13 14.84 110.81 14.55 105.37 19.07 97.44 26.32 97.44 26.32 105.37 19.07 110.81 14.55 110.03 14.39 109.11 14.03 107.65 14.21 107.16 14.05 105.57 13.94 104.18 13.58 103.1 13.7 102.01 13.49 102.45 13.22 101.04 13.16 100.3 13.38 100.42 12.85 99.43 12.6 97.15 13.22 96.43 13.16 93.97 13.67 92.89 13.81 91.14 14.37 90.07 14.95 88.14 15.51 86.44 15.53 85.03 16.18 85.74 16.56 85.9 17.07 85.72 17.68 86.24 18.15 85.97 18.93 83.91 18.98 84.87 18.35 84.11 18.35 81.17 18.95 79.14 19.47 79.36 20.21 79.09 20.7 80.1 21.01 81.64 20.86 82.05 21.15 82.7 20.86 84.06 20.59 84.67 20.59 83.35 21.06 83.59 21.28 83.03 21.86 81.8 22.27 81.24 22.15 79.67 22.76 79.27 22.56 78.35 22.65 77.17 23.32 75.46 24.01 74.16 24.77 74.23 25.31 73.33 26.05 73.65 26.36 73.76 26.96 75.37 26.72 75.46 27.19 74.72 27.66 73.92 28.44 74.54 28.44 76.16 27.93 75.8 28.58 76.61 28.11 76.52 28.78 77.59 28.29 77.68 28.53 79.29 28.13 77.9 28.89 76.63 29.9 75.35 30.37 74.83 30.64 72.53 31.44 71.43 31.98 69.97 32.13 68.07 32.87 66.59 33.28 64.78 33.9 64.69 34.13 66.93 33.74 68.27 33.3 69.82 32.85 71.18 32.47 71.81 32.58 73.63 32 74.63 31.37 76.99 30.68 77.86 30.1 79.34 29.7 81.04 29.14 83.03 28.2 82.99 27.55 85.47 26.63 87.13 25.76 89.19 25.04 89.1 25.35 87.6 25.76 85.74 27.03 85.03 27.82 86.46 27.52 87.83 27.1 89.28 26.81 89.93 26.74 90.72 25.82 92.13 25.55 92.71 26.11 94.05 26.72 95.56 26.61 96.83 27.05 97.55 27.3 98.29 28.67 99.12 29.05 100.71 29.09 101.63 29.18 101.02 30.41 101.38 31.51 100.64 32.67 101.2 33.1 101.33 33.59 102.48 32.94 103.17 32.11 103.17 32.11 102.48 32.94 101.33 33.59 100.77 34.28 101.25 35.27 100.55 36.36 101.47 36.95 100.66 37.77 100.37 39 101.92 39.56 102.28 40.17 103.48 41.53 103.64 41.53 103.28 42.67 102.75 43.81 102.23 44.17 102.48 42.85 101.18 42.38 100.86 42.65 100.77 43.3 100.37 44.51 99.43 46.37 98.53 47.62 97.64 48.87 96.43 50.17 96.18 51.22 95.56 52.41 94.68 53.57 94.91 54.33 94.48 55.5 94.82 56.7 95.11 57.2 94.93 57.53 95.02 59.55 95.58 61 95.4 61.78 95.62 62.01 96.65 62.16 96.94 62.55 97.57 62.61 97.55 63.04 98.04 63.2 98.51 64.02 98.44 64.74 98.44 64.74 98.44 64.74 98.49 66.01 98.65 67.16 98.8 68.07 98.98 68.97 99.56 69.37 100.21 70.38 99.99 71.03 99.39 71.54 98.92 71.47 98.78 71.59 99.3 72.41 99.95 72.75 100.17 73.13 100.37 72.93 101.07 73.58 101.54 74.03 101.56 74.79 101.29 75.84 101.85 76.2 102.59 76.89 103.24 77.69 103.39 78.57 103.62 78.57 104.22 78.05 104.31 77.78 103.98 77.16 103.62 76.51 103.04 76.46 103.13 75.7 102.92 75.03 102.7 74.41 102.59 73.08 102.01 72.37 101.87 71.85 101.6 71.5 101.6 70.58 101.38 70.6 101.36 70.11 101.2 70 101.11 69.68 100.51 68.7 100.26 68.12 100.48 67.04 100.51 66.37 100.91 65.79 101.45 66.17 101.87 66.13 102.57 66.69 102.36 67.22 102.45 68.32 102.79 69.37 102.7 69.82 103.08 70.51 103.6 71.27 104.2 71.39 104.27 72.37 104.81 73.06 105.37 73.4 104.96 74.29 105.12 74.63 106.04 75.21 106.46 76.11 107.47 77.2 108.32 78.64 108.61 79.35 108.61 79.91 108.93 80.56 108.86 81.05 108.5 81.41 108.57 81.81 108.14 81.97 108.32 82.66 108.82 83.56 110 84.36 110.43 85.01 111.64 85.46 112.31 85.55 112.58 85.93 113.52 86.6 114.84 87.27 115.74 87.47 116.81 88.12 117.71 88.39 118.54 88.77 119.19 88.61 120.26 88.08 120.96 87.99 121.94 88.35 122.53 88.82 123.76 90.36 124.36 90.94 124.92 91.23 125.68 91.26 126.31 91.5 126.31 91.5 126.62 91.79 127.32 91.88 127.81 92.17 128.24 92.31 128.98 92.33 129.13 91.99 129.27 91.44 129.13 92 129.51 92.13 129.67 92.58 129.58 92.67 129.38 92.44 129.22 92.67 129.81 93.31 130.3 93.76 130.52 94.23 131.08 94.81 131.49 95.26 131.69 95.08 132.47 95.46 131.69 95.08 131.49 95.26 131.17 95.53 131.51 95.73 131.31 96.18 131.28 96.63 131.44 96.92 131.82 97.05 132.09 97.45 132.36 97.1 132.29 96.69 132.6 96.94 132.67 97.36 133.1 97.54 133.57 97.83 133.9 98.17 133.93 98.48 133.77 98.73 134.02 99.02 134.67 99.33 134.67 99.33 134.8 99.56 134.87 99.25 135.41 99.25 135.72 99.4 136.23 99.51 136.46 100.07 136.86 100.16 137.04 99.92 137.22 100.77 137.8 100.7 138 100.5 138.34 100.3 137.78 99.54 137.91 99.25 138.21 99.18 138.72 98.82 138.99 98.33 139.55 98.24 140.15 98.64 140.38 99.11 140.69 99.2 140.35 99.58 140.58 100.36 140.98 100.77 140.98 100.77 141.47 101.53 141.61 102.73 141.34 103.09 141.59 104.41 141.32 105.24 141.77 105.58 141.27 106.32 140.71 107.21 140.09 107.3 139.77 107.81 139.82 108.53 139.35 108.64 139.53 109.09 139.53 109.09 138.65 109.65 137.96 109.96 138.05 110.55 137.56 111.46 137.33 112.34 136.91 112.56 137.13 113.86 136.88 114.26 137.65 114.86 138.12 114.22 138.41 114.84 137.76 115.89 136.77 116.79 136.41 117.8 137.09 119.16 136.7 119.79 137.62 120.37 138.63 121.29 139.08 122.34 139.62 122.99 140.96 125.83 142.35 128.45 143.56 130.33 143.38 130.73 144.01 131.92 145.04 132.79 147.43 134.33 150.03 135.77 150.19 136.35 151.51 137.18 151.98 139.19 152.32 141.52 152.29 144.69 152.29 147.65 152.5 150.4 152.07 152.15 152.54 153.89 152.43 155.08 153.15 157.2 153.12 159.33 152.85 161.61 152.72 163.96 152.25 164 152.79 165.64 153.53 167.05 153.28 168.01 153.71 170.61 154.04 172.58 154.83 172.78 154.58 171.05 155.47 171.41 155.88 174.25 154.44 173.78 154.89 176.07 154.29 177.3 156.13 177.7 155.36 178.78 155.41 180.12 156.53 182.49 157.47 183.41 157.51 184.21 158.25 185.06 159.93 185.85 161.59 186.79 162.98 187.23 163.43 187.21 163.02 185.94 163.79 185.44 164.17 185.11 165.1 185.11 165.11 185.11 165.6 185.2 164.55 184.39 163.63 182.98 163.83 182.33 164.61 181.77 164.73 180.16 165.78 179.38 165.73 178.13 164.57 177.84 163.14 176.83 163.11 175.78 163.76 175.08 164.82 175.06 164.86 174.32 164.59 172.96 165.24 172.08 166.16 171.66 165.6 170.94 165.11 171.39 164.21 170.97 163.65 169.58 163.99 169.22 165.24 169.73 166.36 169.53 166.92 169.04 166.52 168.35 166.5 167.27 166.05 166.42 167.35 166.56 169.63 166.27 171.18 165.5 171.92 163.65 171.85 162.93 170.98 162.31 170.95 161.3 169.21 160.07 169.14 159.33 169.05 158.39 169.14 159.33 170.01 160.11 170.82 160.07 172.03 160.67 172.63 160.54 173.57 160.81 174.76 160.02 175.12 159.13 175.77 158.3 176.11 156.96 176.82 156.28 177.7 155.17 178.7 152.66 179.47 151.88 179.65 151.18 179.71 149.75 179.42 148.97 179.49 147.89 180.41 146.48 181.75 145.34 183.09 144.94 183.9 144.29 185.81 143.75 187.13 143.75 187.37 142.9 188.31 142.28 188.45 140.82 189.59 138.97 189.7 137.06 190.06 136.48 190.13 135.56 190.37 133.35 190.15 130.69 190.46 129.63 190.78 129.61 191.65 128.38 192.39 126.77 194.12 124.8 194.72 123.86 195.17 121.51 194.94 120.64 194.5 118.83"/><polygon class="a" points="160.78 7 161.1 7.47 160.6 8.01 160.27 8.64 162.17 9 163.41 9.13 165.2 9.11 167.79 8.93 168.76 9.06 170.26 8.84 171.04 8.53 171.27 8.08 170.75 7.65 169.45 7.59 167.66 7.68 166.09 7.92 164.95 7.83 163.88 7.76 163.61 7.52 162.91 7.27 163.54 6.85 163.23 6.49 161.59 6.51 161.07 6.15 159.49 6.09 158.63 6.53 159.22 6.87 160.78 7"/><polygon class="a" points="165.17 3.8 164.21 4.07 163.74 4.43 164.1 4.86 165.6 4.99 167.12 4.9 169.47 4.14 170.91 3.85 170.33 3.51 170.46 2.89 169.41 2.71 168.35 2.51 168 2.01 166.16 2.06 166.23 2.26 165.35 2.33 164.44 2.62 163.34 3.04 163.27 3.47 163.72 3.8 165.17 3.8"/><polygon class="a" points="160.45 5.66 161.88 5.73 162.31 5.71 162.53 5.59 162.19 5.39 160.58 5.37 160.45 5.66"/><polygon class="a" points="161.37 5.15 162.04 4.77 161.52 4.41 161.14 4.34 160.16 4.32 159.69 4.72 159.53 5.13 159.89 5.37 161.37 5.15"/><polygon class="a" points="150.93 11.05 149.27 10.9 148.89 11.28 150.19 12.15 150.39 12.6 151.15 12.71 153.03 12.26 154.18 11.21 153.32 10.72 154.67 10.18 154.78 9.85 153.1 9.98 152.32 9.76 150.73 10.29 150.93 11.05"/><polygon class="a" points="155.99 4.86 156.89 5.19 158.05 5.3 158.3 4.88 158.32 4.39 156.66 4.01 155.3 3.87 154.83 4.25 155.45 4.5 154.27 4.81 155.99 4.86"/><polygon class="a" points="147.46 14.16 146.34 13.61 145.4 13.02 145.93 12.22 146.54 11.08 146.04 10.63 145.37 10.43 144.43 10.61 143.81 11.79 142.84 12.26 143.33 11.12 142.95 10.74 141.32 11.35 140.74 10.76 138.41 11.1 139.46 10.56 138.83 10.34 135.67 11.05 134.53 11.5 132.78 12.38 133.99 12.69 135.38 12.67 132.81 13.14 132.81 13.56 134.06 13.58 136.08 13.49 137.53 13.76 136.14 13.99 134.91 13.92 133.32 14.12 132.58 14.26 132.72 15.2 133.66 15.06 134.58 15.4 134.51 15.96 136.26 15.84 138.76 15.66 140.87 15.26 141.99 15.17 143.27 15.51 144.77 15.69 145.46 15.26 145.31 14.79 146.87 14.7 147.46 14.16"/><polygon class="a" points="153.35 8.39 154.06 8.57 155.59 8.46 156.89 7.63 157.51 7.07 157.47 6.56 157.22 6.71 156.15 6.65 154.44 7 153.59 6.98 152.63 7.83 154.11 7.74 153.35 8.39"/><polygon class="a" points="170.84 41.38 170.89 41.13 169.97 40.55 168.65 40.19 168.22 40.33 169 40.97 170.28 41.4 170.84 41.38"/><polygon class="a" points="97.82 34.44 97.39 34.89 97.08 35.47 97.28 35.89 97.15 36.52 97.3 37.15 97.73 37.15 97.68 36.05 99.27 34.51 98.18 34.62 97.82 34.44"/><polygon class="a" points="101.78 42.41 102.45 42.2 102.5 41.44 101.78 40.86 101.69 40.21 101.67 39.74 100.75 39.59 100.21 39.38 99.3 39.07 98.98 39.41 98.85 40.15 99.81 40.39 99.72 40.8 100.37 41.29 100.37 41.78 101.78 42.41"/><polygon class="a" points="167.62 44.94 167.46 44.26 166.9 44.69 167.01 45.16 168.27 45.74 168.69 45.65 169.43 45.09 168.38 45.11 167.62 44.94"/><polygon class="a" points="159.42 8.48 159.49 8.12 159.17 7.74 157.63 8.03 156.64 8.53 157.36 8.82 158.5 8.91 159.42 8.48"/><polygon class="a" points="155.59 10.2 155.03 10.79 154.62 11.79 155.59 11.84 157.31 10.96 158.57 10.74 160.81 9.73 159.44 9.47 157.69 9.42 156.53 9.73 155.59 10.2"/><polygon class="a" points="170.35 10.85 171.27 10.88 172.19 10.9 172.34 10.59 171.36 9.96 169.47 9.85 169 9.91 168.62 10.32 169.07 10.94 169.27 11.01 170.35 10.85"/><polygon class="a" points="168.94 17.12 169.25 16.6 168.74 16.27 167.79 16.43 166.94 17.12 166.79 17.7 167.88 17.66 168.71 17.28 168.94 17.12"/><polygon class="a" points="156.33 23.54 156.33 23.88 157 23.92 158.59 23.21 158.77 22.96 157.42 22.94 156.33 23.54"/><polygon class="a" points="159.64 24.01 159.55 24.1 159.57 24.48 159.96 24.59 160.74 23.92 160.65 23.65 160.27 23.63 159.64 24.01"/><polygon class="a" points="160.72 21.5 159.96 21.59 160.25 20.99 159.42 20.61 158.66 20.18 158.32 19.85 157.69 20.05 157.89 19.49 157.29 19.38 156.17 20.54 155.36 21.53 154.09 22.15 155.5 22.02 155.32 22.78 157.16 22.11 158.54 21.44 158.72 22.02 160.04 22.31 161.14 21.91 160.72 21.5"/><polygon class="a" points="169.88 2.37 170.86 2.71 173.64 2.64 175.25 2.75 173.64 3.09 173.15 3 171.07 2.95 170.82 3.45 171.49 3.83 170.86 4.18 169.18 4.43 168.09 4.81 169.16 5.01 169.54 5.68 167.86 5.24 167.3 5.3 166.85 6.07 165.06 6.31 164.61 6.83 166.12 6.89 167.21 7.03 169.83 6.85 171.72 7.16 174.54 6.49 174.76 6.24 173.33 6.29 173.44 6.04 174.9 5.73 175.7 5.3 177.23 5.01 178.35 4.66 178.17 4.16 178.91 3.98 177.94 3.85 180.43 3.76 181.15 3.56 182.91 3.38 185 2.6 186.52 2.35 188.83 1.79 187.17 1.79 188.04 1.59 190.06 1.41 192.23 1.05 192.48 0.81 191.31 0.58 189.81 0.49 187.91 0.42 186.34 0.38 184.8 0.31 182.51 0.45 182.2 0.36 179.89 0.4 178.46 0.49 177.31 0.63 176.19 1.07 175.68 0.85 174.81 0.81 173.31 1.12 171.65 1.25 170.73 1.28 169.39 1.46 169.14 1.75 169.7 2.01 169.88 2.37"/><polygon class="a" points="138.76 7.29 140.96 6.83 141.81 6.76 142.98 6.4 144.28 5.57 142.93 5.73 141.7 5.71 138.99 6.4 136.39 7.23 137.2 7.45 138.76 7.29"/><polygon class="a" points="128.62 13.14 131.62 12.58 132.2 12.06 134.24 11.26 137.33 10.45 138.76 10.16 138.41 9.69 137.98 9.35 135.88 9.31 134.96 9.06 131.82 9.24 131.75 9.94 130.05 10.67 128.39 11.53 127.43 12.02 128.75 12.62 128.62 13.14"/><polygon class="a" points="179.35 17.93 178.64 16.78 177.31 16.52 175.59 15.73 177.61 15.17 177.43 14.05 176.93 13.58 175.07 13.11 174.65 12.38 172.81 12.64 173.06 12.13 172.25 11.57 170.73 10.99 169.56 11.46 167.55 11.79 168.29 11.03 167.77 9.85 165.17 10.32 163.58 11.23 163.52 10.52 164.79 9.8 162.28 10.09 160.99 10.56 159.4 11.59 158.66 12.76 159.91 12.78 158.54 13.29 158.95 13.72 160.27 13.9 161.9 14.23 165 14.5 166.76 14.37 167.48 14.01 167.93 14.41 168.67 14.48 169.12 15.22 168.33 15.53 169.92 15.93 170.95 16.52 171.07 16.94 170.98 17.48 169.05 18.68 168.33 19.29 168.38 19.74 166.32 19.89 164.53 19.92 163.31 20.86 163.85 21.28 166.76 21.08 166.97 20.72 168.02 21.33 169.07 21.98 168.53 22.33 169.39 22.96 171.09 23.7 173.49 24.21 173.55 23.77 172.93 22.98 172.14 21.89 174.04 22.91 175.1 23.25 175.9 22.33 175.9 21.08 175.68 20.74 174.69 20.18 174.09 19.45 174.6 18.73 175.9 18.57 176.75 19.78 177.65 20.32 180.05 18.86 180.79 17.99 179.35 17.93"/><polygon class="a" points="147.84 9.98 146.63 10.03 146.16 10.18 146.65 10.99 148.22 10.23 147.84 9.98"/><polygon class="a" points="179 44.84 179.51 44.8 180.29 43.57 180.18 42.7 180.25 41.96 179.42 42.2 180.05 41.17 179.09 40.75 178.48 41.09 177.61 40.7 178.14 40.23 177.49 39.94 176.64 40.39 177.74 39.18 178.61 38.33 178.93 37.95 178.46 37.88 177.36 38.38 176.42 39.16 174.6 41.35 173.42 42.18 173.78 42.56 172.93 43.05 172.97 43.48 175.12 43.5 176.33 43.44 177.31 43.77 176.33 44.42 176.98 44.47 178.61 43.26 178.88 43.44 178.32 44.58 179 44.84"/><polygon class="a" points="150.97 4.59 150.23 4.39 149.88 4.34 148.6 4.63 148.37 4.79 149.72 4.79 150.97 4.59"/><polygon class="a" points="141.95 7.14 139.35 8.21 140.27 8.39 144.25 8.28 141.88 8.77 141.54 9.13 142.86 9.11 145.6 8.62 148.69 8.44 149.83 7.92 150.35 7.38 149.52 7.34 148.55 7.52 148.71 7.12 149.11 6.6 148.42 6.49 147.14 6.87 146.99 7.92 145.62 7.83 144.99 7.18 143.16 6.83 141.95 7.14"/><polygon class="a" points="149.23 5.53 149.94 5.21 149.02 5.04 147.7 5.15 146.56 5.48 147.3 5.82 149.23 5.53"/><polygon class="a" points="149.49 15.33 150.41 15.69 151.35 15.26 151.17 14.81 151.11 14.59 150.75 14.37 150.08 14.03 148.98 14.55 147.86 14.93 148.64 15.46 149.49 15.33"/><polygon class="a" points="375.76 82.46 375.04 82.44 373.74 82.84 373.25 83.47 373.47 84.7 374.57 85.15 375.53 84.45 375.67 83.65 376.12 83.02 375.76 82.46"/><polygon class="a" points="145.24 82.75 146.07 82.69 146.92 82.51 147.1 82.17 146.22 81.59 145.33 81.52 145.46 81.14 144.77 80.85 144.34 80.85 143.67 80.22 142.73 79.33 142.33 78.99 141.16 79.17 140.74 78.64 139.64 78.17 138.68 78.14 137.62 78.03 137.31 78.19 136.37 78.32 135.7 78.61 135.09 78.93 134.75 79.44 134.06 79.89 134.55 80.02 135.2 79.87 135.41 79.51 135.92 79.49 136.91 78.75 138.12 78.81 137.6 79.17 138 79.46 139.57 79.69 139.91 79.98 141 80.36 141.72 80.31 141.9 81.12 142.28 81.52 143.07 81.61 143.54 81.99 142.62 82.78 144.39 82.64 145.24 82.75"/><polygon class="a" points="251.5 33.61 252.04 32.52 251.66 31.84 250.16 32.29 250.36 32.85 251.5 33.61"/><polygon class="a" points="154.11 84.54 153.55 84.03 153.01 83.98 153.08 83.56 152.41 83.58 152.23 83.09 151.91 83.11 151.22 82.75 150.23 82.73 150.05 82.98 150.05 82.98 149.02 82.75 148.26 82.71 147.95 83.09 148.71 83.31 148.64 83.85 149.14 84.48 148.67 84.79 147.72 84.68 146.6 84.48 146.45 84.95 147.07 85.37 147.68 85.13 148.42 85.21 149.02 85.13 149.83 85.37 149.83 85.77 150.14 86 150.73 85.01 151.17 84.81 151.31 85.17 151.8 85.08 152.05 84.81 152.45 84.88 153.03 84.83 153.59 85.13 154.11 84.54"/><polygon class="a" points="459.96 135.97 459.44 135.79 458.84 136.28 458.79 136.91 459.44 137.09 460.25 136.88 460.65 136.15 460.32 135.74 459.96 135.97"/><polygon class="a" points="461.95 134.38 461.53 134.44 460.83 134.74 460.88 135.27 461.75 134.98 462.62 134.62 462.78 133.93 461.95 134.38"/><polygon class="a" points="232.91 31.62 232.93 32.92 233.52 32.29 233.83 32.65 233.45 33.25 233.67 33.61 234.95 33.86 234.97 33.86 235.67 34.71 235.49 35.49 233.9 35.36 233.67 36.25 234.26 36.99 233.11 37.42 233.41 37.95 235.09 38.18 234.12 38.47 232.49 39.92 233.05 40.19 233.83 39.68 234.84 39.83 235.58 39.18 236.07 39.45 237.93 39.07 239.39 39.09 240.35 38.36 239.92 37.66 240.46 37.26 240.57 36.39 239.27 36.12 238.98 35.6 238.33 34.06 237.62 33.84 236.7 32.25 236.61 32.11 235.53 32.02 236.47 30.84 236.76 29.74 235.65 29.74 234.59 29.92 235.71 28.49 234.48 28.6 233.67 28.51 232.84 29.58 232.42 30.95 232.91 31.62"/><polygon class="a" points="268.44 60.6 267.52 60.69 266.83 60.2 266.65 60.82 268.13 61.09 268.13 61.34 269.83 61.2 269.94 60.78 269.31 60.96 269.31 60.71 268.44 60.6"/><polygon class="a" points="218.6 14.05 217.37 13.99 214.99 13.94 216.18 13.31 216.07 12.51 217.01 13.18 217.61 13.65 219.25 13.43 219.11 12.46 218.11 11.77 216.99 11.48 217.52 11.17 219.14 11.64 219.25 11.12 218.33 10.36 219.54 10.36 220.79 10.18 221.17 9.78 220.28 9.31 222.21 9.24 221.31 8.28 222.23 8.17 222.25 7.23 220.86 6.67 222.29 6.31 223.59 6.29 222.79 5.57 223.03 4.43 223.84 3.78 224.94 3.07 223.15 3.02 225.68 2.86 226.17 2.64 229.44 1.99 229.08 1.61 226.84 1.43 223.06 1.77 221 2.1 222 1.59 221.49 1.28 219.92 1.54 217.75 1.23 215.04 1.34 214.72 1.19 218.82 1.1 221.71 1.05 223.19 0.74 218.78 0.09 212.95 0 210.31 0.07 209.19 0.36 206.61 0.34 203.77 0.81 203.41 1.19 204.91 1.66 203.52 1.36 202.51 1.3 200.95 0.98 198.57 1.46 197.97 1.19 195.64 1.19 193.2 1.32 191.2 1.54 191.16 1.95 189.97 2.06 186.7 2.71 185.67 3.09 187.49 3.42 186.86 3.78 183.52 4.27 180.05 4.77 179.56 5.15 180.99 5.59 184.24 5.86 182.56 5.91 180.12 6.24 180.97 6.94 181.64 7.27 183.74 7.21 186.01 7.16 187.71 7.23 189.5 7.88 189.19 8.35 189.99 8.77 190.31 9.96 190.53 10.76 190.84 11.19 189.28 12.26 189.86 12.55 190.84 12.38 191.43 12.78 192.61 13.54 190.93 13.22 190.08 13.22 189.41 13.85 189.07 14.66 190.02 15.06 190.91 14.88 191.49 14.7 192.73 14.28 192.1 15.22 191.52 15.73 189.93 16.18 188.36 17.59 188.81 18.04 188.04 18.93 188.87 20.09 188.54 21.21 188.69 22.04 189.77 23.63 189.95 24.88 190.64 25.6 192.64 25.6 193.76 26.65 195.21 26.59 196.13 25.31 196.91 24.23 196.85 23.25 198.77 22.22 199.51 21.39 199.83 20.52 200.88 19.74 202.34 19.45 203.7 19.13 204.37 19.09 206.66 18.21 208.32 16.94 209.39 16.47 210.42 16.45 213.22 16.05 215.93 15.08 218.6 14.05"/><polygon class="a" points="407.27 119.79 407.34 120.86 408.06 119.9 408.1 119.23 407.83 118.8 407.54 119.3 407.27 119.79"/><polygon class="a" points="400.04 112.34 400.4 112.16 399.88 111.42 400.08 110.55 400.73 110.68 400.78 109.45 400.64 108.87 399.9 108.73 399.79 107.95 399.39 108.47 399.17 109.61 399.55 111.44 400.04 112.34"/><polygon class="a" points="386.73 123.73 388.21 123.46 387.94 122.83 387.16 122.97 386.73 122.58 386.37 123.08 385.68 123.1 385.19 123.91 385.86 123.93 386.73 123.73"/><polygon class="a" points="390.03 125.63 390.14 125.25 389.73 124.82 389.11 124.38 387.92 124.67 389.49 125.65 390.03 125.63"/><polygon class="a" points="401.27 115.85 402.3 115.96 403.35 116.54 402.93 115.45 401.56 115.04 400.02 115.11 399.68 115.89 400.55 115.94 401.27 115.85"/><polygon class="a" points="413.95 113.97 412.9 113.48 411.78 113.48 410.3 114.33 409.2 115.85 407.92 115 407.63 112.69 407.45 112.16 405.44 111.58 404.79 112.05 403.08 112.38 403.6 113.1 404.72 113.37 405.19 114.19 407.05 114.22 407.14 114.57 406.24 114.55 404.85 115.07 405.8 115.76 405.77 116.39 406.04 116.9 406.51 116.79 406.92 116.1 408.75 117.42 409.78 117.53 412.16 118.74 412.67 119.92 412.9 121.47 412.07 121.87 411.44 123.03 413.03 122.99 413.39 122.58 414.62 122.88 415.65 124.04 415.65 124.04 416.93 124.08 417.62 124.33 418.65 123.84 418.59 122.79 419.39 122.32 420.49 121.91 422.06 122.54 422.6 123.79 423.25 124.58 424.12 125.47 425.35 125.69 426.43 125.85 426.67 126.21 427.52 126.12 427.7 125.72 426.45 125.11 426.85 124.84 425.91 124.6 426.02 123.97 425.31 124.02 424.63 122.5 423.58 121.58 423.38 120.61 424.54 120.46 424.3 119.72 422.26 118.83 422.13 118 421.48 117.28 420.65 116.54 418.36 115.74 416.21 114.75 416.21 114.75 414.87 114.48 413.95 113.97"/><polygon class="a" points="392.78 123.37 393.03 122.58 391.86 123.1 391.01 123.21 390.25 122.79 389.24 123.08 389.2 123.59 390.85 123.77 392.78 123.37"/><polygon class="a" points="376.7 112.92 377.32 113.32 377.48 115.22 378.51 115.4 379.32 115.31 379.77 116.01 381.27 115.49 381.89 115.94 382.79 116.03 383.24 116.9 384.69 116.25 384.87 116.77 385.43 114.6 385.5 113.16 386.73 112.2 386.69 110.9 387.09 109.94 388.59 109.76 387.14 108.44 387.34 107.79 386.37 106.45 387.05 105.15 385.93 104.93 384.49 104.93 384.11 106.54 384.49 104.93 385.93 104.93 387.05 105.15 387.94 104.68 387.67 103.99 388.52 103.9 388.59 103.36 387.52 102.91 386.67 102.53 386.58 101.91 385.88 101.19 385.37 101.19 384.81 102.31 383.89 103.3 382.86 104.08 382.39 104.61 381.81 105.51 380.95 106.63 379.45 106.94 378.92 107.21 378.71 108.42 377.73 108.69 376.81 108.2 377.03 109.16 377.91 109.94 378.71 109.67 379.52 109.76 380.24 109.05 380.73 108.94 380.24 109.05 379.52 109.76 378.71 109.67 377.91 109.94 377.03 109.16 376.81 108.2 376.07 109.14 375.94 110.46 376.12 111.71 376.7 112.92"/><polygon class="a" points="394.71 125.49 395.6 124.42 396.7 124.02 398.05 123.39 398.54 123.01 398.09 122.83 397.69 123.01 396.79 123.06 395.69 123.37 395.51 123.7 394.24 124.29 393.61 125.16 393.45 125.63 393.59 125.81 394.71 125.49"/><polygon class="a" points="371.9 117.19 372.29 115.4 371.7 114.51 370.78 114.39 370.36 113.59 370.16 112.61 369.71 112.56 368.99 112.07 369.51 110.9 368.54 110.25 367.81 109.07 366.73 108.08 365.45 108.06 364.22 106.54 363.5 105.94 362.5 104.97 361.33 103.59 359.36 103.32 358.55 103.25 358.69 103.97 360.05 105.53 361.04 106.34 361.73 107.57 362.88 108.47 363.37 109.56 363.75 110.79 364.85 111.98 365.77 113.97 366.37 115.04 367.29 116.21 367.78 117.06 369.35 118.22 370.36 119.41 371.75 119.39 371.9 117.19"/><polygon class="a" points="398.56 115.51 397.28 115.58 397.51 116.19 398.38 116.45 398.87 115.98 398.56 115.51"/><polygon class="a" points="377.55 122.61 378.71 122.88 380.01 122.99 381.15 122.94 382.48 123.5 383.95 122.97 382.48 122.11 380.62 121.87 380.21 120.95 377.91 120.26 377.62 120.84 375.22 120.7 375.06 120.19 374.55 120.08 373.56 119.54 372.04 119.45 371.12 120.82 372.26 120.91 372.44 121.53 374.68 122.11 375.22 121.94 376.14 122.07 377.55 122.61"/><polygon class="a" points="393.65 117.73 392.6 116.07 392.85 115.58 391.71 113.77 392.83 113.21 393.41 112.38 393.95 112.58 394.06 111.93 391.71 112.4 391.01 113.05 389.89 111.8 390.09 110.72 391.19 110.5 393.27 110.43 394.48 110.72 395.45 110.43 396.43 109.02 396.21 108.71 394.98 109.74 393.52 109.81 391.93 109.61 390.94 109.18 389.89 110.25 389.62 110.84 388.97 112.98 388.77 114.1 388.23 115.04 388.59 116.01 389.11 116.03 389.24 117.39 388.82 118.71 389.33 119.14 390.14 118.92 390.2 116.88 390.16 115.22 391.01 114.8 390.85 116.19 391.73 117.01 391.55 117.57 391.84 117.95 393.09 117.42 392.42 118.58 392.89 119.07 393.59 118.65 393.65 117.73"/><polygon class="a" points="228.97 36.21 228.03 37.64 229.53 37.84 231.48 37.03 232.35 35.83 232.19 34.87 232.8 33.92 231.7 33.1 230.83 33.16 230.83 33.16 230 33.79 228.5 34.84 228.97 36.21"/><polygon class="a" points="215.84 20.45 217.81 21.06 216.78 21.62 219.41 22.02 220.66 22.2 221.53 21.98 224.42 21.1 225.79 20.16 224.8 19.31 225.12 18.51 223.57 18.42 221.94 19.07 220.79 18.73 219.25 19.4 217.93 18.55 216.47 18.73 215.66 19.56 217.61 19.85 217.59 20.21 215.84 20.45"/><polygon class="a" points="248.5 53.48 248.59 55.18 249.06 55.56 249.51 55.09 250.05 55.18 250.14 53.3 249.4 52.32 248.84 52.74 248.21 52.68 248.5 53.48"/><polygon class="a" points="256.05 56.66 254.89 56.82 253.5 56.68 253.36 57.44 255.04 58.18 255.65 58.34 256.59 58.88 256.79 58.14 256.59 57.69 256.95 56.55 256.05 56.66"/><polygon class="a" points="142.62 84.72 142.35 84.68 141.81 84.77 141.63 85.1 142.28 85.62 142.95 85.84 143.36 85.62 144.23 85.59 144.05 85.19 143.45 84.86 142.62 84.72"/><polygon class="a" points="394.28 64.63 395.2 65.05 395.4 66.33 396.19 66.89 396.75 66.28 396.57 63.87 394.93 62.81 396.3 62.79 397.42 62.12 399.34 61.81 399.88 62.88 400.91 63.42 401.9 61.78 403.94 61.7 405.15 61.02 405.28 59.99 404.72 59.28 404.59 58.12 403.78 56.62 404.07 55.18 403.44 54.02 401.63 52.07 400.55 52.34 400.6 53.22 401.74 54.8 401.96 56.57 401.58 57.13 400.58 58.59 399.46 57.89 399.46 60.47 398.05 60.17 395.89 60.6 395.47 61.58 394.6 62.32 394.35 63.22 393.38 63.66 394.28 64.63"/><polygon class="a" points="399.48 62.93 399.12 62.43 398.11 62.14 397.87 62.75 397.13 62.57 396.83 63.42 397.1 64.09 398.05 64.49 398.02 63.66 398.49 63.33 399.19 63.8 399.48 62.93"/><polygon class="a" points="403.24 49.86 404.68 49.48 403.33 47.93 402.95 48.52 401.94 48.22 400.75 47.76 398.43 46.32 398.85 47.4 399.81 49.3 398.65 49.39 398.78 50.44 399.81 51.8 401.09 51.8 400.73 50.28 403.15 51.22 403.24 49.86"/><polygon class="a" points="340.14 97.86 339.22 97.07 338.8 99.38 339.11 101.42 339.74 102.56 340.81 102.22 341.33 101.82 341.46 100.34 340.79 98.86 340.14 97.86"/><polygon class="a" points="301.28 130.35 301.03 129.41 300.72 128.81 300.31 128.2 299.87 128.83 299.8 129.68 299.06 130.69 298.54 130.51 298.68 131.11 298.27 131.83 297.2 132.7 296.44 133.53 295.9 133.53 295.41 133.8 294.71 134.09 294.09 134.13 293.86 135.05 293.37 135.83 293.39 137.15 293.57 138.05 293.82 138.72 293.64 139.64 292.99 140.71 292.94 141.18 292.36 141.43 292.07 142.46 292.12 143.49 292.47 144.6 292.45 145.88 292.72 146.62 293.66 147.13 294.33 147.51 295.45 146.91 296.48 146.57 297.18 144.92 297.81 142.93 298.77 140.24 299.51 138.27 300.11 136.62 300.29 135.41 300.65 135.07 300.81 134.47 300.63 133.41 300.9 132.99 301.25 133.84 301.5 133.41 301.68 132.72 301.39 132.07 301.28 130.35"/><polygon class="a" points="359.54 86.96 360.23 88.12 360.68 89.94 361.26 91.64 361.85 92.38 361.89 93.92 362.38 94.77 362.09 95.84 362.29 96.92 362 98.28 361.94 99.16 362.2 99.96 362.36 99.11 363.01 99.81 363.73 100.59 363.97 101.3 364.51 101.84 364.51 101.84 364.83 102.44 364.74 103.5 365.21 104.26 365.43 105.44 366.19 106.41 366.37 107.12 367.87 108.24 369.08 109.31 369.98 109.2 370 108.73 369.49 107.48 369.01 107.08 368.9 106.23 368.77 105.76 368.88 105.11 368.77 104.14 368.19 103.18 367.4 102.33 367.11 102.2 367.11 102.2 366.42 101.46 365.65 101.28 364.92 100.48 364.6 99.25 364.02 97.95 363.19 97.9 363.03 96.87 363.35 95.62 363.84 93.54 363.8 91.97 364.89 91.95 364.83 93.07 365.88 93.05 367.07 93.7 366.6 91.97 366.6 91.97 367.07 93.69 367.83 95.17 368.41 95.91 369.46 96.11 370.47 96.94 370.18 97.9 370.69 98.8 372.17 97.48 373.09 96.29 374.46 95.37 375.42 94.43 375.33 91.93 374.44 89.31 373.52 88.17 372.26 87.27 370.83 85.42 369.64 83.92 369.75 82.93 370.58 81.59 372.04 80.36 370.72 80 370.05 79.42 370.05 79.42 370.72 80 372.04 80.36 372.58 80.13 374.3 80.58 374.1 81.14 374.59 82.17 375.26 82.08 375.44 80.58 376.7 80.38 378.31 79.66 378.87 78.95 379.05 79.11 379.03 79.13 379.03 79.17 379.09 79.22 379.15 79.2 379.22 79.27 379.03 79.33 379 79.4 379 79.42 379.05 79.44 379.21 79.44 379.18 79.33 379.22 79.27 379.39 79.42 379.4 79.4 379.45 79.46 379.5 79.44 379.5 79.4 379.5 79.35 379.47 79.33 379.5 79.3 379.52 79.31 379.52 79.28 380.01 78.77 381.38 78.61 382.86 77.43 384.27 76.11 385.01 74.41 385.52 72.53 385.99 70.98 386.62 70.87 386.6 69.73 386.42 68.59 385.57 68.14 385.01 67.38 385.63 67 385.28 65.95 384.07 64.85 382.86 63.55 381.83 62.14 380.24 61.36 380.44 60.33 381.29 59.61 381.51 58.83 383.01 58.43 382.48 57.67 381.71 57.62 380.42 57.06 379.54 58.09 378.44 57.67 378.11 57.02 377.06 56.79 376 55.81 376.27 55.14 377.39 55.07 377.66 54.15 378.47 53.17 379.23 52.68 380.21 53.41 379.79 54.35 380.3 54.91 379.99 55.59 381.07 55.18 381.6 54.53 383.01 54.11 383.49 53.21 384.34 52.45 384.56 51.47 385.37 51.92 386.4 51.96 386.4 51.96 385.37 51.92 384.56 51.47 384.34 52.45 383.49 53.21 383.01 54.11 383.75 54.49 384.51 54.65 384.69 54.87 384.78 55.65 385.03 55.92 384.83 56.08 384.81 56.73 385.23 56.95 385.59 57.09 385.77 57.35 386.06 57.24 386.06 56.95 386.75 57.24 386.78 57.11 387.31 57.15 387.47 56.5 388.26 56.44 388.73 56.35 388.73 56.35 388.26 56.44 387.47 56.5 387.31 57.15 386.78 57.11 386.75 57.24 388.14 58.47 387.38 58.72 388.55 60.24 388.79 61.31 389.26 62.1 390.27 61.99 390.99 61.38 391.93 61.11 392.04 60.31 391.28 58.63 390.54 57.69 388.7 55.99 388.7 55.99 387.74 55.36 387.16 55.14 387.2 54.98 386.93 54.35 387.23 53.98 387.88 53.75 388.1 53.33 388.17 53.08 388.59 52.77 387.96 51.76 388.03 51.29 388.23 50.84 388.73 50.91 388.73 50.91 388.73 50.91 388.73 50.91 388.73 50.91 388.64 50.46 389.53 49.45 390.68 50.13 391.39 50.1 392.38 49.3 392.6 48.47 393.07 46.88 393.5 45.27 393.21 44.31 393.43 42.29 392.27 40.08 391.03 38.45 390.74 37.06 389.69 35.92 386.85 34.42 385.59 34.33 385.52 35 384.22 34.71 382.95 33.86 381.15 33.7 382.25 30.55 383.04 27.97 385.97 27.57 389.31 27.79 389.87 27.17 391.64 27.35 392.6 28.31 394.04 28.17 395.92 27.82 394.19 27.03 394.19 24.84 396.23 24.41 398.94 26 399.75 24.57 399.03 23.52 400.08 23.41 401.54 25.22 401 26.25 400.82 27.59 400.89 29.27 399.61 29.56 400.24 30.17 400.22 30.97 401.65 32.83 405.24 35.83 407.59 37.8 408.86 38.76 409.22 37.48 408.21 36.1 409.49 35.76 408.28 34.22 409.4 33.52 408.35 32.94 407.59 31.82 408.51 31.78 406.49 29.85 404.99 29.54 404.34 29 404.09 27.75 403.4 26.88 404.97 27.05 405.26 26.5 406.31 26.99 407.68 25.96 410.23 26.85 409.85 26.27 410.3 25.47 410.63 24.57 411.33 24.41 412.78 23.45 414.98 23.72 414.78 23.39 413.93 22.87 413.01 22.51 410.97 21.48 409.15 20.81 410.52 20.9 410.97 20.34 403.6 15.44 401.49 14.93 397.98 14.35 396.21 14.41 392.8 14.1 393.21 14.61 395.11 15.37 394.55 15.78 391.37 14.7 389.85 14.84 387.79 14.59 386.22 14.64 385.34 14.88 383.73 14.52 382.59 13.67 381.13 13.18 379.07 12.98 375.78 13.2 372.17 12.31 370.43 11.64 361.44 10.88 360.97 11.37 363.06 12.44 361.38 12.29 361.15 12.62 358.98 12.26 357.86 12.58 355.78 12.04 356.45 13.27 354.45 12.8 352.21 11.88 352.13 11.39 350.78 10.65 348.59 10.07 347.22 10.07 345.14 9.87 346.19 10.74 342.34 10.56 341.46 10.05 338.48 9.85 337.3 10.03 337.27 10.32 335.97 9.6 335.46 9.8 333.85 9.53 332.59 9.38 332.84 9.04 334.32 8.41 334.83 8.08 334.29 7.52 333.06 7.09 330.49 6.58 328.07 6.56 327.64 6.83 326.72 6.29 324.66 6.13 325.42 5.86 323.59 5.53 322.22 5.95 322 6.4 322.33 6.87 320.79 6.85 319.6 7.43 318.64 7.18 316.55 7.3 316.62 7.59 314.56 7.74 313.46 8.28 312.52 8.32 312.25 9.06 313.49 9.65 311.76 9.8 309.63 9.73 308.33 9.98 309.41 11.19 310.95 12.15 308.8 11.48 307.03 11.55 305.89 11.99 306.9 12.85 305.8 12.62 305.33 11.5 304.39 10.88 303.99 10.9 304.79 11.73 303.76 12.51 305.58 13.45 305.67 14.66 306.32 15.31 307.37 15.42 307.46 16.2 308.44 16.9 308.02 17.48 308.13 18.08 307.3 18.39 307.19 18.84 306 18.66 306.79 16.92 306.68 16.11 305.17 15.37 304.32 13.74 303.49 12.91 302.69 12.55 302.87 11.62 302.22 10.97 299.69 10.65 299.22 10.88 299.33 11.93 298.37 12.98 298.63 13.36 299.69 14.28 299.71 14.86 300.9 14.97 301.07 15.22 302.37 15.87 302.15 16.49 298.01 15.13 296.53 14.75 293.66 14.39 293.39 14.77 294.71 15.46 294.11 16.27 292.68 15.55 291.56 16.05 289.85 16.07 289.38 16.49 288.19 16.36 288.75 15.62 288.04 15.58 285.28 16.61 283.58 17.19 283.67 17.97 282.33 18.24 281.43 17.81 281.16 17.14 282.28 16.98 281.48 16.31 278.74 15.91 279.71 16.67 279.53 17.39 280.58 18.13 280.33 18.98 279.3 18.55 278.41 18.48 276.61 19.69 277.56 20.61 276.84 20.92 274.29 20.14 273.81 20.61 274.55 21.15 274.6 21.75 273.75 21.44 272.4 21.06 271.98 19.76 271.75 19.18 269.96 18.28 270.61 18.13 275.11 19.07 276.55 18.73 277.38 18.08 277.02 17.28 276.12 16.69 272.18 15.33 269.58 15.04 267.88 14.32 267.07 14.72 265.64 15.22 264.92 15.33 264.92 15.33 264.92 15.33 265.64 15.22 267.07 14.72 265.86 13.99 266.94 13.67 263.89 12.8 262.35 13.05 260.71 12.98 259.57 13.96 258.07 13.9 256.16 14.41 253.9 15.93 252.47 16.83 250.5 19.22 248.91 20.97 247.09 22.27 244.58 23.34 243.71 24.14 244.13 27.14 244.56 28.55 245.99 29.23 247.34 28.91 249.24 27.39 249.98 28.2 250.36 27.46 251.12 26.56 251.32 25.02 251.32 25.02 251.12 26.56 250.36 27.46 249.98 28.2 250.92 30.08 251.91 31.57 252.35 32.85 253.54 32.78 254.03 31.73 255.31 31.84 255.76 30.61 255.89 28.38 256.93 28.08 257.66 26.61 256.59 25.87 255.78 24.97 256.25 23.16 257.98 22.07 259.34 21.06 259.07 20.27 259.84 19.4 261.4 19.07 261.4 19.07 262.84 19.65 263.04 20.16 262.46 20.43 260.51 21.8 259.77 22.6 259.43 23.34 260.08 24.5 260.06 25.78 261.11 26.2 261.81 26.9 263.4 26.63 265.08 26.16 266.87 26.05 268.64 24.39 269.38 23.65 269.58 23 269.58 23 269.38 23.65 268.64 24.39 266.87 26.05 268.06 26.68 267.05 27.39 267.05 27.39 266.02 27.43 264.88 27.21 263.64 27.41 262.44 27.77 262.64 28.53 263.38 29 263.71 28.82 263.73 29.61 264.56 29.38 265.03 29.54 266.02 30.03 266.87 30.03 267.23 29.61 267.23 29.61 266.87 30.03 266.87 30.03 266.02 30.03 265.03 29.54 264.56 29.38 263.73 29.61 263.69 30.64 262.88 30.66 261.9 29.65 261 30.12 260.62 30.95 260.73 31.95 261.11 33.07 262.23 33.32 262.73 33.52 262.73 33.52 262.23 33.32 261.11 33.08 259.7 33.52 259.55 34.1 259.55 34.1 258.51 34.08 258.4 33.77 257.33 33.52 256.05 33.99 254.46 34.62 253.77 35 254.08 35.69 254.08 35.69 253.77 35 253.23 34.57 252 34.04 251.44 34.42 250.38 34.66 250.36 34.19 249.26 33.88 249.22 33.37 248.88 32.69 249.58 31.73 249.89 31.89 250.12 31.37 249.53 31.17 249.38 30.81 249.67 30.37 249.65 29.7 248.84 30.05 248.5 30.43 247.61 30.52 247.34 30.9 247.18 31.26 247.27 32.63 247.74 33.39 247.83 34.15 248.1 34.64 247.43 35.31 247.2 35.02 246.33 35.09 246.13 35.38 246.35 35.83 246.35 35.83 246.13 35.38 245.25 35.34 243.8 35.92 242.93 37.91 242.37 38.29 242.37 38.29 241.51 38.56 241.51 38.56 240.55 38.83 240.24 39.97 237.71 41.04 236.68 40.46 236.99 42.02 235.15 41.67 233.72 41.96 233.81 42.99 235.49 43.52 236.29 44.22 237.44 45.67 237.21 48.42 236.61 49.25 237.06 49.79 239.16 50.42 239.59 50.13 240.42 50.53 240.42 50.53 239.59 50.13 239.16 50.42 237.06 49.79 236.61 49.25 234.77 49.21 233.83 49.28 232.62 49.05 231.1 49.05 229.71 48.81 228.05 49.81 228.5 50.4 228.41 51.38 228.41 51.38 228.41 51.38 228.43 51.85 228.63 52.34 228.66 52.95 228.37 53.8 228.28 54.35 227.78 54.87 227.65 55.81 227.92 56.35 228.43 56.48 228.52 57.38 228.3 58.52 228.93 58.36 229.53 58.56 230.02 58.18 230.02 58.18 231.1 58.41 231.41 59.23 231.86 59.73 232.42 59.86 232.89 59.3 233.63 58.79 234.75 58.81 236.25 58.81 237.1 57.69 237.97 57.4 238.24 56.46 238.91 55.81 238.47 54.98 238.91 53.84 239.61 53.06 239.72 52.59 241.2 52.3 242.28 51.36 242.21 50.57 242.32 49.74 243.98 49.3 246.22 49.66 247.23 48.9 247.34 48.29 247.34 48.29 247.23 48.9 247.7 48.78 248.32 48.16 248.84 47.96 249.78 48.43 250.36 48.58 250.79 49.92 251.59 50.73 252.69 51.63 253.63 52.25 254.51 52.34 255.02 52.9 255.78 53.17 256.16 53.77 256.66 53.95 257.06 54.67 257.57 55.5 257.33 55.79 257.15 56.57 257.17 57.02 257.64 56.91 258.2 55.65 258.67 55.56 258.76 54.83 257.89 54.31 258.31 53.39 259.32 53.62 260.02 54.29 260.19 53.77 260.06 53.51 259.01 52.79 258.13 52.36 257.06 51.85 257.37 51.58 257.06 51.27 256.16 51.29 254.82 50.17 254.17 49.03 253.07 48.34 252.65 47.64 252.76 47.24 252.67 46.57 253.54 46.08 254.46 46.28 254.46 46.28 254.21 46.39 254.21 46.39 254.17 46.41 254.17 46.9 254.55 47.35 254.84 46.77 255.58 46.99 255.65 47.44 256.21 48.02 255.98 48.13 257.01 49.14 258.09 49.55 258.78 50.04 259.9 50.55 259.9 50.55 260.42 50.82 260.78 51.29 261.02 51.38 261.02 51.38 261.25 51.6 261.14 52.03 261.11 52.99 261.27 53.66 261.94 54.13 261.99 54.45 262.21 54.53 262.21 54.53 262.32 54.96 262.97 55.77 263.49 56.44 263.78 57.4 264.29 58.54 265.32 59.19 266.09 59.17 265.55 57.89 266.29 57.73 265.86 57 266.98 57.38 266.89 56.55 266.29 56.15 265.57 55.47 265.97 55.16 265.35 54.49 264.99 53.64 265.19 53.35 265.86 54.06 266.51 54.06 267.07 53.84 266.2 53.03 267.56 52.68 268.17 52.81 268.89 52.86 269.13 52.7 269.4 51.83 269.4 51.83 269.13 52.7 268.89 52.86 268.91 53.15 269.33 53.8 270.21 53.04 270.66 52.61 272.02 52.52 272.18 52.19 271.13 51.74 270.93 51.2 269.92 51.02 270.93 51.2 270.45 50.42 270.75 49.43 271.24 48.87 270.57 48.72 271.24 48.87 271.33 47.22 271.69 47.33 272.2 47.04 272.11 46.68 271.57 46.43 271.08 46.66 270.54 46.41 270.25 45.78 270.25 45.78 270.54 46.41 270.54 46.41 271.08 46.66 271.57 46.43 272.11 46.68 272.85 45.65 273.14 44.89 274.15 44.71 274.31 45.25 276.1 45.58 276.48 45.9 275.47 46.37 275.31 46.63 276.61 47.04 276.48 47.69 277.15 47.98 278.56 47.17 279.75 46.93 279.88 46.43 278.74 46.52 278.14 46.19 277.91 45.31 278.79 44.8 279.82 44.73 280.49 44.28 281.36 44.17 281.36 44.17 282.3 43.95 282.39 44.24 280.87 44.82 281.59 45.36 280.87 46.52 280.11 46.75 281.23 47.55 282.62 48.09 284.27 49.23 284.27 49.23 284.77 49.66 285.44 49.81 286.2 50.33 286.67 51.27 286.61 51.87 287.81 51.8 289.07 52.48 290.61 52.25 290.83 52.06 290.62 52.25 290.93 52.63 291.42 52.88 291.42 52.88 290.93 52.63 290.61 52.25 289.07 52.48 289.36 52.97 289.36 52.97 289.07 52.48 287.81 51.8 286.61 51.87 285.37 52.59 284.37 52.45 283.07 52.68 281.32 52.14 279.15 51.16 277.24 51.2 275.96 51.58 274.71 52.48 272.49 52.3 272.13 53.37 270.37 53.42 269.22 54.78 270.03 55.45 269.58 56.57 270.52 57.38 271.35 58.81 272.65 58.79 273.86 59.57 274.67 59.39 274.87 58.79 276.14 58.83 277.17 59.62 278.97 59.46 279.66 58.63 280.69 58.97 281.41 58.83 281.03 59.37 281.54 60.04 281.32 60.62 281.56 61.74 282.1 61.81 282.37 62.37 282.37 62.37 282.1 61.81 281.56 61.74 281.54 61.78 281.07 62.79 280.78 63.95 280.78 63.95 280.76 63.98 280.62 64.34 280.49 65.41 280.24 66.06 280.33 66.15 280.02 66.62 280.89 68.68 281.05 69.06 281.43 66.78 281.43 66.78 281.05 69.06 281.12 69.26 281 69.82 281 70.31 280.87 71.09 281.48 71.09 282.19 72.08 283.02 73.22 283.58 74.27 283.96 74.61 284.34 75.34 284.3 75.66 284.77 76.49 285.44 76.78 286.07 77.34 286.87 78.9 286.87 79.75 287.07 80.74 287.97 82.1 288.53 82.33 289.45 83.31 289.88 84.47 290.59 85.66 291.26 86.18 291.4 86.73 291.8 87.16 292 87.79 292.52 87.32 292.52 87.32 292 87.79 292.09 88.39 291.96 88.68 292.12 89.33 291.87 89.4 292.25 89.98 292.54 91.03 292.76 91.46 292.76 92.22 293.12 93.07 294 93.14 294.4 92.93 295 92.98 295.18 92.6 295.52 92.51 295.77 92.13 296.08 92.04 297.13 91.97 297.92 91.7 298.61 91.1 298.99 91.19 299.53 91.12 300.58 90.11 302.55 89.44 303.74 88.84 303.74 88.37 303.94 87.72 304.82 87.34 305.38 87.27 306.18 86.78 306.88 86.92 307.44 86.51 307.39 85.95 307.86 85.59 308.62 85.59 308.89 85.3 308.94 84.61 309.68 84.07 310.26 84.07 310.35 83.89 310.13 82.95 310.26 82.24 310.48 81.9 311.04 81.97 311.42 80.98 311.89 80.54 312.07 80.13 312.43 79.28 312.41 78.97 311.94 78.79 311.58 78.32 310.93 77.49 310.19 77.25 309.27 77.05 308.53 76.53 307.88 75.57 307.26 75.57 307.24 76.51 307.26 75.57 307.88 75.57 307.59 74.45 307.71 74.18 307.75 73.6 307.59 73.47 307.3 73.96 307.3 73.96 306.63 74.83 305.8 75.75 305.06 76.71 304.32 76.67 303.29 76.62 302.35 76.84 302.29 76.46 302.06 76.53 302.06 76.53 301.79 76 301.97 75.14 301.86 74.32 301.43 73.87 301.12 74.03 300.87 74.76 301.05 75.81 300.83 75.46 300.63 74.99 300.25 74.58 300.02 74.11 300.11 73.64 299.98 73.04 299.08 72.46 298.81 71.94 298.16 71.63 297.56 70.4 297.56 70.4 297.02 69.33 297.09 68.99 296.77 68.36 297.49 68.45 297.49 68.45 297.87 67.89 298.7 68.36 299.33 68.14 300.47 70.02 301.43 71.39 302.67 71.79 304.03 72.88 305.58 73.35 306.72 72.66 307.62 72.41 308.24 72.66 308.96 74.41 310.37 74.58 311.74 74.92 314.09 75.35 314.36 73.69 316.02 72.95 316.02 72.95 314.36 73.69 314.09 75.35 315.79 75.14 317.79 75.12 320 74.85 321.1 75.93 321.57 76.96 322.51 77.31 324.1 78.52 324.53 79.08 323.99 79.6 325.78 81.32 326.68 81.5 328.38 80.65 328.76 81.97 328.94 83.72 329.5 85.53 330.31 88.28 331.61 90.25 331.9 91.12 332.35 92.91 333.11 94.28 333.6 94.95 334.16 96.38 334.85 98.37 336.09 99.72 336.58 99.31 336.96 98.33 338.08 97.92 337.68 97.45 338.17 96.38 338.82 96.31 338.66 93.9 339.09 92.53 338.93 91.35 338.51 89.51 338.77 88.42 339.33 88.35 340.41 87.83 340.99 87.47 340.93 86.83 342.05 85.89 342.87 84.99 344.06 83.31 345.72 82.37 346.26 81.52 346.05 80.45 347.53 80.16 348.36 80.18 348.47 79.64 348.12 78.48 347.53 77.41 347.53 77.4 348.12 78.48 348.47 79.64 348.97 79.78 349.35 79.93 349.48 79.66 350.04 79.95 350.33 79.17 350.13 78.59 351.27 78.64 351.9 79.46 352.24 80.16 352.42 80.87 352.86 81.61 352.86 81.61 353.89 82.78 354.66 82.98 354.57 83.47 355.78 85.13 356.2 86.44 356 88.21 356.81 88.55 357.52 88.68 358.82 87.65 359.54 86.96"/><polygon class="a" points="257.13 5.8 258.83 5.35 257.57 5.12 257.15 4.74 255.54 4.95 256.12 5.28 255.63 5.55 257.13 5.8"/><polygon class="a" points="249.42 5.17 250.7 5.48 250.03 5.86 251.91 6.51 252.89 6.47 253.09 5.59 253.77 5.39 254.03 4.63 255.94 4.23 253.14 3.49 252.06 3.13 250.92 3.18 250.7 3.51 249.58 3.51 249.09 3.18 247 3.54 247.72 4.32 249.42 5.17"/><polygon class="a" points="254.39 3.33 254.59 3.63 256.97 3.78 259.23 3.67 260.19 3.13 258.56 2.8 256.52 2.57 255.81 2.84 254.62 2.62 252.29 2.89 253.25 3.33 254.39 3.33"/><polygon class="a" points="438.57 169.38 438.77 168.79 437.47 169.44 436.71 170.2 435.99 170.56 434.67 171.59 433.41 172.31 431.85 173.02 430.61 173.56 429.65 173.81 427.12 175.17 425.69 176.2 425.44 176.72 426.58 176.81 426.92 177.28 427.93 177.3 428.82 176.9 430.23 176.27 432.05 174.88 433.1 173.96 434.49 173.45 435.39 173.43 435.52 172.78 436.55 172.22 438.12 171.21 439.06 170.56 439.53 169.98 439.64 169.4 438.39 169.96 438.57 169.38"/><polygon class="a" points="446.7 165.17 445.98 165.06 445.33 164.59 445.85 163.49 445.58 163.09 444.93 164.07 445.02 162.55 445.44 161.28 444.75 160.9 444.57 160.09 444.05 160.2 443.96 161.23 444.14 162.51 444.35 163.11 444.14 163.36 444.01 164.34 443.47 165.26 442.53 166.38 441.34 166.87 440.96 167.41 441.79 167.97 441.61 168.75 440.07 169.89 440.38 170.09 440.29 170.45 441.61 169.89 442.93 168.95 443.94 168.19 444.3 167.92 444.64 167.32 445.26 166.87 446.12 166.91 447.06 166.06 448.2 164.79 447.73 164.61 446.7 165.17"/><polygon class="a" points="388.17 89.11 388.44 89.73 389.17 90.56 389.26 90.05 389.67 90.36 389.33 90.74 389.35 91.32 390 91.64 391.12 91.44 392.02 92.28 392.27 91.75 392.83 92.51 393.9 93.2 393.95 92.55 393.5 92.2 393.52 91.44 391.84 90.63 391.32 90.81 390.63 90.65 390.18 89.51 390.2 88.37 390.88 87.9 391.01 86.71 390.41 85.68 390.5 85.1 390.34 84.74 390 85.1 389.17 84.7 388.44 84.7 388.23 86 388.48 88.21 387.9 87.77 388.17 89.11"/><polygon class="a" points="397.33 102.11 397.66 100.81 397.53 100.03 397.35 99.07 397.22 98.55 397.04 97.83 395.96 97.16 396.14 98.26 395.27 98.31 395.11 98.93 394.17 99.31 393.68 98.69 393.05 99.22 392.29 99.6 391.86 100.81 392.11 101.24 392.98 100.43 393.59 100.5 393.92 99.89 394.77 100.56 394.44 101.26 394.86 102.29 396.39 103.12 396.7 102.44 396.23 101.39 396.77 100.68 397.33 102.11"/><polygon class="a" points="391.62 96.18 392.36 95.75 392.89 95.15 392.85 94.57 392.04 94.57 391.26 94.12 391.53 94.79 391.5 95.53 391.62 96.18"/><polygon class="a" points="389.8 92.96 390.43 93.67 390.61 92.44 390.12 91.93 389.04 91.88 389.8 92.96"/><polygon class="a" points="385.79 99.13 387.36 97.79 387.94 96.81 388.7 96.02 388.37 94.86 387.83 96.27 387.18 97.25 386.33 98.15 385.79 99.13"/><polygon class="a" points="395.74 93.74 395.33 93.2 394.13 93.18 395.02 94.25 395.09 94.79 394.35 94.68 394.62 95.55 395 95.62 395.15 96.63 395.71 96.31 395.33 95.42 395.25 94.95 396.25 95.33 395.74 93.74"/><polygon class="a" points="392.74 95.55 392.67 96.45 392.4 96.85 392.18 97.23 393.03 98.22 393.39 97.79 393.7 96.89 394.1 96.42 394.1 95.06 393.3 96.42 393.41 95.48 392.74 95.55"/><polygon class="a" points="433.71 120.35 434.2 120.91 434.56 120.77 434.76 120.37 434.22 119.88 433.66 118.98 433.3 118.65 433.19 118.22 433.01 118.38 433.21 119.45 433.71 120.35"/><polygon class="a" points="426.87 120.06 427.52 120.06 428.19 119.72 428.91 119.36 429.14 118.96 429.81 118.85 430.28 117.97 430.37 117.19 430.12 116.97 429.36 116.99 429.45 117.82 428.71 118.33 428.33 118.83 427.61 118.94 427.52 118.18 427.34 118.2 427.12 118.89 426.43 119 425.31 118.8 425.17 119.23 425.87 119.63 426.87 120.06"/><polygon class="a" points="429.94 115.98 430.48 116.45 430.75 116.99 430.93 117.84 431.35 117.46 431.24 116.72 430.79 116.25 430.32 115.67 429.81 115.33 429.38 115.02 428.73 114.62 428.37 114.95 429.25 115.38 429.94 115.98"/><polygon class="a" points="357.21 8.88 358.22 8.62 361.4 8.66 360.73 7.83 356.72 7.25 354.43 7.21 353.67 7.41 354.43 8.17 357.21 8.88"/><polygon class="a" points="360.23 9.85 360.05 10.29 360.3 10.34 362.27 10.47 363.57 10.47 363.01 10.16 361.15 9.73 360.23 9.85"/><polygon class="a" points="399.99 13.23 398.65 12.42 398.34 12.91 399.12 13.27 399.99 13.23"/><polygon class="a" points="364.6 8.71 366.13 8.79 366.37 8.35 363.75 8.06 361.91 7.9 362.29 8.26 364.6 8.71"/><polygon class="a" points="284.63 12.46 286.4 12.78 286.9 13.29 289.9 13.45 290.39 13.36 288.17 12.4 287.48 11.44 288.22 10.34 288.85 9.22 290.77 8.17 292.97 7.63 295.5 7.09 295.79 6.76 294.85 6.33 293.37 6.47 292.27 6.87 289.65 7.07 287.39 7.77 285.87 8.37 286.43 8.86 284.95 9.85 285.82 10 284.61 10.97 284.97 11.59 284.21 11.84 284.63 12.46"/><polygon class="a" points="391.32 37.48 393.07 38.83 394.51 40.68 395.04 41.71 396.27 43.23 397.13 44.58 398.16 45.74 398.13 44.67 399.59 45.52 398.92 44.53 396.79 43.12 395.96 41.11 397.95 41.56 394.91 39.12 393.3 37.73 392.15 36.39 390.63 35.09 389.53 34.19 389.24 34.37 390.23 35 389.8 35.63 391.32 37.48"/><polygon class="a" points="275 2.96 275.99 3.18 276.79 3.02 276.82 2.87 277.47 2.8 278.41 2.66 278.61 2.53 277.33 2.33 276.7 2.48 276.41 2.71 276.08 2.44 274.91 2.46 273.52 2.64 275.25 2.66 275 2.96"/><polygon class="a" points="323.32 4.88 322.98 4.48 320.18 3.89 319.51 3.83 319.02 3.94 319.29 5.28 323.32 4.88"/><polygon class="a" points="312.48 3.76 314.27 4.14 316.85 4.43 318.44 4.3 317.43 3.4 314.38 2.48 312.27 2.02 310.89 2.22 309.7 2.87 311 3.04 312.48 3.76"/><polygon class="a" points="386.78 76.11 386.35 77.52 386.69 78.57 387.58 79.78 387.88 78.61 388.14 76.33 388.17 75.46 387.52 75.03 386.78 76.11"/><polygon class="a" points="43.97 80.13 43.59 80.34 43.61 80.38 43.7 80.72 44.1 80.76 44.19 80.78 44.28 80.69 44.03 80.22 43.97 80.13"/><polygon class="a" points="44.75 80.85 44.62 81.01 45.27 81.05 45.33 80.89 44.75 80.85"/><polygon class="a" points="71.3 27.03 72.17 26.83 72.69 26.32 72.03 26.2 70.76 26.43 70.94 26.79 71.3 27.03"/><polygon class="a" points="41.97 79.53 41.88 79.64 42.24 79.89 42.42 79.75 42.49 79.42 42.2 79.4 41.97 79.53"/><polygon class="a" points="46.84 82.6 46.66 82.46 46.23 82.22 46.14 82.19 46.05 82.33 46.05 82.62 45.78 82.84 45.69 83 45.78 83.51 45.65 83.92 45.92 84.12 46.14 83.87 46.59 83.67 47.15 83.36 47.19 83.27 46.99 82.78 46.84 82.6"/><polygon class="a" points="72.77 22.36 72.84 22.6 73.22 22.87 74.32 22.6 74.59 22.47 73.85 22.29 73.49 21.95 72.73 22.09 72.44 21.84 71.74 22.33 71.83 22.45 72.77 22.36"/><polygon class="a" points="81.04 29.58 79.61 30.05 79.11 30.66 79.27 31.02 80.84 30.5 82.38 29.87 82.38 29.47 81.8 29.38 81.04 29.58"/><polygon class="a" points="46.14 81.5 45.87 81.28 45.47 81.14 45.31 81.25 45.31 81.34 45.42 81.45 45.56 81.77 46.01 81.66 46.14 81.5"/><polygon class="a" points="446.74 133.28 447.03 133.46 447.08 132.32 446.56 131.87 446.36 132.97 446.47 133.37 446.74 133.28"/><polygon class="a" points="446.79 134.06 447.08 134.69 447.53 134.49 446.92 133.68 446.79 134.06"/><polygon class="a" points="302.71 93.94 302.24 93.94 301.66 94.43 301.01 94.57 300.45 94.77 300.05 94.81 299.33 94.86 298.9 95.11 298.27 95.22 297.2 95.64 295.83 95.82 294.67 96.18 294.04 96.18 293.46 95.58 293.19 94.99 292.79 94.72 292.23 94.34 292.92 94.01 292.94 93.41 292.63 92.98 292.63 92.98 292 92.55 291.58 92.06 290.86 91.23 290.14 90.43 288.37 89.09 287.66 88.39 287.25 87.07 286.43 85.44 285.73 84.9 285.24 84.54 284.68 82.84 284.43 81.39 284.68 81.12 284.21 79.73 283.98 79.44 282.46 78.17 282.37 77.22 282.6 76.98 281.41 75.41 280.96 74.61 280.44 73.82 279.37 71.61 278.5 70.18 277.87 68.68 277.98 68.54 279.01 70.58 279.62 71.23 280.06 71.68 280.33 71.43 280.6 70.69 280.76 69.62 281.05 69.06 280.89 68.68 280.02 66.62 279.46 66.98 278.52 66.89 277.53 66.55 277.29 67.02 276.91 66.31 276.03 66.13 274.98 66.26 274.51 66.66 273.63 67.11 273.05 66.89 271.82 66.46 270.63 66.08 269.04 66.13 269.04 66.13 268.71 65.66 267.5 65.48 267.09 65.23 266.65 65.23 266.2 64.61 264.56 64.31 263.76 64.49 262.93 65.16 262.59 65.86 262.93 66.93 262.39 67.6 261.83 67.96 260.51 67.27 258.78 66.66 257.69 66.39 257.06 65.12 255.45 64.49 254.44 64.25 253.95 64.38 252.51 63.89 252.49 64.98 251.91 65.39 251.57 65.84 250.74 66.39 250.74 66.39 251.57 65.84 251.91 65.39 252.49 64.98 252.51 63.89 252.06 63.66 251.73 62.99 251.1 62.97 250.85 62.19 251.62 61.47 251.73 60.22 251.3 59.86 251.28 59.19 251.84 58.47 251.75 58.18 250.76 58.72 250.79 57.98 249.96 57.82 248.7 58.41 248.7 58.41 247.9 58.5 247.41 58.16 246.15 58.16 245.05 58.74 244.45 58.52 242.5 58.63 240.51 58.9 239.39 59.35 238.62 59.93 237.35 60.2 236.21 60.98 236.21 60.98 235.69 60.96 234.46 60.64 233.34 60.73 232.64 60.13 231.77 60.13 231.37 61 230.54 62.5 229.64 63.08 228.43 63.73 227.65 64.69 227.45 65.45 226.98 66.66 227.22 68.43 226.17 69.62 225.56 70 224.58 70.98 223.44 71.14 222.81 71.68 222.79 71.7 221.98 73.15 221.15 73.67 220.68 74.56 220.64 75.3 220.28 76.15 219.85 76.38 219.16 77.27 218.71 78.28 218.78 78.77 218.35 79.51 217.86 79.89 217.79 80.56 217.81 80.56 220.59 80.45 220.75 79.93 221.26 79.28 220.75 79.93 220.59 80.45 217.81 80.56 217.79 80.56 217.72 81.16 217.99 80.67 222.83 80.69 222.83 80.69 217.99 80.67 217.72 81.16 218.35 81.77 218.67 82.44 218.51 83.16 218.64 83.87 218.75 85.28 218.58 86.6 218.19 87.32 218.28 88.08 217.99 88.82 217.37 89.8 216.81 90.07 217.41 90.58 217.9 91.7 217.75 92.33 217.93 93.43 217.93 93.43 217.99 93.72 218.37 94.03 218.37 94.23 218.64 94.64 219.18 94.75 219.83 95.33 220.41 94.64 219.83 95.33 220.19 95.58 220.37 95.89 220.53 96.52 220.82 96.78 221.15 96.98 221.62 97.54 222.16 98.37 222.32 99.42 222.52 99.94 223.17 100.72 224.09 101.28 224.42 101.39 225.25 102.31 226.33 103.09 227.47 104.17 228.75 104.86 229.08 104.84 229.33 104.88 230.58 104.35 231.46 103.94 232.93 103.7 233.74 103.68 234.61 103.97 235.2 103.94 236.32 104.35 237.44 103.92 238.15 103.45 240.1 102.6 241.13 102.31 240.82 101.33 241.13 102.31 242.16 102.13 242.23 99.85 242.16 102.13 243.26 102.13 244.22 102.13 245.1 103.07 245.52 104.1 246.19 104.97 247.2 105.02 247.7 104.7 248.17 104.77 249.47 104.26 249.78 103.25 250.38 101.89 250.74 101.86 250.38 101.89 249.78 103.25 249.47 104.26 249.47 104.66 249.78 104.86 250.03 105.49 250.61 105.73 251.1 106.67 250.92 107.79 250.5 109.4 250.72 109.61 250.47 110.68 250.18 111.71 249.89 112.16 249.85 112.63 250.61 114.1 251.44 115.29 252.74 116.72 253.7 115.94 253.7 115.94 252.74 116.72 253.77 118.22 254.08 119.3 254.08 119.3 254.26 119.74 254.77 119.54 255.16 119.56 255.58 119.41 255.16 119.56 254.77 119.54 254.26 119.74 254.15 120.01 254.77 120.91 255.02 121.87 255.38 123.23 255 123.82 254.93 124.11 255.22 124.96 255.56 125.83 255.92 126.32 255.98 127.13 255.83 128.2 255.42 128.83 254.69 129.77 254.39 130.35 253.97 131.63 253.9 132.23 253.45 133.55 253.25 134.78 253.36 135.68 253.41 136.77 254.39 138.16 254.64 139.06 255.27 140.78 255.87 141.94 256.34 142.52 256.48 143.31 256.48 145.01 256.83 147.2 257.1 148.23 257.33 149.62 257.75 150.67 258.63 151.74 259.41 153.58 259.41 153.6 259.97 154.79 260.69 156.13 260.64 157.2 260.26 157.47 260.58 158.41 260.53 159.26 260.67 159.64 260.73 159.44 261.2 160.09 261.61 160.11 262.08 160.63 262.61 160.58 263.4 160.04 264.43 159.82 265.68 159.26 266.18 159.33 266.92 159.15 268.19 159.42 268.8 159.15 269.51 159.37 269.69 158.97 270.3 158.9 271.6 158.34 272.56 157.69 273.48 156.84 274.98 155.39 275.74 154.36 276.14 153.65 276.7 152.91 276.97 152.71 277.85 151.99 278.2 151.34 278.45 150.18 278.83 149.13 278.99 148.39 278.68 148.27 278.61 147.69 279.19 147.16 280.71 146.4 281.74 145.9 282.3 145.39 282.51 144.81 282.24 144.56 282.48 143.89 282.6 142.5 282.37 142.57 282.37 142.14 282.19 141.31 281.65 140.24 281.81 139.21 282.33 138.9 283.25 137.87 283.74 137.62 285.24 136.1 286.67 135.41 287.84 134.85 288.67 133.97 289.2 132.99 289.63 131.96 289.43 131.27 289.47 129.05 289.38 127.8 289.47 126.39 289.29 125.74 288.85 125.43 288.35 124.02 287.95 123.14 288.04 122.45 287.97 122.03 288.35 121.15 288.31 120.79 287.52 120.28 287.46 119.47 288.08 117.71 288.08 117.71 288.58 117.24 288.85 116.3 289.25 115.72 289.45 114.71 289.92 114.62 290.23 114.01 291.13 113.45 291.42 113.12 291.71 112.36 293.08 110.64 294.27 109.56 296.13 108.13 297.38 106.99 298.81 105.04 299.87 103.45 300.9 101.37 301.61 99.54 302.17 97.95 302.46 96.42 302.71 95.91 302.67 95.15 302.75 94.32 302.71 93.94"/><polygon class="a" points="249.42 52.07 249.76 51 249.51 49.84 248.79 50.35 248.57 50.86 248.88 51.8 249.42 52.07"/><polygon class="a" points="242.5 54.06 242.45 54.04 242.16 54.13 242.01 54.22 241.54 54.56 241.54 54.62 241.56 54.67 241.65 54.67 241.69 54.76 241.78 54.67 241.85 54.65 241.92 54.67 241.98 54.71 242.01 54.85 242.03 54.89 242.16 54.91 242.37 55 242.45 54.96 242.57 54.89 242.61 54.76 242.68 54.65 242.75 54.53 242.81 54.45 242.79 54.35 242.72 54.33 242.66 54.31 242.54 54.35 242.43 54.31 242.45 54.24 242.48 54.2 242.5 54.18 242.45 54.13 242.45 54.11 242.5 54.06"/><polygon class="a" points="240.66 55.32 240.59 55.27 240.35 55.32 240.3 55.38 240.3 55.45 240.24 55.47 240.21 55.56 240.24 55.61 240.42 55.63 240.46 55.54 240.53 55.54 240.66 55.38 240.66 55.32"/><polygon class="a" points="243.75 54.24 243.78 54.24 243.8 54.15 243.8 54.13 243.69 53.98 243.49 53.91 243.26 53.93 243.24 53.95 243.24 54.04 243.26 54.06 243.4 54.09 243.75 54.24"/><polygon class="a" points="240.46 55.77 240.44 55.81 240.42 55.85 240.42 55.9 240.53 55.9 240.62 55.92 240.64 55.9 240.64 55.85 240.53 55.85 240.46 55.77"/><polygon class="a" points="151.24 93.09 151.22 93.11 151.2 93.18 151.26 93.25 151.33 93.34 151.4 93.36 151.4 93.31 151.38 93.29 151.31 93.16 151.24 93.09"/><polygon class="a" points="160.67 85.06 160.63 85.03 160.45 85.15 160.45 85.17 160.65 85.1 160.67 85.06"/><polygon class="a" points="162.04 85.86 162.02 85.84 161.99 85.84 161.97 85.86 161.99 86 162.11 86.06 162.13 86.02 162.13 85.91 162.11 85.86 162.04 85.86"/><polygon class="a" points="161.88 86.76 161.9 86.83 162.04 86.85 162.08 86.8 162.13 86.78 162.13 86.76 162.13 86.71 162.11 86.69 162.08 86.65 161.99 86.6 161.88 86.71 161.88 86.76"/><polygon class="a" points="147.5 78.66 147.46 78.57 147.37 78.55 147.34 78.59 147.34 78.64 147.37 78.72 147.41 78.7 147.59 78.79 147.68 78.72 147.63 78.7 147.5 78.66"/><polygon class="a" points="145.42 77.36 145.37 77.45 145.46 77.47 145.66 77.63 145.75 77.67 145.8 77.67 145.69 77.61 145.64 77.54 145.49 77.38 145.42 77.36"/><polygon class="a" points="148.53 80.87 148.4 80.94 148.33 80.94 148.17 80.87 148.06 80.87 147.97 80.98 147.84 81.01 147.86 81.03 147.86 81.07 147.81 81.14 147.81 81.19 147.84 81.25 148.17 81.23 148.46 81.19 148.62 80.98 148.67 80.87 148.71 80.74 148.64 80.72 148.53 80.87"/><polygon class="a" points="143.02 76.38 143.04 76.47 143.11 76.4 143.25 76.35 143.29 76.31 143.45 76.22 143.45 76.17 143.47 76.04 143.49 75.88 143.38 75.75 143.31 75.55 143.27 75.46 143.29 75.35 143.22 75.26 143.09 75.17 143.02 75.19 143.04 75.44 143 75.57 142.82 75.81 142.84 75.91 142.86 75.95 142.75 76.04 142.75 75.97 142.62 76 142.69 76.11 142.82 76.2 142.89 76.22 142.95 76.17 142.95 76.29 143.02 76.38"/><polygon class="a" points="147.75 79.06 147.68 79.08 147.66 79.13 147.59 79.15 147.5 79.26 147.32 79.4 147.28 79.46 147.37 79.42 147.52 79.28 147.68 79.22 147.88 78.97 147.86 78.77 147.9 78.68 147.77 78.7 147.75 78.77 147.72 78.84 147.79 78.93 147.79 78.97 147.75 79.06"/><polygon class="a" points="148.69 80.49 148.84 80.42 148.75 80.36 148.67 80.42 148.69 80.49"/><polygon class="a" points="148.91 79.19 149.02 79.22 149.14 79.31 149.2 79.26 149.18 79.24 149.09 79.17 148.96 79.15 148.91 79.15 148.84 79.13 148.75 79.08 148.69 79.19 148.75 79.22 148.91 79.19"/><polygon class="a" points="146.04 75.91 145.98 75.88 145.96 75.91 145.93 75.95 146.02 76.04 146.02 76.13 146.09 76.17 146.18 76.42 146.27 76.51 146.25 76.58 146.16 76.64 146.13 76.69 146.16 76.69 146.29 76.67 146.38 76.67 146.38 76.6 146.16 76.29 146.16 76.24 146.04 75.91"/><polygon class="a" points="146.31 78.03 146.29 78.08 146.4 78.14 146.58 78.21 146.69 78.5 146.72 78.46 146.72 78.3 146.63 78.19 146.49 78.1 146.47 77.83 146.4 77.67 146.36 77.54 146.27 77.36 146.27 77.47 146.29 77.49 146.31 77.63 146.4 77.83 146.43 77.92 146.4 78.01 146.31 78.03"/><polygon class="a" points="147.39 76.71 147.32 76.73 147.25 76.93 147.32 76.93 147.43 76.78 147.41 76.71 147.39 76.71"/><polygon class="a" points="144.48 73.02 144.41 72.97 144.32 72.84 144.23 72.75 144.07 72.73 143.94 72.7 143.85 72.68 143.74 72.75 143.92 72.75 144.25 72.82 144.41 73.15 144.52 73.24 144.54 73.33 144.5 73.42 144.5 73.51 144.43 73.62 144.41 73.8 144.34 73.89 144.19 74 144.28 74.05 144.34 74.18 144.39 74.16 144.43 74.09 144.52 73.69 144.7 73.56 144.72 73.29 144.61 73.17 144.52 73.13 144.5 73.09 144.52 73.04 144.48 73.02"/><polygon class="a" points="145.49 75.19 145.33 74.99 145.17 74.92 144.99 74.76 144.93 74.65 144.9 74.67 144.88 74.76 144.81 74.85 144.93 74.83 145.01 74.85 145.15 74.97 145.31 75.01 145.37 75.14 145.51 75.28 145.51 75.41 145.42 75.55 145.4 75.7 145.26 75.73 145.28 75.75 145.35 75.81 145.37 75.91 145.42 75.95 145.42 75.79 145.49 75.61 145.57 75.32 145.55 75.26 145.49 75.19"/><polygon class="a" points="143.72 73.04 143.69 72.97 143.51 73.02 143.29 73 143.25 73.04 143.16 73.04 143.02 73 142.91 72.91 142.86 73 142.86 73.02 142.84 73.09 142.73 73.17 142.62 73.2 142.46 73.06 142.42 73.04 142.59 73.29 142.66 73.31 142.75 73.31 142.95 73.24 143.31 73.13 143.69 73.09 143.72 73.04"/><polygon class="a" points="143.83 75.37 143.78 75.41 143.81 75.44 143.89 75.46 144.03 75.44 144.14 75.39 144.07 75.35 143.92 75.35 143.83 75.37"/><polygon class="a" points="143.51 77.25 143.6 77.07 143.6 77 143.6 76.98 143.6 76.93 143.6 76.89 143.6 76.69 143.54 76.58 143.45 76.71 143.36 76.64 143.49 76.55 143.49 76.53 143.45 76.47 143.38 76.51 143.27 76.51 143.22 76.53 143.13 76.53 143.07 76.58 143.16 76.75 143.22 76.82 143.25 77.05 143.29 77.07 143.27 77.22 143.51 77.25"/><polygon class="a" points="161.25 64.96 161.23 64.96 161.12 65.08 160.99 65.12 161.01 65.14 161.03 65.14 161.16 65.1 161.25 64.96"/><polygon class="a" points="164.28 92.11 164.28 92.33 164.3 92.4 164.41 92.46 164.46 92.42 164.55 92.33 164.48 92.26 164.35 92.08 164.28 92.11"/><polygon class="a" points="294.42 128.65 294.44 128.6 294.47 128.45 294.4 128.25 294.38 128.25 294.33 128.27 294.31 128.31 294.29 128.38 294.22 128.38 294.18 128.38 294.09 128.38 294.27 128.49 294.38 128.6 294.42 128.65"/><polygon class="a" points="293.03 127.24 292.97 127.24 292.94 127.26 292.92 127.33 292.85 127.78 292.94 127.91 293.01 127.93 293.12 128.02 293.15 128 293.19 127.93 293.15 127.78 293.06 127.6 293.08 127.28 293.03 127.24"/><polygon class="a" points="293.62 128.67 293.53 128.58 293.44 128.49 293.35 128.49 293.35 128.54 293.37 128.63 293.62 128.67"/><polygon class="a" points="209.39 89.47 209.26 89.31 209.26 89.24 209.19 89.22 209.19 89.26 209.19 89.35 209.15 89.47 209.15 89.58 209.24 89.76 209.32 89.8 209.48 89.82 209.57 89.69 209.46 89.49 209.39 89.47"/><polygon class="a" points="210.47 87.97 210.4 87.94 210.38 87.97 210.27 87.94 210.27 88.06 210.2 88.21 210.31 88.28 210.38 88.3 210.51 88.21 210.56 88.1 210.53 88.03 210.47 87.97"/><polygon class="a" points="207.73 86.71 207.69 86.6 207.58 86.58 207.31 86.71 207.29 86.76 207.31 86.83 207.33 86.94 207.38 86.96 207.51 86.92 207.69 86.78 207.73 86.71"/><polygon class="a" points="209.86 89.24 209.82 89.33 209.82 89.35 209.82 89.44 209.86 89.51 209.88 89.51 209.97 89.47 209.97 89.31 209.95 89.24 209.86 89.24"/><polygon class="a" points="207.71 86.98 207.62 87.03 207.6 87.09 207.69 87.14 207.73 87.14 207.85 87.12 207.85 87.07 207.78 86.96 207.71 86.98"/><polygon class="a" points="208.38 89.64 208.25 89.73 208.23 89.8 208.25 89.87 208.32 89.94 208.38 89.96 208.47 89.89 208.5 89.8 208.45 89.67 208.38 89.64"/><polygon class="a" points="208.83 87.39 208.61 87.36 208.47 87.32 208.45 87.32 208.45 87.39 208.54 87.56 208.59 87.45 208.63 87.43 208.81 87.47 208.9 87.45 208.88 87.43 208.83 87.39"/><polygon class="a" points="210.27 87.07 210.2 87.12 210.22 87.27 210.24 87.3 210.29 87.41 210.33 87.34 210.31 87.23 210.31 87.07 210.27 87.07"/><polygon class="a" points="140.06 82.93 140.04 82.93 139.93 83 139.97 83 140.02 82.98 140.13 82.93 140.11 82.91 140.09 82.91 140.06 82.93"/><polygon class="a" points="139.73 83 139.71 83 139.68 83 139.66 83.02 139.64 83.04 139.68 83.04 139.77 83 139.82 83 139.84 83 139.82 82.98 139.79 82.98 139.73 83"/><polygon class="a" points="138.14 83.51 138.09 83.54 138.05 83.51 138.03 83.45 138 83.47 138 83.6 138.12 83.6 138.16 83.6 138.23 83.56 138.36 83.56 138.34 83.51 138.16 83.49 138.14 83.51"/><polygon class="a" points="162.28 89.13 162.31 89.38 162.42 89.33 162.49 89.17 162.46 88.95 162.42 88.86 162.24 88.8 162.24 88.84 162.22 88.95 162.28 89.13"/><polygon class="a" points="174.51 184.19 174.58 184.15 174.6 184.1 174.63 184.03 174.69 183.99 174.69 183.92 174.6 183.88 174.54 183.83 174.47 183.9 174.43 183.88 174.22 183.94 174.13 183.94 174.07 183.9 173.98 183.88 173.89 183.9 173.78 184.01 173.6 183.97 173.4 183.9 173.31 183.83 173.24 183.83 173.33 183.92 173.35 183.97 173.37 184.01 173.51 184.08 173.64 184.15 173.73 184.21 173.71 184.24 173.53 184.3 173.46 184.3 173.42 184.32 173.51 184.37 173.64 184.35 173.69 184.32 173.73 184.32 173.8 184.35 173.8 184.39 173.78 184.44 173.73 184.48 173.64 184.55 173.51 184.64 173.33 184.64 173.17 184.79 173.37 184.91 173.53 184.97 173.73 184.97 173.73 184.95 173.78 184.93 173.84 184.93 173.87 184.91 173.91 184.82 173.91 184.68 173.96 184.68 174.02 184.71 174.18 184.68 174.25 184.66 174.38 184.46 174.47 184.28 174.51 184.19"/><polygon class="a" points="173.75 183.88 173.78 183.81 173.75 183.76 173.64 183.72 173.53 183.72 173.57 183.83 173.62 183.88 173.75 183.88"/><polygon class="a" points="174.51 184.91 174.47 184.88 174.49 184.93 174.51 185 174.54 185.04 174.58 185.06 174.63 185.02 174.6 184.95 174.51 184.91"/><polygon class="a" points="176.28 184.17 176.17 184.15 176.19 184.08 176.31 184.06 176.13 183.9 176.06 183.88 175.84 183.9 175.77 183.92 175.77 183.97 175.79 184.03 175.86 184.1 175.88 184.15 175.84 184.12 175.59 184.03 175.55 184.01 175.5 183.92 175.55 183.9 175.61 183.92 175.63 183.85 175.55 183.79 175.46 183.76 175.25 183.79 175.07 183.72 174.99 183.72 175.07 183.83 174.9 184.01 174.94 184.15 175.01 184.24 175.03 184.28 175.01 184.3 174.92 184.32 174.85 184.35 174.81 184.41 174.6 184.62 174.65 184.66 174.58 184.82 174.63 184.88 174.81 185.04 174.99 185.13 174.99 184.97 175.07 184.95 175.16 185 175.25 184.95 175.05 184.73 175.12 184.73 175.68 184.84 175.66 184.75 175.63 184.71 175.57 184.62 175.9 184.53 176.02 184.46 176.06 184.39 176.19 184.37 176.37 184.3 176.35 184.28 176.37 184.21 176.28 184.17"/><polygon class="a" points="173.06 184.44 172.97 184.41 172.95 184.46 172.86 184.48 172.9 184.55 173.04 184.64 173.13 184.64 173.15 184.57 173.13 184.44 173.06 184.44"/><polygon class="a" points="175.84 184.71 175.79 184.71 175.77 184.75 175.81 184.82 175.9 184.84 175.86 184.73 175.84 184.71"/><polygon class="a" points="232.22 24.41 232.24 24.37 232.24 24.35 232.19 24.3 232.08 24.26 232.04 24.23 231.99 24.26 231.99 24.3 232.02 24.32 232.11 24.35 232.19 24.41 232.22 24.41"/><polygon class="a" points="232.42 23.88 232.49 23.79 232.42 23.74 232.33 23.65 232.33 23.77 232.33 23.83 232.33 23.86 232.35 23.86 232.42 23.88"/><polygon class="a" points="232.06 24.15 232.15 24.19 232.15 24.17 232.15 24.12 232.06 24.01 232.04 23.99 232.04 23.97 232.06 23.94 232.11 23.94 232.17 23.99 232.22 23.99 232.26 23.83 232.08 23.79 231.95 23.72 231.72 23.74 231.88 23.99 232.06 24.15"/><polygon class="a" points="232.08 24.66 231.97 24.64 231.95 24.59 231.93 24.59 231.93 24.64 231.95 24.73 232.06 24.82 232.13 24.86 232.15 24.86 232.13 24.84 232.13 24.77 232.11 24.7 232.11 24.66 232.08 24.66"/><polygon class="a" points="231.63 24.06 231.7 24.06 231.77 24.06 231.81 24.03 231.79 23.99 231.7 23.94 231.66 23.92 231.55 23.94 231.48 23.94 231.5 24.01 231.63 24.06"/><polygon class="a" points="161.59 93.94 161.7 93.9 161.75 93.65 161.68 93.63 161.61 93.69 161.55 93.81 161.55 93.9 161.5 93.96 161.59 93.94"/><polygon class="a" points="160.96 86.47 160.94 86.44 160.9 86.36 160.81 86.27 160.76 86.29 160.74 86.33 160.74 86.36 160.81 86.42 160.9 86.44 160.94 86.53 160.99 86.51 160.96 86.47"/><polygon class="a" points="161.1 86.67 161.1 86.6 161.05 86.56 160.99 86.56 160.99 86.67 161.03 86.71 161.1 86.67"/><polygon class="a" points="162.78 91.37 162.8 91.1 162.78 90.99 162.73 91.01 162.67 91.1 162.58 91.23 162.55 91.3 162.55 91.44 162.69 91.52 162.78 91.37"/><polygon class="a" points="331.14 106.36 331.11 106.41 331.11 106.43 331.11 106.45 331.16 106.45 331.18 106.43 331.18 106.38 331.16 106.36 331.14 106.36"/><polygon class="a" points="331.2 105.06 331.2 105.09 331.18 105.11 331.18 105.13 331.2 105.13 331.23 105.13 331.25 105.09 331.25 105.06 331.25 105.04 331.25 105.02 331.25 105 331.23 105.02 331.2 105.06"/><polygon class="a" points="255.74 59.82 255.76 59.95 255.85 60.04 255.96 60.04 256.01 59.99 255.96 59.95 255.85 59.84 255.74 59.82"/><polygon class="a" points="255.54 59.68 255.56 59.7 255.63 59.75 255.69 59.73 255.69 59.68 255.63 59.66 255.54 59.68"/><polygon class="a" points="161.48 87.12 161.43 87.21 161.43 87.27 161.5 87.3 161.52 87.23 161.5 87.12 161.48 87.12"/><polygon class="a" points="310.08 139.5 309.97 139.52 309.9 139.61 309.86 139.73 309.74 139.79 309.72 139.86 309.68 140.02 309.65 140.11 309.61 140.13 309.61 140.17 309.68 140.24 309.86 140.26 310.01 140.22 310.08 140.15 310.13 140.06 310.19 139.99 310.21 139.84 310.17 139.66 310.08 139.5"/><polygon class="a" points="445.87 141.81 445.89 141.87 445.94 141.87 446.09 141.83 446.16 141.58 446.07 141.58 446.03 141.56 446 141.54 446 141.47 446.03 141.43 445.94 141.47 445.8 141.52 445.82 141.69 445.8 141.78 445.87 141.81"/><polygon class="a" points="444.95 143.31 445 143.26 445 143.19 444.91 143.15 444.86 143.26 444.86 143.28 444.91 143.31 444.95 143.31"/><polygon class="a" points="445 140.84 445.02 140.96 445.06 141.05 445.22 141.09 445.29 141.18 445.35 141.18 445.42 141.07 445.44 141.02 445.4 140.87 445.33 140.8 445.4 140.58 445.38 140.53 445.29 140.49 445.08 140.55 445.06 140.6 445.17 140.62 445.22 140.67 445.11 140.82 445 140.84"/><polygon class="a" points="441.86 139.97 441.73 139.88 441.59 139.73 441.57 139.77 441.55 139.86 441.55 139.93 441.61 139.97 441.63 140.02 441.61 140.13 441.61 140.22 441.75 140.42 441.77 140.58 441.84 140.71 441.95 140.82 442.04 140.93 442.22 141.25 442.26 141.36 442.35 141.43 442.58 141.69 442.67 141.78 442.75 141.83 442.96 141.99 443.09 142.05 443.16 142.16 443.29 142.23 443.47 142.32 443.49 142.37 443.49 142.43 443.52 142.5 443.63 142.59 443.76 142.66 443.79 142.7 443.81 142.75 443.88 142.72 443.94 142.75 444.14 142.9 444.23 142.88 444.3 142.88 444.41 142.84 444.48 142.75 444.46 142.5 444.35 142.39 444.19 142.3 444.1 142.19 444.01 142.08 443.83 141.85 443.58 141.63 443.47 141.58 443.4 141.49 443.34 141.47 443.29 141.4 443.18 141.34 443.11 141.2 442.98 141.07 442.96 141 442.98 140.93 442.96 140.87 442.87 140.8 442.82 140.69 442.78 140.62 442.69 140.58 442.53 140.49 442.17 140.06 442.02 139.93 441.86 139.97"/><polygon class="a" points="444.55 140.46 444.61 140.38 444.59 140.35 444.59 140.28 444.64 140.2 444.7 140.17 444.66 140.13 444.61 140.11 444.61 140.17 444.55 140.33 444.52 140.4 444.41 140.53 444.48 140.53 444.55 140.46"/><polygon class="a" points="436.77 138.59 436.8 138.54 436.84 138.45 436.86 138.27 436.82 138.36 436.77 138.59"/><polygon class="a" points="448.92 111.75 448.89 111.8 448.92 111.82 448.94 111.84 448.96 111.8 448.96 111.75 448.94 111.75 448.92 111.75"/><polygon class="a" points="81.35 145.68 81.33 145.7 81.35 145.75 81.4 145.79 81.42 145.81 81.42 145.79 81.42 145.75 81.4 145.7 81.35 145.68"/><polygon class="a" points="157.45 85.24 157.47 85.28 157.51 85.28 157.63 85.28 157.78 85.24 157.78 85.21 157.69 85.19 157.56 85.19 157.45 85.24"/><polygon class="a" points="154.58 85.35 154.58 85.33 154.6 85.33 154.6 85.3 154.62 85.28 154.62 85.26 154.6 85.26 154.53 85.26 154.51 85.26 154.51 85.28 154.51 85.3 154.56 85.33 154.56 85.35 154.58 85.35"/><polygon class="a" points="155.41 85.44 155.47 85.48 155.63 85.46 155.7 85.48 155.77 85.5 155.86 85.48 155.95 85.44 156.15 85.46 156.26 85.44 156.39 85.5 156.48 85.48 156.53 85.5 156.59 85.5 156.73 85.5 156.93 85.46 157.11 85.35 157.18 85.24 157.27 85.17 157.4 85.08 157.4 84.88 157.25 84.86 157.11 84.79 156.86 84.77 156.84 84.77 156.86 84.81 156.84 84.81 156.8 84.79 156.77 84.74 156.73 84.74 155.95 84.72 155.65 84.68 155.59 84.7 155.52 84.72 155.5 84.81 155.45 84.86 155.39 84.9 155.41 84.97 155.43 85.01 155.47 85.1 155.45 85.21 155.41 85.44"/><polygon class="a" points="68.79 137.06 68.94 137.2 68.94 137.18 68.85 137.06 68.79 137.06"/><polygon class="a" points="64.22 137.15 64.24 137.2 64.33 137.24 64.37 137.26 64.35 137.22 64.22 137.15"/><polygon class="a" points="63.12 123.68 63.12 123.64 63.1 123.59 62.9 123.55 62.87 123.57 62.87 123.66 62.92 123.77 62.99 123.77 63.1 123.75 63.12 123.68"/><polygon class="a" points="64.02 136.86 63.97 136.79 63.9 136.77 63.93 136.79 64.02 136.88 64.08 136.97 64.13 137 64.11 136.95 64.02 136.86"/><polygon class="a" points="63.7 123.66 63.68 123.68 63.66 123.73 63.68 123.79 63.75 123.77 63.81 123.75 63.81 123.73 63.77 123.68 63.7 123.66"/><polygon class="a" points="63.08 124.38 63.08 124.42 63.14 124.51 63.16 124.46 63.21 124.35 63.16 124.33 63.08 124.38"/><polygon class="a" points="64.06 136.28 64.02 136.32 63.99 136.37 63.97 136.44 63.99 136.48 64.02 136.5 64.06 136.5 64.04 136.48 64.02 136.46 64.02 136.39 64.06 136.32 64.19 136.24 64.19 136.21 64.15 136.24 64.06 136.28"/><polygon class="a" points="69.71 137.38 69.66 137.35 69.62 137.33 69.59 137.35 69.62 137.38 69.64 137.38 69.71 137.42 69.77 137.44 69.82 137.47 69.82 137.49 69.84 137.47 69.8 137.42 69.71 137.38"/><polygon class="a" points="67.69 140.62 67.67 140.64 67.69 140.67 67.73 140.73 67.73 140.78 67.76 140.75 67.73 140.69 67.69 140.62"/><polygon class="a" points="64.53 124.84 64.35 124.96 64.4 125.05 64.49 125.07 64.53 125.02 64.71 125 64.78 124.91 64.71 124.93 64.53 124.84"/><polygon class="a" points="64.44 125.16 64.42 125.18 64.42 125.29 64.51 125.2 64.49 125.16 64.44 125.16"/><polygon class="a" points="65.05 125.9 65.07 126.05 65.11 126.03 65.14 125.99 65.14 125.94 65.11 125.92 65.05 125.9"/><polygon class="a" points="60.39 134.71 60.32 134.71 60.3 134.71 60.41 134.74 60.5 134.78 60.43 134.71 60.39 134.71"/><polygon class="a" points="50.49 134.89 50.49 134.91 50.49 135.07 50.55 135.09 50.6 135.07 50.64 135.07 50.55 134.94 50.49 134.89"/><polygon class="a" points="52.64 135.92 52.64 135.97 52.66 136.01 52.68 136.03 52.75 136.08 52.77 136.03 52.79 135.94 52.75 135.92 52.64 135.92"/><polygon class="a" points="50.46 134.69 50.37 134.65 50.4 134.71 50.4 134.76 50.44 134.78 50.46 134.76 50.49 134.71 50.46 134.69"/><polygon class="a" points="53.42 136.24 53.38 136.1 53.31 135.99 53.13 135.97 53.02 136.01 52.99 136.06 53.02 136.15 53.13 136.3 53.24 136.32 53.42 136.3 53.51 136.44 53.55 136.46 53.65 136.48 53.67 136.41 53.62 136.3 53.42 136.24"/><polygon class="a" points="60.14 134.67 60.07 134.67 60.23 134.74 60.27 134.74 60.21 134.71 60.14 134.67"/><polygon class="a" points="57.7 134.15 57.65 134.06 57.56 133.95 57.59 134.02 57.61 134.06 57.65 134.11 57.7 134.2 57.72 134.24 57.79 134.33 57.81 134.33 57.81 134.31 57.74 134.22 57.7 134.15"/><polygon class="a" points="61.42 133.97 61.44 133.97 61.46 133.86 61.42 133.86 61.42 133.97"/><polygon class="a" points="58.06 133.48 58.08 133.53 58.19 133.64 58.21 133.68 58.21 133.62 58.08 133.48 58.06 133.48"/><polygon class="a" points="436.44 122.38 436.37 122.43 436.24 122.58 436.19 122.67 436.08 122.74 436.06 122.81 436.06 122.9 436.15 122.92 436.21 122.83 436.42 122.81 436.48 122.83 436.48 122.92 436.51 123.08 436.57 123.14 436.69 123.19 436.77 123.32 436.8 123.26 436.84 123.26 436.89 123.17 436.82 122.9 436.75 122.79 436.62 122.74 436.57 122.67 436.57 122.45 436.44 122.38"/><polygon class="a" points="437.18 123.61 437.22 123.61 437.29 123.57 437.27 123.53 437.25 123.41 437.15 123.57 437.18 123.61"/><polygon class="a" points="436.44 123.44 436.39 123.44 436.28 123.46 436.3 123.48 436.44 123.55 436.51 123.57 436.53 123.53 436.51 123.48 436.44 123.44"/><polygon class="a" points="436.86 123.28 436.84 123.39 436.89 123.48 436.98 123.53 437.11 123.41 437.11 123.37 437.11 123.32 437.07 123.3 437.15 123.23 437.13 123.21 437 123.17 436.95 123.21 436.91 123.23 436.89 123.26 436.86 123.28"/><polygon class="a" points="436.06 122.47 436.06 122.36 436.01 122.27 435.97 122.23 435.86 122.25 435.77 122.36 435.77 122.47 435.86 122.61 435.99 122.61 436.01 122.61 436.06 122.56 436.06 122.47"/><polygon class="a" points="436.21 123.23 436.26 123.12 436.24 123.03 436.19 123.06 436.04 123.19 436.01 123.26 436.15 123.44 436.21 123.48 436.21 123.46 436.15 123.37 436.17 123.26 436.21 123.23"/><polygon class="a" points="435.34 122.25 435.39 122.27 435.41 122.36 435.43 122.34 435.48 122.27 435.59 122.11 435.61 122.05 435.5 122 435.41 121.89 435.32 121.85 435.25 121.94 435.25 122.03 435.36 122.16 435.34 122.25"/><polygon class="a" points="435.56 120.88 435.81 121.27 436.04 121.49 436.21 121.51 436.3 121.51 436.3 121.53 436.33 121.58 436.44 121.62 436.55 121.53 436.51 121.49 436.48 121.47 436.42 121.47 436.33 121.42 436.17 121.24 436.13 121.17 436.08 120.95 435.99 120.86 435.68 120.68 435.5 120.5 435.34 120.46 435.3 120.5 435.3 120.62 435.34 120.68 435.56 120.88"/><polygon class="a" points="438.39 123.86 438.34 123.86 438.27 123.91 438.23 123.97 438.25 124.02 438.34 124.02 438.39 124.04 438.41 124.04 438.48 124 438.48 123.91 438.41 123.91 438.39 123.86"/><polygon class="a" points="447.53 127.69 447.64 127.67 447.59 127.62 447.57 127.53 447.5 127.53 447.44 127.55 447.48 127.69 447.53 127.69"/><polygon class="a" points="446.47 126.48 446.52 126.5 446.63 126.39 446.7 126.39 446.72 126.39 446.83 126.37 446.83 126.34 446.88 126.28 446.83 126.25 446.72 126.23 446.56 126.25 446.5 126.3 446.45 126.37 446.41 126.37 446.41 126.41 446.43 126.5 446.47 126.48"/><polygon class="a" points="441.1 124.84 441.14 124.89 441.19 124.84 441.28 124.96 441.28 124.91 441.28 124.75 441.14 124.4 441.1 124.38 441.12 124.51 441.14 124.6 441.12 124.71 441.1 124.84"/><polygon class="a" points="434.27 121.15 434.36 121.2 434.47 121.15 434.51 121.09 434.36 120.97 434.31 121.04 434.27 121.15"/><polygon class="a" points="440.87 125.58 440.85 125.69 440.85 125.76 440.99 125.76 441.07 125.81 441.07 125.94 441.12 125.99 441.12 126.1 441.39 126.3 441.55 126.39 441.7 126.41 441.79 126.46 441.9 126.43 442.02 126.48 442.11 126.46 442.02 126.39 442.02 126.3 441.9 126.01 441.84 125.94 441.73 125.96 441.61 125.92 441.52 125.92 441.37 125.85 441.34 125.81 441.3 125.78 441.1 125.63 440.99 125.58 440.87 125.58"/><polygon class="a" points="440.34 123.32 440.43 123.82 440.51 124.08 440.69 124.26 440.69 124.31 440.87 124.42 441.01 124.71 441.05 124.73 441.07 124.69 441.07 124.55 440.96 124.31 440.99 124.13 440.94 124.06 440.94 124 440.9 123.82 440.76 123.66 440.69 123.64 440.65 123.57 440.69 123.44 440.74 123.39 440.76 123.32 440.47 122.9 440.43 122.9 440.4 122.92 440.36 122.92 440.29 122.92 440.27 122.97 440.4 123.21 440.34 123.32"/><polygon class="a" points="439.01 122.99 438.97 123.01 438.95 123.08 438.97 123.12 439.06 123.19 439.13 123.17 439.08 123.08 439.08 123.03 439.01 122.99"/><polygon class="a" points="437.83 121.94 437.85 122.09 437.96 122.18 438.07 122.32 438.12 122.34 438.16 122.38 438.25 122.5 438.43 122.58 438.61 122.72 438.68 122.74 438.75 122.81 439.08 122.97 439.19 123.12 439.35 123.23 439.35 123.21 439.33 123.1 439.26 123.01 439.35 122.9 438.86 122.47 438.79 122.43 438.7 122.41 438.59 122.32 438.48 122.29 438.37 122.2 438.32 122.14 438.19 122.05 438.05 121.87 437.71 121.8 437.74 121.85 437.83 121.94"/><polygon class="a" points="439.73 124.04 439.75 124.11 439.8 124.08 439.89 124.13 439.93 124.06 439.84 123.95 439.75 123.88 439.73 123.88 439.66 123.86 439.55 123.91 439.55 123.97 439.64 124 439.73 124.04"/><polygon class="a" points="435.3 122.7 435.32 122.58 435.3 122.38 435.25 122.41 435.25 122.45 435.23 122.54 435.27 122.72 435.3 122.7"/><polygon class="a" points="440.2 125.16 440.31 125.11 440.34 125.09 440.31 124.96 440.27 124.89 440.18 124.84 440.13 124.71 440.02 124.62 439.82 124.47 439.46 124.47 439.33 124.49 439.08 124.26 439.01 124.24 438.93 124.31 438.9 124.38 438.88 124.53 438.88 124.62 438.95 124.78 439.01 124.89 439.08 124.96 439.13 125 439.33 125.02 439.71 125.05 439.91 125.14 440.11 125.18 440.2 125.16"/><polygon class="a" points="439.53 127.71 439.1 127.42 439.01 127.4 438.99 127.42 438.97 127.49 438.99 127.53 439.1 127.55 439.1 127.58 439.17 127.62 439.33 127.67 439.42 127.73 439.44 127.84 439.51 127.87 439.57 127.89 439.66 127.84 439.64 127.8 439.53 127.71"/><polygon class="a" points="247.11 110.48 247 110.57 246.93 110.66 246.93 110.72 246.96 110.88 246.98 110.95 247.05 110.99 247.16 110.88 247.27 110.7 247.27 110.59 247.2 110.48 247.11 110.48"/><polygon class="a" points="248.12 108.64 248.08 108.67 248.01 108.78 248.03 108.82 248.08 108.87 248.12 108.82 248.17 108.73 248.17 108.69 248.14 108.67 248.12 108.64"/><polygon class="a" points="160.58 85.39 160.6 85.37 160.6 85.33 160.47 85.33 160.51 85.37 160.58 85.39"/><polygon class="a" points="308.42 117.62 308.47 117.68 308.53 117.73 308.56 117.82 308.62 117.86 308.62 117.73 308.51 117.55 308.42 117.62"/><polygon class="a" points="150.08 79.89 150.1 79.93 150.17 79.98 150.19 79.96 150.17 79.93 150.14 79.8 150.03 79.8 150.03 79.84 150.05 79.89 150.08 79.89"/><polygon class="a" points="150.44 80.07 150.48 80.02 150.44 79.98 150.28 79.93 150.23 79.96 150.23 80.02 150.37 80.02 150.44 80.09 150.44 80.07"/><polygon class="a" points="149.81 80.05 149.85 80.02 149.85 80 149.76 80.02 149.63 79.93 149.61 80.02 149.61 80.07 149.65 80.09 149.79 80.07 149.81 80.05"/><polygon class="a" points="23.11 137.49 23.05 137.6 23.07 137.62 23.14 137.67 23.16 137.67 23.18 137.6 23.2 137.56 23.2 137.51 23.14 137.49 23.11 137.49"/><polygon class="a" points="22.64 141.18 22.62 141.18 22.58 141.18 22.62 141.16 22.53 141.11 22.44 141.11 22.4 141.09 22.4 141.05 22.35 141.11 22.4 141.18 22.6 141.27 22.67 141.31 22.71 141.18 22.71 141.14 22.64 141.16 22.64 141.18"/><polygon class="a" points="22.93 141.45 22.93 141.49 23.02 141.58 22.98 141.38 22.93 141.45"/><polygon class="a" points="163 95.02 163.02 94.93 162.98 94.93 162.8 94.99 162.67 95.11 162.67 95.15 162.73 95.13 163 95.02"/><polygon class="a" points="162.35 95.87 162.4 95.8 162.51 95.62 162.31 95.62 162.17 95.66 161.93 95.69 161.81 95.73 161.66 95.75 161.57 95.8 161.59 95.82 161.7 95.87 161.75 95.91 161.77 95.95 161.79 96.05 161.72 96.42 161.7 96.45 161.57 96.47 161.52 96.54 161.21 96.72 161.39 96.69 161.59 96.72 162.13 96.69 162.33 96.63 162.35 96.58 162.35 96.45 162.4 96.36 162.35 96.27 162.33 96.13 162.35 96.02 162.35 95.87"/><polygon class="a" points="162.35 92.31 162.42 92.26 162.44 92.13 162.42 92.04 162.37 92.04 162.31 92.06 162.26 92.13 162.24 92.24 162.33 92.33 162.35 92.31"/><rect class="a" x="162.1" y="92.96" width="0.02" height="0.02"/><polygon class="a" points="162.13 92.93 162.13 92.96 162.15 92.96 162.15 92.93 162.15 92.91 162.13 92.91 162.13 92.93"/><polygon class="a" points="162.26 92.51 162.26 92.53 162.26 92.55 162.24 92.55 162.26 92.58 162.28 92.55 162.31 92.51 162.33 92.49 162.31 92.46 162.31 92.49 162.26 92.51"/><polygon class="a" points="159.13 84.41 159.13 84.36 159.08 84.36 158.97 84.36 158.99 84.39 159.06 84.39 159.13 84.41"/><polygon class="a" points="158.88 84.75 158.9 84.77 158.93 84.77 158.95 84.77 159.04 84.68 158.93 84.7 158.88 84.75"/><polygon class="a" points="158.77 84.81 158.72 84.79 158.63 84.79 158.57 84.83 158.59 84.86 158.7 84.86 158.77 84.81"/><polygon class="a" points="158.37 84.95 158.32 84.9 158.25 84.88 158.16 84.9 158.28 84.97 158.37 84.95"/><polygon class="a" points="158.61 84.92 158.5 84.9 158.45 84.95 158.52 84.97 158.61 84.92"/><polygon class="a" points="158.63 85.77 158.5 85.77 158.41 85.71 158.25 85.75 158.23 85.84 158.48 85.84 158.63 85.77"/><polygon class="a" points="279.57 60.38 279.68 60.26 279.5 60.31 279.37 60.4 279.28 60.44 279.12 60.53 278.61 60.71 278.43 60.73 278.25 60.73 278.03 60.71 277.82 60.67 277.82 60.82 277.78 60.96 277.64 61 277.58 60.98 277.51 60.96 277.4 61 277.31 61.09 277.22 61.16 277.11 61.09 277.15 61.29 277.29 61.54 277.33 61.6 277.4 61.65 277.64 61.72 277.71 61.72 277.85 61.72 277.89 61.74 277.94 61.83 278.03 61.83 278.03 61.81 278.03 61.74 278.07 61.7 278.14 61.65 278.2 61.65 278.34 61.63 278.47 61.58 278.59 61.49 278.79 61.27 278.85 61.27 278.92 61.27 279.06 61.27 279.19 61.25 279.15 61.16 279.12 61.13 279.03 61.02 278.99 60.93 279.01 60.8 279.57 60.38"/><polygon class="a" points="307.5 140.82 307.41 140.78 307.24 140.76 307.08 140.82 306.99 140.96 306.94 141.02 307.03 141.27 307.08 141.34 307.32 141.47 307.44 141.47 307.62 141.43 307.66 141.34 307.68 141.16 307.59 140.98 307.5 140.82"/><polygon class="a" points="295.09 129.41 295.12 129.5 295.16 129.54 295.23 129.52 295.23 129.46 295.27 129.34 295.27 129.32 295.3 129.21 295.23 129.14 295.18 129.14 295.14 129.07 295.07 129.14 295.14 129.25 295.12 129.32 295.09 129.41"/><polygon class="a" points="162.58 90.23 162.69 90.27 162.6 90.36 162.6 90.38 162.62 90.45 162.82 90.45 162.87 90.52 162.89 90.5 162.91 90.41 162.87 90.25 162.84 90.2 162.8 90.14 162.82 90.07 162.82 90.05 162.78 90.05 162.71 89.94 162.58 89.87 162.51 89.87 162.46 89.91 162.46 89.98 162.53 90.18 162.58 90.23"/><polygon class="a" points="162.46 88.35 162.46 88.42 162.49 88.44 162.55 88.44 162.6 88.39 162.6 88.33 162.55 88.26 162.51 88.28 162.46 88.35"/><polygon class="a" points="162.17 87.94 162.19 87.88 162.15 87.86 162.11 87.81 161.97 87.77 161.95 87.79 161.9 87.86 161.93 88.19 161.97 88.3 162.02 88.33 162.13 88.26 162.17 88.21 162.17 87.94"/><polygon class="a" points="162.24 87.94 162.33 87.97 162.49 87.94 162.67 87.9 162.46 87.77 162.42 87.68 162.42 87.61 162.33 87.54 162.28 87.59 162.26 87.65 162.28 87.77 162.22 87.86 162.24 87.94"/><polygon class="a" points="153.41 93.92 153.48 93.76 153.48 93.63 153.28 93.54 153.28 93.61 153.3 93.65 153.37 93.67 153.39 93.72 153.37 93.85 153.41 93.92"/><polygon class="a" points="217.25 70.06 217.19 69.98 217.03 69.98 216.94 70.11 217.07 70.38 217.1 70.49 217.12 70.49 217.23 70.38 217.25 70.31 217.23 70.2 217.28 70.16 217.25 70.06"/><polygon class="a" points="220.05 70.96 220.03 70.96 220.01 70.98 219.72 70.96 219.67 71.09 219.56 71.18 219.56 71.34 219.67 71.5 219.74 71.52 219.85 71.54 220.01 71.45 220.05 71.36 220.08 71.18 220.05 71.09 220.05 70.98 220.05 70.96"/><polygon class="a" points="221.94 70.13 221.85 70.13 221.78 70.18 221.76 70.31 221.6 70.6 221.49 70.87 221.33 71 221.17 71.05 221.2 71.07 221.35 71.09 221.53 70.94 221.87 70.83 221.94 70.6 222 70.36 222 70.2 221.96 70.13 221.94 70.13"/><polygon class="a" points="222.14 69.89 222.34 69.82 222.45 69.75 222.47 69.55 222.52 69.48 222.47 69.42 222.43 69.46 222.38 69.55 222.25 69.59 222.07 69.69 222.03 69.75 221.98 69.95 222.07 69.98 222.14 69.89"/><polygon class="a" points="218.67 70.63 218.44 70.65 218.33 70.65 218.24 70.69 218.28 70.76 218.37 70.98 218.53 71.18 218.67 71.14 218.73 71.09 218.82 70.96 218.93 70.65 219.2 70.42 219.2 70.36 218.98 70.38 218.73 70.6 218.67 70.63"/><polygon class="a" points="217.03 71.45 216.99 71.41 216.83 71.52 216.69 71.52 216.72 71.56 216.74 71.61 216.9 71.7 217.03 71.45"/><polygon class="a" points="217.81 70.89 217.77 70.94 217.72 71.03 217.79 71.14 217.84 71.16 217.88 71.16 217.99 71.07 217.99 71.03 217.97 70.96 217.86 70.89 217.81 70.89"/><line class="b" y1="43.58" x2="245" y2="43.58"/><circle class="c" cx="246.5" cy="43.58" r="2.5"/></svg>